<?xml version="1.0" encoding="utf-8"?>
<!-- Generator: Adobe Illustrator 23.0.3, SVG Export Plug-In . SVG Version: 6.00 Build 0)  -->
<svg version="1.1" xmlns="http://www.w3.org/2000/svg" xmlns:xlink="http://www.w3.org/1999/xlink" x="0px" y="0px"
	 viewBox="0 0 1080 1440" style="enable-background:new 0 0 1080 1440;" xml:space="preserve">
<style type="text/css">
	.st0{fill:#F2F2F2;}
	.st1{font-family:'Roboto-Bold';}
	.st2{font-size:97.4104px;}
	.st3{font-size:97.4106px;}
	.st4{fill:none;}
	.st5{font-size:41.5619px;}
	.st6{font-size:18px;}
	.st7{font-family:'Roboto-Regular';}
	.st8{font-size:13px;}
	.st9{font-size:30px;}
	.st10{fill:#F4F4F4;}
	.st11{filter:url(#Adobe_OpacityMaskFilter);}
	.st12{opacity:0.65;mask:url(#SVGID_1_);}
	.st13{fill:#BA9BC9;}
	.st14{opacity:0.42;fill:#BA9BC9;}
	.st15{fill:#F2F2F2;stroke:#F2F2F2;stroke-miterlimit:10;}
	.st16{display:none;}
	.st17{display:inline;}
	.st18{fill:none;stroke:#0071BC;stroke-miterlimit:10;}
	.st19{display:inline;fill:none;stroke:#C1272D;stroke-miterlimit:10;}
</style>
<g id="poster1_serif">
	<rect id="bg_1_" x="-13.2" y="-15.3" width="1106.4" height="1458"/>
	<g>
		
			<image style="overflow:visible;" width="297" height="131" xlink:href="E0FAF9425AB8E5D5.png"  transform="matrix(1 0 0 1 327.0233 1184.5295)">
		</image>
		<g>
			<text transform="matrix(1 -1.250000e-03 1.250000e-03 1 327.9907 1269.3059)" class="st0 st1 st2">ROMS</text>
		</g>
	</g>
	<g>
		
			<image style="overflow:visible;" width="206" height="131" xlink:href="E0FAF9425AB8E5D7.png"  transform="matrix(1 0 0 1 364.0233 1108.5295)">
		</image>
		<g>
			<text transform="matrix(1 2.290000e-03 -2.290000e-03 1 365.3792 1193.057)" class="st0 st1 st3">THE</text>
		</g>
	</g>
	<g>
		
			<image style="overflow:visible;" width="237" height="123" xlink:href="E0FAF9425AB8E5D2.png"  transform="matrix(1 0 0 1 218.7372 834.2435)">
		</image>
		<g>
			<polygon class="st4" points="224.4,851.1 429.6,845.9 431.6,933 226.4,938.3 			"/>
			<text transform="matrix(1 8.200000e-03 -8.200000e-03 1 225.0901 879.7681)"><tspan x="0" y="0" class="st0 st1 st5">BBC</tspan><tspan x="1.3" y="40.9" class="st0 st1 st5">presents</tspan></text>
		</g>
	</g>
	<rect x="94" y="226.7" class="st4" width="357.8" height="193.3"/>
	<text transform="matrix(1 0 0 1 116.7275 242.135)"><tspan x="0" y="0" class="st0 st1 st6">An eight-week summer season of daily  </tspan><tspan x="-10.9" y="24" class="st0 st1 st6">orchestral classical music concerts at the  </tspan><tspan x="52.1" y="48" class="st0 st1 st6">Royal Albert Hall, London. </tspan><tspan x="33.2" y="72" class="st0 st1 st6">July 18 – September 13, 2014, </tspan><tspan x="86.8" y="96" class="st0 st1 st6">Royal Albert Hall,  </tspan><tspan x="97.2" y="120" class="st0 st1 st6">Knightsbridge.</tspan><tspan x="156.1" y="144" class="st0 st1 st6"> </tspan><tspan x="62" y="168" class="st0 st1 st6">Booking opens May 17. </tspan></text>
	<rect x="540" y="231.3" class="st4" width="227.3" height="311.8"/>
	<text transform="matrix(1 0 0 1 540.0005 244.8026)"><tspan x="0" y="0" class="st0 st1 st6">Prom 13: CBeebies Prom</tspan><tspan x="0" y="24" class="st0 st1 st6">Sunday 27 July</tspan><tspan x="0" y="48" class="st0 st1 st6">11.00am – c11.50am </tspan><tspan x="0" y="72" class="st0 st1 st6">Royal Albert Hall</tspan><tspan x="0" y="115" class="st0 st7 st8">Take a journey through London with </tspan><tspan x="0" y="134" class="st0 st7 st8">some of your favourite CBeebies charac</tspan><tspan x="223" y="134" class="st0 st7 st8">-</tspan><tspan x="0" y="153" class="st0 st7 st8">ters and explore the sounds of the </tspan><tspan x="0" y="172" class="st0 st7 st8">orchestra, as well as the everyday </tspan><tspan x="0" y="191" class="st0 st7 st8">sounds around us. This morning’s </tspan><tspan x="0" y="210" class="st0 st7 st8">adventure combines live music from the </tspan><tspan x="0" y="229" class="st0 st7 st8">BBC Philharmonic and video action on </tspan><tspan x="0" y="248" class="st0 st7 st8">screens around the hall. The next gener</tspan><tspan x="219.3" y="248" class="st0 st7 st8">-</tspan><tspan x="0" y="267" class="st0 st7 st8">ation of classical music fans starts here. </tspan></text>
	<rect x="815.2" y="226.7" class="st4" width="264.4" height="336.7"/>
	<text transform="matrix(1 0 0 1 815.1848 240.2362)"><tspan x="0" y="0" class="st0 st1 st6">Prom 21: The John Wilson </tspan><tspan x="0" y="24" class="st0 st1 st6">Orchestra – Kiss Me, Kate</tspan><tspan x="0" y="48" class="st0 st1 st6">Saturday 2 August</tspan><tspan x="0" y="72" class="st0 st1 st6">7.30pm – c10.30pm </tspan><tspan x="0" y="96" class="st0 st1 st6">Royal Albert Hall</tspan><tspan x="0" y="139" class="st0 st7 st8">The appearances of John Wilson and his </tspan><tspan x="0" y="158" class="st0 st7 st8">orchestra have become one of the annual </tspan><tspan x="0" y="177" class="st0 st7 st8">highlights of the Proms. Following the enor</tspan><tspan x="239" y="177" class="st0 st7 st8">-</tspan><tspan x="0" y="196" class="st0 st7 st8">mous success of the staged performance of </tspan><tspan x="0" y="215" class="st0 st7 st8">My Fair Lady in 2012, John Wilson returns to </tspan><tspan x="0" y="234" class="st0 st7 st8">perform Cole Porter’s Tony Award-winning </tspan><tspan x="0" y="253" class="st0 st7 st8">musical Kiss Me, Kate in its original 1948 </tspan><tspan x="0" y="272" class="st0 st7 st8">arrangements. He is joined by a cast of leading </tspan><tspan x="0" y="291" class="st0 st7 st8">singers in this irreverent reworking of The </tspan><tspan x="0" y="310" class="st0 st7 st8">Taming of the Shrew – a play within a play.  </tspan></text>
	<rect x="543.6" y="603" class="st4" width="236.7" height="408.7"/>
	<text transform="matrix(1 0 0 1 543.63 616.4926)"><tspan x="0" y="0" class="st0 st1 st6">Proms in the Park – Hyde </tspan><tspan x="0" y="24" class="st0 st1 st6">Park</tspan><tspan x="0" y="48" class="st0 st1 st6">Saturday 13 September</tspan><tspan x="0" y="72" class="st0 st1 st6">3.00pm – c10.30pm </tspan><tspan x="0" y="96" class="st0 st1 st6">Hyde Park Various Venues</tspan><tspan x="0" y="139" class="st0 st7 st8">Join in the Last Night of the Proms cele</tspan><tspan x="219.7" y="139" class="st0 st7 st8">-</tspan><tspan x="0" y="158" class="st0 st7 st8">brations in Hyde Park, hosted by Proms in </tspan><tspan x="0" y="177" class="st0 st7 st8">the Park stalwart Sir Terry Wogan. The </tspan><tspan x="0" y="196" class="st0 st7 st8">open-air concert features a host of musi</tspan><tspan x="223" y="196" class="st0 st7 st8">-</tspan><tspan x="0" y="215" class="st0 st7 st8">cal stars, including Proms in the Park </tspan><tspan x="0" y="234" class="st0 st7 st8">favourites the BBC Concert Orchestra </tspan><tspan x="0" y="253" class="st0 st7 st8">under the baton of Richard Balcombe, and </tspan><tspan x="0" y="272" class="st0 st7 st8">special guests Pumeza Matshikiza, Rufus </tspan><tspan x="0" y="291" class="st0 st7 st8">Wainwright and legendary Earth, Wind &amp; </tspan><tspan x="0" y="310" class="st0 st7 st8">Fire. Presenter Tony Blackburn joins us </tspan><tspan x="0" y="329" class="st0 st7 st8">again to get this year’s party under way, </tspan><tspan x="0" y="348" class="st0 st7 st8">introducing a range of artists, including </tspan><tspan x="0" y="367" class="st0 st7 st8">the Dhol Foundation and the cast of 20th </tspan><tspan x="0" y="386" class="st0 st7 st8">Century Boy.</tspan></text>
	<rect x="814.1" y="601.4" class="st4" width="243.1" height="477.2"/>
	<text transform="matrix(1 0 0 1 814.0677 614.9262)"><tspan x="0" y="0" class="st0 st1 st6">Prom 64: Sir Simon Rattle and </tspan><tspan x="0" y="24" class="st0 st1 st6">the Berliner Philharmoniker</tspan><tspan x="0" y="48" class="st0 st1 st6">Friday 5 September</tspan><tspan x="0" y="72" class="st0 st1 st6">6.30pm – c8.35pm </tspan><tspan x="0" y="96" class="st0 st1 st6">Royal Albert Hall </tspan><tspan x="0" y="134" class="st0 st7 st8">An all-Russian programme inspired by </tspan><tspan x="0" y="153" class="st0 st7 st8">dance opens with Rachmaninov’s Sym</tspan><tspan x="214.6" y="153" class="st0 st7 st8">-</tspan><tspan x="0" y="172" class="st0 st7 st8">phonic Dances – the composer’s blazing </tspan><tspan x="0" y="191" class="st0 st7 st8">‘final spark’ and, for many, his finest </tspan><tspan x="0" y="210" class="st0 st7 st8">orchestral work. Embracing jazz, plainchant </tspan><tspan x="0" y="229" class="st0 st7 st8">and the waltz, this mercurial piece is a </tspan><tspan x="0" y="248" class="st0 st7 st8">showcase of dramatic skill. The popular </tspan><tspan x="0" y="267" class="st0 st7 st8">tradition of Promming (standing in the </tspan><tspan x="0" y="286" class="st0 st7 st8">Arena or Gallery areas of the Royal Albert </tspan><tspan x="0" y="305" class="st0 st7 st8">Hall) is central to the unique and informal </tspan><tspan x="0" y="324" class="st0 st7 st8">atmosphere of the BBC Proms.</tspan><tspan x="0" y="343" class="st0 st7 st8">Part of the Proms audience has always </tspan><tspan x="0" y="362" class="st0 st7 st8">stood in the Arena, directly in front of the </tspan><tspan x="0" y="381" class="st0 st7 st8">orchestra, and many consider this the best </tspan><tspan x="0" y="400" class="st0 st7 st8">position in the hall. However, you can also </tspan><tspan x="0" y="419" class="st0 st7 st8">stand high up in the Gallery and just let the </tspan><tspan x="0" y="438" class="st0 st7 st8">sound drift up to you.</tspan></text>
	<rect x="332.9" y="1295.9" class="st4" width="289.1" height="46.6"/>
	<text transform="matrix(1 0 0 1 332.8737 1309.4348)"><tspan x="0" y="0" class="st0 st1 st6">Tickets available online through </tspan><tspan x="0" y="24" class="st0 st1 st6">www.bbc.co.uk/proms</tspan></text>
	<rect x="622" y="93.7" class="st4" width="325.7" height="25.7"/>
	<text transform="matrix(1 0 0 1 621.952 116.1877)" class="st0 st1 st9">FESTIVAL HIGHLIGHTS</text>
	
		<image style="display:none;overflow:visible;" width="425" height="378" id="ref-image" xlink:href="notes.jpg"  transform="matrix(1 0 0 1 -489.0231 1287.2335)">
	</image>
	<g id="music-note">
		<g>
			<g>
				<g>
					<path class="st10" d="M268,619.6c2.3-4.6,4.8-8.9,7.2-13.3c1.1-2.2,2.3-4.4,3.4-6.6c1.1-2.2,2.4-4.3,3.4-6.5l3.2-6.6l1.6-3.2
						c0.5-1.1,1-2.2,1.4-3.3c0.9-2.2,1.9-4.4,2.9-6.5c0.9-2.2,1.7-4.4,2.5-6.5c3.2-8.7,5.7-17.3,6.7-25.7c0.2-2.1,0.5-4.2,0.5-6.2
						c0-1,0.1-2,0.1-3l-0.1-3c0-1-0.2-2-0.3-2.9c-0.1-1-0.3-2-0.4-2.9c-0.1-1-0.4-2-0.6-3.1l-0.4-1.9l-0.1-0.5l0-0.3
						c0-0.1,0-0.1-0.1-0.3c-0.1-0.7-0.2-1.5-0.2-2.2l0-0.8l0-0.4l0-0.1c4.4,0-9.8-0.1,9.8-0.1l-0.4,0c-1.1,0-2.2,0.1-3.3,0.3
						c-1.2,0.1-2.4,0.3-3.6,0.6c-0.6,0.2-1.2,0.3-1.8,0.4l-0.4,0.1c-0.1,0,0,0,0,0l0,0c0,0,0,0,0-0.1l-0.1-0.2
						c0-0.1-0.1-0.4-0.2-0.6c-0.3-0.8-0.7-1.9-1.2-2.9c-1-2-2.4-4-3.8-5.5c-0.7-0.8-1.4-1.4-2.1-2c-0.7-0.5-1.4-1-2-1.3
						c-0.7-0.3-1.3-0.6-1.9-0.7c-0.7-0.2-1.4-0.2-2.2-0.2c-1.6,0.1-3.6,0.7-5.8,1.9c-1.1,0.6-2.2,1.3-3.3,2.1l-1.7,1.3
						c-0.3,0.2-0.5,0.4-0.7,0.5c-0.2,0.2-0.4,0.3-0.6,0.5c-1.5,1.4-3,3.5-4.3,6c-1.2,2.5-2.3,5.3-3.1,8.4
						c-1.7,6.1-2.6,12.9-3.1,19.8c-0.5,6.9-0.5,14-0.3,21.2c0.4,14.4,1.7,29,3.2,43.7c0.7,7,1.4,13.5,1.4,14.5
						c0,1.2-0.2-3.7-0.5-10.7c-0.6-15.5-0.8-31.4-0.4-47.2c0.2-7.9,0.6-15.8,1.3-23.4c0.4-3.8,0.9-7.5,1.5-11.1
						c0.3-1.8,0.7-3.5,1.1-5.2c0.4-1.7,0.8-3.3,1.3-4.8c1-2.9,2.4-5.3,3.8-7.1c0.6-0.8,1.2-1.5,1.7-2c0.5-0.4,1-0.9,1.5-1.3
						c0.5-0.5,1-0.8,1.6-1.1c2-1.4,3.9-2.1,5.2-2.5c0.6-0.1,1.2-0.2,1.6-0.1c0.4,0,0.8,0.1,1.2,0.2c0.8,0.2,2.1,0.8,3.5,2
						c1.4,1.2,2.9,2.9,4.2,4.8c0.6,0.9,1.2,1.9,1.6,2.7l0.2,0.5c0,0.1,0.1,0.3,0.1,0.2l1.4-0.3c0.6-0.2,1.3-0.3,1.9-0.4
						c1.3-0.3,2.6-0.6,3.9-0.7c1.2-0.2,2.3-0.4,3.5-0.3l0.1,0c9.9,0-13.3,0-10.9,0l0,0.1l0,0.2l0,0.4l0.1,0.9
						c0.3,2.8,0.5,3.1,0.7,4.3l0.5,2.4c0.2,0.8,0.3,1.4,0.4,2.1c0.1,0.7,0.3,1.4,0.3,2.1c0.8,5.6,0.7,11.5-0.2,17.7
						c-1.9,12.3-6.2,25-11.9,37.4c-0.6,1.6-1.4,3.1-2.2,4.6l-2.2,4.7L282,593c-0.4,0.8-0.7,1.6-1.2,2.3l-2.5,4.6l-2.4,4.7l-1.2,2.4
						l-1.3,2.3c-1.7,3.1-3.4,6.3-5.1,9.5c-0.6,1.2-1.1,2.3-1.3,2.6C267.2,621.3,267.5,620.8,268,619.6z"/>
					<path class="st10" d="M268.2,619.8c2.7-4.2,5.5-8.3,8.3-12.4l3.9-6.3l2-3.1c0.7-1,1.3-2.1,1.9-3.1l3.6-6.4l1.8-3.2
						c0.6-1.1,1.1-2.2,1.7-3.2l3.3-6.4c1.1-2.2,1.9-4.4,2.9-6.6c3.7-8.7,6.8-17.7,8.1-26.6c0.3-2.2,0.7-4.5,0.7-6.7
						c0.1-1.1,0.2-2.2,0.2-3.3l0-3.3c0-1.1-0.2-2.2-0.2-3.3c-0.1-1.1-0.2-2.2-0.4-3.3c-0.1-1.1-0.3-2.2-0.5-3.4l-0.3-1.9l-0.2-1
						c-0.1-0.5-0.1-1.1-0.2-1.6c0.2-1-0.8-4-2.1-6.4c-1.3-2.5-2.9-4.9-4.8-6.9c-0.9-1-2-1.9-3-2.8c-1.1-0.8-2.2-1.5-3.3-2
						c-2.3-1-4.8-1.4-7.4-1.2c-2.6,0.3-5.4,1.3-8.1,2.8c-1.3,0.7-2.6,1.7-3.9,2.6l-1.9,1.5c-0.3,0.3-0.6,0.5-0.9,0.7
						c-0.3,0.2-0.5,0.5-0.8,0.8c-2.1,2.1-3.8,4.8-5.2,7.8c-1.4,3-2.4,6.2-3.2,9.5c-1.6,6.7-2.3,13.8-2.5,20.9
						c-0.2,7.2,0,14.4,0.6,21.7c1.1,14.5,3.4,29.1,6.1,43.6c1.2,6.8,2.6,13.2,2.8,14.2c0.2,1.2-0.6-3.6-1.5-10.4
						c-1.9-15.2-3.2-31.1-3.6-47c-0.2-8-0.2-16,0.3-23.9c0.5-7.9,1.4-15.7,3.5-22.7c1-3.3,2.5-6.3,4.4-8.9c0.9-1.2,1.7-2.2,2.5-3.1
						c0.6-0.5,1.2-1,1.8-1.6c0.6-0.5,1.2-0.9,1.8-1.4c2.5-1.7,4.9-2.9,7.2-3.5c1.1-0.2,2.2-0.5,3.2-0.4c1,0,2,0.1,3,0.4
						c2,0.5,4,1.7,6,3.4c1.9,1.7,3.8,3.9,5.3,6.3c0.8,1.2,1.4,2.4,2,3.6c0.2,0.6,0.5,1.2,0.6,1.5c0,0.1,0.1,0.2,0.1,0.2c0,0,0,0,0,0
						l0,0l0,0c0,0,0,0,0,0l0.1,0l1-0.1c1.2-0.2,2.3-0.4,3.5-0.3l0.1,0c4.4,0-5.8,0-4.8,0l0,0.1l0,0.2l0,0.3l0.1,0.6
						c0.2,2,0.4,2.5,0.6,3.6l0.5,2.5c0.2,0.8,0.3,1.6,0.4,2.4c0.1,0.8,0.3,1.6,0.3,2.4c0.7,6.3,0.3,12.8-0.8,19.4
						c-2.5,13.1-7.7,25.9-14.2,38.1c-0.7,1.6-1.6,3-2.5,4.6l-2.6,4.5l-1.3,2.3c-0.4,0.8-0.9,1.5-1.3,2.3l-2.8,4.4l-2.8,4.5l-1.4,2.3
						l-1.5,2.2c-2,2.9-3.9,5.9-5.8,8.9c-0.7,1.1-1.3,2.1-1.5,2.4C267.2,621.3,267.5,620.9,268.2,619.8z"/>
					<path class="st10" d="M268.4,619.9c12.8-15.2,24.5-31.3,33.2-48.9c4.3-8.8,7.8-18,9.6-27.6c0.4-2.4,0.9-4.8,1-7.2
						c0.1-1.2,0.2-2.4,0.3-3.6l0-3.6c0-1.2-0.1-2.4-0.2-3.6c0-1.2-0.2-2.4-0.3-3.6c-0.1-1.2-0.3-2.4-0.5-3.6l-0.3-1.8l-0.1-0.9
						l-0.1-1l0-0.7l0-0.5c0-0.4-0.1-0.8-0.2-1.1c-0.1-0.8-0.4-1.6-0.6-2.3c-0.5-1.6-1.2-3.1-2-4.6c-1.5-3-3.5-5.8-5.8-8.4
						c-1.2-1.3-2.5-2.4-3.9-3.5c-1.4-1-2.9-2-4.6-2.6c-3.3-1.4-7.1-1.9-10.7-1.5c-3.7,0.5-7.2,1.9-10.3,3.8c-1.6,0.9-3.1,2-4.6,3.1
						l-2.1,1.8c-0.4,0.3-0.7,0.6-1,1c-0.3,0.3-0.7,0.7-1,1c-2.6,2.8-4.6,6.1-6.1,9.6c-1.5,3.5-2.6,7-3.4,10.7
						c-1.5,7.3-2.1,14.7-2,22.1c0,7.4,0.6,14.8,1.5,22.1c1.8,14.7,5,29.2,8.9,43.5c1.8,6.7,3.9,13,4.1,13.9c0.3,1.1-1-3.5-2.5-10.2
						c-3.3-15-5.5-30.7-6.8-46.8c-0.6-8.1-0.9-16.2-0.7-24.4c0.2-8.2,0.9-16.4,3-24.3c1-3.7,2.7-7.3,4.9-10.6
						c1.1-1.6,2.2-2.9,3.4-4.2c1.3-1.2,2.6-2.5,4.1-3.5c2.9-2.1,6-3.7,9.2-4.6c1.6-0.4,3.2-0.7,4.9-0.7c1.6,0,3.2,0.2,4.8,0.6
						c3.1,0.9,6,2.6,8.5,4.8c2.5,2.2,4.7,4.9,6.4,7.8c0.9,1.4,1.7,3,2.3,4.5c0.3,0.8,0.6,1.5,0.8,2.3c0.1,0.4,0.2,0.7,0.2,1.1
						l0.1,1.2c0.1,1.2,0.3,2,0.5,2.9l0.5,2.6c0.2,0.9,0.3,1.7,0.4,2.6c0.1,0.9,0.2,1.7,0.3,2.6c0.6,7,0,14.1-1.5,21.1
						c-3.2,13.9-9.2,26.8-16.4,38.8c-0.8,1.6-1.8,3-2.8,4.5l-2.9,4.4l-1.4,2.2c-0.5,0.7-1,1.5-1.5,2.2l-3.1,4.2l-3.1,4.3l-1.6,2.1
						l-1.7,2.1c-2.2,2.8-4.4,5.5-6.6,8.3c-0.8,1-1.5,1.9-1.7,2.2C267.3,621.3,267.6,620.9,268.4,619.9z"/>
					<path class="st10" d="M268.5,620.1c14.3-13.8,27.2-29.4,37-47.1c4.8-8.9,8.9-18.4,11.1-28.6c0.5-2.6,1.1-5.1,1.3-7.7
						c0.1-1.3,0.3-2.6,0.4-3.9l0.1-4c0.1-1.3-0.1-2.6-0.1-4c0-1.3-0.2-2.6-0.3-4c-0.1-1.3-0.3-2.6-0.5-3.9l-0.3-1.8
						c0-0.3-0.1-0.6-0.1-0.8c0-0.1,0-0.3,0-0.4l0-0.1l0,0l0,0c0,0,0.1,0-0.2,0l-0.6,0c0.5,0-1.9,0,0.9,0l0-0.2c0-0.4,0-0.9-0.1-1.3
						c-0.1-0.7-0.2-1.3-0.3-1.9c-0.2-1.1-0.5-2.1-0.9-3.1c-0.6-1.9-1.4-3.7-2.3-5.4c-1.8-3.5-4-6.7-6.8-9.8c-1.4-1.5-3-2.9-4.8-4.2
						c-1.8-1.3-3.7-2.4-5.9-3.3c-4.3-1.8-9.3-2.4-14.1-1.8c-4.7,0.7-9,2.5-12.6,4.7c-1.9,1.1-3.5,2.3-5.2,3.6l-2.3,2
						c-0.4,0.3-0.8,0.8-1.2,1.2c-0.4,0.4-0.9,0.8-1.2,1.3c-3.2,3.5-5.4,7.4-7.1,11.4c-1.6,3.9-2.7,7.9-3.5,11.8
						c-1.5,7.9-1.8,15.6-1.5,23.2c0.3,7.6,1.2,15.1,2.5,22.5c2.6,14.8,6.7,29.3,11.8,43.4c2.4,6.6,5.1,12.7,5.5,13.6
						c0.1,0.3,0.1,0.2-0.1-0.2c-0.2-0.4-0.4-1-0.8-1.9c-0.7-1.8-1.6-4.6-2.7-7.8c-4.6-14.7-7.9-30.3-9.9-46.6
						c-1-8.1-1.7-16.5-1.8-24.9c-0.1-8.5,0.4-17.1,2.6-25.9c0.5-2.1,1.3-4.1,2.2-6.2c0.9-2.1,2-4.1,3.4-6.2c1.3-1.9,2.6-3.7,4.2-5.3
						c1.5-1.4,2.9-2.8,4.6-4c3.3-2.4,7-4.5,11.2-5.7c4.2-1.2,8.8-1.3,13.1-0.1c4.3,1.2,7.9,3.5,11,6.2c3.1,2.7,5.5,5.9,7.6,9.3
						c1,1.7,1.9,3.5,2.7,5.4c0.4,1,0.7,1.9,1,3c0.2,0.5,0.3,1.2,0.4,1.8c0,0.4,0.1,0.8,0.1,1.2c0,0.2,0,0.3,0.1,0.4
						c0,0.4,0.2,1.4,0.3,2.2l0.5,2.7c0.2,0.9,0.2,1.9,0.4,2.8c0.1,0.9,0.2,1.9,0.3,2.9c0.5,7.7-0.3,15.4-2.2,22.8
						c-3.8,14.7-10.6,27.7-18.7,39.5c-0.9,1.5-2.1,2.9-3.1,4.4l-3.2,4.3l-1.6,2.1c-0.5,0.7-1.1,1.4-1.7,2.1l-3.5,4.1l-3.5,4l-1.7,2
						l-1.8,1.9c-2.5,2.5-4.9,5.1-7.4,7.6c-0.9,0.9-1.7,1.7-2,2C267.3,621.3,267.7,621,268.5,620.1z"/>
					<path class="st10" d="M268.7,620.2c3.9-3.2,7.8-6.4,11.5-9.8l5.4-5.3l2.7-2.7c0.9-0.9,1.8-1.8,2.6-2.8l5-5.8l2.5-2.9
						c0.8-1,1.5-2.1,2.3-3.1l4.6-6.3c0.4-0.5,0.7-1.1,1.1-1.6l1-1.7l2.1-3.3c5.4-9,10-18.7,12.6-29.5c0.6-2.7,1.3-5.4,1.6-8.2
						c0.2-1.4,0.4-2.8,0.5-4.2l0.2-4.3c0-2.9,0-5.8-0.3-8.6c-0.1-1.5-0.3-2.8-0.5-4.1l-0.2-1.7l-0.1-0.4l0-0.2c0,0,0-0.2,0-0.1
						c0,0.1,0.1,0.1,0.1,0.2l0,0c-0.1,0,0.1,0-0.1,0l-1.2,0.1c-0.8,0-1.7,0.1-2.5,0.1c-0.8,0-1.7,0-2.5,0l-0.6,0c3.2,0-8.1,0,7,0
						l0-0.3c0-0.7,0-1.4-0.1-2c-0.1-0.5-0.1-0.9-0.2-1.4c-0.1-0.5-0.2-0.8-0.2-1.2c-0.1-0.4-0.2-0.8-0.2-1.1l-0.3-1
						c-0.2-0.7-0.4-1.2-0.6-1.8c-0.8-2.3-1.7-4.3-2.7-6.3c-2-3.9-4.5-7.7-7.8-11.2c-1.6-1.7-3.5-3.4-5.6-4.9c-2.2-1.5-4.5-2.9-7.2-4
						c-5.3-2.2-11.6-2.9-17.4-2c-5.7,0.9-10.7,3.1-14.9,5.7c-2.1,1.3-4,2.7-5.8,4.1l-2.6,2.2c-0.4,0.3-1,0.9-1.4,1.4
						c-0.5,0.5-1,1-1.4,1.5c-3.7,4.2-6.2,8.7-8,13.1c-1.7,4.4-2.8,8.8-3.6,13c-1.4,8.5-1.5,16.5-1,24.4c0.6,7.9,1.8,15.5,3.4,23
						c3.3,15,8.3,29.4,14.6,43.2c2.9,6.5,6.3,12.4,6.8,13.3c0.1,0.3,0.1,0.2-0.1-0.2c-0.2-0.4-0.5-1-1-1.9c-0.9-1.7-2.1-4.5-3.5-7.7
						c-3-7.2-5.5-14.7-7.7-22.5c-2.2-7.7-4-15.7-5.4-24c-1.4-8.2-2.5-16.7-2.8-25.5c-0.2-4.4-0.2-8.8,0.1-13.4
						c0.3-4.6,0.9-9.3,2-14.1c0.5-2.3,1.3-4.6,2.3-6.9c1-2.3,2.2-4.7,3.8-7.2c1.5-2.3,3.1-4.4,5-6.4c0.8-0.8,1.6-1.6,2.5-2.3
						c0.8-0.8,1.8-1.5,2.7-2.2c3.7-2.8,8-5.2,13.2-6.7c5.1-1.5,11.1-1.7,16.5-0.1c5.4,1.5,9.9,4.4,13.5,7.6
						c3.6,3.3,6.4,6.9,8.7,10.8c1.2,2,2.2,4,3.1,6.2c0.4,1.2,0.9,2.3,1.3,3.8c0.1,0.4,0.2,0.7,0.3,1.2c0.1,0.5,0.2,0.9,0.2,1.4
						c0.1,0.6,0.1,1.4,0.1,2l0,0.1c5.7,0-7.9,0-6.3,0l0.7,0l1.4,0c0.9,0,1.8,0,2.7,0l1.3,0c0.1,0,0.3,0,0.3,0l0,0l0,0l0,0
						c-0.1-0.5,0.1,0.8,0.2,1.5l0.4,2.8c0.2,1,0.2,2,0.4,3c0.1,1,0.2,2.1,0.2,3.1c0.5,8.4-0.7,16.6-2.8,24.5
						c-4.5,15.4-12.1,28.6-21,40.2c-1,1.5-2.3,2.9-3.4,4.3l-3.5,4.2l-1.8,2.1c-0.6,0.7-1.2,1.4-1.8,2l-3.8,3.9l-3.8,3.8l-1.9,1.9
						l-2,1.8c-2.7,2.4-5.4,4.7-8.2,7c-1,0.8-1.9,1.6-2.2,1.8C267.3,621.4,267.7,621,268.7,620.2z"/>
				</g>
			</g>
			<g>
				<g>
					<path class="st10" d="M365.6,520.3c4.4,18.2,4.6,37.4,1.2,55.9c-1.6,9.2-4.1,18.3-7.2,27.2c-3.2,8.8-7,17.5-11.6,25.7
						c-9.4,16.3-21.9,30.8-36.5,42.8c-7.3,6-15.1,11.3-23.3,16c-4.1,2.4-8.3,4.5-12.6,6.5l-2.4,1.1c-0.1,0,0,0.1-0.1,0.1l0.2,1.6
						l0.9,7c5,37.2,9.9,74.3,14.9,111.4c2.5,18.7,5,37.4,7.6,56c0.2,1.1,0.3,2.2,0.3,3.3c0,0.1,0,0.1-0.1,0.2l-0.2,0.1l-0.3,0.3
						l-0.7,0.5l-1.3,1l-3.1,2.4l-5.6,4.3c-3.7,2.8-7.5,5.7-11.3,8.5c-3.8,2.8-7.6,5.6-11.5,8.3l-6.5,4.5l-5.7,3.6l-6,3.9
						c-2.8-36.3-5.7-72.5-8.5-108.7c-1.3-16.9-2.7-33.8-4-50.7l-1-12.7l-0.5-6.3c0-0.3,0-0.5,0-0.7c0.1-0.6-0.5-0.2-0.8,0l-0.3,0.2
						l-0.8,0.5l-2.6,1.6c-1.7,1.1-3.4,2.2-5.1,3.4c-13.5,9.2-25.9,20.1-36.5,32.4c-2.7,3.1-5.2,6.2-7.6,9.5c-2.4,3.3-4.7,6.5-6.9,10
						c-4.3,6.8-8.2,13.8-11.5,21.2c-1.6,3.6-3.3,7.5-4.8,11.3c-1.5,3.8-2.9,7.6-4.1,11.4c-2.5,7.6-4.4,15.4-5.7,23.2
						c-2.6,15.6-2.6,31.4,0.7,46.4c2.9,14,8.6,27.3,16.5,39.6c4,6.1,8.5,11.9,13.4,17.4c4.9,5.5,10.3,10.7,16,15.9
						c5.4,4.9,11.3,9.2,17.5,13.2c3.1,2,6.3,3.8,9.6,5.6c1.7,0.9,3.3,1.7,5,2.5c1.7,0.8,3.2,1.5,4.9,2.2c6.4,2.7,13,4.5,19,4.7
						c3,0.1,5.9-0.2,8.5-1c0.7-0.2,1.3-0.4,1.9-0.6c0.3-0.1,0.6-0.2,0.9-0.4l0.5-0.2l0.6-0.3l0.6-0.3l0.6-0.4l1.2-0.7
						c0.4-0.2,0.8-0.6,1.1-0.8c0.4-0.3,0.8-0.5,1.1-0.9l1.1-1.1c0.4-0.3,0.7-0.9,1.1-1.3c0.7-0.8,1.5-2.1,2.2-3.2
						c4.4,0.2,7.3,0.1,9.4-0.1c2.1-0.2,3.4-0.6,4.4-1c0.3-0.1,0.5-0.3,0.7-0.5c0.1-0.1,0.2-0.2,0.3-0.2c0,0,0.1-0.1,0.1-0.1
						c0,0,0-0.1,0.1-0.1l0.2,0.1l3.5,1.7l3.5,1.8l1.7,0.9l0.9,0.4l0.4,0.2l0.2,0.1l0.1,0.1l0.1,0l0,0l0,0l0,0l0,0
						c0.1-0.1-0.2,0.3,0.2-0.3c2.2,18.6,4.3,37.2,6.5,55.9c0.4,3.7,0.9,7.4,1.3,11.1l0.9,7.8l0.6,4.8c0.2,1.6,0.4,3.2,0.5,4.8
						l0.7,9.3c0,0.8,0.1,1.6,0.1,2.3l-2.3,0.4l-4.7,0.8c-3.1,0.5-6.2,1.1-9.3,1.5c-1.6,0.2-3.2,0.4-4.8,0.6
						c-1.6,0.2-3.2,0.4-4.8,0.5l-1.9,0.2l-1.5,0.1l-2.9,0.2c-2,0.1-3.9,0.2-5.9,0.3c-3.9,0.2-7.9,0.2-11.8,0.2
						c-7.9-0.1-15.7-0.5-23.6-1.3c-15.7-1.6-31.4-4.6-46.6-9.4c-7.6-2.4-15.1-5.2-22.5-8.5c-7.3-3.3-14.4-7-21.4-11.2
						c-1.7-1.1-3.5-2.1-5.2-3.2c-1.8-1.2-3.4-2.4-5.1-3.6c-3.3-2.4-6.4-4.9-9.5-7.5c-6.1-5.1-12-10.5-17.6-16.2
						c-11.2-11.4-21.3-23.8-30-37.3c-8.8-13.5-16-28-21.5-43.2c-2.7-7.6-4.9-15.4-6.7-23.3c-1.7-7.9-2.9-15.9-3.7-23.9
						c-0.4-4-0.7-8-0.8-12.1c-0.1-2.1-0.1-4-0.1-6.1c0-2,0-4.1,0.1-6.1c0.2-8.1,1-16.2,2.3-24.2c2.5-15.9,6.9-31.6,12.9-46.5
						c6-14.9,13.5-29.1,22.1-42.6c17.3-26.9,39.1-50.6,63.3-71.2c12.1-10.3,24.9-19.8,38.1-28.6c6.6-4.4,13.4-8.6,20.3-12.5
						c3.5-2,6.9-3.9,10.6-5.7c0.2-0.1,0.2-0.1,0.3-0.2l0.6-0.4l1.2-0.8l2.5-1.6l1.2-0.8l0.2-0.1l0.1,0l0.1-0.1l0.2-0.2
						c0.3-0.2,0.7-0.4,1-0.7l-0.8-1.6l-1.7-3.7c-1.1-2.6-2.3-5.2-3.3-7.7c-2.2-5.2-4.2-10.4-6.1-15.7c-3.8-10.6-7.1-21.4-9.5-32.4
						c-1.2-5.5-2.2-11.1-2.9-16.7c-0.7-5.6-1.3-11.2-1.5-16.9c-0.4-11.3,0.3-22.7,2.6-33.8c2.3-11.1,6.2-21.9,11.8-31.7
						c2.8-4.9,6.1-9.6,9.5-14c3.5-4.4,7.3-8.6,11.4-12.5c8.2-7.7,17.8-14,28.4-18c5.3-2,10.8-3.3,16.4-4c5.6-0.7,11.3-0.8,16.9-0.2
						c12.5,1.1,24.5,5.5,34.1,12c9.6,6.5,17,14.7,22.3,22.5c5.4,7.8,9,15.1,11.5,20.7c2.5,5.7,3.8,9.7,4.5,11.3
						c0.7,2,0.5,1.4-0.4-1.2c-1-2.6-2.7-7.4-5.6-13.7c-2.9-6.2-7.1-13.9-13.3-21.9c-3.1-4-6.7-7.9-11-11.7
						c-4.3-3.7-9.1-7.2-14.6-10.1c-10.7-5.7-22.9-8.4-35-8.4c-6.1,0-12.2,0.7-18.2,2.2c-3,0.8-5.9,1.7-8.8,2.8
						c-2.9,1.1-5.7,2.4-8.4,3.8c-10.9,5.8-20.4,14.1-28.4,23.6c-2,2.4-3.9,4.9-5.7,7.4c-1.8,2.5-3.6,5.1-5.2,7.8
						c-3.2,5.4-6,11-8.1,16.9c-4.4,11.8-6.8,24.4-7.4,37c-0.3,6.3-0.3,12.7,0.2,19c0.2,3.2,0.5,6.3,0.9,9.5c0.4,3.1,0.8,6.3,1.3,9.5
						c2.1,12.6,5.5,25,9.5,37.1c2,6.1,4.2,12.1,6.6,18c1.2,3,2.4,5.9,3.7,8.9l2,4.4l0.3,0.7c0,0-0.2,0-0.2,0.1l0,0l0,0l-0.3,0.2
						l-1.3,0.8l-2.6,1.6l-1.3,0.8l-0.3,0.2c0,0,0,0,0,0l0,0l-0.2,0.1l-0.4,0.2c-3.8,1.9-7.5,3.8-11.1,5.9c-7.3,4.1-14.4,8.4-21.4,13
						c-14,9.2-27.5,19.2-40.4,30.2c-12.9,11-25.1,22.9-36.4,35.8c-5.6,6.5-11,13.2-16.1,20.2c-5.1,7-9.9,14.2-14.4,21.7
						c-8.9,15-16.5,30.9-22.2,47.7c-5.7,16.9-9.2,34.5-10.4,52.6c-0.6,9.1-0.4,18.2,0.3,27.2c0.8,9,2,17.9,3.9,26.8
						c3.8,17.9,10.3,35.2,18.8,51.3c7.3,13.7,15.8,26.5,25.7,38.5c9.9,12.1,21.1,23.5,34.1,34.2c3,2.5,6.1,4.8,9.2,7.1
						c1.6,1.1,3.2,2.3,5,3.4c1.7,1,3.3,2,5,3c1.6,1,3.3,1.9,4.9,2.8c1.6,0.9,3.2,1.8,4.9,2.6c1.7,0.8,3.3,1.7,4.9,2.5
						c1.7,0.8,3.3,1.5,5,2.3c6.7,3,13.4,5.6,20.3,7.9c6.9,2.3,13.8,4.2,20.9,5.9c14.5,3.3,29.1,5.2,43.7,5.9
						c7.3,0.3,14.6,0.4,21.9,0.1c3.6-0.1,7.3-0.3,10.9-0.6l3.4-0.3c1.7-0.1,3.3-0.3,4.9-0.6c3.3-0.4,6.5-0.9,9.7-1.4l9.5-1.6
						l2.4-0.4l1.2-0.2l0.6-0.1l0.3-0.1c0.1,0,0.3,0,0.2-0.1l-0.3-4.7l-0.7-9.5l-1.2-9.9c-0.9-7.7-1.8-15.3-2.8-22.9
						c-2.2-18.3-4.5-36.6-6.7-54.9c-0.6,0.8-0.2,0.2-0.3,0.4l0,0l0,0l0,0l0,0l-0.1,0l-0.1,0l-0.3-0.1l-0.5-0.1l-1.1-0.2l-2.1-0.5
						c-1.4-0.3-2.8-0.6-4.2-0.9c-1.4-0.3-2.8-0.6-4.2-0.9l-0.3-0.1c0,0,0,0,0,0c0,0,0,0-0.1,0c-0.1,0-0.1,0-0.2,0
						c-0.2,0-0.4,0-0.6,0.1c-0.8,0-2.1,0-4.3-0.2c-2.2-0.2-5.4-0.5-10.2-1l-1.4,2.3c-0.2,0.4-0.4,0.7-0.7,1l-0.7,0.8l-0.7,0.8
						c-0.2,0.2-0.4,0.5-0.7,0.7c-0.4,0.4-0.9,0.9-1.3,1.3c-0.9,0.7-1.8,1.5-2.7,2c-0.5,0.3-0.9,0.6-1.4,0.9l-0.4,0.2l-0.3,0.1
						l-0.2,0.1c-1.2,0.6-2.5,1-3.8,1.4c-2.7,0.7-5.6,0.9-8.8,0.7c-6.4-0.4-13.4-2.7-20.4-5.9c-7.4-3.4-14.5-7.5-21.1-12
						c-3.3-2.3-6.5-4.7-9.5-7.2c-2.9-2.5-6.3-5.5-9.3-8.3c-6-5.7-11.6-11.7-16.5-18.1c-4.9-6.4-9.4-13.2-13-20.3
						c-7.3-14.2-11.4-29.9-12.1-46.1c-0.4-8.1,0.1-16.3,1.3-24.4c1.2-8.2,3.1-16.3,5.6-24.3c1.2-4,2.6-8,4.2-12c0.8-2,1.6-4,2.4-6
						c0.8-2.1,1.7-3.9,2.5-5.9c3.4-7.7,7.5-15.1,12.1-22.2c9.2-14.2,20.7-27.2,33.9-38.3c6.6-5.6,13.6-10.8,20.9-15.5
						c0.9-0.6,1.8-1.2,2.8-1.7l1.2-0.7l0.3-0.2l0.1,0l0,0.1l0,0.2c0,0.1,0,0.1,0,0.2l0,0.1l0,0l0,0.4l0.1,0.8
						c2.3,28.6,4.5,57,6.8,85.4c1.1,14.2,2.2,28.3,3.4,42.4c0.6,7,1.1,14.1,1.7,21.1c0.7,9.6,1.5,19.1,2.2,28.7l6.1-3.9l5.9-3.7
						l6.5-4.5c3.9-2.7,7.7-5.5,11.4-8.3c3.8-2.8,7.5-5.6,11.2-8.4l5.6-4.3l2.9-2.3l2.7-2.1l0.2-0.1c0.1,0,0.1-0.1,0.1-0.2l0-0.4
						l-0.1-0.8c0-0.6-0.1-1.1-0.2-1.7c-2.5-18.6-5-37.2-7.6-55.8c-4.9-36.7-9.8-73.4-14.8-109.9l-0.9-6.9l-0.5-3.4l-0.1-0.4l0,0
						c0,0,0,0,0,0c0,0,0.1,0,0.2-0.1c4.3-1.9,8.4-4,12.5-6.3c8.1-4.5,15.9-9.7,23.2-15.4c14.6-11.5,27.2-25.5,36.8-41.3
						c4.9-7.9,8.8-16.3,12.1-24.9c3.3-8.6,6-17.5,7.9-26.5c3.8-18.1,4.4-36.9,0.9-55.1c-1.8-9.4-4.6-17.2-5.4-19.4
						C361,505.7,363.3,511,365.6,520.3z"/>
					<path class="st10" d="M365.6,520.3c4.4,18.2,4.5,37.4,1.2,55.8c-1.6,9.2-4.1,18.3-7.3,27.1c-3.2,8.8-7,17.4-11.7,25.6
						c-9.4,16.3-22,30.7-36.6,42.5c-7.3,5.9-15.1,11.2-23.3,15.9c-4.1,2.3-8.3,4.5-12.6,6.4l-1.6,0.7l-1.1,0.5
						c-0.4,0-0.2,0.4-0.2,0.7l0.2,1.6l0.9,7c4.8,37.2,9.7,74.3,14.5,111.5c2.4,18.6,4.9,37.3,7.3,55.9c0.1,0.9,0.2,1.8,0.3,2.6
						c0,0.1,0,0.1-0.1,0.1l-0.1,0.1l-0.3,0.2l-0.5,0.4l-1,0.8l-3,2.3l-5.6,4.2c-3.8,2.8-7.5,5.6-11.3,8.3c-3.8,2.8-7.6,5.5-11.5,8.1
						l-6.2,4.2l-9.2,5.8c-0.1-0.2-0.1-0.7-0.1-1.1l-0.1-1.2l-0.2-2.4l-0.4-4.8l-0.5-7.2l-1-12.7l-1.9-25.4
						c-1.3-16.9-2.5-33.8-3.8-50.7c-1.3-16.9-2.5-33.8-3.8-50.7l-0.9-12.7l-0.5-6.3l-0.2-3.2l-0.1-1.6l0-0.4l0-0.1c0,0,0-0.1,0,0
						l-0.2,0.1l-0.7,0.4c-0.9,0.5-1.9,1-2.8,1.5l-0.8,0.4l-0.4,0.2l-0.6,0.4l-2.7,1.6c-1.8,1.1-3.5,2.2-5.2,3.4
						c-13.9,9.2-26.5,20.1-37.5,32.5c-2.8,3.1-5.3,6.3-7.9,9.6c-2.5,3.3-4.9,6.6-7.1,10.1c-4.5,6.9-8.6,14.1-12,21.5
						c-1.7,3.7-3.4,7.6-5,11.4c-1.6,3.8-3,7.7-4.3,11.6c-2.6,7.8-4.7,15.7-6.1,23.8c-2.9,16-3,32.5,0.2,48.2
						c2.9,14.7,8.7,28.7,16.9,41.5c4.1,6.4,8.7,12.5,13.8,18.2c5,5.8,10.6,11.1,16.3,16.4c5.6,5.1,11.8,9.7,18.2,13.9
						c3.2,2.1,6.6,4,10,5.9c1.7,0.9,3.4,1.8,5.2,2.7c1.7,0.9,3.4,1.6,5.2,2.4c6.9,3,14.1,5,21.2,5.2c3.5,0.1,7-0.3,10.3-1.2
						c0.8-0.2,1.6-0.5,2.4-0.8c0.4-0.2,0.8-0.3,1.2-0.5l0.6-0.2l0.6-0.3c0.6-0.3,1.2-0.7,1.8-1c0.6-0.4,1.2-0.8,1.8-1.2
						c0.6-0.5,1.2-0.9,1.7-1.5c0.6-0.5,1.1-1.3,1.7-2c3.2-0.7,5.6-1.6,7.6-2.7c1.9-1.1,3.4-2.4,4.6-3.8c0.4-0.4,0.7-0.9,1-1.3
						c0.1-0.2,0.3-0.5,0.4-0.7l0.2-0.4c0,0,0.1-0.2,0.1-0.2l0.1,0.2l2,3.4l1.9,3.5l1,1.7l0.5,0.9l0.2,0.4l0.1,0.2l0.1,0.1l0,0.1l0,0
						l0,0l0,0l0,0c0-0.1-0.1,0.1,0.1-0.1c1.9,16.5,3.8,33.1,5.7,49.7c0.9,8.3,1.9,16.7,2.8,25.1l0.6,7.2c0,0.6,0.1,1.2,0.1,1.8
						l-1.8,0.3l-3.6,0.6c-4.8,0.8-9.7,1.4-14.6,1.8l-1.6,0.1l-1.4,0.1l-2.9,0.2c-1.9,0.1-3.8,0.2-5.7,0.3c-3.8,0.2-7.7,0.2-11.5,0.2
						c-7.7-0.1-15.4-0.5-23-1.2c-15.3-1.5-30.6-4.5-45.4-9.1c-7.4-2.3-14.7-5-21.8-8.2c-7.1-3.2-14-6.8-20.7-10.8
						c-1.7-1-3.3-2-5-3.1c-1.7-1.1-3.3-2.2-4.8-3.4c-3.1-2.3-6.2-4.7-9.2-7.2c-6-5-11.7-10.2-17.2-15.8
						c-10.9-11.1-20.9-23.2-29.5-36.3c-8.6-13.1-15.8-27.1-21.1-41.9c-2.7-7.4-4.9-14.9-6.6-22.6c-1.7-7.7-3-15.4-3.8-23.3
						c-0.8-7.8-1.2-15.7-1.1-23.6c0.2-7.9,0.9-15.8,2-23.5c2.3-15.6,6.5-30.9,12.2-45.6c5.8-14.7,13-28.7,21.4-42.1
						c16.8-26.7,38.1-50.4,61.9-71.1c11.9-10.3,24.5-20,37.6-28.8c6.5-4.4,13.2-8.6,20.1-12.6c3.4-2,6.9-3.9,10.4-5.7
						c0.2-0.1,0.3-0.2,0.5-0.3l0.6-0.4l1.2-0.8l2.5-1.6l2.3-1.5l1-0.7l0.5-0.3l0.2-0.2l0.1-0.1c0.1,0,0.1-0.1,0-0.1
						c-0.5-1-1-2-1.5-3l-1.8-3.8c-1.2-2.5-2.3-5.1-3.4-7.7c-2.2-5.1-4.3-10.3-6.2-15.6c-3.9-10.5-7.3-21.2-9.8-32.1
						c-1.3-5.5-2.3-11-3-16.6c-0.7-5.5-1.3-11.1-1.6-16.7c-0.5-11.2,0.1-22.5,2.4-33.5c2.2-11,6-21.7,11.6-31.5
						c2.8-4.9,6-9.5,9.4-14c3.4-4.4,7.2-8.6,11.3-12.5c8.2-7.7,17.7-14.1,28.3-18c5.3-2,10.8-3.3,16.3-4.1
						c5.6-0.7,11.2-0.8,16.8-0.3c12.5,1.1,24.5,5.4,34.1,11.9c9.6,6.5,17,14.7,22.3,22.4c5.4,7.8,9,15.1,11.5,20.7
						c2.5,5.7,3.9,9.7,4.5,11.3c0.7,2,0.5,1.4-0.4-1.2c-1-2.6-2.7-7.4-5.6-13.7c-2.9-6.2-7.1-13.9-13.3-21.8c-3.1-4-6.7-7.9-11-11.7
						c-4.3-3.7-9.1-7.2-14.6-10c-10.7-5.6-22.8-8.4-35-8.3c-12.2,0-24.4,3.1-35.2,8.9c-10.8,5.8-20.3,14.1-28.2,23.6
						c-3.9,4.8-7.6,9.8-10.7,15.2c-3.2,5.4-5.9,11-8,16.9c-4.3,11.7-6.6,24.2-7.1,36.8c-0.6,12.6,0.6,25.2,2.6,37.7
						c2.2,12.5,5.6,24.8,9.8,36.8c2.1,6,4.3,12,6.7,17.9c1.2,3,2.5,5.9,3.8,8.8l2,4.4l0.6,1.2l0.5,1c-0.3,0.3-0.8,0.5-1.1,0.8
						l-0.3,0.2l-0.1,0.1l-0.3,0.2l-1.3,0.8l-2.6,1.7l-1.3,0.8l-0.5,0.3l-0.6,0.3c-3.7,1.9-7.4,3.9-11,5.9
						c-7.2,4.1-14.2,8.5-21.2,13.1c-13.8,9.2-27.1,19.4-39.8,30.4c-25.2,22.1-48,47.8-65.4,77.5c-8.6,14.8-16,30.5-21.4,47.1
						c-5.4,16.6-8.7,33.9-9.7,51.5c-0.5,8.8-0.3,17.7,0.5,26.5c0.8,8.8,2.1,17.5,4,26.1c3.8,17.4,10.2,34.1,18.6,49.8
						c7.2,13.3,15.5,25.7,25.2,37.4c9.7,11.8,20.7,22.9,33.4,33.2c2.9,2.4,5.9,4.7,9,6.9c1.5,1.1,3.1,2.2,4.7,3.2
						c1.6,1,3.2,1.9,4.8,2.9c6.3,3.7,12.7,7,19.2,9.9c6.5,2.9,13,5.4,19.7,7.6c6.7,2.2,13.4,4.1,20.3,5.7
						c14.1,3.2,28.3,5.1,42.6,5.8c7.1,0.3,14.2,0.4,21.3,0.1c3.6-0.1,7.1-0.3,10.6-0.6l3.1-0.3c1.3-0.1,2.6-0.3,3.9-0.4
						c2.6-0.3,5.2-0.6,7.7-1l7.6-1.2l1.9-0.3l1-0.2l0.5-0.1l0.2,0c0.1,0,0.2,0,0.2-0.1l-0.3-3.8l-0.6-7.6l-0.9-7.8
						c-0.9-7.3-1.7-14.6-2.6-21.8c-2-16.3-3.9-32.5-5.9-48.8c-0.3,0.4-0.1,0.1-0.2,0.2l0,0l0,0l0,0l0,0l0,0l-0.1-0.1l-0.2-0.2
						l-0.3-0.3l-0.7-0.7l-1.3-1.3l-2.7-2.7c-0.9-0.9-1.8-1.8-2.7-2.6l-0.2-0.2c0,0,0,0.1-0.1,0.1l-0.2,0.3c-0.1,0.2-0.2,0.3-0.4,0.5
						c-0.3,0.3-0.5,0.6-0.9,0.9c-1.1,1-2.5,1.8-4.5,2.6c-2,0.7-4.7,1.3-8.4,1.6l-1.1,1.5c-0.2,0.3-0.4,0.5-0.5,0.6l-0.5,0.6
						l-0.5,0.6l-0.5,0.5c-0.4,0.3-0.7,0.7-1.1,0.9c-0.7,0.5-1.4,1.1-2.2,1.5c-0.4,0.2-0.7,0.5-1.1,0.6l-0.8,0.4
						c-1.6,0.7-3.2,1.3-4.9,1.7c-3.4,0.8-7,1.1-10.7,0.8c-7.4-0.5-15.1-3.1-22.5-6.6c-7.6-3.6-15-7.8-21.9-12.6
						c-3.4-2.4-6.7-4.9-9.9-7.6c-3.1-2.7-6.4-5.7-9.5-8.6c-12.3-11.8-22.8-25.2-30.3-40.2c-7.5-14.9-11.7-31.4-12.2-48.3
						c-0.3-8.4,0.3-16.9,1.6-25.3c1.3-8.4,3.4-16.7,6-24.9c1.3-4.1,2.8-8.1,4.4-12.2c1.6-4,3.4-8.1,5.2-12
						c3.6-7.8,7.9-15.4,12.6-22.6c9.6-14.4,21.5-27.5,35-38.7c6.7-5.6,13.9-10.8,21.4-15.5c0.9-0.6,1.9-1.2,2.8-1.7l0.7-0.4l0.4-0.3
						l0.8-0.4c0.9-0.5,1.8-1,2.7-1.5l0.7-0.3c0,0.2,0,0.5,0.1,0.7l0.1,1.5l0.1,1.5l0,0.8l0.1,1.4c2.2,28.6,4.3,57.1,6.4,85.4
						c1.1,14.2,2.1,28.3,3.2,42.4c0.5,7,1.1,14.1,1.6,21.1c0.3,3.5,0.5,7,0.8,10.5l0.5,6.8l0.3,4l0.2,2l0.1,1c0,0.3,0,0.7,0.1,0.9
						l9.5-6l6.3-4.2c3.9-2.7,7.7-5.4,11.5-8.1c3.8-2.7,7.5-5.5,11.3-8.3l5.6-4.2l2.9-2.2l2.1-1.7l0.1-0.1c0,0,0.1-0.1,0.1-0.1l0-0.3
						l-0.1-0.7c0-0.4-0.1-0.9-0.2-1.3c-2.4-18.6-4.9-37.1-7.3-55.6c-4.8-36.8-9.6-73.4-14.3-110l-0.9-6.9l-0.4-3.4l-0.1-1
						c0-0.1,0.2-0.1,0.3-0.2l0.4-0.2c4.2-1.9,8.4-3.9,12.5-6.2c8.1-4.4,15.9-9.5,23.2-15.2c14.6-11.4,27.2-25.3,36.9-41
						c4.9-7.8,8.8-16.2,12.2-24.8c3.4-8.6,6-17.5,8-26.5c3.8-18,4.5-36.9,1-55c-1.8-9.4-4.6-17.2-5.4-19.4
						C361,505.7,363.3,511,365.6,520.3z"/>
					<path class="st10" d="M365.6,520.3c4.4,18.2,4.5,37.4,1.1,55.8c-1.7,9.2-4.2,18.3-7.4,27.1c-3.2,8.8-7.1,17.4-11.8,25.5
						c-9.5,16.2-22,30.5-36.7,42.3c-7.3,5.9-15.1,11.1-23.3,15.7c-4.1,2.3-8.3,4.4-12.6,6.3c-1,0.5-2.2,1-3.1,1.4l-0.4,0.2l-0.1,0
						c0,0,0,0.1,0,0.1l0,0.2l0.1,0.8l0.2,1.7l0.9,7c4.7,37.2,9.4,74.4,14.1,111.5c2.3,18.6,4.7,37.2,7,55.8l0.2,1.9
						c-0.1,0.2-0.5,0.4-0.7,0.6l-0.8,0.6l-2.8,2.1l-5.6,4.2c-3.8,2.8-7.6,5.5-11.4,8.2c-3.8,2.7-7.7,5.4-11.5,8l-2.9,2l-3,2
						l-3.3,2.1l-3.4,2.1l-0.1,0c0,0,0-0.1,0-0.2l0-0.4l-0.1-0.9l-0.1-1.8l-0.3-3.5l-0.5-6.5l-0.9-12.7l-1.8-25.4
						c-1.2-16.9-2.4-33.8-3.6-50.7c-1.2-16.9-2.4-33.8-3.6-50.7l-1.7-24.7l-0.2-2.9l-0.1-0.7l0-0.2l0-0.1c0,0,0,0-0.1,0l-0.3,0.2
						l-1.3,0.6c-1.7,0.9-3.4,1.8-5.1,2.7c-0.9,0.5-1.6,0.9-2.6,1.5l-2.7,1.6c-1.8,1.1-3.6,2.2-5.4,3.4
						c-14.2,9.2-27.2,20.1-38.4,32.6c-2.8,3.1-5.5,6.4-8.1,9.7c-2.6,3.3-5.1,6.7-7.4,10.2c-4.7,7-8.9,14.3-12.5,21.9
						c-3.6,7.6-6.9,15.4-9.7,23.3c-2.8,7.9-5,16.1-6.5,24.3c-3.1,16.5-3.4,33.6-0.2,50c2.8,15.3,8.9,30.1,17.3,43.4
						c4.2,6.7,8.9,13,14.1,19c5.2,6,10.8,11.6,16.7,17c11.7,10.8,25.4,19.5,40,26.1c7.4,3.2,15.3,5.5,23.4,5.8
						c4.1,0.1,8.2-0.3,12.1-1.4c2-0.5,3.9-1.2,5.8-2.1c1.8-0.8,3.5-1.8,5.1-2.9c4.1-2.9,7.6-6.6,10.2-10.8c0.4-0.7,0.8-1.3,1.2-2
						c0.2-0.3,0.4-0.7,0.5-1l0.2-0.5c0-0.1,0.1-0.2,0.1-0.2l0,0.3l0.5,4.8c0.4,3.2,0.7,6.3,1.1,9.5c1.6,14.5,3.2,29,4.9,43.6
						c0.8,7.2,1.6,14.4,2.4,21.6l0.6,5.1c0,0.4,0.1,0.9,0.1,1.3l-1.3,0.2l-2.6,0.4c-3.4,0.5-6.8,0.8-10.3,1.1
						c-3.6,0.3-7.4,0.5-11.1,0.7c-3.7,0.2-7.5,0.2-11.2,0.2c-7.5-0.1-15-0.5-22.4-1.2c-14.9-1.5-29.7-4.4-44.1-8.8
						c-7.2-2.2-14.3-4.8-21.1-7.9c-6.9-3.1-13.6-6.5-20.1-10.4c-1.6-1-3.2-1.9-4.8-2.9c-1.5-1-3.1-2.1-4.6-3.2c-3-2.2-6-4.6-8.9-7
						c-5.8-4.8-11.4-9.9-16.8-15.3c-21.4-21.5-39-47.2-49.6-75.8c-2.6-7.1-4.9-14.5-6.6-21.9c-1.7-7.4-3-15-3.8-22.6
						c-0.9-7.6-1.3-15.3-1.2-22.9c0.1-7.7,0.7-15.3,1.8-22.9c2.1-15.2,6-30.2,11.5-44.7c5.5-14.4,12.5-28.4,20.6-41.6
						c16.3-26.5,37.1-50.2,60.5-71c11.7-10.4,24.1-20.1,37-29c6.5-4.5,13.1-8.7,19.8-12.7c3.4-2,6.8-4,10.2-5.8
						c0.2-0.1,0.5-0.3,0.7-0.4l0.6-0.4l1.2-0.8l2.5-1.6l2.7-1.8l1.5-1l0.7-0.5l0.4-0.2l0.2-0.1c0.1,0,0.1-0.1,0.1-0.1l-2.2-4.5
						l-1.8-3.8c-1.2-2.5-2.3-5-3.5-7.6c-2.2-5.1-4.3-10.2-6.3-15.5c-3.9-10.4-7.4-21-10-31.9c-1.3-5.4-2.4-10.9-3.2-16.4
						c-0.8-5.5-1.4-11.1-1.7-16.6c-0.6-11.1,0-22.4,2.1-33.3c2.2-10.9,5.8-21.6,11.3-31.4c2.7-4.9,5.9-9.5,9.3-14
						c3.4-4.4,7.1-8.6,11.2-12.5c8.1-7.7,17.6-14.1,28.1-18.1c10.5-4,21.9-5.4,33-4.4c12.5,1.1,24.5,5.3,34.1,11.8
						c9.7,6.4,17,14.6,22.4,22.4c5.4,7.8,9,15.1,11.5,20.7c2.5,5.7,3.9,9.7,4.5,11.3c0.7,2,0.5,1.4-0.5-1.2c-1-2.6-2.7-7.4-5.7-13.7
						c-3-6.2-7.1-13.9-13.3-21.8c-3.1-4-6.8-7.9-11-11.7c-4.3-3.7-9.1-7.2-14.6-10c-10.7-5.6-22.8-8.3-35-8.2c-12.1,0-24.3,3.2-35,9
						c-10.8,5.8-20.1,14.1-27.9,23.6c-3.9,4.8-7.5,9.8-10.6,15.2c-3.1,5.3-5.7,11-7.8,16.8c-4.2,11.7-6.4,24.1-6.8,36.6
						c-0.5,12.5,0.8,25.1,2.9,37.4c2.3,12.4,5.8,24.5,10,36.5c2.1,6,4.4,11.9,6.9,17.7c1.2,2.9,2.5,5.8,3.8,8.7l2,4.3
						c0.6,1.3,1.2,2.5,1.8,3.7c0,0,0,0.1,0,0.1l-0.1,0l-0.1,0.1l-0.3,0.2l-0.6,0.4l-1.1,0.7l-2.4,1.6l-2.6,1.7l-1.3,0.8l-0.6,0.4
						c-0.2,0.1-0.4,0.2-0.7,0.3c-3.7,1.9-7.2,3.9-10.8,6c-7.1,4.2-14.1,8.6-20.9,13.3c-13.6,9.3-26.8,19.5-39.2,30.6
						c-24.8,22.1-47,47.9-63.8,77.2c-8.4,14.7-15.4,30.2-20.5,46.5c-5.1,16.2-8.2,33.2-9,50.3c-0.4,8.6-0.1,17.2,0.7,25.7
						c0.8,8.5,2.2,17,4.1,25.4c3.8,16.8,10.1,33.1,18.4,48.2c7,12.9,15.3,24.9,24.8,36.3c9.5,11.4,20.3,22.2,32.6,32.3
						c2.9,2.3,5.8,4.5,8.7,6.6c1.5,1,2.9,2.1,4.5,3.1c1.5,0.9,3.1,1.8,4.6,2.8c6.1,3.5,12.3,6.8,18.6,9.5c6.3,2.8,12.6,5.3,19.1,7.4
						c6.5,2.1,13,3.9,19.8,5.5c13.7,3.1,27.6,4.9,41.5,5.6c6.9,0.3,13.9,0.4,20.8,0.1c3.5-0.1,6.9-0.3,10.4-0.6
						c1.6-0.1,3.7-0.3,5.6-0.5c1.9-0.2,3.9-0.4,5.8-0.7c1.9-0.3,3.8-0.5,5.7-0.9l1.4-0.2l0.7-0.1l0.4-0.1l0.2,0c0,0,0.2,0,0.1-0.1
						l-0.3-2.9l-0.6-5.7l-0.7-5.8c-0.8-6.9-1.6-13.8-2.5-20.7c-1.7-14.2-3.4-28.4-5.1-42.6c-0.1,0.1,0,0,0,0.1l0,0l0,0l0,0l0,0
						l0-0.1l0-0.1l-0.1-0.3l-0.1-0.5l-0.3-1.1l-0.6-2.2c-0.4-1.5-0.8-2.9-1.1-4.4c-0.4-1.5-0.7-2.9-1.1-4.4l-0.1-0.3l-0.1,0.2
						l-0.2,0.5c-0.2,0.3-0.3,0.6-0.5,1c-0.4,0.6-0.7,1.2-1.1,1.8c-2.6,3.8-6.2,7.2-11.3,9.6c-1,1-2.1,1.8-3.2,2.5
						c-0.5,0.3-1.1,0.7-1.7,1c-0.5,0.3-1.2,0.6-1.6,0.8c-1.9,0.9-3.9,1.5-5.9,2.1c-4.1,1-8.3,1.3-12.6,0.9
						c-8.5-0.7-16.8-3.5-24.7-7.3c-7.9-3.8-15.5-8.2-22.6-13.2c-3.6-2.5-7-5.2-10.3-8c-3.3-2.8-6.5-5.9-9.7-8.9
						c-12.6-12.2-23.4-26.2-31.1-41.9c-7.7-15.7-11.9-33-12.3-50.5c-0.2-8.7,0.5-17.5,1.9-26.2c1.5-8.7,3.6-17.2,6.5-25.5
						c2.8-8.3,6.3-16.5,10-24.5c3.8-8,8.2-15.6,13.2-23c10-14.6,22.2-27.8,36.1-39c6.9-5.6,14.2-10.8,21.9-15.4
						c1.9-1.2,3.9-2.3,5.6-3.3c1.7-0.9,3.4-1.8,5.1-2.7l1.3-0.7c0.1,0.4,0.1,0.9,0.1,1.4l0.2,2.9l0.4,6c2,28.6,4.1,57.1,6.1,85.4
						c1,14.2,2,28.3,3,42.4c0.5,7.1,1,14.1,1.5,21.1c0.3,3.5,0.5,7,0.8,10.5l0.4,5.7l0.2,3l0.1,1.5l0.1,0.8c0,0.2,0,0.6,0.2,0.5
						l3.5-2.1l3.4-2.2l3-2l2.9-2c3.9-2.6,7.7-5.3,11.5-8c3.8-2.7,7.6-5.4,11.3-8.2l5.6-4.2l2.8-2.1l1.6-1.2c0-0.1,0.2-0.1,0.2-0.2
						l0-0.2l-0.1-0.5l-0.1-1c-2.3-18.5-4.7-36.9-7-55.3c-4.6-36.8-9.3-73.4-13.9-110l-0.9-6.9l-0.4-3.4l-0.2-1.5c0,0,0-0.1,0-0.1
						l0.1,0l0.2-0.1l0.3-0.1l0.7-0.3c4.2-1.8,8.4-3.9,12.5-6.1c8.1-4.4,15.9-9.4,23.2-15c14.6-11.3,27.3-25.1,37-40.8
						c4.9-7.8,8.9-16.2,12.3-24.8c3.4-8.6,6.1-17.4,8-26.5c3.9-18,4.6-36.8,1.1-55c-1.8-9.4-4.5-17.2-5.4-19.4
						C361,505.7,363.3,511,365.6,520.3z"/>
					<path class="st10" d="M365.5,520.3c4.4,18.2,4.4,37.4,1,55.8c-1.7,9.2-4.2,18.3-7.4,27.1c-3.2,8.8-7.1,17.3-11.8,25.4
						c-9.5,16.1-22.1,30.4-36.8,42c-7.3,5.8-15.2,11-23.4,15.5c-4.1,2.2-8.3,4.3-12.6,6.2l-3.4,1.5l-0.5,0.2l-0.1,0.1
						c0,0,0,0.1,0,0.1l0,0.3l0.1,1.1l0.2,1.8l0.9,7c4.5,37.2,9.1,74.4,13.6,111.6c2.3,18.6,4.5,37.1,6.8,55.7l0.2,1.2
						c-0.3,0.3-0.6,0.5-1,0.8l-2.7,2l-5.7,4.1c-3.8,2.7-7.6,5.4-11.4,8.1c-3.8,2.7-7.7,5.3-11.6,7.9l-2.9,1.9l-2.7,1.8l-2.1,1.3
						l-2.1,1.3l-0.1,0.1c0,0,0-0.1,0-0.1l0-0.3l0-0.6l-0.1-1.1l-0.2-2.3l-0.4-5.8l-0.9-12.7l-1.7-25.4c-1.1-16.9-2.3-33.8-3.4-50.8
						c-1.1-16.9-2.3-33.8-3.4-50.7l-0.8-12.7l-0.4-6.3l-0.3-4.1c-0.1-1.4-0.2-2.8-0.3-4.1l-0.4-3.9l-0.1-1l0-0.2l0-0.1
						c0,0-0.1,0-0.1,0l-0.4,0.2l-1.8,0.9c-2.4,1.2-4.8,2.4-7.2,3.7l-1.8,1l-1.6,0.9l-2.8,1.6c-1.8,1.1-3.7,2.2-5.5,3.3
						c-14.5,9.1-27.8,20.1-39.4,32.7c-2.9,3.1-5.7,6.4-8.4,9.8c-2.7,3.4-5.3,6.8-7.7,10.4c-4.9,7.1-9.3,14.5-13,22.2
						c-1.9,3.9-3.7,7.7-5.4,11.7c-1.7,3.9-3.3,7.9-4.7,12c-2.9,8.1-5.3,16.4-6.9,24.9c-3.4,16.9-3.9,34.6-0.7,51.8
						c2.8,16,9,31.4,17.6,45.3c4.3,7,9.2,13.6,14.5,19.8c5.3,6.2,11.1,12,17,17.6c6.1,5.7,12.7,10.8,19.6,15.3
						c3.5,2.3,7,4.4,10.7,6.4c1.8,1,3.6,2,5.5,2.9c1.9,0.9,3.8,1.9,5.8,2.7c7.8,3.4,16.4,6,25.6,6.3c4.6,0.2,9.3-0.3,13.9-1.5
						c1.1-0.3,2.3-0.7,3.4-1.1c0.6-0.2,1.1-0.4,1.7-0.7l0.8-0.3l0.7-0.3c1-0.5,2-1,3-1.7c2.4-1.7,4.4-3.8,5.9-6.2
						c0.2-0.4,0.5-0.8,0.7-1.2l0.3-0.6l0.1-0.3c0,0,0-0.1,0.1-0.1l0,0.2l0.3,2.8l0.3,2.7l0.2,1.4l0.1,0.7l0,0.3l0,0.2l0,0.1l0,0l0,0
						l0,0l0,0l0,0c-0.1,0.1,0.1-0.2-0.1,0.2c1.4,12.4,2.7,24.9,4.1,37.4c0.7,6,1.3,12.1,2,18.2l0.3,2.9c0,0.2,0.1,0.5,0.1,0.7
						l-0.7,0.1l-1.4,0.2c-1.9,0.3-3.9,0.5-5.8,0.6l-2.4,0.2l-2.7,0.2c-1.8,0.1-3.6,0.2-5.5,0.3c-3.6,0.1-7.3,0.2-10.9,0.2
						c-7.3-0.1-14.6-0.5-21.9-1.2c-14.5-1.4-28.9-4.2-42.8-8.5c-13.9-4.3-27.4-10.2-39.9-17.6l-4.6-2.8c-1.4-0.9-2.9-2-4.4-3
						c-2.9-2.1-5.8-4.4-8.7-6.7c-5.7-4.7-11.2-9.6-16.4-14.8c-21-20.8-38.2-45.7-48.7-73.4c-2.6-6.9-4.8-14-6.5-21.2
						c-1.7-7.2-3-14.6-3.9-22c-0.4-3.7-0.8-7.4-1-11.1c-0.1-1.8-0.2-3.7-0.3-5.6c-0.1-1.9-0.1-3.7-0.1-5.6c0-7.4,0.6-14.9,1.5-22.3
						c1.9-14.9,5.6-29.5,10.9-43.7c5.3-14.2,12-28,19.8-41.1c15.8-26.3,36.1-50,59.1-70.8c11.5-10.4,23.7-20.2,36.4-29.2
						c6.4-4.5,12.9-8.8,19.5-12.9c3.3-2,6.7-4,10.1-5.8c0.2-0.1,0.7-0.4,0.9-0.6l0.6-0.4l1.2-0.8l2.4-1.7l3.1-2.1
						c0.7-0.4,1.3-0.9,1.9-1.3c0.6-0.4,1.3-0.9,1.8-1.3l-1.4-3l-1.5-3l-1.9-3.8c-1.2-2.5-2.4-5-3.5-7.5c-2.3-5-4.4-10.2-6.4-15.3
						c-4-10.3-7.6-20.9-10.2-31.6c-5.2-21.4-7.4-44.1-3.3-65.9c2.1-10.9,5.7-21.5,11-31.3c2.7-4.9,5.8-9.5,9.2-13.9
						c3.4-4.4,7.1-8.6,11.1-12.5c8-7.7,17.4-14.1,27.9-18.1c10.4-4,21.8-5.5,32.9-4.5c12.5,1,24.4,5.3,34,11.7
						c9.7,6.4,17,14.6,22.4,22.3c5.4,7.8,9,15.1,11.5,20.7c2.5,5.7,3.9,9.7,4.5,11.3c0.7,2,0.5,1.4-0.5-1.2c-1-2.6-2.7-7.4-5.7-13.7
						c-3-6.2-7.1-13.9-13.3-21.8c-3.1-4-6.8-7.9-11-11.6c-4.3-3.7-9.1-7.2-14.6-10c-10.7-5.5-22.8-8.2-34.9-8.1
						c-12.1,0.1-24.2,3.2-34.9,9.1c-10.7,5.9-20,14.2-27.7,23.7c-3.8,4.8-7.4,9.8-10.5,15.1c-3.1,5.3-5.6,10.9-7.7,16.8
						c-4.1,11.6-6.1,24-6.5,36.4c-0.4,12.4,0.9,24.9,3.2,37.2c2.4,12.3,6,24.3,10.3,36.2c2.2,5.9,4.5,11.8,7,17.6
						c1.3,2.9,2.5,5.8,3.9,8.6l2,4.3l1.3,2.6l1.3,2.7c0,0,0,0.1,0,0.1l-0.1,0.1l-0.2,0.1l-0.4,0.3l-0.8,0.5l-1.6,1.1l-2.8,1.9
						l-2.6,1.7l-1.3,0.9l-0.7,0.5c-0.3,0.2-0.5,0.3-0.7,0.4c-3.6,1.9-7.1,3.9-10.6,6c-7,4.2-13.9,8.7-20.6,13.4
						c-13.5,9.4-26.4,19.7-38.6,30.8c-24.4,22.2-46.1,47.9-62.3,77C71.8,799.7,65,815,60.2,831c-4.9,15.9-7.7,32.5-8.4,49.2
						c-0.3,8.3,0,16.7,0.9,25c0.9,8.3,2.2,16.6,4.2,24.8c3.8,16.3,10.1,32,18.2,46.7c6.9,12.5,15,24.1,24.3,35.2
						c9.3,11.1,19.9,21.6,31.9,31.3c2.8,2.2,5.6,4.4,8.4,6.4c1.4,1,2.8,2,4.2,2.9c1.5,0.9,2.9,1.8,4.4,2.6
						c5.9,3.4,11.8,6.5,17.9,9.2c6.1,2.7,12.2,5.1,18.5,7.1c6.3,2,12.7,3.8,19.2,5.3c13.3,3,26.8,4.8,40.3,5.4
						c6.8,0.3,13.5,0.4,20.3,0.1c3.4-0.1,6.7-0.3,10.1-0.6c1.9-0.2,2.9-0.2,4.2-0.4c1.3-0.1,2.5-0.3,3.7-0.4
						c1.2-0.2,2.5-0.3,3.7-0.5c0.6-0.1,1.3-0.2,1.8-0.3l-0.2-1.9c-0.3-2.5-0.6-5-0.9-7.5c-0.8-6.5-1.5-13.1-2.3-19.6
						c-1.4-12.2-2.9-24.3-4.3-36.4c0.2-0.2,0-0.1,0.1-0.1l0,0l0,0l0,0l0,0l0-0.1l0-0.1l0-0.2l-0.1-0.5l-0.1-0.9l-0.2-1.8
						c-0.2-1.2-0.3-2.4-0.5-3.6c-0.2-1.2-0.3-2.4-0.5-3.6l0-0.2l-0.1,0.2l-0.2,0.4l-0.4,0.8c-0.3,0.5-0.6,1.1-0.9,1.6
						c-2,3.3-4.7,6.2-7.9,8.4c-0.7,0.5-1.4,0.9-2.1,1.3c-0.4,0.2-0.7,0.4-1.1,0.6c-0.2,0.1-0.4,0.2-0.6,0.3l-0.7,0.3
						c-2.3,1-4.6,1.8-7,2.4c-4.8,1.2-9.7,1.4-14.5,1.1c-9.6-0.8-18.5-3.9-26.8-7.9c-8.1-4-16-8.6-23.4-13.9
						c-3.7-2.6-7.3-5.5-10.7-8.5c-3.4-3-6.6-6.1-9.9-9.2c-12.8-12.6-24-27.2-31.9-43.6c-7.9-16.4-12.1-34.5-12.3-52.7
						c-0.2-9.1,0.6-18.1,2.2-27c1.6-8.9,3.9-17.6,6.9-26.2c3-8.5,6.5-16.8,10.5-24.9c3.9-8.1,8.6-15.9,13.7-23.3
						c10.3-14.8,23-28.1,37.1-39.4c7.1-5.6,14.6-10.8,22.4-15.4c1-0.6,2-1.2,2.9-1.7l1.6-0.9l1.8-1c2.5-1.3,4.9-2.6,7.4-3.8l1.8-0.9
						c0.1,0.6,0.2,1.3,0.2,2l0.4,4.1l0.6,8.2c1.9,28.6,3.8,57.1,5.7,85.4c1,14.2,1.9,28.3,2.9,42.4c0.5,7.1,1,14.1,1.4,21.1
						c0.2,3.5,0.5,7,0.7,10.5l0.3,4.6l0.1,2l0.1,1l0,0.5c0,0.1,0,0.4,0.2,0.2l2.2-1.3l2.2-1.4l2.7-1.8l2.9-1.9
						c3.9-2.6,7.7-5.2,11.5-7.9c3.8-2.7,7.6-5.4,11.4-8.1l5.6-4.1l2.8-2l1.1-0.8c0,0,0.1-0.1,0.1-0.1l0-0.2l0-0.3l-0.1-0.7
						c-2.2-18.4-4.5-36.8-6.7-55.1c-4.5-36.8-9-73.5-13.5-110.1l-0.8-6.9l-0.4-3.4l-0.2-2c0,0,0-0.1,0-0.1l0.1-0.1l0.2-0.1l0.5-0.2
						l1-0.4c4.2-1.8,8.4-3.8,12.4-5.9c8.1-4.3,15.9-9.3,23.2-14.8c14.6-11.2,27.3-24.9,37.1-40.5c4.9-7.8,8.9-16.1,12.3-24.7
						c3.4-8.6,6.1-17.4,8.1-26.4c3.9-18,4.6-36.8,1.1-55c-1.8-9.4-4.5-17.2-5.4-19.4C361,505.7,363.3,511,365.5,520.3z"/>
					<path class="st10" d="M365.5,520.3c4.4,18.2,4.4,37.4,1,55.8c-1.7,9.2-4.3,18.3-7.5,27c-3.3,8.8-7.2,17.3-11.9,25.4
						c-9.6,16.1-22.2,30.3-36.9,41.8c-7.3,5.8-15.2,10.9-23.4,15.3c-4.1,2.2-8.3,4.3-12.5,6.1l-3.8,1.6l-0.6,0.3l-0.2,0.1
						c0,0.1,0,0.1,0,0.2l0,0.4l0.2,1.5l0.2,1.9l0.8,7c4.4,37.2,8.8,74.4,13.2,111.6c2.2,18.5,4.3,37,6.5,55.5c0,0.2,0,0.4,0.1,0.5
						c-0.1,0.1-0.3,0.2-0.4,0.3l-2.6,1.9l-5.7,4.1c-3.8,2.7-7.6,5.4-11.5,8c-3.8,2.6-7.7,5.2-11.6,7.8l-2.9,1.9l-2.4,1.5l-0.9,0.6
						l-0.9,0.5l-0.1,0.1c0,0,0,0,0,0l0-0.1l0-0.3l0-0.5c0-0.3-0.1-0.7-0.1-1l0-0.5l-0.1-1.5l-0.2-3.2l-0.8-12.7l-1.6-25.4
						c-1.1-16.9-2.1-33.8-3.2-50.8c-1.1-16.9-2.1-33.8-3.2-50.7l-0.8-12.7l-0.4-6.3l-0.4-5.4c-0.1-1.8-0.2-3.7-0.5-5.3l-0.7-4.9
						l-0.2-1.2l0-0.3l0-0.2c0,0-0.1,0-0.1,0l-0.6,0.3l-2.3,1.1l-4.6,2.2c-1.5,0.7-3.1,1.6-4.7,2.3l-4.1,2.2l-2.8,1.6
						c-1.9,1.1-3.7,2.2-5.6,3.3c-14.8,9.1-28.4,20.1-40.4,32.9c-3,3.2-5.9,6.5-8.7,9.9c-2.7,3.4-5.4,6.9-7.9,10.5
						c-5.1,7.2-9.6,14.7-13.5,22.6c-2,4-3.8,7.8-5.6,11.8c-1.8,4-3.4,8-5,12.2c-3.1,8.2-5.6,16.8-7.4,25.5
						c-3.6,17.4-4.3,35.7-1.1,53.6c2.8,16.6,9.2,32.8,18,47.3c4.4,7.2,9.4,14.1,14.9,20.5c5.4,6.5,11.4,12.5,17.3,18.1
						c6.3,5.9,13.1,11.3,20.3,16c3.6,2.4,7.3,4.6,11,6.7c1.9,1,3.8,2.1,5.7,3c1.9,1,4,2,6.1,2.9c4.2,1.8,8.5,3.4,13.1,4.6
						c4.6,1.2,9.5,2.1,14.6,2.2c5.1,0.2,10.4-0.3,15.7-1.7c1.3-0.4,2.6-0.8,3.9-1.2c0.6-0.2,1.3-0.5,1.9-0.7l0.9-0.4l0.8-0.4
						c0.3-0.1,0.6-0.3,0.9-0.4c0.7-0.5,1.2-1,1.6-1.6c0.1-0.1,0.1-0.2,0.2-0.3l0.1-0.2l0-0.1c0,0,0,0,0,0l0,0l0.1,0.7l0.1,0.7
						l0.1,0.3l0,0.2l0,0.1l0,0l0,0l0,0l0,0l0,0l0,0l0,0c-0.1,0.2,0.3-0.3-0.3,0.3l0.2,1.6c0.3,2.5,0.5,4.9,0.8,7.4
						c0.8,7.4,1.6,14.8,2.4,22.2c0.5,4.9,1.1,9.8,1.6,14.7l0,0.6c0,0.1,0,0.1,0,0.2l-0.2,0l-0.3,0c-0.4,0-0.9,0.1-1.3,0.1l-4.7,0.3
						c-1.8,0.1-3.5,0.2-5.3,0.2c-3.5,0.1-7.1,0.2-10.6,0.1c-7.1-0.1-14.2-0.5-21.3-1.2c-14.1-1.4-28.1-4.1-41.6-8.3
						c-13.5-4.1-26.5-9.8-38.5-16.9l-4.4-2.6c-1.3-0.8-2.7-1.9-4.1-2.9c-2.8-2-5.6-4.2-8.4-6.5c-5.5-4.5-10.9-9.3-16-14.4
						c-20.5-20.2-37.4-44.3-47.8-71.1c-2.6-6.7-4.8-13.5-6.5-20.5c-1.7-7-3-14.1-4-21.3c-0.5-3.6-0.8-7.2-1.1-10.8
						c-0.1-1.7-0.2-3.7-0.3-5.4c-0.1-1.8-0.1-3.6-0.1-5.4c0-7.2,0.4-14.5,1.3-21.7c0.9-7.3,2.2-14.5,3.9-21.6
						c1.7-7.2,3.8-14.2,6.3-21.2c5-14,11.4-27.6,19-40.6c15.3-26,35.1-49.7,57.7-70.7c11.3-10.5,23.3-20.3,35.9-29.4
						c6.3-4.5,12.7-8.9,19.3-13c3.3-2,6.6-4.1,9.9-5.9c0.2-0.1,0.9-0.5,1.1-0.7l0.6-0.4l1.2-0.8l2.4-1.7l1.2-0.8l2.3-1.6
						c1.7-1.1,3.2-2.2,4.7-3.3L226,648l-1-1.9l-0.9-1.8l-1-2l-0.9-1.8c-1.2-2.5-2.4-4.9-3.6-7.4c-2.3-5-4.5-10.1-6.6-15.2
						c-4.1-10.2-7.7-20.7-10.5-31.3c-1.4-5.3-2.5-10.7-3.4-16.1c-0.9-5.5-1.6-10.9-2-16.4c-0.8-11-0.4-22.1,1.6-32.9
						c2-10.8,5.5-21.4,10.7-31.1c2.6-4.9,5.7-9.5,9-13.9c3.3-4.4,7-8.6,11-12.5c8-7.7,17.3-14.1,27.7-18.2c10.4-4,21.7-5.6,32.8-4.6
						c12.4,1,24.4,5.2,34,11.6c9.7,6.4,17,14.6,22.4,22.3c5.4,7.8,9,15.1,11.5,20.7c2.5,5.7,3.9,9.7,4.5,11.3c0.7,2,0.5,1.4-0.5-1.2
						c-1-2.6-2.7-7.4-5.7-13.7c-3-6.2-7.1-13.9-13.3-21.8c-3.1-4-6.8-7.9-11-11.6c-4.3-3.7-9.1-7.2-14.6-9.9
						c-10.7-5.5-22.8-8.2-34.9-8c-12.1,0.1-24.1,3.3-34.7,9.2c-10.6,5.9-19.8,14.2-27.5,23.7c-1.9,2.4-3.7,4.8-5.5,7.4
						c-1.7,2.5-3.4,5.1-4.9,7.8c-3,5.3-5.5,10.9-7.5,16.7c-4,11.6-5.9,23.9-6.2,36.2c-0.3,12.3,1.1,24.7,3.5,36.9
						c2.5,12.2,6.1,24.1,10.5,35.9c2.2,5.9,4.6,11.7,7.1,17.4c1.3,2.9,2.6,5.7,3.9,8.6l2.1,4.2l1.7,3.3c0.6,1.2,1.1,2.4,1.7,3.5
						c-1.3,1-2.7,1.9-4.1,2.9l-3.2,2.2l-2.5,1.7l-1.3,0.9l-0.3,0.2c-0.2,0.1-0.3,0.2-0.5,0.3c-0.2,0.1-0.4,0.2-0.5,0.3l-0.3,0.2
						c-3.5,1.9-7,4-10.5,6.1c-6.9,4.2-13.7,8.8-20.3,13.5c-13.3,9.5-26,19.8-38,31c-24,22.3-45.1,48-60.8,76.8
						c-7.8,14.4-14.3,29.6-18.9,45.2c-4.6,15.6-7.2,31.8-7.7,48c-0.2,8.1,0.2,16.2,1.1,24.3c0.9,8.1,2.3,16.2,4.3,24.1
						c3.8,15.7,10,30.9,18,45.1c6.8,12.1,14.7,23.4,23.8,34.1c9.1,10.7,19.5,21,31.2,30.4c2.7,2.2,5.5,4.2,8.2,6.2
						c1.4,1,2.7,1.9,4,2.7c1.4,0.8,2.8,1.7,4.2,2.5c5.7,3.2,11.4,6.3,17.3,8.8c5.9,2.6,11.8,4.9,17.9,6.8c6.1,2,12.3,3.7,18.6,5.1
						c12.9,2.9,26,4.6,39.2,5.2c6.6,0.3,13.2,0.4,19.8,0.1c3.3-0.1,6.6-0.3,9.8-0.6l2.8-0.2l1.7-0.2l1.7-0.2c0.3,0,0.6-0.1,0.8-0.2
						l-0.1-0.8c-0.1-1.1-0.2-2.2-0.4-3.4c-0.7-6.2-1.4-12.3-2.1-18.5c-0.8-6.8-1.6-13.5-2.3-20.3l-0.6-5l-0.2-1.7l-0.4-3.3
						c0.4-0.5,0.1-0.1,0.2-0.3l0,0l0,0l0,0l0,0l0,0l0-0.1l0-0.1l0-0.2l-0.1-0.4l-0.1-0.8l-0.2-1.6l-0.2-1.6l0-0.1l0,0.1l-0.1,0.2
						l-0.2,0.4c-0.1,0.2-0.3,0.5-0.4,0.7c-0.9,1.5-2.2,2.8-3.6,3.8c-0.3,0.2-0.6,0.4-0.9,0.6l-0.5,0.3c-0.1,0-0.2,0.1-0.3,0.1
						l-0.7,0.3c-2.6,1.2-5.3,2.1-8.1,2.7c-5.5,1.3-11.1,1.6-16.4,1.2c-10.7-0.9-20.2-4.4-28.9-8.6c-8.4-4.1-16.5-8.9-24.2-14.5
						c-3.8-2.8-7.5-5.7-11.1-8.9c-3.6-3.2-6.7-6.2-10.1-9.5c-13.1-13.1-24.6-28.3-32.6-45.4c-8.1-17.1-12.3-36.1-12.4-54.8
						c-0.1-9.4,0.8-18.7,2.5-27.9c1.7-9.1,4.2-18.1,7.3-26.8c1.6-4.3,3.3-8.6,5.1-12.8c1.8-4.2,3.7-8.2,5.8-12.4
						c4.1-8.3,8.9-16.2,14.3-23.7c10.7-15,23.7-28.4,38.2-39.7c7.3-5.7,14.9-10.8,22.9-15.4c1-0.6,2-1.2,3-1.7l1.8-1l2.3-1.3
						c3.3-1.7,6.5-3.2,9.6-4.7l2.4-1.1c0.1-0.1,0,0.1,0.1,0.1l0,0.2l0,0.3l0.1,0.6l0.2,1.3l0.7,5.1c0.2,1.8,0.3,3.7,0.4,5.6l0.3,4.8
						c1.8,28.6,3.6,57.1,5.4,85.5c0.9,14.2,1.8,28.3,2.7,42.4c0.4,7.1,0.9,14.1,1.3,21.1c0.2,3.5,0.4,7,0.7,10.6l0.2,2.5l0.1,0.9
						c0,0.3,0,0.6,0.1,0.9l0,0.5l0,0.2c0,0.1,0,0.2,0.1,0l1-0.6l1-0.7l2.4-1.5l2.9-1.9c3.9-2.5,7.7-5.1,11.6-7.7
						c3.8-2.6,7.6-5.3,11.4-8l5.7-4.1l2.7-2l0.5-0.4c0.1-0.1,0-0.2,0-0.3l0-0.3c-2.2-18.3-4.3-36.6-6.5-54.9
						c-4.4-36.8-8.7-73.5-13.1-110.1l-0.8-6.9l-0.4-3.4l-0.3-2.5c0-0.1,0-0.1,0-0.2l0.2-0.1l0.3-0.1l0.6-0.3l1.2-0.5
						c4.2-1.8,8.4-3.7,12.4-5.8c8.1-4.2,15.9-9.1,23.2-14.7c7.3-5.5,14.2-11.7,20.4-18.4c6.2-6.7,11.9-14,16.8-21.8
						c4.9-7.7,9-16.1,12.4-24.6c3.4-8.6,6.2-17.4,8.1-26.4c3.9-18,4.7-36.8,1.2-55c-1.8-9.4-4.5-17.2-5.4-19.4
						C361,505.7,363.3,511,365.5,520.3z"/>
				</g>
			</g>
		</g>
	</g>
	<g id="music-note-P">
		<g>
			
				<image style="overflow:visible;" width="263" height="356" xlink:href="E0FAF9425AB8E5DD.png"  transform="matrix(1 0 0 1 164.7247 930.7274)">
			</image>
			<g>
				<path class="st0" d="M344.2,1051.4c-7-9.7-16.2-97.4-16.2-97.4C409.7,981.3,351.2,1061.1,344.2,1051.4z M397.6,959.1
					c-15.1-26.6-40.9-36.4-52.8-39.3c-14.6-3.6-29.1-2-29.1-2c-2.2,0.2-8.5,1-14.8,3c-23.3,7.6-35.4,29.8-36.4,31.8
					c-9.9,18.7-12.1,44.6-0.5,59.8c16.2,21.3,18.6,5.1,18.6,5.1s-6.5-46.4,10.2-58c0,0,3.7-9.3,7.9,13.5
					c4.2,22.7,12.1,85.4,12.1,85.4s4.6,38,5.1,53.8c0.9,30.7,0,52.5-13.9,74.2c-0.8,1.3-12.9,19.8-32.7,30.4c-8.3,4.4-15,6-18.1,6.5
					c-4.1,0.8-10.7,1.9-18.8,0.1c-3.6-0.8-9.1-2.2-13.4-6.9c-1.2-1.3-2-2.5-2.5-3.4c4.1-0.4,13.2-2,20.6-9.1
					c12-11.5,11.6-30.1,6.5-42.7c-0.9-2.2-7.5-18-24.8-23.2c-15.3-4.6-28,2.5-31.6,4.5c-16,9-20.7,25-21.8,29.4
					c-1.7,6.8-1.4,12.4-1.2,16.7c0.7,13.7,5.4,23.5,6.2,25.3c4.8,10,17.5,22,28.1,28c23.4,13.4,69.5,16.7,101.5-8.6
					c7.2-5.7,12.2-11.6,16-16.9c30.9-42.5,31.8-101,30.1-131.8c0,0,48.7-26.4,55.2-57.5C404.7,1019.8,414.8,989.5,397.6,959.1z"/>
			</g>
		</g>
		<defs>
			<filter id="Adobe_OpacityMaskFilter" filterUnits="userSpaceOnUse" x="165.7" y="917.4" width="260.6" height="367.3">
				<feFlood  style="flood-color:white;flood-opacity:1" result="back"/>
				<feBlend  in="SourceGraphic" in2="back" mode="normal"/>
			</filter>
		</defs>
		<mask maskUnits="userSpaceOnUse" x="165.7" y="917.4" width="260.6" height="367.3" id="SVGID_1_">
			<g class="st11">
				
					<image style="overflow:visible;" width="265" height="373" xlink:href="E0FAF9425AB8E5DF.jpg"  transform="matrix(1 0 0 1 163.4658 914.4684)">
				</image>
			</g>
		</mask>
		<g class="st12">
			<path class="st13" d="M425.7,1017.7c-0.1-1.5,0.2-3,0-4.5c-0.2-1.6-0.8-2.5-1-4c-0.5-3.2-0.1-5.7-1-8.5c-0.7-2.2-2.1-5.7-2-8
				c-1.1-1.1-1.5-3.8-2-5c-0.6-1.5-1.3-3.1-2-4.5c-1.7-3.6-3.6-6.7-6-10c-4.7-6.6-9.6-13.6-16.5-19.5c-11.6-9.9-25.3-14.7-39.5-20
				h-5c0-0.3,0-0.7,0-1h-9c0-0.3,0-0.7,0-1h-17c0,0.3,0,0.7,0,1h-9c0,0.3,0,0.7,0,1h-4c-6.3,2.4-12.7,4.8-18.5,8.2
				c-6.7,4-11.9,9.7-17.5,15.2c-5.2,5.2-9.1,11.7-12,18c-1.4,3-2,5.9-3,9c-0.5,1.5-1.7,3-2,4.5c-0.3,1.6,0.3,2.6-1,4
				c0,4.3-1,7.5-1,12c0.4,1.6-1,2.5-1,3.5c0,1.3,0.8,1.7,1,3c0.3,2.3-0.3,4.7,0,7c0.7,4.9,2.5,9.5,4,14c1.7,5.1,5.4,9.7,9,14
				c3.9,4.6,8.7,6.9,14,9.5h5c5.7-2.8,9.1-4.8,11-10.5c1.2-3.7,1.6-9.2,1-13.5c-0.3-2-1-4-1-6.5c0-2.3,0-4.7,0-7c0-4.9,1-8.5,1-13.5
				h2c0,2.1-0.3,4.4,0,6.5c0.2,1.3,1,2.2,1,4c0,0.9-0.1,2.1,0,3c0.2,1.3,1,2.2,1,4c0,0.9-0.1,2.1,0,3c0.2,1.3,1,2.2,1,4
				c0,1-0.2,2.1,0,3c0.2,0.9,0.8,2.2,1,3.5c0.1,1.1-0.2,2.4,0,3.5c0.1,0.8,0.8,1.9,1,3c0.2,1.3-0.2,2.7,0,4c0.1,0.8,0.8,1.9,1,3
				c0.2,1.3-0.2,2.7,0,4c0.1,0.7,0.8,1.9,1,3c0.2,1.1,0,2.4,0,3.5c-0.1,1.9,1,3.3,1,5.5c0,2.1,0.7,3.2,1,5c0.2,1.6-0.2,3.4,0,5
				c0.3,1.8,1,2.9,1,5c0,2.3,0.7,3.6,1,5.5c0.3,1.8-0.3,3.7,0,5.5c0.3,1.8,1,2.9,1,5c0,1.6-0.3,3.4,0,5c0.1,0.8,0.8,1.8,1,3
				c0.1,0.6,0,1.4,0,2c0,0.8-0.1,1.7,0,2.5c0.1,1,0.9,1.9,1,2.5c0.5,2.9-0.4,6.1,0,9c0.8,5.7,1,11.8,1,18c0,12.5,0.8,25.7-1,37.5
				c-0.5,3.1-1.5,6.2-2,9.5c-0.2,1.2-1.6,3.4-2,4.5c-0.6,1.8-1.2,2.8-2,4.5c-0.8,1.7-0.9,3.3-2,5c-1.1,1.7-1.9,3.3-3,5
				c-1.8,2.9-4,6-6.5,8.5c-3,3-5.1,5.7-8.5,8.5c-3.1,2.5-5.8,5.1-9,7.5c-5.6,4.2-12.5,6.6-19,9h-6c0,0.3,0,0.7,0,1h-6
				c2.5-4.5,7.4-8,10-12c2.3-3.5,3.7-7.6,5-11.5c0.6-1.9,1-3.8,1-6c0-1-0.1-2,0-3c0.1-0.8,1-2.6,1-3c0-2.3-1-3.6-1-6c0-1,0.1-2,0-3
				c-0.2-1.2-0.9-2.2-1-3c-1.5-9.4-4.9-16.5-11-24c-6.6-8.1-15-11-24-15.5h-8c0-0.3,0-0.7,0-1h-6c0,0.3,0,0.7,0,1h-8
				c-9,3.4-17.9,7-25,13.5c-7.6,6.9-12.2,15.6-15,24.5c-1.3,4.2-1.4,7.8-2,12.5c-0.3,2.2-1.3,3.7-1,6c0.3,2.2,1,3.6,1,6
				c0,4.8,1,8.3,2,12.5c0.5,2.1,0.5,3.9,1,6c0.5,2.1,1.7,3.8,2,6h1c0.7,5.3,5.6,11.3,9,15.5c4.4,5.3,10.2,10,15.5,14.2
				c9.1,7.2,20.7,10.2,31.5,14.2h6c0,0.3,0,0.7,0,1h9c0,0.3,0,0.7,0,1h20c0-0.3,0-0.7,0-1h9c0-0.3,0-0.7,0-1h5c11.3-4.2,23-7,33-14
				c6-4.2,11.2-8.7,16.5-14c2.7-2.7,4.3-5.8,6.5-8.5c1.6-2,5.4-4.8,5-7.5h1c0-0.3,0-0.7,0-1h1c-0.2-3.3,3.5-7.3,5-10
				c1.8-3.4,3.4-7,5-10.5c2.9-6.3,4.8-13.4,7-20c1.9-5.8,3-11.8,4-18c0.1-0.8,0.8-1.8,1-3c0.1-0.7-0.1-1.3,0-2
				c0.2-1.6,0.7-2.8,1-4.5c0.5-3,1-5.2,1-8.5c0-3.5,1-5.9,1-9.5c0-3.3,1-5.3,1-8.5c0-3.3,0-6.7,0-10c0-3.2,1.4-5.3,1-8.5
				c-0.4-2.7-1.8-6.2-1-9.5c0.8-3,5-4.8,7.5-6.5c6.4-4.3,12.1-9.1,18-14c12.4-10.2,21.1-21.6,27.5-35c-0.1-2.3,1.2-6.2,2-8.5
				c0.9-2.7,1.3-5.7,2-8.5c0.7-2.9,0.6-5.4,1-8.5c0.4-2.8,1-4.9,1-8c0-1.4,0.5-3.4,0.5-4.5C426.2,1020.9,425.8,1019.3,425.7,1017.7z
				 M358.7,1059.7c-1.2-1.3-0.6-2.1-1-3.5c-0.2-0.8-0.9-2.4-1-3c-0.4-2.6-0.7-4.5-1-7c-0.7-4.8-1.3-9.1-2-14c-0.6-4.6-1.3-9.3-2-14
				c-0.6-4.4-2-9-2-13.5c0-4.1-1-7.6-1-12h2c1.4,2.8,5.6,4.5,8,6.5c3.4,2.8,4.8,5.9,7,9c3.8,5.4,5,10,5,17c0,6.7-0.6,11.8-2.5,17.5
				c-1,3.1-2,6.1-3.5,9c-1.4,2.8-3.4,5.1-5,8H358.7z"/>
			<g>
				<path class="st13" d="M344.2,1051.4c-7-9.7-16.2-97.4-16.2-97.4C409.7,981.3,351.2,1061.1,344.2,1051.4z M397.6,959.1
					c-15.1-26.6-40.9-36.4-52.8-39.3c-14.6-3.6-29.1-2-29.1-2c-2.2,0.2-8.5,1-14.8,3c-23.3,7.6-35.4,29.8-36.4,31.8
					c-9.9,18.7-12.1,44.6-0.5,59.8c16.2,21.3,18.6,5.1,18.6,5.1s-6.5-46.4,10.2-58c0,0,3.7-9.3,7.9,13.5
					c4.2,22.7,12.1,85.4,12.1,85.4s4.6,38,5.1,53.8c0.9,30.7,0,52.5-13.9,74.2c-0.8,1.3-12.9,19.8-32.7,30.4c-8.3,4.4-15,6-18.1,6.5
					c-4.1,0.8-10.7,1.9-18.8,0.1c-3.6-0.8-9.1-2.2-13.4-6.9c-1.2-1.3-2-2.5-2.5-3.4c4.1-0.4,13.2-2,20.6-9.1
					c12-11.5,11.6-30.1,6.5-42.7c-0.9-2.2-7.5-18-24.8-23.2c-15.3-4.6-28,2.5-31.6,4.5c-16,9-20.7,25-21.8,29.4
					c-1.7,6.8-1.4,12.4-1.2,16.7c0.7,13.7,5.4,23.5,6.2,25.3c4.8,10,17.5,22,28.1,28c23.4,13.4,69.5,16.7,101.5-8.6
					c7.2-5.7,12.2-11.6,16-16.9c30.9-42.5,31.8-101,30.1-131.8c0,0,48.7-26.4,55.2-57.5C404.7,1019.8,414.8,989.5,397.6,959.1z"/>
			</g>
		</g>
	</g>
	<rect x="17.4" y="93.7" class="st4" width="475.3" height="81.4"/>
	<text transform="matrix(1 0 0 1 33.4212 116.1879)"><tspan x="0" y="0" class="st0 st1 st9">THE HENRY WOOD PROMENADE </tspan><tspan x="144.5" y="36" class="st0 st1 st9">CONCERTS</tspan></text>
	<g id="concentric-circles_bottom">
		<path class="st14" d="M1093.3,1448.6c1.6-120-90.8-218.6-206.5-220.2s-210.8,94.5-212.4,214.5 M713.1,1443.4
			c1.3-98.5,79-177.5,173.1-176.2s169.6,82.4,168.3,180.9"/>
		<path class="st14" d="M1044.6,1458.5c1.2-92.2-69.8-167.9-158.6-169.1c-88.8-1.2-161.9,72.5-163.1,164.7 M752.7,1454.6
			c1-75.6,60.6-136.3,132.9-135.3s130.2,63.3,129.2,138.9"/>
		<path id="circle_bottom" class="st14" d="M961.8,1439.6c0.6-44.7-33.8-81.4-76.9-82c-43.1-0.6-78.5,35.2-79.1,79.9 M820.2,1437.7
			c0.5-36.7,29.4-66.1,64.5-65.7c35.1,0.5,63.2,30.7,62.7,67.4"/>
	</g>
	<line id="line" class="st15" x1="99.1" y1="420" x2="423.5" y2="420"/>
</g>
<g id="poster2_sans_serif">
</g>
<g id="grid2_sans_serif" class="st16">
	<g id="grid-sans-serif" class="st17">
		<rect x="2501" y="-36" class="st18" width="115.6" height="126"/>
		<rect x="2623.8" y="-36" class="st18" width="115.6" height="126"/>
		<rect x="2746.6" y="-36" class="st18" width="115.6" height="126"/>
		<rect x="2869.4" y="-36" class="st18" width="115.6" height="126"/>
		<rect x="2992.2" y="-36" class="st18" width="115.6" height="126"/>
		<rect x="3115" y="-36" class="st18" width="115.6" height="126"/>
		<rect x="3237.8" y="-36" class="st18" width="115.6" height="126"/>
		<rect x="3360.6" y="-36" class="st18" width="115.6" height="126"/>
		<rect x="3483.4" y="-36" class="st18" width="115.6" height="126"/>
		<rect x="2501" y="97.2" class="st18" width="115.6" height="126"/>
		<rect x="2623.8" y="97.2" class="st18" width="115.6" height="126"/>
		<rect x="2746.6" y="97.2" class="st18" width="115.6" height="126"/>
		<rect x="2869.4" y="97.2" class="st18" width="115.6" height="126"/>
		<rect x="2992.2" y="97.2" class="st18" width="115.6" height="126"/>
		<rect x="3115" y="97.2" class="st18" width="115.6" height="126"/>
		<rect x="3237.8" y="97.2" class="st18" width="115.6" height="126"/>
		<rect x="3360.6" y="97.2" class="st18" width="115.6" height="126"/>
		<rect x="3483.4" y="97.2" class="st18" width="115.6" height="126"/>
		<rect x="2501" y="230.4" class="st18" width="115.6" height="126"/>
		<rect x="2623.8" y="230.4" class="st18" width="115.6" height="126"/>
		<rect x="2746.6" y="230.4" class="st18" width="115.6" height="126"/>
		<rect x="2869.4" y="230.4" class="st18" width="115.6" height="126"/>
		<rect x="2992.2" y="230.4" class="st18" width="115.6" height="126"/>
		<rect x="3115" y="230.4" class="st18" width="115.6" height="126"/>
		<rect x="3237.8" y="230.4" class="st18" width="115.6" height="126"/>
		<rect x="3360.6" y="230.4" class="st18" width="115.6" height="126"/>
		<rect x="3483.4" y="230.4" class="st18" width="115.6" height="126"/>
		<rect x="2501" y="363.6" class="st18" width="115.6" height="126"/>
		<rect x="2623.8" y="363.6" class="st18" width="115.6" height="126"/>
		<rect x="2746.6" y="363.6" class="st18" width="115.6" height="126"/>
		<rect x="2869.4" y="363.6" class="st18" width="115.6" height="126"/>
		<rect x="2992.2" y="363.6" class="st18" width="115.6" height="126"/>
		<rect x="3115" y="363.6" class="st18" width="115.6" height="126"/>
		<rect x="3237.8" y="363.6" class="st18" width="115.6" height="126"/>
		<rect x="3360.6" y="363.6" class="st18" width="115.6" height="126"/>
		<rect x="3483.4" y="363.6" class="st18" width="115.6" height="126"/>
		<rect x="2501" y="496.8" class="st18" width="115.6" height="126"/>
		<rect x="2623.8" y="496.8" class="st18" width="115.6" height="126"/>
		<rect x="2746.6" y="496.8" class="st18" width="115.6" height="126"/>
		<rect x="2869.4" y="496.8" class="st18" width="115.6" height="126"/>
		<rect x="2992.2" y="496.8" class="st18" width="115.6" height="126"/>
		<rect x="3115" y="496.8" class="st18" width="115.6" height="126"/>
		<rect x="3237.8" y="496.8" class="st18" width="115.6" height="126"/>
		<rect x="3360.6" y="496.8" class="st18" width="115.6" height="126"/>
		<rect x="3483.4" y="496.8" class="st18" width="115.6" height="126"/>
		<rect x="2501" y="630" class="st18" width="115.6" height="126"/>
		<rect x="2623.8" y="630" class="st18" width="115.6" height="126"/>
		<rect x="2746.6" y="630" class="st18" width="115.6" height="126"/>
		<rect x="2869.4" y="630" class="st18" width="115.6" height="126"/>
		<rect x="2992.2" y="630" class="st18" width="115.6" height="126"/>
		<rect x="3115" y="630" class="st18" width="115.6" height="126"/>
		<rect x="3237.8" y="630" class="st18" width="115.6" height="126"/>
		<rect x="3360.6" y="630" class="st18" width="115.6" height="126"/>
		<rect x="3483.4" y="630" class="st18" width="115.6" height="126"/>
		<rect x="2501" y="763.2" class="st18" width="115.6" height="126"/>
		<rect x="2623.8" y="763.2" class="st18" width="115.6" height="126"/>
		<rect x="2746.6" y="763.2" class="st18" width="115.6" height="126"/>
		<rect x="2869.4" y="763.2" class="st18" width="115.6" height="126"/>
		<rect x="2992.2" y="763.2" class="st18" width="115.6" height="126"/>
		<rect x="3115" y="763.2" class="st18" width="115.6" height="126"/>
		<rect x="3237.8" y="763.2" class="st18" width="115.6" height="126"/>
		<rect x="3360.6" y="763.2" class="st18" width="115.6" height="126"/>
		<rect x="3483.4" y="763.2" class="st18" width="115.6" height="126"/>
		<rect x="2501" y="896.4" class="st18" width="115.6" height="126"/>
		<rect x="2623.8" y="896.4" class="st18" width="115.6" height="126"/>
		<rect x="2746.6" y="896.4" class="st18" width="115.6" height="126"/>
		<rect x="2869.4" y="896.4" class="st18" width="115.6" height="126"/>
		<rect x="2992.2" y="896.4" class="st18" width="115.6" height="126"/>
		<rect x="3115" y="896.4" class="st18" width="115.6" height="126"/>
		<rect x="3237.8" y="896.4" class="st18" width="115.6" height="126"/>
		<rect x="3360.6" y="896.4" class="st18" width="115.6" height="126"/>
		<rect x="3483.4" y="896.4" class="st18" width="115.6" height="126"/>
		<rect x="2501" y="1029.6" class="st18" width="115.6" height="126"/>
		<rect x="2623.8" y="1029.6" class="st18" width="115.6" height="126"/>
		<rect x="2746.6" y="1029.6" class="st18" width="115.6" height="126"/>
		<rect x="2869.4" y="1029.6" class="st18" width="115.6" height="126"/>
		<rect x="2992.2" y="1029.6" class="st18" width="115.6" height="126"/>
		<rect x="3115" y="1029.6" class="st18" width="115.6" height="126"/>
		<rect x="3237.8" y="1029.6" class="st18" width="115.6" height="126"/>
		<rect x="3360.6" y="1029.6" class="st18" width="115.6" height="126"/>
		<rect x="3483.4" y="1029.6" class="st18" width="115.6" height="126"/>
		<rect x="2501" y="1162.8" class="st18" width="115.6" height="126"/>
		<rect x="2623.8" y="1162.8" class="st18" width="115.6" height="126"/>
		<rect x="2746.6" y="1162.8" class="st18" width="115.6" height="126"/>
		<rect x="2869.4" y="1162.8" class="st18" width="115.6" height="126"/>
		<rect x="2992.2" y="1162.8" class="st18" width="115.6" height="126"/>
		<rect x="3115" y="1162.8" class="st18" width="115.6" height="126"/>
		<rect x="3237.8" y="1162.8" class="st18" width="115.6" height="126"/>
		<rect x="3360.6" y="1162.8" class="st18" width="115.6" height="126"/>
		<rect x="3483.4" y="1162.8" class="st18" width="115.6" height="126"/>
		<rect x="2501" y="1296" class="st18" width="115.6" height="126"/>
		<rect x="2623.8" y="1296" class="st18" width="115.6" height="126"/>
		<rect x="2746.6" y="1296" class="st18" width="115.6" height="126"/>
		<rect x="2869.4" y="1296" class="st18" width="115.6" height="126"/>
		<rect x="2992.2" y="1296" class="st18" width="115.6" height="126"/>
		<rect x="3115" y="1296" class="st18" width="115.6" height="126"/>
		<rect x="3237.8" y="1296" class="st18" width="115.6" height="126"/>
		<rect x="3360.6" y="1296" class="st18" width="115.6" height="126"/>
		<rect x="3483.4" y="1296" class="st18" width="115.6" height="126"/>
	</g>
</g>
<g id="Research">
	
		<image style="overflow:visible;" width="600" height="876" xlink:href="poster1.jpg"  transform="matrix(2.0446 0 0 2.0446 -4372.2495 -1828.9093)">
	</image>
	
		<image style="overflow:visible;" width="716" height="1008" xlink:href="poster2.jpg"  transform="matrix(1 0 0 1 -6030.689 -75.5615)">
	</image>
	
		<image style="overflow:visible;" width="1152" height="1512" xlink:href="poster3.png"  transform="matrix(1 0 0 1 -5890.689 -1828.9093)">
	</image>
	
		<image style="overflow:visible;" width="1200" height="1691" xlink:href="poster4.jpg"  transform="matrix(1 0 0 1 -2773.4673 -316.9092)">
	</image>
	
		<image style="overflow:visible;" width="660" height="934" xlink:href="poster5.jpg"  transform="matrix(0.7008 0 0 0.7008 -3002.4373 -756.2523)">
	</image>
	
		<image style="overflow:visible;" width="756" height="960" xlink:href="poster6.jpg"  transform="matrix(2.4044 0 0 2.4044 -4256.0513 -4296.9893)">
	</image>
	
		<image style="overflow:visible;" width="600" height="424" xlink:href="poster7.jpg"  transform="matrix(3.1994 0 0 3.1994 -6406.6328 -3979.6599)">
	</image>
	
		<image style="overflow:visible;" width="595" height="842" xlink:href="poster8.jpg"  transform="matrix(1.8962 0 0 1.8962 -4487.022 5344.4707)">
	</image>
	
		<image style="overflow:visible;" width="227" height="320" xlink:href="poster9.jpg"  transform="matrix(1 0 0 1 -6855.0098 680.0353)">
	</image>
	
		<image style="overflow:visible;" width="760" height="950" xlink:href="poster10.jpg"  transform="matrix(1 0 0 1 -4138.8628 2198.8857)">
	</image>
	
		<image style="overflow:visible;" width="774" height="1032" xlink:href="poster11.jpg"  transform="matrix(0.72 0 0 0.72 -6507.418 1385.9543)">
	</image>
	
		<image style="overflow:visible;" width="750" height="1076" xlink:href="poster12.jpg"  transform="matrix(1.7539 0 0 1.7539 -6228.7783 3451.4446)">
	</image>
	
		<image style="overflow:visible;" width="1059" height="1497" xlink:href="poster13.jpg"  transform="matrix(2.0665 0 0 2.0665 -7124.9111 5476.4399)">
	</image>
	
		<image style="overflow:visible;" width="948" height="1534" xlink:href="poster14.jpg"  transform="matrix(1.1872 0 0 1.1872 -3151.6763 3240.8364)">
	</image>
	
		<image style="overflow:visible;" width="450" height="637" xlink:href="poster15.jpg"  transform="matrix(2.8589 0 0 2.8589 -1936.2394 3240.8364)">
	</image>
	
		<image style="overflow:visible;" width="432" height="611" xlink:href="poster16.jpg"  transform="matrix(2.775 0 0 2.775 -5571.0596 1511.1162)">
	</image>
	
		<image style="overflow:visible;" width="324" height="500" xlink:href="poster17.jpg"  transform="matrix(3.4805 0 0 3.4805 -4487.022 3432.1172)">
	</image>
	
		<image style="overflow:visible;" width="600" height="900" xlink:href="poster18.png"  transform="matrix(1 0 0 1 -5038.689 218.5175)">
	</image>
	
		<image style="overflow:visible;" width="192" height="307" xlink:href="poster19.jpg"  transform="matrix(6 0 0 6 -3923.1807 122.0175)">
	</image>
	
		<image style="overflow:visible;" width="474" height="572" xlink:href="poster20.jpg"  transform="matrix(2.522 0 0 2.522 -3368.894 1677.1434)">
	</image>
</g>
<g id="grid" class="st16">
	<rect x="-13.2" y="-9.6" class="st19" width="138.3" height="169.6"/>
	<rect x="125.1" y="-9.6" class="st19" width="138.3" height="169.6"/>
	<rect x="263.4" y="-9.6" class="st19" width="138.3" height="169.6"/>
	<rect x="401.7" y="-9.6" class="st19" width="138.3" height="169.6"/>
	<rect x="540" y="-9.6" class="st19" width="138.3" height="169.6"/>
	<rect x="678.3" y="-9.6" class="st19" width="138.3" height="169.6"/>
	<rect x="816.6" y="-9.6" class="st19" width="138.3" height="169.6"/>
	<rect x="954.9" y="-9.6" class="st19" width="138.3" height="169.6"/>
	<rect x="-13.2" y="174.5" class="st19" width="138.3" height="169.6"/>
	<rect x="125.1" y="174.5" class="st19" width="138.3" height="169.6"/>
	<rect x="263.4" y="174.5" class="st19" width="138.3" height="169.6"/>
	<rect x="401.7" y="174.5" class="st19" width="138.3" height="169.6"/>
	<rect x="540" y="174.5" class="st19" width="138.3" height="169.6"/>
	<rect x="678.3" y="174.5" class="st19" width="138.3" height="169.6"/>
	<rect x="816.6" y="174.5" class="st19" width="138.3" height="169.6"/>
	<rect x="954.9" y="174.5" class="st19" width="138.3" height="169.6"/>
	<rect x="-13.2" y="358.5" class="st19" width="138.3" height="169.6"/>
	<rect x="125.1" y="358.5" class="st19" width="138.3" height="169.6"/>
	<rect x="263.4" y="358.5" class="st19" width="138.3" height="169.6"/>
	<rect x="401.7" y="358.5" class="st19" width="138.3" height="169.6"/>
	<rect x="540" y="358.5" class="st19" width="138.3" height="169.6"/>
	<rect x="678.3" y="358.5" class="st19" width="138.3" height="169.6"/>
	<rect x="816.6" y="358.5" class="st19" width="138.3" height="169.6"/>
	<rect x="954.9" y="358.5" class="st19" width="138.3" height="169.6"/>
	<rect x="-13.2" y="542.6" class="st19" width="138.3" height="169.6"/>
	<rect x="125.1" y="542.6" class="st19" width="138.3" height="169.6"/>
	<rect x="263.4" y="542.6" class="st19" width="138.3" height="169.6"/>
	<rect x="401.7" y="542.6" class="st19" width="138.3" height="169.6"/>
	<rect x="540" y="542.6" class="st19" width="138.3" height="169.6"/>
	<rect x="678.3" y="542.6" class="st19" width="138.3" height="169.6"/>
	<rect x="816.6" y="542.6" class="st19" width="138.3" height="169.6"/>
	<rect x="954.9" y="542.6" class="st19" width="138.3" height="169.6"/>
	<rect x="-13.2" y="726.6" class="st19" width="138.3" height="169.6"/>
	<rect x="125.1" y="726.6" class="st19" width="138.3" height="169.6"/>
	<rect x="263.4" y="726.6" class="st19" width="138.3" height="169.6"/>
	<rect x="401.7" y="726.6" class="st19" width="138.3" height="169.6"/>
	<rect x="540" y="726.6" class="st19" width="138.3" height="169.6"/>
	<rect x="678.3" y="726.6" class="st19" width="138.3" height="169.6"/>
	<rect x="816.6" y="726.6" class="st19" width="138.3" height="169.6"/>
	<rect x="954.9" y="726.6" class="st19" width="138.3" height="169.6"/>
	<rect x="-13.2" y="910.7" class="st19" width="138.3" height="169.6"/>
	<rect x="125.1" y="910.7" class="st19" width="138.3" height="169.6"/>
	<rect x="263.4" y="910.7" class="st19" width="138.3" height="169.6"/>
	<rect x="401.7" y="910.7" class="st19" width="138.3" height="169.6"/>
	<rect x="540" y="910.7" class="st19" width="138.3" height="169.6"/>
	<rect x="678.3" y="910.7" class="st19" width="138.3" height="169.6"/>
	<rect x="816.6" y="910.7" class="st19" width="138.3" height="169.6"/>
	<rect x="954.9" y="910.7" class="st19" width="138.3" height="169.6"/>
	<rect x="-13.2" y="1094.7" class="st19" width="138.3" height="169.6"/>
	<rect x="125.1" y="1094.7" class="st19" width="138.3" height="169.6"/>
	<rect x="263.4" y="1094.7" class="st19" width="138.3" height="169.6"/>
	<rect x="401.7" y="1094.7" class="st19" width="138.3" height="169.6"/>
	<rect x="540" y="1094.7" class="st19" width="138.3" height="169.6"/>
	<rect x="678.3" y="1094.7" class="st19" width="138.3" height="169.6"/>
	<rect x="816.6" y="1094.7" class="st19" width="138.3" height="169.6"/>
	<rect x="954.9" y="1094.7" class="st19" width="138.3" height="169.6"/>
	<rect x="-13.2" y="1278.8" class="st19" width="138.3" height="169.6"/>
	<rect x="125.1" y="1278.8" class="st19" width="138.3" height="169.6"/>
	<rect x="263.4" y="1278.8" class="st19" width="138.3" height="169.6"/>
	<rect x="401.7" y="1278.8" class="st19" width="138.3" height="169.6"/>
	<rect x="540" y="1278.8" class="st19" width="138.3" height="169.6"/>
	<rect x="678.3" y="1278.8" class="st19" width="138.3" height="169.6"/>
	<rect x="816.6" y="1278.8" class="st19" width="138.3" height="169.6"/>
	<rect x="954.9" y="1278.8" class="st19" width="138.3" height="169.6"/>
</g>
</svg>
