<?xml version="1.0" encoding="utf-8"?>
<!-- Generator: Adobe Illustrator 23.0.3, SVG Export Plug-In . SVG Version: 6.00 Build 0)  -->
<svg version="1.1" id="Layer_1" xmlns="http://www.w3.org/2000/svg" xmlns:xlink="http://www.w3.org/1999/xlink" x="0px" y="0px"
	 viewBox="0 0 576 576" style="enable-background:new 0 0 576 576;" xml:space="preserve">
<style type="text/css">
	.st0{fill:none;stroke:#000000;stroke-miterlimit:10;}
	.st1{opacity:0.52;fill:#666666;}
	.st2{font-family:'CormorantGaramond-Bold';}
	.st3{font-size:122px;}
	.st4{fill:none;}
	.st5{font-size:17px;}
	.st6{font-size:13px;}
</style>
<line class="st0" x1="-1498.4" y1="116.4" x2="-1497.6" y2="116.4"/>
<text transform="matrix(0.7529 -0.6581 0.6581 0.7529 37.8177 267.0473)" class="st1 st2 st3">29th</text>
<rect x="12.4" y="216.7" class="st4" width="317.6" height="13.1"/>
<text transform="matrix(1 0 0 1 12.3717 228.9817)" class="st2 st5">Vancouver International Film Festival presents</text>
<rect x="16.4" y="272.9" class="st4" width="197.7" height="57.4"/>
<text transform="matrix(1 0 0 1 16.3711 285.1843)"><tspan x="0" y="0" class="st2 st5">Festival Winners</tspan><tspan x="0" y="20.4" class="st2 st5">Audience Choice Awards</tspan><tspan x="0" y="40.8" class="st2 st5">2012</tspan></text>
<rect x="12.4" y="335.6" class="st4" width="138.5" height="10.6"/>
<text transform="matrix(1 0 0 1 16.1494 345.0021)" class="st2 st6">Playing July 1 - July 8, 2013</text>
<rect x="351.4" y="29.4" class="st4" width="180.8" height="82.8"/>
<text transform="matrix(1 0 0 1 446.5151 41.7055)"><tspan x="0" y="0" class="st2 st5">THE HUNT</tspan><tspan x="-13" y="15.6" class="st2 st6">Thomas Vintergerg</tspan><tspan x="-72.1" y="36.2" class="st2 st6">Rogers People’s Choice Award</tspan><tspan x="-31.2" y="51.8" class="st2 st6">Denmark/Sweden 2012</tspan><tspan x="47.4" y="67.4" class="st2 st6">110 min</tspan></text>
<rect x="272" y="128" class="st4" width="262.7" height="132.6"/>
<text transform="matrix(1 0 0 1 475.773 140.3656)"><tspan x="0" y="0" class="st2 st5">I,ANNA</tspan><tspan x="-51.6" y="15.6" class="st2 st6">Barnaby Southcombe</tspan><tspan x="-175.5" y="36.2" class="st2 st6">VIFF Most International First Feature Award</tspan><tspan x="-67.8" y="51.8" class="st2 st6">UK/Germay/France 2012</tspan><tspan x="24.4" y="67.4" class="st2 st6">93 min</tspan></text>
<rect x="299" y="238.2" class="st4" width="233.1" height="99.5"/>
<text transform="matrix(1 0 0 1 352.03 250.5626)"><tspan x="0" y="0" class="st2 st5">BECOMING REDWOOD</tspan><tspan x="88.3" y="15.6" class="st2 st6">Jesse James Miller</tspan><tspan x="-36.6" y="36.2" class="st2 st6">VIFF Most Popular Canadian Film Award</tspan><tspan x="117.4" y="51.8" class="st2 st6">Canada 2012</tspan><tspan x="144.3" y="67.4" class="st2 st6">98 min</tspan></text>
<rect x="270.7" y="350.3" class="st4" width="265.2" height="88.1"/>
<text transform="matrix(1 0 0 1 394.54 362.6151)"><tspan x="0" y="0" class="st2 st5">BLOOD RELATIVE</tspan><tspan x="47.5" y="15.6" class="st2 st6">Nimisha Mukherji</tspan><tspan x="-121.8" y="36.2" class="st2 st6">VIFF Most Popular Canadian Documentary Award</tspan><tspan x="78.7" y="51.8" class="st2 st6">Canada 2012</tspan><tspan x="107.1" y="67.4" class="st2 st6">75 min</tspan></text>
<rect x="242.4" y="463.8" class="st4" width="295.6" height="84.5"/>
<text transform="matrix(1 0 0 1 429.1042 476.1649)"><tspan x="0" y="0" class="st2 st5">REVOLUTION</tspan><tspan x="43.6" y="15.6" class="st2 st6">Rob Stewart</tspan><tspan x="-115" y="36.2" class="st2 st6">VIFF Environmental Film Audience Award</tspan><tspan x="46.2" y="51.8" class="st2 st6">Canada 2012</tspan><tspan x="73.3" y="67.4" class="st2 st6">90 min</tspan></text>
<rect x="17.8" y="361.3" class="st4" width="238.2" height="77"/>
<text transform="matrix(1 0 0 1 17.7502 370.7646)"><tspan x="0" y="0" class="st2 st6">Beginning in 1988 when the VIFF gave out its </tspan><tspan x="0" y="15.6" class="st2 st6">first “Most Popular Film” prize to Some Girls, </tspan><tspan x="0" y="31.2" class="st2 st6">the Festival has offered a number of awards – </tspan><tspan x="0" y="46.8" class="st2 st6">both adjudicated and voted on by you, the </tspan><tspan x="0" y="62.4" class="st2 st6">audience – to deserving films. </tspan></text>
<rect x="17.8" y="443.5" class="st4" width="291.4" height="28.5"/>
<text transform="matrix(1 0 0 1 17.7507 452.9171)"><tspan x="0" y="0" class="st2 st6">For further information about the festival and the films, </tspan><tspan x="0" y="15.6" class="st2 st6">please visit: www.viff.org/home.</tspan></text>
</svg>
