<?xml version="1.0" encoding="utf-8"?>
<!-- Generator: Adobe Illustrator 23.0.3, SVG Export Plug-In . SVG Version: 6.00 Build 0)  -->
<svg version="1.1" id="Layer_1" xmlns="http://www.w3.org/2000/svg" xmlns:xlink="http://www.w3.org/1999/xlink" x="0px" y="0px"
	 viewBox="0 0 576 576" style="enable-background:new 0 0 576 576;" xml:space="preserve">
<style type="text/css">
	.st0{fill:none;stroke:#000000;stroke-miterlimit:10;}
	.st1{font-family:'ZillaSlab-Bold';}
	.st2{font-size:59px;}
	.st3{fill:none;}
	.st4{font-size:14px;}
	.st5{font-family:'ZillaSlab-Regular';}
	.st6{font-size:12px;}
</style>
<line class="st0" x1="-2094.4" y1="116.4" x2="-2093.6" y2="116.4"/>
<text transform="matrix(1 0 0 1 384.5451 72.9756)" class="st1 st2">29</text>
<text transform="matrix(1 0 0 1 416.0413 109.4344)" class="st1 st2">th</text>
<rect x="255" y="78.3" class="st3" width="158.3" height="83.9"/>
<text transform="matrix(1 0 0 1 259.7256 87.9642)"><tspan x="0" y="0" class="st1 st4">Vancouver International</tspan><tspan x="73.3" y="16.8" class="st1 st4">Film Festival</tspan><tspan x="98.8" y="33.6" class="st1 st4">Presents</tspan><tspan x="45.9" y="48" class="st5 st6">playing July 1- July 8</tspan><tspan x="130" y="62.4" class="st5 st6">2013</tspan></text>
<rect x="419.8" y="113" class="st3" width="126" height="82.7"/>
<text transform="matrix(1 0 0 1 419.7894 122.6715)"><tspan x="0" y="0" class="st1 st4">2012 </tspan><tspan x="0" y="16.8" class="st1 st4">Festival Winners</tspan><tspan x="0" y="33.6" class="st1 st4">Audience Choice </tspan><tspan x="0" y="50.4" class="st1 st4">Awards</tspan></text>
<rect x="3.5" y="102" class="st3" width="265.7" height="438.3"/>
<text transform="matrix(1 0 0 1 209.7693 111.6321)"><tspan x="0" y="0" class="st1 st4">The Hunt</tspan><tspan x="-42.1" y="14.4" class="st5 st6">Thomas Vintergerg</tspan><tspan x="-96.2" y="32.8" class="st5 st6">Rogers People’s Choice Award</tspan><tspan x="-108.9" y="47.2" class="st5 st6">Denmark/Sweden 2012 (110 min)</tspan><tspan x="15.4" y="92.8" class="st1 st4">I, Anna</tspan><tspan x="-51.2" y="107.2" class="st5 st6">Barnaby Southcombe</tspan><tspan x="-173.3" y="125.6" class="st5 st6">VIFF Most International First Feature Award</tspan><tspan x="-120.3" y="140" class="st5 st6">UK/Germany/France 2012 (93 min)</tspan><tspan x="-62.3" y="185.6" class="st1 st4">Becoming Redwood</tspan><tspan x="-36.9" y="200" class="st5 st6">Jesse James Miller</tspan><tspan x="-153" y="218.4" class="st5 st6">VIFF Most Popular Canadian Film Award</tspan><tspan x="-51.3" y="232.8" class="st5 st6">Canada 2012 (98 min)</tspan><tspan x="-29.3" y="278.4" class="st1 st4">Blood Relative</tspan><tspan x="-34.4" y="292.8" class="st5 st6">Nimisha Mukherji</tspan><tspan x="-200.6" y="311.2" class="st5 st6">VIFF Most Popular Canadian Documentary Award</tspan><tspan x="-50.3" y="325.6" class="st5 st6">Canada 2012 (75 min)</tspan><tspan x="-8.6" y="371.2" class="st1 st4">Revolution</tspan><tspan x="-4.3" y="385.6" class="st5 st6">Rob Stewart</tspan><tspan x="-160.5" y="404" class="st5 st6">VIFF Environmental Film Audience Award</tspan><tspan x="-51.8" y="418.4" class="st5 st6">Canada 2012 (90 min)</tspan></text>
<rect x="308.6" y="219.7" class="st3" width="215" height="160.6"/>
<text transform="matrix(1 0 0 1 308.561 227.9535)"><tspan x="0" y="0" class="st5 st6">Beginning in 1988 when the VIFF gave </tspan><tspan x="0" y="14.4" class="st5 st6">out its first “Most Popular Film” prize to </tspan><tspan x="0" y="28.8" class="st5 st6">Some Girls, the Festival has offered a </tspan><tspan x="0" y="43.2" class="st5 st6">number of awards – both adjudicated </tspan><tspan x="0" y="57.6" class="st5 st6">and voted on by you, the audience – to </tspan><tspan x="0" y="72" class="st5 st6">deserving films.</tspan><tspan x="0" y="100.8" class="st5 st6">For further information about the festi</tspan><tspan x="200.1" y="100.8" class="st5 st6">-</tspan><tspan x="0" y="115.2" class="st5 st6">val and the films, please visit:</tspan><tspan x="0" y="132" class="st1 st4">www.viff.org/home.</tspan></text>
</svg>
