<?xml version="1.0" encoding="utf-8"?>
<!-- Generator: Adobe Illustrator 23.0.3, SVG Export Plug-In . SVG Version: 6.00 Build 0)  -->
<svg version="1.1" id="Layer_1" xmlns="http://www.w3.org/2000/svg" xmlns:xlink="http://www.w3.org/1999/xlink" x="0px" y="0px"
	 viewBox="0 0 576 576" style="enable-background:new 0 0 576 576;" xml:space="preserve">
<style type="text/css">
	.st0{font-family:'CormorantGaramond-Bold';}
	.st1{font-size:122px;}
	.st2{fill:none;}
	.st3{font-size:17px;}
	.st4{fill:none;stroke:#000000;stroke-miterlimit:10;}
	.st5{font-size:13px;}
</style>
<text transform="matrix(1 0 0 1 86.8194 68.416)" class="st0 st1">29</text>
<text transform="matrix(1 0 0 1 123.9849 130.0778)" class="st0 st1">th</text>
<rect x="187.3" y="63.8" class="st2" width="318.4" height="20.3"/>
<text transform="matrix(1 0 0 1 187.2824 76.1323)" class="st0 st3">Vancouver International Film Festival presents</text>
<line class="st4" x1="-96.5" y1="116.4" x2="-95.6" y2="116.4"/>
<rect x="58.8" y="499.4" class="st2" width="466.3" height="43.1"/>
<text transform="matrix(1 0 0 1 72.1656 508.87)"><tspan x="0" y="0" class="st0 st5">Beginning in 1988 when the VIFF gave out its first “Most Popular Film” prize to Some </tspan><tspan x="-11.5" y="15.6" class="st0 st5">Girls, the Festival has offered a number of awards – both adjudicated and voted on by you, </tspan><tspan x="134.3" y="31.2" class="st0 st5">the audience – to deserving films. </tspan></text>
<rect x="67.3" y="553.5" class="st2" width="461.2" height="14.4"/>
<text transform="matrix(1 0 0 1 67.2946 562.9286)" class="st0 st5">For further information about the festival and the films, please visit www.viff.org/home.</text>
<rect x="219.8" y="75.8" class="st2" width="188" height="54.2"/>
<text transform="matrix(1 0 0 1 300.0893 88.163)"><tspan x="0" y="0" class="st0 st3">2012</tspan><tspan x="-42.4" y="20.4" class="st0 st3">Festival Winners</tspan><tspan x="-72" y="40.8" class="st0 st3">Audience Choice Awards</tspan></text>
<rect x="70" y="150.9" class="st2" width="170.6" height="118.3"/>
<text transform="matrix(1 0 0 1 112.5143 163.2368)"><tspan x="0" y="0" class="st0 st3">THE HUNT</tspan><tspan x="-6.5" y="15.6" class="st0 st5">Thomas Vintergerg</tspan><tspan x="32.3" y="31.2" class="st0 st5">2012</tspan><tspan x="-38.2" y="46.8" class="st0 st5">Rogers People’s Choice Awards</tspan><tspan x="-3.6" y="62.4" class="st0 st5">Denmark/Sweden</tspan><tspan x="23.7" y="78" class="st0 st5">110 min</tspan></text>
<rect x="303.9" y="155.1" class="st2" width="258.5" height="114"/>
<text transform="matrix(1 0 0 1 401.6886 167.4602)"><tspan x="0" y="0" class="st0 st3">I, ANNA</tspan><tspan x="-23.8" y="15.6" class="st0 st5">Barnaby Southcombe</tspan><tspan x="21" y="31.2" class="st0 st5">2012</tspan><tspan x="-85.8" y="46.8" class="st0 st5">VIFF Most International First Feature Award</tspan><tspan x="-23.3" y="62.4" class="st0 st5">UK/Germany/France</tspan><tspan x="14.2" y="78" class="st0 st5">93 min</tspan></text>
<rect x="179.5" y="247.3" class="st2" width="217.1" height="96.3"/>
<text transform="matrix(1 0 0 1 197.9351 259.6328)"><tspan x="0" y="0" class="st0 st3">BECOMING REDWOOD</tspan><tspan x="44.2" y="15.6" class="st0 st5">Jesse James Miller</tspan><tspan x="79.6" y="31.2" class="st0 st5">2012</tspan><tspan x="-18.3" y="46.8" class="st0 st5">VIFF Most Popular Canadian Film Award</tspan><tspan x="70.7" y="62.4" class="st0 st5">Canada</tspan><tspan x="72.2" y="78" class="st0 st5">98 min</tspan></text>
<rect x="22.7" y="340.5" class="st2" width="265.3" height="99.4"/>
<text transform="matrix(1 0 0 1 84.6264 352.8649)"><tspan x="0" y="0" class="st0 st3">BLOOD RELATIVE</tspan><tspan x="23.8" y="15.6" class="st0 st5">Nimisha Mukherji</tspan><tspan x="60.2" y="31.2" class="st0 st5">2012</tspan><tspan x="-60.9" y="46.8" class="st0 st5">VIFF Most Popular Canadian Documentary Award</tspan><tspan x="51.3" y="62.4" class="st0 st5">Canada</tspan><tspan x="53.6" y="78" class="st0 st5">75 min</tspan></text>
<rect x="315.7" y="340.2" class="st2" width="234.8" height="99.7"/>
<text transform="matrix(1 0 0 1 378.6536 352.5479)"><tspan x="0" y="0" class="st0 st3">REVOLUTION</tspan><tspan x="21.8" y="15.6" class="st0 st5">Rob Stewart</tspan><tspan x="44" y="31.2" class="st0 st5">2012</tspan><tspan x="-57.5" y="46.8" class="st0 st5">VIFF Environmental Film Audience Award</tspan><tspan x="35.1" y="62.4" class="st0 st5">Canada</tspan><tspan x="36.7" y="78" class="st0 st5">90 min</tspan></text>
<rect x="170.3" y="472.8" class="st2" width="255.1" height="22.8"/>
<text transform="matrix(1 0 0 1 211.8062 485.1631)" class="st0 st3">Playing July 1 - July 8,2013</text>
</svg>
