<?xml version="1.0" encoding="utf-8"?>
<!-- Generator: Adobe Illustrator 23.0.3, SVG Export Plug-In . SVG Version: 6.00 Build 0)  -->
<svg version="1.1" xmlns="http://www.w3.org/2000/svg" xmlns:xlink="http://www.w3.org/1999/xlink" x="0px" y="0px"
	 viewBox="0 0 792 607.9" style="enable-background:new 0 0 792 607.9;" xml:space="preserve">
<style type="text/css">
	.st0{fill:#F2F2F2;}
	.st1{fill:#F0E79A;}
	.st2{fill:#6FCFEB;}
	.st3{fill:#00269A;}
	.st4{fill:#AFDC9A;}
	.st5{fill:#C166EB;}
	.st6{display:none;fill:#F0E79A;}
</style>
<g id="Layer_2">
	<rect class="st0" width="792" height="607.9"/>
</g>
<g id="Layer_1">
	<g id="plane_body">
		<polygon class="st1" points="365.4,162.3 365.4,162.3 365.3,162.3 		"/>
		<path class="st1" d="M359.4,134.8c0,0,0,0.1,0,0.2c0,0,0.1,0.1,0.1,0.1L359.4,134.8z M365.3,162.3L365.3,162.3L365.3,162.3
			L365.3,162.3z"/>
		<path class="st1" d="M427.3,106.7c-3.7,0-7.4,0.4-11,1c-3.6,0.5-7.2,1.2-10.8,2c-7.2,1.5-14.3,3.2-21.5,5l-10.7,2.8
			c-3.6,0.9-7.1,2-10.6,3c-6.8,2-13.6,4.1-20.3,6.3c-0.1,0-0.2,0.1-0.3,0.1c-0.1,0-0.2,0-0.2,0.1c0,0,0,0,0,0c0,0,0,0,0,0h0
			c0,0-0.1,0-0.1,0c5.8,2.6,11.7,5.3,17.7,8.1c0,0,0-0.1,0-0.2l0.2,0.2c0,0-0.1,0-0.1-0.1c0.9,4.6,1.7,9.1,2.6,13.7l2.4,11.8
			l0.1,0.3l0.3,1.7l0.6,2.8l0.4-2.9l0.1-0.6l5.5-5.4c1.1-1,2.1-2.1,3.1-3.3l3-3.4l0.1-0.1l11.6,8l0.6,0.4l0.2-0.8
			c0.5-2.5,1.6-4.9,2.9-7.1c1.3-2.3,2.7-4.5,4.2-6.6c3-4.3,6.2-8.5,9.6-12.5c6.7-8.1,13.7-16,21-23.6l0.8-0.8L427.3,106.7z
			 M365.4,162.3L365.4,162.3L365.4,162.3L365.4,162.3z M368.5,142.2l-0.7-0.4l-0.1,0.8l-0.7,4.5l-0.1,0.5c0,0.2-0.1,0.3-0.1,0.5
			l-1.6,11.3l-0.1-0.7l-2.1-10.3c-0.9-4.6-2-9.2-3-13.8l0-0.1c47.9-22.3,61.3-26.8,61.7-26c0.3,0.5-7.1,3.6-15,8.4
			c-16.3,10-29.2,18.9-38.1,25.4L368.5,142.2z"/>
	</g>
	<path id="plane-inner" class="st2" d="M421.7,108.6c0.3,0.5-7.1,3.6-15,8.4c-16.3,10-29.2,18.9-38.1,25.4l-0.1-0.1l-0.7-0.5
		l-0.1,0.8l-0.6,4.5l-0.1,0.5c0,0.2,0,0.4-0.1,0.5l-1.6,11.3l-0.1-0.5l0-0.2l-2.1-10.3c-0.9-4.6-2-9.2-3-13.8l0-0.1
		C408,112.3,421.4,107.9,421.7,108.6z"/>
	<path id="color-wave2" class="st3" d="M343.9,167.6c-3-0.2-5.9-1.9-7.6-4.4c-0.8-1.3-1.4-2.7-1.7-4.2c-0.3-1.5-0.4-3-0.2-4.5
		c0.3-3,2-5.8,4.5-7.6c2.5-1.8,5.8-2.4,8.6-1.7l0,0.1c-2.9-0.3-5.9,0.5-8.2,2.2c-2.3,1.7-4,4.2-4.6,7c-0.3,1.4-0.3,2.9,0.1,4.3
		c0.3,1.4,1.1,2.7,1.9,3.9C338.5,165.1,341,166.8,343.9,167.6L343.9,167.6z"/>
	<path id="color-wave" class="st3" d="M364.5,160.8c-0.8,1.8-2.1,3.4-3.7,4.5c-2.4,1.8-5.6,2.5-8.6,2c-3-0.5-5.8-2.2-7.5-4.7
		c-1.7-2.5-2.3-5.8-1.6-8.6l0.1,0c-0.3,2.9,0.4,5.9,2.1,8.2c1.7,2.3,4.2,4,7,4.6c2.8,0.5,5.9-0.1,8.3-1.7c1.7-1.1,3-2.7,3.9-4.5
		L364.5,160.8z"/>
	<g>
		<g id="plane_body_1_">
			<polygon class="st3" points="502.3,294.7 502.3,294.7 502.3,294.7 			"/>
			<path class="st3" d="M496.3,267.2c0,0,0,0.1,0,0.2c0,0,0.1,0.1,0.1,0.1L496.3,267.2z M502.3,294.7L502.3,294.7L502.3,294.7
				L502.3,294.7z"/>
			<path class="st3" d="M564.2,239.1c-3.7,0-7.4,0.4-11,1c-3.6,0.5-7.2,1.2-10.8,2c-7.2,1.5-14.3,3.2-21.5,5l-10.7,2.8
				c-3.6,0.9-7.1,2-10.6,3c-6.8,2-13.6,4.1-20.3,6.3c-0.1,0-0.2,0.1-0.3,0.1c-0.1,0-0.2,0-0.2,0.1c0,0,0,0,0,0c0,0,0,0,0,0h0
				c0,0-0.1,0-0.1,0c5.8,2.6,11.7,5.3,17.7,8.1c0,0,0-0.1,0-0.2l0.2,0.2c0,0-0.1,0-0.1-0.1c0.9,4.6,1.7,9.1,2.6,13.7l2.4,11.8
				l0.1,0.3l0.3,1.7l0.6,2.8l0.4-2.9l0.1-0.6l5.5-5.4c1.1-1,2.1-2.1,3.1-3.3l3-3.4l0.1-0.1l11.6,8l0.6,0.4l0.2-0.8
				c0.5-2.5,1.6-4.9,2.9-7.1c1.3-2.3,2.7-4.5,4.2-6.6c3-4.3,6.2-8.5,9.6-12.5c6.7-8.1,13.7-16,21-23.6l0.8-0.8L564.2,239.1z
				 M502.3,294.7L502.3,294.7L502.3,294.7L502.3,294.7z M505.4,274.6l-0.7-0.4l-0.1,0.8l-0.7,4.5l-0.1,0.5c0,0.2-0.1,0.3-0.1,0.5
				l-1.6,11.3l-0.1-0.7l-2.1-10.3c-0.9-4.6-2-9.2-3-13.8l0-0.1c47.9-22.3,61.3-26.8,61.7-26c0.3,0.5-7.1,3.6-15,8.4
				c-16.3,10-29.2,18.9-38.1,25.4L505.4,274.6z"/>
		</g>
		<path id="plane-inner_1_" class="st2" d="M558.6,241c0.3,0.5-7.1,3.6-15,8.4c-16.3,10-29.2,18.9-38.1,25.4l-0.1-0.1l-0.7-0.5
			l-0.1,0.8l-0.6,4.5l-0.1,0.5c0,0.2,0,0.4-0.1,0.5l-1.6,11.3l-0.1-0.5l0-0.2l-2.1-10.3c-0.9-4.6-2-9.2-3-13.8l0-0.1
			C544.9,244.7,558.3,240.3,558.6,241z"/>
		<path id="color-wave2_1_" class="st3" d="M480.8,300c-3-0.2-5.9-1.9-7.6-4.4c-0.8-1.3-1.4-2.7-1.7-4.2c-0.3-1.5-0.4-3-0.2-4.5
			c0.3-3,2-5.8,4.5-7.6c2.5-1.8,5.8-2.4,8.6-1.7l0,0.1c-2.9-0.3-5.9,0.5-8.2,2.2c-2.3,1.7-4,4.2-4.6,7c-0.3,1.4-0.3,2.9,0.1,4.3
			c0.3,1.4,1.1,2.7,1.9,3.9C475.4,297.5,477.9,299.2,480.8,300L480.8,300z"/>
		<path id="color-wave_1_" class="st3" d="M501.4,293.2c-0.8,1.8-2.1,3.4-3.7,4.5c-2.4,1.8-5.6,2.5-8.6,2c-3-0.5-5.8-2.2-7.5-4.7
			c-1.7-2.5-2.3-5.8-1.6-8.6l0.1,0c-0.3,2.9,0.4,5.9,2.1,8.2c1.7,2.3,4.2,4,7,4.6c2.8,0.5,5.9-0.1,8.3-1.7c1.7-1.1,3-2.7,3.9-4.5
			L501.4,293.2z"/>
	</g>
	<g>
		<g id="plane_body_2_">
			<polygon class="st3" points="116.6,161.1 116.6,161.2 116.5,161.1 			"/>
			<path class="st3" d="M110.6,133.7c0,0,0,0.1,0,0.2c0,0,0.1,0.1,0.1,0.1L110.6,133.7z M116.5,161.1L116.5,161.1L116.5,161.1
				L116.5,161.1z"/>
			<path class="st3" d="M178.5,105.5c-3.7,0-7.4,0.4-11,1c-3.6,0.5-7.2,1.2-10.8,2c-7.2,1.5-14.3,3.2-21.5,5l-10.7,2.8
				c-3.6,0.9-7.1,2-10.6,3c-6.8,2-13.6,4.1-20.3,6.3c-0.1,0-0.2,0.1-0.3,0.1c-0.1,0-0.2,0-0.2,0.1c0,0,0,0,0,0c0,0,0,0,0,0h0
				c0,0-0.1,0-0.1,0c5.8,2.6,11.7,5.3,17.7,8.1c0,0,0-0.1,0-0.2l0.2,0.2c0,0-0.1,0-0.1-0.1c0.9,4.6,1.7,9.1,2.6,13.7l2.4,11.8
				l0.1,0.3l0.3,1.7l0.6,2.8l0.4-2.9l0.1-0.6l5.5-5.4c1.1-1,2.1-2.1,3.1-3.3l3-3.4l0.1-0.1l11.6,8l0.6,0.4l0.2-0.8
				c0.5-2.5,1.6-4.9,2.9-7.1c1.3-2.3,2.7-4.5,4.2-6.6c3-4.3,6.2-8.5,9.6-12.5c6.7-8.1,13.7-16,21-23.6l0.8-0.8L178.5,105.5z
				 M116.6,161.2L116.6,161.2L116.6,161.2L116.6,161.2z M119.7,141.1l-0.7-0.4l-0.1,0.8l-0.7,4.5l-0.1,0.5c0,0.2-0.1,0.3-0.1,0.5
				l-1.6,11.3l-0.1-0.7l-2.1-10.3c-0.9-4.6-2-9.2-3-13.8l0-0.1c47.9-22.3,61.3-26.7,61.7-26c0.3,0.5-7.1,3.6-15,8.4
				c-16.3,10-29.2,18.9-38.1,25.4L119.7,141.1z"/>
		</g>
		<path id="plane-inner_2_" class="st2" d="M172.9,107.4c0.3,0.5-7.1,3.6-15,8.4c-16.3,10-29.2,18.9-38.1,25.4l-0.1-0.1l-0.7-0.5
			l-0.1,0.8l-0.6,4.5l-0.1,0.5c0,0.2,0,0.4-0.1,0.5l-1.6,11.3l-0.1-0.5l0-0.2l-2.1-10.3c-0.9-4.6-2-9.2-3-13.8l0-0.1
			C159.1,111.2,172.5,106.7,172.9,107.4z"/>
		<path id="color-wave2_2_" class="st3" d="M95.1,166.5c-3-0.2-5.9-1.9-7.6-4.4c-0.8-1.3-1.4-2.7-1.7-4.2c-0.3-1.5-0.4-3-0.2-4.5
			c0.3-3,2-5.8,4.5-7.6c2.5-1.8,5.8-2.4,8.6-1.7l0,0.1c-2.9-0.3-5.9,0.5-8.2,2.2c-2.3,1.7-4,4.2-4.6,7c-0.3,1.4-0.3,2.9,0.1,4.3
			c0.3,1.4,1.1,2.7,1.9,3.9C89.7,164,92.2,165.6,95.1,166.5L95.1,166.5z"/>
		<path id="color-wave_2_" class="st3" d="M115.7,159.6c-0.8,1.8-2.1,3.4-3.7,4.5c-2.4,1.8-5.6,2.5-8.6,2c-3-0.5-5.8-2.2-7.5-4.7
			c-1.7-2.5-2.3-5.8-1.6-8.6l0.1,0c-0.3,2.9,0.4,5.9,2.1,8.2c1.7,2.3,4.2,4,7,4.6c2.8,0.5,5.9-0.1,8.3-1.7c1.7-1.1,3-2.7,3.9-4.5
			L115.7,159.6z"/>
	</g>
	<g id="plane_body_5_">
		<polygon class="st4" points="364.9,377.1 364.9,377 364.9,377.1 		"/>
		<path class="st4" d="M364.7,405.2c0-0.1,0-0.1,0-0.2c0,0-0.1-0.1-0.1-0.1L364.7,405.2z M364.9,377.1L364.9,377.1L364.9,377.1
			L364.9,377.1z"/>
		<path class="st4" d="M292.3,417.8c3.6,0.8,7.3,1.2,11,1.5c3.7,0.3,7.3,0.4,11,0.5c7.3,0.1,14.7,0,22-0.2l11-0.4
			c3.7-0.1,7.3-0.4,11-0.7c7.1-0.5,14.1-1,21.2-1.7c0.1,0,0.2,0,0.3,0c0.1,0,0.2,0,0.2,0c0,0,0,0,0,0c0,0,0,0,0,0l0,0
			c0,0,0.1,0,0.1,0c-5.1-3.8-10.3-7.8-15.5-11.8c0,0.1,0,0.1,0,0.2l-0.1-0.3c0,0,0.1,0.1,0.1,0.1c0.1-4.6,0.4-9.3,0.4-13.9l0.2-12.1
			l0-0.3l0-1.7l0.1-2.9l-1,2.7l-0.2,0.6l-6.6,4c-1.3,0.8-2.5,1.6-3.8,2.5l-3.6,2.6l-0.1,0.1l-9.6-10.3l-0.5-0.6l-0.3,0.7
			c-1,2.3-2.7,4.4-4.4,6.3c-1.7,1.9-3.6,3.8-5.5,5.6c-3.9,3.6-7.9,6.9-12.1,10.1c-8.3,6.5-16.9,12.6-25.6,18.4l-1,0.7L292.3,417.8z
			 M364.9,377L364.9,377L364.9,377L364.9,377z M357.5,396l0.5,0.6l0.3-0.7l1.6-4.3l0.2-0.5c0.1-0.2,0.1-0.3,0.2-0.5l4-10.6l0,0.7
			l-0.2,10.5c-0.1,4.7,0,9.4-0.1,14.1l0,0.1c-51.6,11.3-65.7,12.7-65.9,12c-0.1-0.6,7.8-2,16.4-4.9c18.1-6.2,32.6-12.1,42.8-16.4
			L357.5,396z"/>
	</g>
	<path id="plane-inner_5_" class="st5" d="M298.2,417.2c-0.1-0.6,7.8-2,16.4-4.9c18.1-6.2,32.6-12.1,42.8-16.4l0.1,0.1l0.5,0.6
		l0.3-0.7l1.6-4.3l0.2-0.5c0.1-0.2,0.1-0.3,0.2-0.5l4-10.6l0,0.5l0,0.2l-0.2,10.5c-0.1,4.7,0,9.4-0.1,14.1l0,0.1
		C312.5,416.6,298.4,418,298.2,417.2z"/>
	<path id="color-wave2_5_" class="st3" d="M387.1,376.6c2.9,0.9,5.3,3.1,6.4,6c0.5,1.4,0.7,2.9,0.7,4.4c0,1.5-0.3,3-0.8,4.4
		c-1,2.8-3.3,5.3-6.1,6.4c-2.8,1.2-6.1,1.1-8.8-0.3l0-0.1c2.8,0.9,5.8,0.8,8.4-0.4c2.6-1.1,4.8-3.2,6-5.8c0.6-1.3,0.9-2.8,0.9-4.2
		c0-1.5-0.4-2.9-1-4.2C391.7,380.1,389.7,378,387.1,376.6L387.1,376.6z"/>
	<path id="color-wave_5_" class="st3" d="M365.4,378.7c1.2-1.6,2.8-2.8,4.6-3.6c2.8-1.2,6-1.2,8.8-0.1c2.8,1.1,5.2,3.4,6.3,6.3
		c1.1,2.8,1,6.1-0.3,8.8l-0.1,0c0.9-2.8,0.9-5.8-0.3-8.5c-1.1-2.6-3.2-4.8-5.8-6c-2.6-1.2-5.7-1.2-8.4-0.1c-1.9,0.7-3.5,2-4.8,3.5
		L365.4,378.7z"/>
	<g>
		<g id="plane_body_4_">
			<polygon class="st3" points="479.2,560.3 479.2,560.3 479.2,560.3 			"/>
			<path class="st3" d="M460.5,539.4c0,0,0.1,0.1,0.1,0.1c0.1,0,0.1,0,0.2,0L460.5,539.4z M479.2,560.3L479.2,560.3L479.2,560.3
				L479.2,560.3z"/>
			<path class="st3" d="M505.6,481.3c-3.2,1.9-6.2,4-9.1,6.3c-2.9,2.3-5.7,4.7-8.5,7.1c-5.5,4.8-10.9,9.9-16.2,14.9l-7.9,7.7
				c-2.6,2.6-5.1,5.2-7.7,7.9c-4.9,5.1-9.8,10.3-14.6,15.5c-0.1,0.1-0.1,0.2-0.2,0.2c-0.1,0.1-0.1,0.1-0.2,0.2c0,0,0,0,0,0
				c0,0,0,0,0,0l0,0c0,0-0.1,0.1-0.1,0.1c6.4-0.6,12.8-1.1,19.4-1.7c0,0-0.1-0.1-0.1-0.1l0.3,0.1c-0.1,0-0.1,0-0.2,0
				c3,3.5,6,7.1,9,10.6l8,9.1l0.2,0.2l1.1,1.3l1.9,2.2l-1.1-2.7l-0.2-0.6l2.2-7.4c0.4-1.4,0.8-2.9,1.1-4.4l0.9-4.4l0-0.1l14,1.2
				l0.8,0.1l-0.2-0.7c-0.8-2.4-1-5-1-7.6c0-2.6,0.1-5.2,0.4-7.8c0.5-5.2,1.2-10.4,2.1-15.6c1.8-10.4,4-20.6,6.6-30.8l0.3-1.1
				L505.6,481.3z M479.2,560.3L479.2,560.3L479.2,560.3L479.2,560.3z M472,541.3l-0.8-0.1l0.3,0.7l1.7,4.3l0.2,0.5
				c0.1,0.2,0.1,0.3,0.2,0.5l4.2,10.6l-0.5-0.6l-6.9-7.9c-3.1-3.5-6.3-7-9.4-10.5l-0.1-0.1c30.6-43.1,40.1-53.6,40.8-53.1
				c0.5,0.3-4.4,6.7-8.9,14.7c-9.2,16.7-16,30.9-20.6,40.9L472,541.3z"/>
		</g>
		<path id="plane-inner_4_" class="st2" d="M501.6,485.8c0.5,0.3-4.4,6.7-8.9,14.7c-9.2,16.7-16,30.9-20.6,40.9l-0.2,0l-0.8-0.1
			l0.3,0.7l1.7,4.3l0.2,0.5c0.1,0.2,0.1,0.3,0.2,0.5l4.2,10.6l-0.3-0.4l-0.2-0.2l-6.9-7.9c-3.1-3.5-6.3-7-9.4-10.5l-0.1-0.1
			C491.5,495.8,501,485.3,501.6,485.8z"/>
		<path id="color-wave2_4_" class="st3" d="M463.1,575.5c-2.7,1.3-6,1.2-8.8-0.1c-1.4-0.7-2.5-1.7-3.5-2.8c-1-1.1-1.8-2.4-2.4-3.8
			c-1.2-2.8-1.1-6.1,0.2-8.9c1.3-2.8,3.8-4.9,6.7-5.7l0,0.1c-2.7,1.2-4.8,3.4-6,6c-1.2,2.6-1.4,5.6-0.5,8.4c0.4,1.4,1.2,2.7,2.2,3.7
			c1,1.1,2.3,1.8,3.6,2.4C457.2,576,460.2,576.2,463.1,575.5L463.1,575.5z"/>
		<path id="color-wave_4_" class="st3" d="M477.7,559.4c0.2,2-0.1,4-1,5.8c-1.3,2.7-3.6,4.9-6.5,6c-2.8,1.1-6.1,1-8.9-0.4
			c-2.7-1.4-4.9-3.9-5.6-6.7l0.1,0c1.2,2.7,3.3,4.9,5.9,6.1c2.6,1.2,5.6,1.4,8.3,0.5c2.7-0.9,5.1-3,6.3-5.6c0.9-1.8,1.3-3.8,1.1-5.8
			L477.7,559.4z"/>
	</g>
	<g>
		<g id="plane_body_3_">
			<polygon class="st3" points="96.9,426.7 97,426.7 96.9,426.7 			"/>
			<path class="st3" d="M75.9,408.1c0,0,0.1,0.1,0.1,0.1c0.1,0,0.1,0,0.2,0L75.9,408.1z M96.9,426.7L96.9,426.7L96.9,426.7
				L96.9,426.7z"/>
			<path class="st3" d="M114,345.2c-3,2.2-5.7,4.7-8.3,7.3c-2.6,2.6-5.1,5.3-7.6,8c-4.9,5.5-9.7,11.1-14.3,16.7l-7,8.5
				c-2.3,2.9-4.5,5.8-6.7,8.7c-4.3,5.7-8.5,11.4-12.7,17.1c-0.1,0.1-0.1,0.2-0.2,0.3c0,0.1-0.1,0.1-0.1,0.2c0,0,0,0,0,0c0,0,0,0,0,0
				l0,0c0,0,0,0.1-0.1,0.1c6.2-1.4,12.6-2.6,19.1-4c0,0-0.1-0.1-0.1-0.1l0.3,0.1c-0.1,0-0.1,0-0.2,0c3.4,3.2,6.7,6.4,10.2,9.5l9,8.1
				l0.2,0.2l1.3,1.2l2.1,1.9l-1.4-2.5l-0.3-0.5l1.3-7.6c0.2-1.5,0.4-3,0.6-4.5l0.4-4.5l0-0.1l14.1-0.5l0.8,0l-0.3-0.7
				c-1.1-2.3-1.5-4.9-1.9-7.5c-0.3-2.6-0.5-5.2-0.6-7.8c-0.2-5.2,0-10.5,0.3-15.8c0.6-10.5,1.6-21,3-31.4l0.2-1.2L114,345.2z
				 M97,426.7L97,426.7L97,426.7L97,426.7z M87.6,408.7l-0.8,0l0.4,0.7l2.2,4l0.2,0.5c0.1,0.2,0.2,0.3,0.3,0.5l5.4,10l-0.5-0.5
				l-7.8-7c-3.5-3.2-7-6.2-10.6-9.3l-0.1-0.1c25.4-46.3,33.6-57.9,34.3-57.5c0.5,0.3-3.6,7.1-7.1,15.6c-7.2,17.7-12.3,32.5-15.7,43
				L87.6,408.7z"/>
		</g>
		<path id="plane-inner_3_" class="st2" d="M110.6,350.1c0.5,0.3-3.6,7.1-7.1,15.6c-7.2,17.7-12.3,32.5-15.7,43l-0.2,0l-0.8,0
			l0.4,0.7l2.2,4l0.2,0.5c0.1,0.2,0.2,0.3,0.3,0.5l5.4,10l-0.4-0.3l-0.2-0.2l-7.8-7c-3.5-3.2-7-6.2-10.6-9.3l-0.1-0.1
			C101.7,361.2,109.9,349.7,110.6,350.1z"/>
		<path id="color-wave2_3_" class="st3" d="M82.8,443.7c-2.5,1.6-5.9,1.9-8.7,0.9c-1.4-0.5-2.7-1.4-3.8-2.4c-1.1-1-2.1-2.2-2.8-3.5
			c-1.5-2.6-1.8-5.9-0.8-8.8c1-2.9,3.2-5.3,6-6.4l0,0.1c-2.5,1.5-4.4,3.9-5.3,6.6c-0.9,2.7-0.7,5.7,0.4,8.4c0.6,1.3,1.5,2.5,2.6,3.5
			c1.1,0.9,2.5,1.6,3.8,2C77,444.9,80,444.8,82.8,443.7L82.8,443.7z"/>
		<path id="color-wave_3_" class="st3" d="M95.4,426c0.4,1.9,0.3,4-0.3,5.9c-0.9,2.9-3,5.3-5.7,6.7c-2.7,1.4-6,1.7-8.9,0.6
			c-2.9-1-5.3-3.3-6.4-6l0.1,0c1.5,2.5,3.8,4.5,6.6,5.4c2.7,0.9,5.7,0.8,8.3-0.5c2.6-1.2,4.7-3.5,5.6-6.3c0.7-1.9,0.8-3.9,0.5-5.9
			L95.4,426z"/>
	</g>
	<g>
		<g id="plane_body_6_">
			<polygon class="st3" points="661.6,130.7 661.6,130.7 661.6,130.7 			"/>
			<path class="st3" d="M655.7,103.2c0,0,0,0.1,0,0.2c0,0,0.1,0.1,0.1,0.1L655.7,103.2z M661.6,130.7L661.6,130.7L661.6,130.7
				L661.6,130.7z"/>
			<path class="st3" d="M723.6,75.1c-3.7,0-7.4,0.4-11,1c-3.6,0.5-7.2,1.2-10.8,2c-7.2,1.5-14.3,3.2-21.5,5l-10.7,2.8
				c-3.6,0.9-7.1,2-10.6,3c-6.8,2-13.6,4.1-20.3,6.3c-0.1,0-0.2,0.1-0.3,0.1c-0.1,0-0.2,0-0.2,0.1c0,0,0,0,0,0c0,0,0,0,0,0h0
				c0,0-0.1,0-0.1,0c5.8,2.6,11.7,5.3,17.7,8.1c0,0,0-0.1,0-0.2l0.2,0.2c0,0-0.1,0-0.1-0.1c0.9,4.6,1.7,9.1,2.6,13.7l2.4,11.8
				l0.1,0.3l0.3,1.7l0.6,2.8l0.4-2.9l0.1-0.6l5.5-5.4c1.1-1,2.1-2.1,3.1-3.3l3-3.4l0.1-0.1l11.6,8l0.6,0.4l0.2-0.8
				c0.5-2.5,1.6-4.9,2.9-7.1c1.3-2.3,2.7-4.5,4.2-6.6c3-4.3,6.2-8.5,9.6-12.5c6.7-8.1,13.7-16,21-23.6l0.8-0.8L723.6,75.1z
				 M661.6,130.7L661.6,130.7L661.6,130.7L661.6,130.7z M664.7,110.6l-0.7-0.4l-0.1,0.8l-0.7,4.5l-0.1,0.5c0,0.2-0.1,0.3-0.1,0.5
				l-1.6,11.3l-0.1-0.7l-2.1-10.3c-0.9-4.6-2-9.2-3-13.8l0-0.1c47.9-22.3,61.3-26.8,61.7-26c0.3,0.5-7.1,3.6-15,8.4
				c-16.3,10-29.2,18.9-38.1,25.4L664.7,110.6z"/>
		</g>
		<path id="plane-inner_6_" class="st2" d="M717.9,77c0.3,0.5-7.1,3.6-15,8.4c-16.3,10-29.2,18.9-38.1,25.4l-0.1-0.1l-0.7-0.5
			l-0.1,0.8l-0.6,4.5l-0.1,0.5c0,0.2,0,0.4-0.1,0.5l-1.6,11.3l-0.1-0.5l0-0.2l-2.1-10.3c-0.9-4.6-2-9.2-3-13.8l0-0.1
			C704.2,80.7,717.6,76.2,717.9,77z"/>
		<path id="color-wave2_6_" class="st3" d="M640.1,136c-3-0.2-5.9-1.9-7.6-4.4c-0.8-1.3-1.4-2.7-1.7-4.2c-0.3-1.5-0.4-3-0.2-4.5
			c0.3-3,2-5.8,4.5-7.6c2.5-1.8,5.8-2.4,8.6-1.7l0,0.1c-2.9-0.3-5.9,0.5-8.2,2.2c-2.3,1.7-4,4.2-4.6,7c-0.3,1.4-0.3,2.9,0.1,4.3
			c0.3,1.4,1.1,2.7,1.9,3.9C634.8,133.5,637.2,135.2,640.1,136L640.1,136z"/>
		<path id="color-wave_6_" class="st3" d="M660.8,129.2c-0.8,1.8-2.1,3.4-3.7,4.5c-2.4,1.8-5.6,2.5-8.6,2c-3-0.5-5.8-2.2-7.5-4.7
			c-1.7-2.5-2.3-5.8-1.6-8.6l0.1,0c-0.3,2.9,0.4,5.9,2.1,8.2c1.7,2.3,4.2,4,7,4.6c2.8,0.5,5.9-0.1,8.3-1.7c1.7-1.1,3-2.7,3.9-4.5
			L660.8,129.2z"/>
	</g>
	<g id="plane_body_7_">
		<polygon class="st1" points="693.2,377.5 693.2,377.5 693.1,377.5 		"/>
		<path class="st1" d="M667.1,367c0,0,0.1,0,0.1,0.1c0,0,0.1-0.1,0.1-0.1L667.1,367z M693.1,377.5L693.1,377.5L693.1,377.5
			L693.1,377.5z"/>
		<path class="st1" d="M681.9,295c-2.1,3.1-3.8,6.4-5.4,9.7c-1.6,3.3-3,6.7-4.5,10.1c-2.8,6.8-5.4,13.7-7.9,20.6l-3.7,10.4
			c-1.2,3.5-2.3,7-3.4,10.5c-2.1,6.8-4.2,13.5-6.2,20.3c0,0.1-0.1,0.2-0.1,0.3c0,0.1,0,0.2-0.1,0.2c0,0,0,0,0,0c0,0,0,0,0,0l0,0
			c0,0,0,0.1,0,0.1c5.4-3.4,11-6.7,16.7-10.1c0,0-0.1,0-0.1-0.1l0.3,0c0,0-0.1,0.1-0.1,0.1c4.3,1.8,8.5,3.7,12.8,5.5l11.2,4.6
			l0.3,0.1l1.6,0.7l2.7,1.1l-2.1-1.9l-0.5-0.4l-1.3-7.6c-0.3-1.5-0.6-3-0.9-4.4l-1.1-4.3l0-0.1l13.1-5.2l0.7-0.3l-0.5-0.6
			c-1.8-1.8-3.1-4.1-4.3-6.4c-1.2-2.3-2.2-4.7-3.2-7.2c-1.9-4.9-3.5-9.9-5-14.9c-3-10.1-5.5-20.3-7.7-30.6l-0.2-1.2L681.9,295z
			 M693.2,377.5L693.2,377.5L693.2,377.5L693.2,377.5z M678.3,363.6l-0.7,0.3l0.6,0.5l3.4,3.1l0.4,0.4c0.1,0.1,0.3,0.2,0.4,0.4
			l8.4,7.6l-0.7-0.3l-9.7-4c-4.3-1.8-8.7-3.5-13.1-5.2l-0.1,0c8.4-52.2,12.3-65.8,13-65.7c0.6,0.1-1,7.9-1.4,17.1
			c-0.9,19.1-0.7,34.8-0.4,45.8L678.3,363.6z"/>
	</g>
	<path id="plane-inner_7_" class="st2" d="M680.3,300.7c0.6,0.1-1,7.9-1.4,17.1c-0.9,19.1-0.7,34.8-0.4,45.8l-0.2,0.1l-0.7,0.3
		l0.6,0.5l3.4,3.1l0.4,0.4c0.1,0.1,0.3,0.2,0.4,0.4l8.4,7.6l-0.5-0.2l-0.2-0.1l-9.7-4c-4.3-1.8-8.7-3.5-13.1-5.2l-0.1,0
		C675.7,314.2,679.5,300.6,680.3,300.7z"/>
	<path id="color-wave2_7_" class="st3" d="M685.5,398.2c-1.8,2.3-4.9,3.8-7.9,3.8c-1.5,0-3-0.4-4.4-0.9c-1.4-0.6-2.7-1.3-3.8-2.3
		c-2.3-2-3.7-5-3.7-8c-0.1-3.1,1.2-6.1,3.5-8.1l0.1,0.1c-1.9,2.3-2.8,5.2-2.7,8c0.1,2.9,1.2,5.6,3.2,7.7c1,1,2.2,1.9,3.6,2.4
		c1.4,0.5,2.8,0.6,4.3,0.6C680.5,401.3,683.2,400.1,685.5,398.2L685.5,398.2z"/>
	<path id="color-wave_7_" class="st3" d="M691.4,377.3c1,1.7,1.6,3.6,1.7,5.6c0.1,3-1.1,6-3.2,8.2c-2.1,2.2-5.1,3.6-8.1,3.6
		c-3,0-6.1-1.3-8-3.5l0.1-0.1c2.2,1.9,5.1,3,8,2.9c2.8-0.1,5.7-1.2,7.7-3.2c2-2,3.2-4.9,3.2-7.8c0-2-0.5-4-1.6-5.7L691.4,377.3z"/>
	<g id="plane_body_8_">
		<polygon class="st1" points="228.1,286.5 228.1,286.5 228.1,286.5 		"/>
		<path class="st1" d="M222.1,259.1c0,0,0,0.1,0,0.2c0,0,0.1,0.1,0.1,0.1L222.1,259.1z M228.1,286.5L228.1,286.5L228.1,286.5
			L228.1,286.5z"/>
		<path class="st1" d="M290,230.9c-3.7,0-7.4,0.4-11,1c-3.6,0.5-7.2,1.2-10.8,2c-7.2,1.5-14.3,3.2-21.4,5l-10.7,2.8
			c-3.6,0.9-7.1,2-10.6,3c-6.8,2-13.6,4.1-20.3,6.3c-0.1,0-0.2,0.1-0.3,0.1c-0.1,0-0.2,0-0.2,0.1c0,0,0,0,0,0c0,0,0,0,0,0h0
			c0,0-0.1,0-0.1,0c5.8,2.6,11.7,5.3,17.7,8.1c0,0,0-0.1,0-0.2l0.2,0.2c0,0-0.1,0-0.1-0.1c0.9,4.6,1.7,9.1,2.6,13.7l2.4,11.8
			l0.1,0.3l0.3,1.7l0.6,2.8l0.4-2.9l0.1-0.6l5.5-5.4c1.1-1,2.1-2.1,3.1-3.3l3-3.4l0.1-0.1l11.6,8l0.6,0.4l0.2-0.8
			c0.5-2.5,1.6-4.9,2.9-7.1c1.3-2.3,2.7-4.5,4.2-6.6c3-4.3,6.2-8.5,9.6-12.5c6.7-8.1,13.7-16,21-23.6l0.8-0.8L290,230.9z
			 M228.1,286.5L228.1,286.5L228.1,286.5L228.1,286.5z M231.2,266.5l-0.7-0.4l-0.1,0.8l-0.7,4.5l-0.1,0.5c0,0.2-0.1,0.3-0.1,0.5
			l-1.6,11.3l-0.1-0.7l-2.1-10.3c-0.9-4.6-2-9.2-3-13.8l0-0.1c47.9-22.3,61.3-26.8,61.7-26c0.3,0.5-7.1,3.6-15,8.4
			c-16.3,10-29.2,18.9-38.1,25.4L231.2,266.5z"/>
	</g>
	<path id="plane-inner_8_" class="st2" d="M284.4,232.8c0.3,0.5-7.1,3.6-15,8.4c-16.3,10-29.2,18.9-38.1,25.4l-0.1-0.1l-0.7-0.5
		l-0.1,0.8l-0.6,4.5l-0.1,0.5c0,0.2,0,0.4-0.1,0.5l-1.6,11.3l-0.1-0.5l0-0.2l-2.1-10.3c-0.9-4.6-2-9.2-3-13.8l0-0.1
		C270.7,236.5,284.1,232.1,284.4,232.8z"/>
	<path id="color-wave2_8_" class="st3" d="M206.6,291.8c-3-0.2-5.9-1.9-7.6-4.4c-0.8-1.3-1.4-2.7-1.7-4.2c-0.3-1.5-0.4-3-0.2-4.5
		c0.3-3,2-5.8,4.5-7.6c2.5-1.8,5.8-2.4,8.6-1.7l0,0.1c-2.9-0.3-5.9,0.5-8.2,2.2c-2.3,1.7-4,4.2-4.6,7c-0.3,1.4-0.3,2.9,0.1,4.3
		c0.3,1.4,1.1,2.7,1.9,3.9C201.2,289.4,203.7,291,206.6,291.8L206.6,291.8z"/>
	<path id="color-wave_8_" class="st3" d="M227.2,285c-0.8,1.8-2.1,3.4-3.7,4.5c-2.4,1.8-5.6,2.5-8.6,2c-3-0.5-5.8-2.2-7.5-4.7
		c-1.7-2.5-2.3-5.8-1.6-8.6l0.1,0c-0.3,2.9,0.4,5.9,2.1,8.2c1.7,2.3,4.2,4,7,4.6c2.8,0.5,5.9-0.1,8.3-1.7c1.7-1.1,3-2.7,3.9-4.5
		L227.2,285z"/>
	<g>
		<g id="plane_body_9_">
			<polygon class="st3" points="146.8,579.5 146.8,579.5 146.8,579.5 			"/>
			<path class="st3" d="M140.8,552c0,0,0,0.1,0,0.2c0,0,0.1,0.1,0.1,0.1L140.8,552z M146.8,579.5L146.8,579.5L146.8,579.5
				L146.8,579.5z"/>
			<path class="st3" d="M208.7,523.9c-3.7,0-7.4,0.4-11,1c-3.6,0.5-7.2,1.2-10.8,2c-7.2,1.5-14.3,3.2-21.5,5l-10.7,2.8
				c-3.6,0.9-7.1,2-10.6,3c-6.8,2-13.6,4.1-20.3,6.3c-0.1,0-0.2,0.1-0.3,0.1c-0.1,0-0.2,0-0.2,0.1c0,0,0,0,0,0c0,0,0,0,0,0h0
				c0,0-0.1,0-0.1,0c5.8,2.6,11.7,5.3,17.7,8.1c0,0,0-0.1,0-0.2l0.2,0.2c0,0-0.1,0-0.1-0.1c0.9,4.6,1.7,9.1,2.6,13.7l2.4,11.8
				l0.1,0.3l0.3,1.7l0.6,2.8l0.4-2.9l0.1-0.6l5.5-5.4c1.1-1,2.1-2.1,3.1-3.3l3-3.4l0.1-0.1l11.6,8l0.6,0.4l0.2-0.8
				c0.5-2.5,1.6-4.9,2.9-7.1c1.3-2.3,2.7-4.5,4.2-6.6c3-4.3,6.2-8.5,9.6-12.5c6.7-8.1,13.7-16,21-23.6l0.8-0.8L208.7,523.9z
				 M146.8,579.5L146.8,579.5L146.8,579.5L146.8,579.5z M149.9,559.4l-0.7-0.4l-0.1,0.8l-0.7,4.5l-0.1,0.5c0,0.2-0.1,0.3-0.1,0.5
				l-1.6,11.3l-0.1-0.7l-2.1-10.3c-0.9-4.6-2-9.2-3-13.8l0-0.1c47.9-22.3,61.3-26.8,61.7-26c0.3,0.5-7.1,3.6-15,8.4
				c-16.3,10-29.2,18.9-38.1,25.4L149.9,559.4z"/>
		</g>
		<path id="plane-inner_9_" class="st2" d="M203.1,525.8c0.3,0.5-7.1,3.6-15,8.4c-16.3,10-29.2,18.9-38.1,25.4l-0.1-0.1l-0.7-0.5
			l-0.1,0.8l-0.6,4.5l-0.1,0.5c0,0.2,0,0.4-0.1,0.5l-1.6,11.3l-0.1-0.5l0-0.2l-2.1-10.3c-0.9-4.6-2-9.2-3-13.8l0-0.1
			C189.4,529.5,202.8,525,203.1,525.8z"/>
		<path id="color-wave2_9_" class="st3" d="M125.3,584.8c-3-0.2-5.9-1.9-7.6-4.4c-0.8-1.3-1.4-2.7-1.7-4.2c-0.3-1.5-0.4-3-0.2-4.5
			c0.3-3,2-5.8,4.5-7.6c2.5-1.8,5.8-2.4,8.6-1.7l0,0.1c-2.9-0.3-5.9,0.5-8.2,2.2c-2.3,1.7-4,4.2-4.6,7c-0.3,1.4-0.3,2.9,0.1,4.3
			c0.3,1.4,1.1,2.7,1.9,3.9C119.9,582.3,122.4,584,125.3,584.8L125.3,584.8z"/>
		<path id="color-wave_9_" class="st3" d="M145.9,578c-0.8,1.8-2.1,3.4-3.7,4.5c-2.4,1.8-5.6,2.5-8.6,2c-3-0.5-5.8-2.2-7.5-4.7
			c-1.7-2.5-2.3-5.8-1.6-8.6l0.1,0c-0.3,2.9,0.4,5.9,2.1,8.2c1.7,2.3,4.2,4,7,4.6c2.8,0.5,5.9-0.1,8.3-1.7c1.7-1.1,3-2.7,3.9-4.5
			L145.9,578z"/>
	</g>
	<g id="plane_body_10_">
		<polygon class="st4" points="290.6,72.2 290.6,72.2 290.6,72.2 		"/>
		<path class="st4" d="M265,83.9c0,0,0.1,0,0.1-0.1c0-0.1,0-0.1,0-0.2L265,83.9z M290.6,72.2L290.6,72.2L290.6,72.2L290.6,72.2z"/>
		<path class="st4" d="M223,23.6c0.8,3.6,2,7.1,3.3,10.6c1.3,3.4,2.8,6.8,4.2,10.2c3,6.7,6.2,13.3,9.5,19.9l5,9.8
			c1.7,3.3,3.5,6.5,5.2,9.7c3.4,6.2,6.9,12.4,10.5,18.5c0.1,0.1,0.1,0.2,0.2,0.3c0,0.1,0.1,0.1,0.1,0.2c0,0,0,0,0,0c0,0,0,0,0,0l0,0
			c0,0,0,0.1,0.1,0.1c1.3-6.3,2.7-12.6,4.1-19.1c0,0-0.1,0-0.1,0.1l0.2-0.2c0,0.1,0,0.1,0,0.2c4.3-1.8,8.6-3.6,12.8-5.5l11.1-4.9
			l0.3-0.1l1.6-0.7l2.6-1.2l-2.9,0.2l-0.6,0l-6.4-4.3c-1.2-0.8-2.5-1.6-3.9-2.4l-3.9-2.2l-0.1,0l5.3-13.1l0.3-0.7l-0.8,0
			c-2.5,0.1-5.1-0.6-7.6-1.3c-2.5-0.8-5-1.7-7.4-2.7c-4.9-2-9.6-4.3-14.3-6.6c-9.4-4.8-18.5-10-27.5-15.4l-1-0.6L223,23.6z
			 M290.6,72.2L290.6,72.2L290.6,72.2L290.6,72.2z M270.3,73.5l-0.3,0.7l0.8-0.1l4.6-0.3l0.5,0c0.2,0,0.4,0,0.5,0l11.3-0.8l-0.7,0.3
			l-9.6,4.2c-4.3,1.9-8.5,3.9-12.8,5.9l-0.1,0c-32-42-39.2-54.2-38.6-54.7c0.5-0.4,5,6.2,11.4,12.8c13.2,13.8,24.7,24.5,32.9,31.8
			L270.3,73.5z"/>
	</g>
	<path id="plane-inner_10_" class="st5" d="M226.1,28.7c0.5-0.4,5,6.2,11.4,12.8c13.2,13.8,24.7,24.5,32.9,31.8l-0.1,0.2l-0.3,0.7
		l0.8-0.1l4.6-0.3l0.5,0c0.2,0,0.4,0,0.5,0l11.3-0.8l-0.4,0.2l-0.2,0.1l-9.6,4.2c-4.3,1.9-8.5,3.9-12.8,5.9l-0.1,0
		C232.6,41.3,225.4,29.2,226.1,28.7z"/>
	<path id="color-wave2_10_" class="st3" d="M300.4,92.1c0.4,2.9-0.6,6.1-2.7,8.3c-1.1,1.1-2.4,1.9-3.7,2.5c-1.4,0.6-2.8,1-4.3,1.2
		c-3,0.3-6.1-0.7-8.4-2.8c-2.3-2.1-3.6-5.1-3.5-8.1l0.1,0c0.4,2.9,1.8,5.6,3.9,7.5c2.1,1.9,4.9,3,7.8,3c1.4,0,2.9-0.3,4.2-1
		c1.3-0.6,2.4-1.6,3.4-2.7C299.1,97.8,300.2,95,300.4,92.1L300.4,92.1z"/>
	<path id="color-wave_10_" class="st3" d="M289.3,73.4c1.9,0.4,3.7,1.3,5.2,2.7c2.2,2,3.6,4.9,3.8,8c0.2,3-0.9,6.2-3,8.3
		c-2.1,2.2-5.1,3.5-8.1,3.4l0-0.1c2.9-0.3,5.7-1.7,7.6-3.8c1.9-2.1,3-4.9,3-7.8c-0.1-2.9-1.3-5.7-3.4-7.7c-1.4-1.4-3.3-2.4-5.2-2.8
		L289.3,73.4z"/>
	<g id="plane_body_11_">
		<polygon class="st4" points="657.7,550.8 657.7,550.9 657.7,550.8 		"/>
		<path class="st4" d="M651.8,523.4c0,0,0,0.1,0,0.2c0,0,0.1,0.1,0.1,0.1L651.8,523.4z M657.7,550.8L657.7,550.8L657.7,550.8
			L657.7,550.8z"/>
		<path class="st4" d="M719.7,495.2c-3.7,0-7.4,0.4-11,1c-3.6,0.5-7.2,1.2-10.8,2c-7.2,1.5-14.3,3.2-21.5,5l-10.7,2.8
			c-3.6,0.9-7.1,2-10.6,3c-6.8,2-13.6,4.1-20.3,6.3c-0.1,0-0.2,0.1-0.3,0.1c-0.1,0-0.2,0-0.2,0.1c0,0,0,0,0,0c0,0,0,0,0,0h0
			c0,0-0.1,0-0.1,0c5.8,2.6,11.7,5.3,17.7,8.1c0,0,0-0.1,0-0.2l0.2,0.2c0,0-0.1,0-0.1-0.1c0.9,4.6,1.7,9.1,2.6,13.7l2.4,11.8
			l0.1,0.3l0.3,1.7l0.6,2.8l0.4-2.9l0.1-0.6l5.5-5.4c1.1-1,2.1-2.1,3.1-3.3l3-3.4l0.1-0.1l11.6,8l0.6,0.4l0.2-0.8
			c0.5-2.5,1.6-4.9,2.9-7.1c1.3-2.3,2.7-4.5,4.2-6.6c3-4.3,6.2-8.5,9.6-12.5c6.7-8.1,13.7-16,21-23.6l0.8-0.8L719.7,495.2z
			 M657.7,550.9L657.7,550.9L657.7,550.9L657.7,550.9z M660.8,530.8l-0.7-0.4l-0.1,0.8l-0.7,4.5l-0.1,0.5c0,0.2-0.1,0.3-0.1,0.5
			l-1.6,11.3l-0.1-0.7l-2.1-10.3c-0.9-4.6-2-9.2-3-13.8l0-0.1c47.9-22.3,61.3-26.7,61.7-26c0.3,0.5-7.1,3.6-15,8.4
			c-16.3,10-29.2,18.9-38.1,25.4L660.8,530.8z"/>
	</g>
	<path id="plane-inner_11_" class="st5" d="M714.1,497.1c0.3,0.5-7.1,3.6-15,8.4c-16.3,10-29.2,18.9-38.1,25.4l-0.1-0.1l-0.7-0.5
		l-0.1,0.8l-0.6,4.5l-0.1,0.5c0,0.2,0,0.4-0.1,0.5l-1.6,11.3l-0.1-0.5l0-0.2l-2.1-10.3c-0.9-4.6-2-9.2-3-13.8l0-0.1
		C700.3,500.9,713.7,496.4,714.1,497.1z"/>
	<path id="color-wave2_11_" class="st3" d="M636.2,556.2c-3-0.2-5.9-1.9-7.6-4.4c-0.8-1.3-1.4-2.7-1.7-4.2c-0.3-1.5-0.4-3-0.2-4.5
		c0.3-3,2-5.8,4.5-7.6c2.5-1.8,5.8-2.4,8.6-1.7l0,0.1c-2.9-0.3-5.9,0.5-8.2,2.2c-2.3,1.7-4,4.2-4.6,7c-0.3,1.4-0.3,2.9,0.1,4.3
		c0.3,1.4,1.1,2.7,1.9,3.9C630.9,553.7,633.4,555.4,636.2,556.2L636.2,556.2z"/>
	<path id="color-wave_11_" class="st3" d="M656.9,549.3c-0.8,1.8-2.1,3.4-3.7,4.5c-2.4,1.8-5.6,2.5-8.6,2c-3-0.5-5.8-2.2-7.5-4.7
		c-1.7-2.5-2.3-5.8-1.6-8.6l0.1,0c-0.3,2.9,0.4,5.9,2.1,8.2c1.7,2.3,4.2,4,7,4.6c2.8,0.5,5.9-0.1,8.3-1.7c1.7-1.1,3-2.7,3.9-4.5
		L656.9,549.3z"/>
	<g id="plane_body_14_">
		<polygon class="st1" points="296.9,534.2 296.9,534.2 296.9,534.2 		"/>
		<path class="st1" d="M291,506.7c0,0,0,0.1,0,0.2c0,0,0.1,0.1,0.1,0.1L291,506.7z M296.9,534.2L296.9,534.2L296.9,534.2
			L296.9,534.2z"/>
		<path class="st1" d="M358.9,478.6c-3.7,0-7.4,0.4-11,1c-3.6,0.5-7.2,1.2-10.8,2c-7.2,1.5-14.3,3.2-21.5,5l-10.7,2.8
			c-3.6,0.9-7.1,2-10.6,3c-6.8,2-13.6,4.1-20.3,6.3c-0.1,0-0.2,0.1-0.3,0.1c-0.1,0-0.2,0-0.2,0.1c0,0,0,0,0,0c0,0,0,0,0,0h0
			c0,0-0.1,0-0.1,0c5.8,2.6,11.7,5.3,17.7,8.1c0,0,0-0.1,0-0.2l0.2,0.2c0,0-0.1,0-0.1-0.1c0.9,4.6,1.7,9.1,2.6,13.7l2.4,11.8
			l0.1,0.3l0.3,1.7l0.6,2.8l0.4-2.9l0.1-0.6l5.5-5.4c1.1-1,2.1-2.1,3.1-3.3l3-3.4l0.1-0.1l11.6,8l0.6,0.4l0.2-0.8
			c0.5-2.5,1.6-4.9,2.9-7.1c1.3-2.3,2.7-4.5,4.2-6.6c3-4.3,6.2-8.5,9.6-12.5c6.7-8.1,13.7-16,21-23.6l0.8-0.8L358.9,478.6z
			 M296.9,534.2L296.9,534.2L296.9,534.2L296.9,534.2z M300,514.1l-0.7-0.4l-0.1,0.8l-0.7,4.5l-0.1,0.5c0,0.2-0.1,0.3-0.1,0.5
			l-1.6,11.3l-0.1-0.7l-2.1-10.3c-0.9-4.6-2-9.2-3-13.8l0-0.1c47.9-22.3,61.3-26.8,61.7-26c0.3,0.5-7.1,3.6-15,8.4
			c-16.3,10-29.2,18.9-38.1,25.4L300,514.1z"/>
	</g>
	<path id="plane-inner_14_" class="st2" d="M353.3,480.4c0.3,0.5-7.1,3.6-15,8.4c-16.3,10-29.2,18.9-38.1,25.4l-0.1-0.1l-0.7-0.5
		l-0.1,0.8l-0.6,4.5l-0.1,0.5c0,0.2,0,0.4-0.1,0.5l-1.6,11.3l-0.1-0.5l0-0.2l-2.1-10.3c-0.9-4.6-2-9.2-3-13.8l0-0.1
		C339.5,484.2,352.9,479.7,353.3,480.4z"/>
	<path id="color-wave2_14_" class="st3" d="M275.4,539.5c-3-0.2-5.9-1.9-7.6-4.4c-0.8-1.3-1.4-2.7-1.7-4.2c-0.3-1.5-0.4-3-0.2-4.5
		c0.3-3,2-5.8,4.5-7.6c2.5-1.8,5.8-2.4,8.6-1.7l0,0.1c-2.9-0.3-5.9,0.5-8.2,2.2c-2.3,1.7-4,4.2-4.6,7c-0.3,1.4-0.3,2.9,0.1,4.3
		c0.3,1.4,1.1,2.7,1.9,3.9C270.1,537,272.6,538.7,275.4,539.5L275.4,539.5z"/>
	<path id="color-wave_14_" class="st3" d="M296.1,532.6c-0.8,1.8-2.1,3.4-3.7,4.5c-2.4,1.8-5.6,2.5-8.6,2c-3-0.5-5.8-2.2-7.5-4.7
		c-1.7-2.5-2.3-5.8-1.6-8.6l0.1,0c-0.3,2.9,0.4,5.9,2.1,8.2c1.7,2.3,4.2,4,7,4.6c2.8,0.5,5.9-0.1,8.3-1.7c1.7-1.1,3-2.7,3.9-4.5
		L296.1,532.6z"/>
	<g>
		<g id="plane_body_13_">
			<polygon class="st3" points="48.1,533 48.1,533 48.1,533 			"/>
			<path class="st3" d="M42.2,505.5c0,0,0,0.1,0,0.2c0,0,0.1,0.1,0.1,0.1L42.2,505.5z M48.1,533L48.1,533L48.1,533L48.1,533z"/>
			<path class="st3" d="M110.1,477.4c-3.7,0-7.4,0.4-11,1c-3.6,0.5-7.2,1.2-10.8,2c-7.2,1.5-14.3,3.2-21.5,5l-10.7,2.8
				c-3.6,0.9-7.1,2-10.6,3c-6.8,2-13.6,4.1-20.3,6.3c-0.1,0-0.2,0.1-0.3,0.1c-0.1,0-0.2,0-0.2,0.1c0,0,0,0,0,0c0,0,0,0,0,0h0
				c0,0-0.1,0-0.1,0c5.8,2.6,11.7,5.3,17.7,8.1c0,0,0-0.1,0-0.2l0.2,0.2c0,0-0.1,0-0.1-0.1c0.9,4.6,1.7,9.1,2.6,13.7l2.4,11.8
				l0.1,0.3l0.3,1.7l0.6,2.8l0.4-2.9l0.1-0.6l5.5-5.4c1.1-1,2.1-2.1,3.1-3.3l3-3.4l0.1-0.1l11.6,8l0.6,0.4l0.2-0.8
				c0.5-2.5,1.6-4.9,2.9-7.1c1.3-2.3,2.7-4.5,4.2-6.6c3-4.3,6.2-8.5,9.6-12.5c6.7-8.1,13.7-16,21-23.6l0.8-0.8L110.1,477.4z
				 M48.1,533L48.1,533L48.1,533L48.1,533z M51.2,513l-0.7-0.4l-0.1,0.8l-0.7,4.5l-0.1,0.5c0,0.2-0.1,0.3-0.1,0.5L48,530.2l-0.1-0.7
				l-2.1-10.3c-0.9-4.6-2-9.2-3-13.8l0-0.1c47.9-22.3,61.3-26.8,61.7-26c0.3,0.5-7.1,3.6-15,8.4c-16.3,10-29.2,18.9-38.1,25.4
				L51.2,513z"/>
		</g>
		<path id="plane-inner_13_" class="st2" d="M104.4,479.3c0.3,0.5-7.1,3.6-15,8.4c-16.3,10-29.2,18.9-38.1,25.4l-0.1-0.1l-0.7-0.5
			l-0.1,0.8l-0.6,4.5l-0.1,0.5c0,0.2,0,0.4-0.1,0.5L48,530.2l-0.1-0.5l0-0.2l-2.1-10.3c-0.9-4.6-2-9.2-3-13.8l0-0.1
			C90.7,483,104.1,478.6,104.4,479.3z"/>
		<path id="color-wave2_13_" class="st3" d="M26.6,538.3c-3-0.2-5.9-1.9-7.6-4.4c-0.8-1.3-1.4-2.7-1.7-4.2c-0.3-1.5-0.4-3-0.2-4.5
			c0.3-3,2-5.8,4.5-7.6c2.5-1.8,5.8-2.4,8.6-1.7l0,0.1c-2.9-0.3-5.9,0.5-8.2,2.2c-2.3,1.7-4,4.2-4.6,7c-0.3,1.4-0.3,2.9,0.1,4.3
			c0.3,1.4,1.1,2.7,1.9,3.9C21.3,535.8,23.8,537.5,26.6,538.3L26.6,538.3z"/>
		<path id="color-wave_13_" class="st3" d="M47.3,531.5c-0.8,1.8-2.1,3.4-3.7,4.5c-2.4,1.8-5.6,2.5-8.6,2c-3-0.5-5.8-2.2-7.5-4.7
			c-1.7-2.5-2.3-5.8-1.6-8.6l0.1,0c-0.3,2.9,0.4,5.9,2.1,8.2c1.7,2.3,4.2,4,7,4.6c2.8,0.5,5.9-0.1,8.3-1.7c1.7-1.1,3-2.7,3.9-4.5
			L47.3,531.5z"/>
	</g>
	<g id="plane_body_12_">
		<polygon class="st4" points="222.1,444.1 222.1,444.1 222.1,444.1 		"/>
		<path class="st4" d="M196.6,455.8c0,0,0.1,0,0.1-0.1c0-0.1,0-0.1,0-0.2L196.6,455.8z M222.1,444.1L222.1,444.1L222.1,444.1
			L222.1,444.1z"/>
		<path class="st4" d="M154.6,395.4c0.8,3.6,2,7.1,3.3,10.6c1.3,3.4,2.8,6.8,4.2,10.2c3,6.7,6.2,13.3,9.5,19.9l5,9.8
			c1.7,3.3,3.5,6.5,5.2,9.7c3.4,6.2,6.9,12.4,10.5,18.5c0.1,0.1,0.1,0.2,0.2,0.3c0,0.1,0.1,0.1,0.1,0.2c0,0,0,0,0,0c0,0,0,0,0,0l0,0
			c0,0,0,0.1,0.1,0.1c1.3-6.3,2.7-12.6,4.1-19.1c0,0-0.1,0-0.1,0.1l0.2-0.2c0,0.1,0,0.1,0,0.2c4.3-1.8,8.6-3.6,12.8-5.5l11.1-4.9
			l0.3-0.1l1.6-0.7l2.6-1.2l-2.9,0.2l-0.6,0l-6.4-4.3c-1.2-0.8-2.5-1.6-3.9-2.4l-3.9-2.2l-0.1,0l5.3-13.1l0.3-0.7l-0.8,0
			c-2.5,0.1-5.1-0.6-7.6-1.3c-2.5-0.8-5-1.7-7.4-2.7c-4.9-2-9.6-4.3-14.3-6.6c-9.4-4.8-18.5-10-27.5-15.4l-1-0.6L154.6,395.4z
			 M222.1,444.1L222.1,444.1L222.1,444.1L222.1,444.1z M201.9,445.3l-0.3,0.7l0.8-0.1l4.6-0.3l0.5,0c0.2,0,0.4,0,0.5,0l11.3-0.8
			l-0.7,0.3l-9.6,4.2c-4.3,1.9-8.5,3.9-12.8,5.9l-0.1,0c-32-42-39.2-54.2-38.6-54.7c0.5-0.4,5,6.2,11.4,12.8
			c13.2,13.8,24.7,24.5,32.9,31.8L201.9,445.3z"/>
	</g>
	<path id="plane-inner_12_" class="st5" d="M157.6,400.5c0.5-0.4,5,6.2,11.4,12.8c13.2,13.8,24.7,24.5,32.9,31.8l-0.1,0.2l-0.3,0.7
		l0.8-0.1l4.6-0.3l0.5,0c0.2,0,0.4,0,0.5,0l11.3-0.8l-0.4,0.2l-0.2,0.1l-9.6,4.2c-4.3,1.9-8.5,3.9-12.8,5.9l-0.1,0
		C164.2,413.2,157,401,157.6,400.5z"/>
	<path id="color-wave2_12_" class="st3" d="M231.9,464c0.4,2.9-0.6,6.1-2.7,8.3c-1.1,1.1-2.4,1.9-3.7,2.5c-1.4,0.6-2.8,1-4.3,1.2
		c-3,0.3-6.1-0.7-8.4-2.8c-2.3-2.1-3.6-5.1-3.5-8.1l0.1,0c0.4,2.9,1.8,5.6,3.9,7.5c2.1,1.9,4.9,3,7.8,3c1.4,0,2.9-0.3,4.2-1
		c1.3-0.6,2.4-1.6,3.4-2.7C230.6,469.7,231.7,466.9,231.9,464L231.9,464z"/>
	<path id="color-wave_12_" class="st3" d="M220.8,445.2c1.9,0.4,3.7,1.3,5.2,2.7c2.2,2,3.6,4.9,3.8,8c0.2,3-0.9,6.2-3,8.3
		c-2.1,2.2-5.1,3.5-8.1,3.4l0-0.1c2.9-0.3,5.7-1.7,7.6-3.8c1.9-2.1,3-4.9,3-7.8c-0.1-2.9-1.3-5.7-3.4-7.7c-1.4-1.4-3.3-2.4-5.2-2.8
		L220.8,445.2z"/>
	<g id="plane_body_15_">
		<polygon class="st1" points="40.9,338.4 40.9,338.4 40.9,338.4 		"/>
		<path class="st1" d="M35,310.9c0,0,0,0.1,0,0.2c0,0,0.1,0.1,0.1,0.1L35,310.9z M40.9,338.4L40.9,338.4L40.9,338.4L40.9,338.4z"/>
		<path class="st1" d="M102.9,282.8c-3.7,0-7.4,0.4-11,1c-3.6,0.5-7.2,1.2-10.8,2c-7.2,1.5-14.3,3.2-21.5,5l-10.7,2.8
			c-3.6,0.9-7.1,2-10.6,3c-6.8,2-13.6,4.1-20.3,6.3c-0.1,0-0.2,0.1-0.3,0.1c-0.1,0-0.2,0-0.2,0.1c0,0,0,0,0,0c0,0,0,0,0,0h0
			c0,0-0.1,0-0.1,0c5.8,2.6,11.7,5.3,17.7,8.1c0,0,0-0.1,0-0.2l0.2,0.2c0,0-0.1,0-0.1-0.1c0.9,4.6,1.7,9.1,2.6,13.7l2.4,11.8
			l0.1,0.3l0.3,1.7l0.6,2.8l0.4-2.9l0.1-0.6l5.5-5.4c1.1-1,2.1-2.1,3.1-3.3l3-3.4l0.1-0.1l11.6,8l0.6,0.4l0.2-0.8
			c0.5-2.5,1.6-4.9,2.9-7.1c1.3-2.3,2.7-4.5,4.2-6.6c3-4.3,6.2-8.5,9.6-12.5c6.7-8.1,13.7-16,21-23.6l0.8-0.8L102.9,282.8z
			 M40.9,338.4L40.9,338.4L40.9,338.4L40.9,338.4z M44,318.3l-0.7-0.4l-0.1,0.8l-0.7,4.5l-0.1,0.5c0,0.2-0.1,0.3-0.1,0.5l-1.6,11.3
			l-0.1-0.7l-2.1-10.3c-0.9-4.6-2-9.2-3-13.8l0-0.1c47.9-22.3,61.3-26.8,61.7-26c0.3,0.5-7.1,3.6-15,8.4
			c-16.3,10-29.2,18.9-38.1,25.4L44,318.3z"/>
	</g>
	<path id="plane-inner_15_" class="st2" d="M97.2,284.7c0.3,0.5-7.1,3.6-15,8.4c-16.3,10-29.2,18.9-38.1,25.4l-0.1-0.1l-0.7-0.5
		l-0.1,0.8l-0.6,4.5l-0.1,0.5c0,0.2,0,0.4-0.1,0.5l-1.6,11.3l-0.1-0.5l0-0.2l-2.1-10.3c-0.9-4.6-2-9.2-3-13.8l0-0.1
		C83.5,288.4,96.9,284,97.2,284.7z"/>
	<path id="color-wave2_15_" class="st3" d="M19.4,343.7c-3-0.2-5.9-1.9-7.6-4.4c-0.8-1.3-1.4-2.7-1.7-4.2c-0.3-1.5-0.4-3-0.2-4.5
		c0.3-3,2-5.8,4.5-7.6c2.5-1.8,5.8-2.4,8.6-1.7l0,0.1c-2.9-0.3-5.9,0.5-8.2,2.2c-2.3,1.7-4,4.2-4.6,7c-0.3,1.4-0.3,2.9,0.1,4.3
		c0.3,1.4,1.1,2.7,1.9,3.9C14,341.2,16.5,342.9,19.4,343.7L19.4,343.7z"/>
	<path id="color-wave_15_" class="st3" d="M40.1,336.9c-0.8,1.8-2.1,3.4-3.7,4.5c-2.4,1.8-5.6,2.5-8.6,2c-3-0.5-5.8-2.2-7.5-4.7
		c-1.7-2.5-2.3-5.8-1.6-8.6l0.1,0c-0.3,2.9,0.4,5.9,2.1,8.2c1.7,2.3,4.2,4,7,4.6c2.8,0.5,5.9-0.1,8.3-1.7c1.7-1.1,3-2.7,3.9-4.5
		L40.1,336.9z"/>
	<g id="plane_body_16_">
		<polygon class="st4" points="564.3,49.4 564.3,49.3 564.3,49.4 		"/>
		<path class="st4" d="M564.1,77.5c0-0.1,0-0.1,0-0.2c0,0-0.1-0.1-0.1-0.1L564.1,77.5z M564.3,49.4L564.3,49.4L564.3,49.4
			L564.3,49.4z"/>
		<path class="st4" d="M491.7,90.1c3.6,0.8,7.3,1.2,11,1.5c3.7,0.3,7.3,0.4,11,0.5c7.3,0.1,14.7,0,22-0.2l11-0.4
			c3.7-0.1,7.3-0.4,11-0.7c7.1-0.5,14.1-1,21.2-1.7c0.1,0,0.2,0,0.3,0c0.1,0,0.2,0,0.2,0c0,0,0,0,0,0c0,0,0,0,0,0l0,0
			c0,0,0.1,0,0.1,0c-5.1-3.8-10.3-7.8-15.5-11.8c0,0.1,0,0.1,0,0.2l-0.1-0.3c0,0,0.1,0.1,0.1,0.1c0.1-4.6,0.4-9.3,0.4-13.9l0.2-12.1
			l0-0.3l0-1.7l0.1-2.9l-1,2.7l-0.2,0.6l-6.6,4c-1.3,0.8-2.5,1.6-3.8,2.5l-3.6,2.6l-0.1,0.1L540,48.6l-0.5-0.6l-0.3,0.7
			c-1,2.3-2.7,4.4-4.4,6.3c-1.7,1.9-3.6,3.8-5.5,5.6c-3.9,3.6-7.9,6.9-12.1,10.1c-8.3,6.5-16.9,12.6-25.6,18.4l-1,0.7L491.7,90.1z
			 M564.3,49.3L564.3,49.3L564.3,49.3L564.3,49.3z M556.9,68.3l0.5,0.6l0.3-0.7l1.6-4.3l0.2-0.5c0.1-0.2,0.1-0.3,0.2-0.5l4-10.6
			l0,0.7l-0.2,10.5c-0.1,4.7,0,9.4-0.1,14.1l0,0.1c-51.6,11.3-65.7,12.7-65.9,12c-0.1-0.6,7.8-2,16.4-4.9
			c18.1-6.2,32.6-12.1,42.8-16.4L556.9,68.3z"/>
	</g>
	<path id="plane-inner_16_" class="st5" d="M497.6,89.5c-0.1-0.6,7.8-2,16.4-4.9c18.1-6.2,32.6-12.1,42.8-16.4l0.1,0.1l0.5,0.6
		l0.3-0.7l1.6-4.3l0.2-0.5c0.1-0.2,0.1-0.3,0.2-0.5l4-10.6l0,0.5l0,0.2l-0.2,10.5c-0.1,4.7,0,9.4-0.1,14.1l0,0.1
		C511.9,88.9,497.8,90.3,497.6,89.5z"/>
	<path id="color-wave2_16_" class="st3" d="M586.5,48.9c2.9,0.9,5.3,3.1,6.4,6c0.5,1.4,0.7,2.9,0.7,4.4c0,1.5-0.3,3-0.8,4.4
		c-1,2.8-3.3,5.3-6.1,6.4c-2.8,1.2-6.1,1.1-8.8-0.3l0-0.1c2.8,0.9,5.8,0.8,8.4-0.4c2.6-1.1,4.8-3.2,6-5.8c0.6-1.3,0.9-2.8,0.9-4.2
		c0-1.5-0.4-2.9-1-4.2C591.1,52.4,589.1,50.3,586.5,48.9L586.5,48.9z"/>
	<path id="color-wave_16_" class="st3" d="M564.8,51c1.2-1.6,2.8-2.8,4.6-3.6c2.8-1.2,6-1.2,8.8-0.1c2.8,1.1,5.2,3.4,6.3,6.3
		c1.1,2.8,1,6.1-0.3,8.8l-0.1,0c0.9-2.8,0.9-5.8-0.3-8.5c-1.1-2.6-3.2-4.8-5.8-6c-2.6-1.2-5.7-1.2-8.4-0.1c-1.9,0.7-3.5,2-4.8,3.5
		L564.8,51z"/>
	<g id="plane_body_17_">
		<polygon class="st1" points="450.7,224.4 450.7,224.4 450.7,224.4 		"/>
		<path class="st1" d="M444.8,196.9c0,0,0,0.1,0,0.2c0,0,0.1,0.1,0.1,0.1L444.8,196.9z M450.7,224.4L450.7,224.4L450.7,224.4
			L450.7,224.4z"/>
		<path class="st1" d="M512.7,168.8c-3.7,0-7.4,0.4-11,1c-3.6,0.5-7.2,1.2-10.8,2c-7.2,1.5-14.3,3.2-21.5,5l-10.7,2.8
			c-3.6,0.9-7.1,2-10.6,3c-6.8,2-13.6,4.1-20.3,6.3c-0.1,0-0.2,0.1-0.3,0.1c-0.1,0-0.2,0-0.2,0.1c0,0,0,0,0,0c0,0,0,0,0,0h0
			c0,0-0.1,0-0.1,0c5.8,2.6,11.7,5.3,17.7,8.1c0,0,0-0.1,0-0.2l0.2,0.2c0,0-0.1,0-0.1-0.1c0.9,4.6,1.7,9.1,2.6,13.7l2.4,11.8
			l0.1,0.3l0.3,1.7l0.6,2.8l0.4-2.9l0.1-0.6l5.5-5.4c1.1-1,2.1-2.1,3.1-3.3l3-3.4l0.1-0.1l11.6,8l0.6,0.4l0.2-0.8
			c0.5-2.5,1.6-4.9,2.9-7.1c1.3-2.3,2.7-4.5,4.2-6.6c3-4.3,6.2-8.5,9.6-12.5c6.7-8.1,13.7-16,21-23.6l0.8-0.8L512.7,168.8z
			 M450.7,224.4L450.7,224.4L450.7,224.4L450.7,224.4z M453.8,204.4l-0.7-0.4l-0.1,0.8l-0.7,4.5l-0.1,0.5c0,0.2-0.1,0.3-0.1,0.5
			l-1.6,11.3l-0.1-0.7l-2.1-10.3c-0.9-4.6-2-9.2-3-13.8l0-0.1c47.9-22.3,61.3-26.8,61.7-26c0.3,0.5-7.1,3.6-15,8.4
			c-16.3,10-29.2,18.9-38.1,25.4L453.8,204.4z"/>
	</g>
	<path id="plane-inner_17_" class="st2" d="M507.1,170.7c0.3,0.5-7.1,3.6-15,8.4c-16.3,10-29.2,18.9-38.1,25.4l-0.1-0.1l-0.7-0.5
		l-0.1,0.8l-0.6,4.5l-0.1,0.5c0,0.2,0,0.4-0.1,0.5l-1.6,11.3l-0.1-0.5l0-0.2l-2.1-10.3c-0.9-4.6-2-9.2-3-13.8l0-0.1
		C493.3,174.4,506.7,170,507.1,170.7z"/>
	<path id="color-wave2_17_" class="st3" d="M429.2,229.7c-3-0.2-5.9-1.9-7.6-4.4c-0.8-1.3-1.4-2.7-1.7-4.2c-0.3-1.5-0.4-3-0.2-4.5
		c0.3-3,2-5.8,4.5-7.6c2.5-1.8,5.8-2.4,8.6-1.7l0,0.1c-2.9-0.3-5.9,0.5-8.2,2.2c-2.3,1.7-4,4.2-4.6,7c-0.3,1.4-0.3,2.9,0.1,4.3
		c0.3,1.4,1.1,2.7,1.9,3.9C423.9,227.2,426.4,228.9,429.2,229.7L429.2,229.7z"/>
	<path id="color-wave_17_" class="st3" d="M449.9,222.9c-0.8,1.8-2.1,3.4-3.7,4.5c-2.4,1.8-5.6,2.5-8.6,2c-3-0.5-5.8-2.2-7.5-4.7
		c-1.7-2.5-2.3-5.8-1.6-8.6l0.1,0c-0.3,2.9,0.4,5.9,2.1,8.2c1.7,2.3,4.2,4,7,4.6c2.8,0.5,5.9-0.1,8.3-1.7c1.7-1.1,3-2.7,3.9-4.5
		L449.9,222.9z"/>
	<g id="plane_body_18_">
		<polygon class="st1" points="542.1,424.5 542.1,424.5 542.1,424.5 		"/>
		<path class="st1" d="M536.1,397.1c0,0,0,0.1,0,0.2c0,0,0.1,0.1,0.1,0.1L536.1,397.1z M542.1,424.5L542.1,424.5L542.1,424.5
			L542.1,424.5z"/>
		<path class="st1" d="M604,368.9c-3.7,0-7.4,0.4-11,1c-3.6,0.5-7.2,1.2-10.8,2c-7.2,1.5-14.3,3.2-21.5,5l-10.7,2.8
			c-3.6,0.9-7.1,2-10.6,3c-6.8,2-13.6,4.1-20.3,6.3c-0.1,0-0.2,0.1-0.3,0.1c-0.1,0-0.2,0-0.2,0.1c0,0,0,0,0,0c0,0,0,0,0,0h0
			c0,0-0.1,0-0.1,0c5.8,2.6,11.7,5.3,17.7,8.1c0,0,0-0.1,0-0.2l0.2,0.2c0,0-0.1,0-0.1-0.1c0.9,4.6,1.7,9.1,2.6,13.7l2.4,11.8
			l0.1,0.3l0.3,1.7l0.6,2.8l0.4-2.9l0.1-0.6l5.5-5.4c1.1-1,2.1-2.1,3.1-3.3l3-3.4l0.1-0.1l11.6,8l0.6,0.4l0.2-0.8
			c0.5-2.5,1.6-4.9,2.9-7.1c1.3-2.3,2.7-4.5,4.2-6.6c3-4.3,6.2-8.5,9.6-12.5c6.7-8.1,13.7-16,21-23.6l0.8-0.8L604,368.9z
			 M542.1,424.5L542.1,424.5L542.1,424.5L542.1,424.5z M545.2,404.5l-0.7-0.4l-0.1,0.8l-0.7,4.5l-0.1,0.5c0,0.2-0.1,0.3-0.1,0.5
			l-1.6,11.3l-0.1-0.7l-2.1-10.3c-0.9-4.6-2-9.2-3-13.8l0-0.1c47.9-22.3,61.3-26.8,61.7-26c0.3,0.5-7.1,3.6-15,8.4
			c-16.3,10-29.2,18.9-38.1,25.4L545.2,404.5z"/>
	</g>
	<path id="plane-inner_18_" class="st2" d="M598.4,370.8c0.3,0.5-7.1,3.6-15,8.4c-16.3,10-29.2,18.9-38.1,25.4l-0.1-0.1l-0.7-0.5
		l-0.1,0.8l-0.6,4.5l-0.1,0.5c0,0.2,0,0.4-0.1,0.5l-1.6,11.3l-0.1-0.5l0-0.2l-2.1-10.3c-0.9-4.6-2-9.2-3-13.8l0-0.1
		C584.7,374.5,598.1,370.1,598.4,370.8z"/>
	<path id="color-wave2_18_" class="st3" d="M520.6,429.8c-3-0.2-5.9-1.9-7.6-4.4c-0.8-1.3-1.4-2.7-1.7-4.2c-0.3-1.5-0.4-3-0.2-4.5
		c0.3-3,2-5.8,4.5-7.6c2.5-1.8,5.8-2.4,8.6-1.7l0,0.1c-2.9-0.3-5.9,0.5-8.2,2.2c-2.3,1.7-4,4.2-4.6,7c-0.3,1.4-0.3,2.9,0.1,4.3
		c0.3,1.4,1.1,2.7,1.9,3.9C515.2,427.4,517.7,429,520.6,429.8L520.6,429.8z"/>
	<path id="color-wave_18_" class="st3" d="M541.2,423c-0.8,1.8-2.1,3.4-3.7,4.5c-2.4,1.8-5.6,2.5-8.6,2c-3-0.5-5.8-2.2-7.5-4.7
		c-1.7-2.5-2.3-5.8-1.6-8.6l0.1,0c-0.3,2.9,0.4,5.9,2.1,8.2c1.7,2.3,4.2,4,7,4.6c2.8,0.5,5.9-0.1,8.3-1.7c1.7-1.1,3-2.7,3.9-4.5
		L541.2,423z"/>
	<rect class="st6" width="792" height="612"/>
</g>
</svg>
