<?xml version="1.0" encoding="utf-8"?>
<!-- Generator: Adobe Illustrator 23.0.3, SVG Export Plug-In . SVG Version: 6.00 Build 0)  -->
<svg version="1.1" xmlns="http://www.w3.org/2000/svg" xmlns:xlink="http://www.w3.org/1999/xlink" x="0px" y="0px"
	 viewBox="0 0 615 794.1" style="enable-background:new 0 0 615 794.1;" xml:space="preserve">
<style type="text/css">
	.st0{display:none;}
	.st1{display:inline;}
	.st2{opacity:0.61;fill:#021903;stroke:#4D4D4D;stroke-miterlimit:10;}
	.st3{opacity:0.85;}
	.st4{fill:#3A3A3A;stroke:#4D4D4D;stroke-miterlimit:10;}
	.st5{fill:#894646;stroke:#4D4D4D;stroke-miterlimit:10;}
	.st6{fill:#2D2902;stroke:#4D4D4D;stroke-miterlimit:10;}
	.st7{fill:#001600;stroke:#4D4D4D;stroke-miterlimit:10;}
	.st8{fill:none;stroke:#4D4D4D;stroke-miterlimit:10;}
	.st9{fill:#0988AF;stroke:#4D4D4D;stroke-miterlimit:10;}
	.st10{fill:url(#SVGID_23_);stroke:#4D4D4D;stroke-miterlimit:10;}
	.st11{fill:url(#SVGID_24_);stroke:#4D4D4D;stroke-miterlimit:10;}
	.st12{fill:url(#SVGID_25_);stroke:#4D4D4D;stroke-miterlimit:10;}
	.st13{fill:url(#SVGID_26_);stroke:#4D4D4D;stroke-miterlimit:10;}
	.st14{fill:url(#SVGID_27_);stroke:#4D4D4D;stroke-miterlimit:10;}
	.st15{fill:url(#SVGID_28_);stroke:#4D4D4D;stroke-miterlimit:10;}
	.st16{opacity:0.83;fill:url(#SVGID_29_);stroke:#4D4D4D;stroke-miterlimit:10;}
	.st17{fill:url(#SVGID_30_);stroke:#4D4D4D;stroke-miterlimit:10;}
	.st18{fill:url(#SVGID_31_);stroke:#4D4D4D;stroke-miterlimit:10;}
	.st19{fill:url(#SVGID_32_);stroke:#4D4D4D;stroke-miterlimit:10;}
	.st20{fill:url(#SVGID_33_);stroke:#4D4D4D;stroke-miterlimit:10;}
	.st21{fill:url(#SVGID_34_);stroke:#4D4D4D;stroke-miterlimit:10;}
	.st22{fill:url(#SVGID_35_);stroke:#4D4D4D;stroke-miterlimit:10;}
	.st23{fill:url(#SVGID_36_);stroke:#4D4D4D;stroke-miterlimit:10;}
	.st24{fill:url(#SVGID_37_);stroke:#4D4D4D;stroke-miterlimit:10;}
	.st25{fill:url(#SVGID_38_);stroke:#4D4D4D;stroke-miterlimit:10;}
	.st26{fill:url(#SVGID_39_);stroke:#4D4D4D;stroke-miterlimit:10;}
	.st27{fill:url(#SVGID_40_);stroke:#4D4D4D;stroke-miterlimit:10;}
	.st28{opacity:0.83;fill:url(#SVGID_41_);stroke:#4D4D4D;stroke-miterlimit:10;}
	.st29{fill:url(#SVGID_42_);stroke:#4D4D4D;stroke-miterlimit:10;}
	.st30{fill:url(#SVGID_43_);stroke:#4D4D4D;stroke-miterlimit:10;}
	.st31{fill:url(#SVGID_44_);stroke:#4D4D4D;stroke-miterlimit:10;}
	.st32{fill:url(#SVGID_45_);stroke:#4D4D4D;stroke-miterlimit:10;}
	.st33{fill:url(#SVGID_46_);stroke:#4D4D4D;stroke-miterlimit:10;}
	.st34{fill:url(#SVGID_47_);stroke:#4D4D4D;stroke-miterlimit:10;}
	.st35{fill:url(#SVGID_48_);stroke:#4D4D4D;stroke-miterlimit:10;}
	.st36{fill:url(#SVGID_49_);stroke:#4D4D4D;stroke-miterlimit:10;}
	.st37{fill:url(#SVGID_50_);stroke:#4D4D4D;stroke-miterlimit:10;}
	.st38{fill:url(#SVGID_51_);stroke:#4D4D4D;stroke-miterlimit:10;}
	.st39{fill:url(#SVGID_52_);stroke:#4D4D4D;stroke-miterlimit:10;}
	.st40{fill:url(#SVGID_53_);stroke:#4D4D4D;stroke-miterlimit:10;}
	.st41{fill:url(#SVGID_54_);stroke:#4D4D4D;stroke-miterlimit:10;}
	.st42{fill:url(#SVGID_55_);stroke:#4D4D4D;stroke-miterlimit:10;}
	.st43{fill:url(#SVGID_56_);stroke:#4D4D4D;stroke-miterlimit:10;}
	.st44{fill:url(#SVGID_57_);stroke:#4D4D4D;stroke-miterlimit:10;}
	.st45{fill:url(#SVGID_58_);stroke:#4D4D4D;stroke-miterlimit:10;}
	.st46{fill:url(#SVGID_59_);stroke:#4D4D4D;stroke-miterlimit:10;}
	.st47{fill:url(#SVGID_60_);stroke:#4D4D4D;stroke-miterlimit:10;}
	.st48{fill:#2D0021;stroke:#4D4D4D;stroke-miterlimit:10;}
	.st49{fill:#3454C6;stroke:#4D4D4D;stroke-width:4;stroke-miterlimit:10;}
	.st50{fill:none;stroke:#4D4D4D;stroke-width:3;stroke-miterlimit:10;}
	.st51{fill:#27004C;stroke:#4D4D4D;stroke-miterlimit:10;}
</style>
<g id="Image_Choices">
	<g class="st0">
		<path class="st1" d="M3.7,807.5c0.9-0.2,2-0.3,3.4-0.3c1.7,0,3,0.4,3.8,1.1c0.7,0.6,1.2,1.6,1.2,2.8c0,1.2-0.4,2.2-1.1,2.9
			c-0.9,1-2.5,1.5-4.2,1.5c-0.5,0-1,0-1.4-0.1v5.5H3.7V807.5z M5.5,814c0.4,0.1,0.9,0.1,1.5,0.1c2.1,0,3.4-1,3.4-2.9
			c0-1.8-1.3-2.7-3.2-2.7c-0.8,0-1.4,0.1-1.7,0.1V814z"/>
		<path class="st1" d="M15,809.5c-0.6,0-1.1-0.5-1.1-1.1c0-0.6,0.4-1.1,1.1-1.1c0.6,0,1.1,0.5,1.1,1.1C16.1,809,15.7,809.5,15,809.5
			L15,809.5z M14.1,821v-9.8h1.8v9.8H14.1z"/>
		<path class="st1" d="M25.9,820.6c-0.5,0.2-1.5,0.6-2.8,0.6c-3,0-4.9-2-4.9-5c0-3,2.1-5.2,5.3-5.2c1.1,0,2,0.3,2.5,0.5l-0.4,1.4
			c-0.4-0.2-1.1-0.5-2.1-0.5c-2.2,0-3.5,1.7-3.5,3.7c0,2.3,1.5,3.7,3.4,3.7c1,0,1.7-0.2,2.2-0.5L25.9,820.6z"/>
		<path class="st1" d="M29.7,815.7L29.7,815.7c0.3-0.3,0.6-0.8,0.9-1.1l2.9-3.4h2.1l-3.8,4l4.3,5.8H34l-3.4-4.7l-0.9,1v3.7H28v-14.4
			h1.8V815.7z"/>
		<path class="st1" d="M47.1,821.2c-3.6,0-6.1-2.8-6.1-6.9c0-4.3,2.7-7.2,6.3-7.2c3.7,0,6.2,2.9,6.2,6.9
			C53.5,818.7,50.6,821.2,47.1,821.2L47.1,821.2z M47.2,819.8c2.8,0,4.4-2.6,4.4-5.7c0-2.7-1.4-5.6-4.4-5.6c-2.9,0-4.4,2.7-4.4,5.7
			C42.9,817.1,44.4,819.8,47.2,819.8L47.2,819.8z"/>
		<path class="st1" d="M55.8,821v-13.7h1.9l4.4,6.9c1,1.6,1.8,3,2.4,4.4l0.1,0c-0.2-1.8-0.2-3.5-0.2-5.6v-5.7H66V821h-1.8l-4.3-6.9
			c-1-1.5-1.9-3.1-2.5-4.6l-0.1,0c0.1,1.7,0.1,3.4,0.1,5.6v5.8H55.8z"/>
		<path class="st1" d="M76.1,814.6h-5.3v4.9h5.9v1.5h-7.7v-13.7h7.4v1.5h-5.6v4.3h5.3V814.6z"/>
		<path class="st1" d="M84.1,809.5c-0.6,0-1.1-0.5-1.1-1.1c0-0.6,0.4-1.1,1.1-1.1c0.6,0,1.1,0.5,1.1,1.1
			C85.3,809,84.9,809.5,84.1,809.5L84.1,809.5z M83.3,821v-9.8h1.8v9.8H83.3z"/>
		<path class="st1" d="M88,813.8c0-1,0-1.8-0.1-2.7h1.6l0.1,1.6h0.1c0.5-0.9,1.5-1.8,3.1-1.8c1.3,0,2.3,0.8,2.8,2h0
			c0.3-0.6,0.7-1,1.1-1.3c0.6-0.4,1.2-0.7,2.1-0.7c1.3,0,3.2,0.9,3.2,4.3v5.8h-1.7v-5.6c0-1.9-0.7-3-2.1-3c-1,0-1.8,0.7-2.1,1.6
			c-0.1,0.3-0.1,0.6-0.1,0.9v6.1h-1.7v-5.9c0-1.6-0.7-2.7-2-2.7c-1.1,0-1.9,0.9-2.2,1.8c-0.1,0.3-0.1,0.6-0.1,0.9v5.9H88V813.8z"/>
		<path class="st1" d="M111.8,818.6c0,0.9,0,1.7,0.1,2.4h-1.6l-0.2-1.2h-0.1c-0.5,0.8-1.6,1.5-3,1.5c-2,0-3-1.4-3-2.8
			c0-2.4,2.1-3.7,5.9-3.6v-0.2c0-0.8-0.2-2.3-2.2-2.3c-0.9,0-1.9,0.3-2.6,0.7l-0.4-1.2c0.8-0.5,2-0.9,3.2-0.9c3,0,3.7,2,3.7,4V818.6
			z M110.1,816c-1.9,0-4.2,0.3-4.2,2.2c0,1.2,0.8,1.7,1.7,1.7c1.3,0,2.1-0.8,2.4-1.6c0.1-0.2,0.1-0.4,0.1-0.6V816z"/>
		<path class="st1" d="M123.1,819.5c0,2.3-0.5,3.6-1.4,4.5c-1,0.9-2.4,1.2-3.6,1.2c-1.2,0-2.5-0.3-3.3-0.8l0.4-1.4
			c0.6,0.4,1.7,0.8,2.9,0.8c1.8,0,3.2-1,3.2-3.4v-1.1h0c-0.5,0.9-1.6,1.6-3.1,1.6c-2.4,0-4.2-2.1-4.2-4.8c0-3.3,2.2-5.2,4.4-5.2
			c1.7,0,2.6,0.9,3.1,1.7h0l0.1-1.5h1.6c-0.1,0.7-0.1,1.5-0.1,2.7V819.5z M121.3,815c0-0.3,0-0.5-0.1-0.8c-0.3-1.1-1.2-1.9-2.5-1.9
			c-1.7,0-2.9,1.4-2.9,3.7c0,1.9,1,3.5,2.9,3.5c1.1,0,2.1-0.7,2.5-1.8c0.1-0.3,0.1-0.6,0.1-1V815z"/>
		<path class="st1" d="M127,816.4c0,2.4,1.6,3.4,3.3,3.4c1.3,0,2.1-0.2,2.7-0.5l0.3,1.3c-0.6,0.3-1.7,0.6-3.3,0.6
			c-3,0-4.8-2-4.8-4.9c0-3,1.8-5.3,4.6-5.3c3.2,0,4,2.8,4,4.6c0,0.4,0,0.6-0.1,0.8H127z M132.2,815.1c0-1.1-0.5-2.9-2.5-2.9
			c-1.8,0-2.6,1.7-2.7,2.9H132.2z"/>
		<path class="st1" d="M142.6,808.8v2.4h2.6v1.4h-2.6v5.3c0,1.2,0.3,1.9,1.3,1.9c0.5,0,0.8,0,1-0.1l0.1,1.4
			c-0.3,0.1-0.9,0.2-1.6,0.2c-0.8,0-1.5-0.3-1.9-0.8c-0.5-0.5-0.7-1.4-0.7-2.6v-5.3h-1.5v-1.4h1.5v-1.8L142.6,808.8z"/>
		<path class="st1" d="M151,821.2c-2.6,0-4.7-1.9-4.7-5c0-3.3,2.2-5.2,4.9-5.2c2.8,0,4.7,2,4.7,5C155.9,819.6,153.4,821.2,151,821.2
			L151,821.2z M151.1,819.9c1.7,0,3-1.6,3-3.8c0-1.7-0.8-3.7-2.9-3.7c-2.1,0-3,1.9-3,3.8C148.2,818.2,149.4,819.9,151.1,819.9
			L151.1,819.9z"/>
		<path class="st1" d="M164.6,808.8v2.4h2.6v1.4h-2.6v5.3c0,1.2,0.3,1.9,1.3,1.9c0.5,0,0.8,0,1-0.1l0.1,1.4
			c-0.3,0.1-0.9,0.2-1.6,0.2c-0.8,0-1.5-0.3-1.9-0.8c-0.5-0.5-0.7-1.4-0.7-2.6v-5.3h-1.5v-1.4h1.5v-1.8L164.6,808.8z"/>
		<path class="st1" d="M169.2,814.2c0-1.2,0-2.1-0.1-3.1h1.6l0.1,1.9h0.1c0.4-1.3,1.5-2.1,2.7-2.1c0.2,0,0.3,0,0.5,0v1.7
			c-0.2,0-0.4,0-0.6,0c-1.3,0-2.1,1-2.4,2.3c0,0.3-0.1,0.5-0.1,0.8v5.2h-1.8V814.2z"/>
		<path class="st1" d="M182.6,818.6c0,0.9,0,1.7,0.1,2.4h-1.6l-0.2-1.2h-0.1c-0.5,0.8-1.6,1.5-3,1.5c-2,0-3-1.4-3-2.8
			c0-2.4,2.1-3.7,5.9-3.6v-0.2c0-0.8-0.2-2.3-2.2-2.3c-0.9,0-1.9,0.3-2.6,0.7l-0.4-1.2c0.8-0.5,2-0.9,3.2-0.9c3,0,3.7,2,3.7,4V818.6
			z M180.9,816c-1.9,0-4.2,0.3-4.2,2.2c0,1.2,0.8,1.7,1.7,1.7c1.3,0,2.1-0.8,2.4-1.6c0.1-0.2,0.1-0.4,0.1-0.6V816z"/>
		<path class="st1" d="M192.5,820.6c-0.5,0.2-1.5,0.6-2.8,0.6c-3,0-4.9-2-4.9-5c0-3,2.1-5.2,5.3-5.2c1.1,0,2,0.3,2.5,0.5l-0.4,1.4
			c-0.4-0.2-1.1-0.5-2.1-0.5c-2.2,0-3.5,1.7-3.5,3.7c0,2.3,1.5,3.7,3.4,3.7c1,0,1.7-0.2,2.2-0.5L192.5,820.6z"/>
		<path class="st1" d="M195.4,816.4c0,2.4,1.6,3.4,3.3,3.4c1.3,0,2.1-0.2,2.7-0.5l0.3,1.3c-0.6,0.3-1.7,0.6-3.3,0.6
			c-3,0-4.8-2-4.8-4.9c0-3,1.8-5.3,4.6-5.3c3.2,0,4,2.8,4,4.6c0,0.4,0,0.6-0.1,0.8H195.4z M200.6,815.1c0-1.1-0.5-2.9-2.5-2.9
			c-1.8,0-2.6,1.7-2.7,2.9H200.6z"/>
		<path class="st1" d="M205.1,821.2c-0.7,0-1.2-0.5-1.2-1.3s0.5-1.3,1.2-1.3s1.2,0.5,1.2,1.3C206.3,820.7,205.8,821.2,205.1,821.2
			L205.1,821.2z"/>
	</g>
	<g id="_x36_" class="st0">
		<g class="st1">
			<defs>
				<rect id="SVGID_1_" x="2.2" y="2.1" width="612" height="792"/>
			</defs>
			<clipPath id="SVGID_2_">
				<use xlink:href="#SVGID_1_"  style="overflow:visible;"/>
			</clipPath>
			<g style="clip-path:url(#SVGID_2_);">
				
					<image style="overflow:visible;" width="1122" height="886" xlink:href="4951EFFAF72E80DB.jpg"  transform="matrix(1 0 0 1 -249.4991 4.3616)">
				</image>
			</g>
		</g>
		<g class="st1">
			<defs>
				<rect id="SVGID_3_" x="704.8" y="2.1" width="612" height="792"/>
			</defs>
			<clipPath id="SVGID_4_">
				<use xlink:href="#SVGID_3_"  style="overflow:visible;"/>
			</clipPath>
			<g style="clip-path:url(#SVGID_4_);">
				
					<image style="overflow:visible;" width="1122" height="886" xlink:href="4951EFFAF72E80D9.jpg"  transform="matrix(1 0 0 1 471.5165 4.3616)">
				</image>
			</g>
		</g>
	</g>
	<g id="_x35_" class="st0">
		<g class="st1">
			<defs>
				<rect id="SVGID_5_" x="1.4" y="2.1" width="612" height="792"/>
			</defs>
			<clipPath id="SVGID_6_">
				<use xlink:href="#SVGID_5_"  style="overflow:visible;"/>
			</clipPath>
			<g transform="matrix(1 0 0 1 0 0)" style="clip-path:url(#SVGID_6_);">
				
					<image style="overflow:visible;" width="800" height="1168" xlink:href="4951EFFAF72E80DF.jpg"  transform="matrix(0.763 0 0 0.763 2.2041 2.1326)">
				</image>
			</g>
		</g>
		<g class="st1">
			<defs>
				<rect id="SVGID_7_" x="704.8" y="2.1" width="612" height="792"/>
			</defs>
			<clipPath id="SVGID_8_">
				<use xlink:href="#SVGID_7_"  style="overflow:visible;"/>
			</clipPath>
			<g transform="matrix(1 0 0 1 0 0)" style="clip-path:url(#SVGID_8_);">
				
					<image style="overflow:visible;" width="800" height="1168" xlink:href="4951EFFAF72E80D8.jpg"  transform="matrix(0.763 0 0 0.763 705.5927 2.1326)">
				</image>
			</g>
		</g>
	</g>
	<g id="_x34_" class="st0">
		<g class="st1">
			<defs>
				<rect id="SVGID_9_" x="1.4" y="4.4" width="612" height="792"/>
			</defs>
			<clipPath id="SVGID_10_">
				<use xlink:href="#SVGID_9_"  style="overflow:visible;"/>
			</clipPath>
			<g style="clip-path:url(#SVGID_10_);">
				
					<image style="overflow:visible;" width="1332" height="1600" xlink:href="4951EFFAF72E80D6.jpg"  transform="matrix(0.4922 0 0 0.4922 -42.2087 6.5906)">
				</image>
			</g>
		</g>
		<g class="st1">
			<defs>
				<rect id="SVGID_11_" x="704.8" y="4.4" width="612" height="792"/>
			</defs>
			<clipPath id="SVGID_12_">
				<use xlink:href="#SVGID_11_"  style="overflow:visible;"/>
			</clipPath>
			<g style="clip-path:url(#SVGID_12_);">
				
					<image style="overflow:visible;" width="1332" height="1600" xlink:href="4951EFFAF72E80D7.jpg"  transform="matrix(0.4922 0 0 0.4922 661.1798 6.5906)">
				</image>
			</g>
		</g>
	</g>
	<g id="_x33_" class="st0">
		<g class="st1">
			<defs>
				<rect id="SVGID_13_" x="1.4" y="4.4" width="612" height="792"/>
			</defs>
			<clipPath id="SVGID_14_">
				<use xlink:href="#SVGID_13_"  style="overflow:visible;"/>
			</clipPath>
			<g style="clip-path:url(#SVGID_14_);">
				
					<image style="overflow:visible;" width="1529" height="2048" xlink:href="4951EFFAF72E80E7.jpg"  transform="matrix(0.4009 0 0 0.4009 3.7442 6.2526)">
				</image>
			</g>
		</g>
		<g class="st1">
			<defs>
				<rect id="SVGID_15_" x="704.8" y="4.4" width="612" height="792"/>
			</defs>
			<clipPath id="SVGID_16_">
				<use xlink:href="#SVGID_15_"  style="overflow:visible;"/>
			</clipPath>
			<g style="clip-path:url(#SVGID_16_);">
				
					<image style="overflow:visible;" width="1529" height="2048" xlink:href="4951EFFAF72E80E9.jpg"  transform="matrix(0.4009 0 0 0.4009 704.3366 6.2526)">
				</image>
			</g>
		</g>
	</g>
	<g id="_x32_" class="st0">
		<g class="st1">
			<defs>
				<rect id="SVGID_17_" x="2.2" y="2.1" width="612" height="792"/>
			</defs>
			<clipPath id="SVGID_18_">
				<use xlink:href="#SVGID_17_"  style="overflow:visible;"/>
			</clipPath>
			<g transform="matrix(1 0 0 1 1.192093e-07 0)" style="clip-path:url(#SVGID_18_);">
				
					<image style="overflow:visible;" width="900" height="1200" xlink:href="4951EFFAF72E80EB.jpg"  transform="matrix(0.6792 0 0 0.6792 1.42 0.7326)">
				</image>
			</g>
		</g>
		<g class="st1">
			<defs>
				<rect id="SVGID_19_" x="704.8" y="2.1" width="612" height="792"/>
			</defs>
			<clipPath id="SVGID_20_">
				<use xlink:href="#SVGID_19_"  style="overflow:visible;"/>
			</clipPath>
			<g style="clip-path:url(#SVGID_20_);">
				
					<image style="overflow:visible;" width="900" height="1200" xlink:href="98D7AF45B9B89FB8.jpg"  transform="matrix(0.6792 0 0 0.6792 705.1836 0.7326)">
				</image>
			</g>
		</g>
	</g>
	<g>
		<defs>
			<rect id="SVGID_21_" x="1.4" y="2.1" width="612" height="792"/>
		</defs>
		<clipPath id="SVGID_22_">
			<use xlink:href="#SVGID_21_"  style="overflow:visible;"/>
		</clipPath>
		<g transform="matrix(1 0 0 1 -7.629395e-06 0)" style="clip-path:url(#SVGID_22_);">
			
				<image style="overflow:visible;" width="1024" height="769" xlink:href="98D7AF45B9B89FBF.jpg"  transform="matrix(1.0299 0 0 1.0299 -88.0633 2.1326)">
			</image>
		</g>
	</g>
</g>
<g id="outline_tracing">
	<path class="st2" d="M189,137c2.2-14.7,10.1-24.9,12.8-28.3c3.2-3.8,16.1-18.9,37.4-20.5c4.3-0.3,13.2-0.5,23,3.7
		c23.7,10.1,29.3,37.2,29.3,37.2l16.8,13.5c0,0,36.2-10.1,39.6,9c5.3-1.3,13.6-2.6,23.5-1.1c8.5,1.2,14.8,4,18.2,5.6
		c6.6,3.3,11.5,7.2,14.6,10.1c2.8,1.8,7.7,5.1,12.6,10.2c14.3,14.8,21.1,36,21.1,36l0,0l47.3,95.7c0,0,6.8,28.2,9,40.5
		c2.3,12.4-7.9,13.5-7.9,13.5l8.2,18l14.3,253.4c0,0,19.1,9,0,20.3c14.6,0,3.4,33.8,3.4,33.8l14.6,16.9v10.1l6.8,15.8l-10.1,12.4
		l-244.4-64.2L97.7,701.2v-10.1l22.5-4.5l19.1,1.1l16.9-20.3l-6.8-11.3c0,0-19.1-123.9-15.8-145.3c3.4-21.4-21.4-6.8-23.7-25.9
		c-2.3-19.1-1.1-20.3,19.1-29.3c-7.9-10.1,11.3-41.7,25.9-52.9c0-15.8-11.3-21.4-11.3-21.4v-15.8V351l4.5-11.3c0,0,9,4.5,9-20.3
		c11.3-6.8,25.9-2.3,25.9-2.3v21.4c0,0,14.6,7.9,15.8,22.5c0,0,43.9,16.9,49.6,12.4c5.6-4.5-13.5-74.3-19.1-91.2
		c-5.6-16.9-10.1-47.3,20.3-58.6c-11.3-5.6-13.5-23.7-13.5-23.7l-10.1,1.1l-11.3-4.5C212.7,194.9,184,170.2,189,137z"/>
</g>
<g id="dark_grey">
	<g class="st3">
		<path class="st4" d="M202.5,124.6l21.4-15.8l19.1,7.9h20.3h20.3l12.4,16.9h-22.5l-4.5,14.6l-29.3-9l-21.4-2.3l-7.9,11.3l-7.9,37.2
			C202.5,185.4,174.3,161.8,202.5,124.6z"/>
		<path class="st4" d="M295.9,231.6v37.2l-7.9-11.3l-10.1,11.3l9,16.9l-14.6,10.1c0,0-3.4,22.5-9,30.4c-5.6,7.9,23.7,49.6,39.4,41.7
			c15.8-7.9-6.8,10.1-6.8,10.1s-18-6.8-38.3-29.3c-20.3-22.5-3.4-38.3,0-49.6c3.4-11.3-7.9-23.7,4.5-34.9
			c12.4-11.3,13.8-9,15.9-16.9C280.2,239.5,295.9,231.6,295.9,231.6z"/>
		<path class="st4" d="M316.2,360c0,0-2.3-34.9,13.5-47.3c15.8-12.4,7.9-2.3,16.9,0c9,2.3,9-6.8,9,2.3c0,9,3.4,5.6,7.9,1.1
			c4.5-4.5,9-6.8,12.4,11.3c3.4,18,0,7.9,16.9,18C409.7,355.5,336.5,342,316.2,360z"/>
		<polygon class="st4" points="424.3,327.3 424.3,342 434.5,354.3 		"/>
		<path class="st4" d="M382.7,240.6c0,0,41.7,55.2,46.7,64.2c0,0,2.2-3.2,9,1.9c2.3,1.7,5.1,4.3,8.4,8.2
			c13.5,15.8,25.9,20.3,32.7,33.8c6.8,13.5,10.1-7.9,10.1-7.9s-20.3-36-36-52.9c-15.8-16.9-10.1-3.4-19.1-3.4s-23.7-25.9-28.2-37.2
			C401.8,236.1,391.7,230.5,382.7,240.6z"/>
		<path class="st4" d="M228.4,258.6c4.5-19.1,6.8-16.9,9-10.1c2.3,6.8-9,18,2.3,6.8c11.3-11.3,13-7.9,8.2,24.8s-5,35.6-4.9,53.3
			C243,351,228.4,258.6,228.4,258.6z"/>
		<path class="st4" d="M142.8,421.9c0,0-9,18-7.9,28.2c1.1,10.1,3.2,23.7-0.1,40.5c-3.3,16.9,14.7-34.4,14.7-34.4l4.5-10.7
			l12.4-10.1c0,0,29.3,5.6,38.3,30.4c19.1-7.9-16.9-30.4-9-43.9s30.4,6.8,32.7,18c2.3,11.3-16.9-32.7-16.9-32.7L142.8,421.9z"/>
		<path class="st4" d="M165.3,662.9v14.6c0,0-9,2.3,0,15.8c-19.1-7.9-36-4.5-36-4.5l52.2,4.5l33.4-10.1L190,673.1l10.3-4.5
			C200.2,668.6,187.8,655,165.3,662.9z"/>
		<path class="st4" d="M408.6,515.4c0,0-21.4-2.3-46.2,0c-24.8,2.3-3.4,48.4,0,48.4c3.4,0,10.1-4.5,20.3,0
			c10.1,4.5,20.3,22.5,0,11.3s-24.7-11.3-32.1-4.5c-7.3,6.8-29.9,100.2-29.9,100.2l43.9,13.5c0,0,23.7-15.8,43.9-36
			c20.3-20.3,47.3-49.6,39.4-76.6S417.6,610,417.6,610l-10.1-38.3l10.1-2.3c0,0,32.1-6.8,31.8-28.2c-0.3-21.4-9.3-12.4-25.1-19.1
			C408.6,515.4,408.6,515.4,408.6,515.4z"/>
		<path class="st4" d="M302.7,514.4l-24.6,128.3C278.1,642.7,315.1,618.1,302.7,514.4z"/>
		<path class="st4" d="M172.1,637c0,0,37.2-9,32.7-18c-4.5-9,10.1,9,10.1,9S198,647.2,172.1,637z"/>
		<path class="st4" d="M190,548.1c0,0,22.6-2.3,24.9-6.8s-8,31.7-12.5,37.2C198,584.1,206.7,570.6,190,548.1z"/>
		<path class="st4" d="M239.4,566.1v20.3C239.4,586.3,268.7,572.6,239.4,566.1z"/>
		<path class="st4" d="M141.7,606.6c2.3,5.6,18,21.6,18,21.6l25.9-21.6c0,0,6.8,14.6-13.5,30.4s-21.4,3-21.4,3L141.7,606.6z"/>
		<path class="st4" d="M243,425.3l9.4-10.1c0,0,24.4,27,17.6,54.1C263.3,496.2,274.4,443.3,243,425.3z"/>
		<path class="st4" d="M252.4,415.2c0,0,41.3,12.4,43.5,18c2.3,5.6-16.9-25-34.9-35C243,388.1,271.9,419.7,252.4,415.2z"/>
		<path class="st4" d="M436.2,464.7c0,0-14.1,14-28.7,12s0,9.4,0,9.4s-2.9,18-12.1,14.6s54.4,12.5,54.1-6.7c-0.3-19.2-0.8,9.7-7-9.8
			C436.2,464.7,436.2,464.7,436.2,464.7z"/>
		<path class="st4" d="M291.7,153.9l-22.7-5.6l-11.8,23.7h21c0,0,21.8-4.5,27.2,6.8c5.3,11.3,9.9-12.4,15.5-15.2
			c5.6-2.8-0.6-10.7-15.5-5.1C290.3,164,291.7,153.9,291.7,153.9z"/>
	</g>
</g>
<g id="The_wall">
	<g id="wall_group">
		<path class="st5" d="M555.2,2.1c-74.3,17.2-148.7,34.3-223,51.5c3.4-17.2,6.8-34.3,10.1-51.5h168.9C526,2.1,540.6,2.1,555.2,2.1z"
			/>
		<path class="st5" d="M613.7,88.6c-0.4-36.1-0.3-72.1-0.2-78.8c0-0.1,0-1,0-1.1c0.5-0.6,0.9-1.3,1.3-1.9c-1.1-1.2-1-3.3,0.1-4.4
			l-1.2-1.2c-0.1-0.1-0.1-0.1-0.2-0.2h-16.7c-2.6,1.3-4.7,2.2-5.4,2.1c-1.4-0.2-2.6-0.8-2.6-0.8c-0.3-0.2-0.7-0.5-0.9-0.7h-5.1
			c-2.3,0.4-4.5,0.8-6.8,1.4c-2,0.5-3.7,0-4.9-1c-0.4,0.1-0.7,0.1-1.1,0.1c-0.9,0-1.6-0.2-2.3-0.4h-3.5
			C484.6,26.8,405,52.1,325.5,77.4c-5.3,21.8-10.5,43.5-15.8,65.3c15.5-4.5,24.8-2,30.4,1c7.5,4.1,8.1,9,16,12.1
			c10.2,3.9,15.5-1.9,26.4-1.1c16.2,1.3,19.9,16,34.1,21.8c14.4,5.9,25.2-0.8,57.4-11.3c35.9-11.6,30-5.3,83.3-20.4
			c15.8-4.5,35.2-10.4,57.5-17.9c-0.3,0-0.5,0-0.8,0C614,118.5,613.8,105.1,613.7,88.6z"/>
		<path class="st5" d="M482,286.7c0,0,15.8,59.7,9,91.2c-6.8,31.5,24.8,256.8,24.8,256.8s-10.1,28.2,0,28.2c10.1,0-10.1,28.2,0,28.2
			c10.1,0,14.6,31.5-2.3,25.9c-16.9-5.6-14.6,16.9-10.1,20.3s110,29.3,110,29.3V252.9L482,286.7z"/>
		<polygon class="st6" points="416.7,176.5 614.2,126.9 613.4,252.9 482,286.7 		"/>
		<path class="st6" d="M559,0.7h-32.2c-0.4,0-0.7-0.1-1-0.2c-81.3,21.6-148,40.2-193.6,53.1l11.9,17.8
			c82.4-22.8,164.7-45.6,247.1-68.3c1.9-0.5,3.8-1,5.6-1.6h-40.7C557.1,1.3,558.1,1,559,0.7z"/>
	</g>
	<g id="wall_line_adjustments">
		<polyline class="st7" points="448.8,234.7 614.2,191 614.2,126.9 416.7,176.5 448.8,234.7 		"/>
		<line class="st8" x1="494.2" y1="348.7" x2="613.4" y2="316.8"/>
		<line class="st8" x1="540.6" y1="271.7" x2="540.9" y2="340.8"/>
		<line class="st8" x1="496.6" y1="465.6" x2="613.4" y2="433.6"/>
		<line class="st8" x1="586.7" y1="321.5" x2="588.9" y2="440.3"/>
		<line class="st8" x1="505.9" y1="559.4" x2="613.4" y2="530.4"/>
		<line class="st8" x1="540.8" y1="459.1" x2="541.8" y2="549.7"/>
		<line class="st8" x1="515.8" y1="662.9" x2="613.4" y2="640.9"/>
		<line class="st8" x1="613.4" y1="530.4" x2="613.4" y2="640.9"/>
		<line class="st8" x1="540.8" y1="657.3" x2="540.8" y2="748.1"/>
		<line class="st8" x1="312.3" y1="126.9" x2="614.2" y2="36.8"/>
		<line class="st8" x1="382.7" y1="58.8" x2="372.9" y2="108.8"/>
		<line class="st8" x1="424.3" y1="93.5" x2="416.7" y2="176.5"/>
		<line class="st8" x1="528.9" y1="62.2" x2="524.9" y2="149.3"/>
		<line class="st8" x1="377.8" y1="2.8" x2="370.8" y2="44.7"/>
		<path class="st8" d="M466.9,4.1c-0.5,3.1-0.9,6.2-1.4,9.3"/>
	</g>
</g>
<g id="Skyline">
	<path class="st9" d="M0,2.8h341l-10.1,51.5l11.9,17.8L324.1,78l-15.8,65.3L290,129.7c-0.6-3.1-6-27.7-27.5-37.4
		c-26.2-11.8-53.5,9-60.7,16.4c-3.6,3.7-6.3,7.9-6.3,7.9s-6,9.2-7.9,21c-2.2,13.5,5.9,37.8,27.3,59.1c13.8,6.3,18.4,5.8,20,4
		c1.2-1.4,1.3-4.4,1.2-4.4c-0.1,0-0.7,2.5-1.2,4.4c1.6,2.8,3.2,5.7,4.9,8.5c1.7,3,3.5,6.1,5.2,9.1c1.1,2,2.3,4,3.4,6
		c0,0-9.4,6-11.7,7.7c-2,1.4-4,3.5-5.9,6.6c-2.9,4.7-5.5,11.8-6.6,22.8c16.4,53,21.6,75.3,22,83.4c0,0.4,0.2,3.8,0.5,8.4
		c0.6,8.4,1.4,15.4,2.1,20.4c-14.6-1.9-26.3-4.2-34.7-5.9l0,0c-6.6-0.9-15-3.7-14.9-6.5c0-1.4,2.2-3.1,2.2-3.1
		c0,0-6.8-6.6-19.3-18.8c0-21.4,0-21.4,0-21.4l-10.5-5.7c-5.1,2.6-10.2,5.3-15.4,7.9c0.6,1.3,1.5,3.7,1.4,6.7
		c-0.1,4.9-2.7,8.3-3.6,9.3c0.1,0.2,0.3,0.5,0.4,0.8c0.7,2.7-5.1,4.6-8.2,8.9c-2.5,3.4-2.3,8.8-2.1,19.8c0.1,5.5,0.2,8.2,0.6,9.6
		c2.5,9.5,10.2,13.2,11.7,21.4c0.2,1.2,0.8,4.7-1,6.2c-0.6,0.5-1.3,0.6-1.4,0.6c-7,1.4-17.9,13.4-21.2,27.2
		c-3.1,13,1.7,22.3-3.3,25.1c-2.5,1.4-6.4,0.5-6.4,0.3c0-0.3,6.2-1,6.4-0.3c0.3,1-14.4,1.7-18.4,10.2c-2.3,4.7,0.7,7.8-0.7,19.1
		c-0.5,3.8-1.2,6.8-1.8,8.9c0.6-0.4,1.5-0.9,2.7-1.2c8.6-2.5,17.6,6.7,18.9,8c7.8,8.2,8.7,22.8,3,37.1c-2.2-14.9-4.7-32-4.6-32.1
		c0,0,0.7,4,0.9,5.4c5.7,35.3,8.5,53,19.2,150.5l6.4,6.4L138,688.3c-3.4-1.6-21.1-9.6-35.7-1.2c-1.9,1.1-3.9,2.5-5.9,4.6v10.1
		l-95.5,9.4L0,2.8z"/>
</g>
<g id="green1">
	<g>
		<radialGradient id="SVGID_23_" cx="254.1382" cy="123.6479" r="51.618" gradientUnits="userSpaceOnUse">
			<stop  offset="0.4981" style="stop-color:#043832"/>
			<stop  offset="1" style="stop-color:#000000"/>
		</radialGradient>
		<path class="st10" d="M190.1,130.8c0,0,8-26.1,27-33.5c19-7.4,32.4-15.7,55.7,1.7c16.1,18,17.2,30.7,17.2,30.7l18.3,13.6
			c0,0,5.4,3.5,5.4,4.3s0,4.2,0,4.2h3.1l1.4,6.8h-2.5h-4.5l-2.9-5.3l-3,2.3v-3.7l-2.5-0.3l-3.4-7.9l-1.4-3.7l-5.6-3.4l-5.6-1.1
			l-4.2-19.4l-3.4,2.3l-7.3-1.4l-3.4-0.3l8.2,6.9l-7-2.2l-3.7-4.2h-5.1l-8.4-5.1l-4.2-3.1l0.8,2.8l0.8,3.4l-3.1-0.8l-2.5-1.4l2,5.1
			c0,0-5.9-4.8-9.3-4.5s-7-5.6-10.7-2.3s-3.1-2-8.2,2.8c-5.1,4.8-9.3,3.1-12.7,6.2c-3.4,3.1-3.9,2.4-7,6.6
			C195.2,131.1,190.1,130.8,190.1,130.8z"/>
		<radialGradient id="SVGID_24_" cx="188.4566" cy="145.5671" r="10.5155" gradientUnits="userSpaceOnUse">
			<stop  offset="0.4981" style="stop-color:#043832"/>
			<stop  offset="1" style="stop-color:#000000"/>
		</radialGradient>
		<path class="st11" d="M190.1,130.8c0,0-7.3,13.2,0,29.6V130.8z"/>
		<radialGradient id="SVGID_25_" cx="290.025" cy="165.5609" r="22.2235" gradientUnits="userSpaceOnUse">
			<stop  offset="0.4981" style="stop-color:#043832"/>
			<stop  offset="1" style="stop-color:#000000"/>
		</radialGradient>
		<path class="st12" d="M290.6,155.8c0,0-2.8-2.8-6.8-2s-1.7-1.4-5.1,4.8c-3.4,6.2-4.2,4.8-6.2,3.4c-2-1.4-5.1-1.2-6.8,1.2
			s3.4,1.6,2.5,4.1c-0.8,2.5-2-2-4.5,0c-2.5,2-0.3,1.4-1.7,5.6c-1.4,4.2,2.3-3.9,6.8-2.8c4.5,1.1,7.9,1.9,8.7,4
			c0.8,2.2,0.8-2.6,3.7-6.3c2.8-3.7,2.8-4.5,5.3-1.4c2.5,3.1,2,11.3,5.6,8.2c3.4-2.9,3.4-0.4,3.4,2.7s7-2.2,8.4,1.1s0-4.5,0-4.5
			s-4.7-3.1,0.6-3.7c5.3-0.6,7.3,1.4,7,5.3s2.3-2.5,3.9-3.4s2.5-13.8,2.5-13.8H303l-0.3-7l-2.8,7l-6.2-1.4L290.6,155.8z"/>
		<radialGradient id="SVGID_26_" cx="334.2008" cy="153.4599" r="20.6095" gradientUnits="userSpaceOnUse">
			<stop  offset="0.4981" style="stop-color:#043832"/>
			<stop  offset="1" style="stop-color:#000000"/>
		</radialGradient>
		<path class="st13" d="M308.3,143.3l5.4,4.3l4.5-2.1c0,0,4.5,1.3,4.8,6.1s0.3,1.7-0.8,8.7c0,0,2.8-0.6,5.1-1.7s0.3,0.6,0-4.5
			c-0.3-5.1,2.3-5.2,3.7-2.3c1.4,2.9,0-2.6,2.5,0c2.5,2.6,4.2,4.3,2,8.5c0,0,3.7,2,2.5,6.5c0,0,6.5-9.3,9.3-8.2c0,0-0.8,0.6-1.7,5.3
			c-0.8,4.8,10.1-7.9,13.2-7.4c3.1,0.5,1,1-6.9-3.1c-8-4.1-3.5-6.2-11.7-9.8C332,140.1,315.2,138,308.3,143.3z"/>
		<radialGradient id="SVGID_27_" cx="406.8718" cy="213.5638" r="44.0298" gradientUnits="userSpaceOnUse">
			<stop  offset="0.4981" style="stop-color:#043832"/>
			<stop  offset="1" style="stop-color:#000000"/>
		</radialGradient>
		<path class="st14" d="M360.1,186.3c0,0,4.5-12.7,17.5-13c13-0.3,9.3-2.8,17.5,2.5c8.2,5.3,13.7,10.7,21.7,18.6
			c7.9,7.9,26.8,29.4,32.1,40.2c5.4,10.9,4.8,14.7,4.8,14.7l-6.5-9.3l0.8,7.3v7.3c0,0-7.3-33.5-14.6-36.9
			c-7.3-3.4-8.5-13.2-16.6-12.7c-8.1,0.6-0.5-7.9-15.2-5.6l-9.6-0.3l-5.6,1.1l-4.5,0.3c0,0,9.6-12.4,22.2-9.3c0,0,3.7-3.7-2-3.4
			s-18.6,1.1-22.8,5.6C379.3,193.6,361.2,190.2,360.1,186.3z"/>
		<radialGradient id="SVGID_28_" cx="255.2062" cy="262.6959" r="35.4605" gradientUnits="userSpaceOnUse">
			<stop  offset="0.4981" style="stop-color:#043832"/>
			<stop  offset="1" style="stop-color:#000000"/>
		</radialGradient>
		<path class="st15" d="M266.9,223.4c0,0-26.7,7.3-32.4,14.9s-10.5,23-10.5,23l10-15.7c0,0,3.7-1.4,4.2,9c0,0,0-4.2,1.7-7.3
			c1.7-3.1,5.3-3.9,6.8,2c0,0,5.1-0.1,4.8,3.6c-0.3,3.7-1.7,29-1.7,29l-4.3,1.7c0,0,4.6,1.1,4,11.3c0,0,2,1.4,1.7,7l5.1-3.4
			c0,0-2.5-15.5,1.1-23.4c3.7-7.9,13-23.7,15.5-22.3c0,0-0.6-6.7,2.3-5.9c2.8,0.8,1.7-3.9,3.1-1.7c1.4,2.3,0,15.2,0,15.2l2-7.6
			c0,0,6.5-8.4,6.2-12.6l-3.4-4.5l-3.7,6.2c0,0-1.1-3.1-5.6-1.7c0,0,2.5-7.3-1.7-7.9C272,232.4,266.7,229.3,266.9,223.4z"/>
		<radialGradient id="SVGID_29_" cx="370.8434" cy="321.5115" r="54.3684" gradientUnits="userSpaceOnUse">
			<stop  offset="0.4675" style="stop-color:#043832"/>
			<stop  offset="1" style="stop-color:#000000"/>
		</radialGradient>
		<path class="st16" d="M307.4,364.8c0,0-3.6-59.1,24.6-74.6c28.2-15.5,42.8-13.8,58.3-6.5s32.9,26.7,36.3,46.5
			c3.4,19.7,4.5,18.6,7.3,23.1c2.8,4.5-7-2.8-9.9,0.8c0,0-0.6,5.1-5.6,5.6c-5.1,0.6-16.9-8.2-20.6-8.7c-3.7-0.6-20.8-5.1-27-2.3
			c-6.2,2.8-22.2,2-26.2,5.3S307.4,364.8,307.4,364.8z"/>
		<radialGradient id="SVGID_30_" cx="171.8255" cy="415.3659" r="30.0094" gradientUnits="userSpaceOnUse">
			<stop  offset="0.4981" style="stop-color:#043832"/>
			<stop  offset="1" style="stop-color:#000000"/>
		</radialGradient>
		<path class="st17" d="M132.5,430.6c0,0,5.7-26.7,26-29.3c20.3-2.6,42.8-2.6,52.6,0c0,0-19.1-1.9-21.4,0.8c-2.3,2.6,6.8,6,4.9,10.5
			c-1.9,4.5-9.8,8.6-10.1,8.3c-0.4-0.4-3-9.1-7.9-5.3s5.3,4.6,4.9,9.8c-0.4,5.3-3.8,5-5.6,5.3c-1.9,0.3,2.6-5.7-1.9-3.8
			c-4.5,1.9-0.4,6.5-5.6,3.8c-5.3-2.7-7.9-13.2-13.1-10.6c-5.3,2.6-4.9,3.8-9.4,0.8S132.5,430.6,132.5,430.6z"/>
		<radialGradient id="SVGID_31_" cx="436.3389" cy="297.187" r="58.6288" gradientUnits="userSpaceOnUse">
			<stop  offset="0.4981" style="stop-color:#043832"/>
			<stop  offset="1" style="stop-color:#000000"/>
		</radialGradient>
		<path class="st18" d="M384.9,232.1c0,0,25.9,18.9,33.8,30.5s18,20.7,26.5,21.3c8.4,0.6,28.7,21.4,33.8,32.7
			c5.1,11.3,11.8,31.5,7.3,45.6c0,0,1.1-16.3-11.8-21.4c-13-5.1-18.6-22.5-27-25.3c-8.4-2.8-10.1-10.1-16.9-13.5
			c-6.8-3.4-11.8-19.3-20.8-23.7c-9-4.4-8.4-19.6-16.9-23.6C384.4,250.7,384.9,240,384.9,232.1z"/>
		<radialGradient id="SVGID_32_" cx="463.7594" cy="281.4196" r="24.2215" gradientUnits="userSpaceOnUse">
			<stop  offset="0.4981" style="stop-color:#043832"/>
			<stop  offset="1" style="stop-color:#000000"/>
		</radialGradient>
		<path class="st19" d="M442.4,254.7c0,0,16.3,24.1,21.4,32.1c0,0,3.9-1.7,7.9,5.1c3.9,6.8,10.7,6.8,13.5,16.3
			C485.2,308.2,455.9,255.2,442.4,254.7z"/>
		<radialGradient id="SVGID_33_" cx="487.5378" cy="515.6641" r="90.8164" gradientUnits="userSpaceOnUse">
			<stop  offset="0.4981" style="stop-color:#043832"/>
			<stop  offset="1" style="stop-color:#000000"/>
		</radialGradient>
		<path class="st20" d="M487.8,390.4c0,0-10.5,20.7-8.2,25s7.4,0.4,4,7.1s-4,4.4-9.6,9c0,0,9.5-5,8.1,6.8c0,0-8.7-7.3-12.1,0
			s1.7,3.4,0,13.5c-1.7,10.1,2.1,12.4-1.2,20.8c-3.3,8.4,5.1,50.1-5,56.3c-10.1,6.2,0,6.2,0,6.2l3.4,9l-3.4,9.6l5.1,6.2l-5.1,28.7
			c0,0,8.4,11.3,2.8,22s3.9,11.8,1.7,24.8c-2.3,13,47.6-0.6,47.6-0.6v-5.6L487.8,390.4z"/>
		<radialGradient id="SVGID_34_" cx="385.9695" cy="600.4109" r="79.1436" gradientUnits="userSpaceOnUse">
			<stop  offset="0.4981" style="stop-color:#043832"/>
			<stop  offset="1" style="stop-color:#000000"/>
		</radialGradient>
		<path class="st21" d="M365.2,512.6c0,0,6.7,6.2,19.7,0c13-6.2,45.6,14.6,55.2,11.3s2.3,8.4,2.3,8.4s10.1,1.1,5.6,14.6
			c-4.5,13.5-8.4,22-18.6,23.1c-10.1,1.1-9.5-8.4-22.2-5.1c-12.7,3.4-10.4,4.5-12.1,8.4c-1.7,3.9-0.5,2.8,12.1,9.6
			c12.7,6.8,11.5,26.5,23.4,11.8s14.1-14.6,14.6-22.5s7.4,17.9,4,27.8s19.5-13.2-12.8,20.1c-32.3,33.2-65.5,69.3-65.5,69.3
			s0-10.1-10.7-6.8c-10.7,3.4-0.4-10.7-17.4-6.2c-17,4.5-6.8-7.9-20.3-4.5c-13.5,3.4,9-5.6,7.9-16.3c-1.1-10.7,26.6-70.4,12.4-73.2
			c0,0,15.7-4.5,17.4-18c1.7-13.5-0.6-9.6-7.3-9.6c-6.8,0-7.3-5.6-1.7-7.3c5.6-1.7,6.2-7.9,0.6-6.8c-5.6,1.1-5.1-7.3,2.3-7.9
			c7.3-0.6,6.8-6.8,3.4-6.8S365.2,512.6,365.2,512.6z"/>
		<radialGradient id="SVGID_35_" cx="292.8265" cy="578.5277" r="46.5324" gradientUnits="userSpaceOnUse">
			<stop  offset="0.4981" style="stop-color:#043832"/>
			<stop  offset="1" style="stop-color:#000000"/>
		</radialGradient>
		<path class="st22" d="M302.7,514.4l-24.6,128.3C278.1,642.7,321.9,572.9,302.7,514.4z"/>
		<radialGradient id="SVGID_36_" cx="202.5639" cy="558.7082" r="16.609" gradientUnits="userSpaceOnUse">
			<stop  offset="0.4981" style="stop-color:#043832"/>
			<stop  offset="1" style="stop-color:#000000"/>
		</radialGradient>
		<path class="st23" d="M190,548.1c0,0,16.5,14.8,12.5,30.5c0,0,15.1-28.4,12.5-37.2S214.5,550.9,190,548.1z"/>
		<g>
			<radialGradient id="SVGID_37_" cx="408.4512" cy="190.2666" r="36.6905" gradientUnits="userSpaceOnUse">
				<stop  offset="0.4981" style="stop-color:#043832"/>
				<stop  offset="1" style="stop-color:#000000"/>
			</radialGradient>
			<path class="st24" d="M370.8,156c0,0,14.6-7.2,33.2,10.3c0,0,9.5,7.7,14.3,13.5c0.9,1.2,1.7,2.2,2.2,3.2c2.9,5.7-9.7-2.1-9.7-2.1
				s8.1,5.2,13.5,12.3s21.7,32.9,21.7,32.9l-29.3-31.6c0,0-4.2-16-21.7-18.6c-17.5-2.5-6.9-3.4-6.9-3.4s-3.4-7.7-10.3-12.1
				S370.8,156,370.8,156z"/>
			<radialGradient id="SVGID_38_" cx="290.3979" cy="324.0034" r="5.6261" gradientUnits="userSpaceOnUse">
				<stop  offset="0.4981" style="stop-color:#043832"/>
				<stop  offset="1" style="stop-color:#000000"/>
			</radialGradient>
			<path class="st25" d="M286.4,318.3c-1.1,1.7-2.8,10.1,0,11.3c2.8,1.1,2.8-5.1,9.6-5.6L286.4,318.3z"/>
			<radialGradient id="SVGID_39_" cx="162.7887" cy="326.4843" r="11.8205" gradientUnits="userSpaceOnUse">
				<stop  offset="0.4981" style="stop-color:#043832"/>
				<stop  offset="1" style="stop-color:#000000"/>
			</radialGradient>
			<polygon class="st26" points="171.4,312.1 156,320.1 154.2,336.9 168.7,340.8 			"/>
			<radialGradient id="SVGID_40_" cx="163.0151" cy="390.3832" r="10.7495" gradientUnits="userSpaceOnUse">
				<stop  offset="0.4981" style="stop-color:#043832"/>
				<stop  offset="1" style="stop-color:#000000"/>
			</radialGradient>
			<path class="st27" d="M168.7,378c-5.6,5.1-1.7,5.1-5.9,8.4h-8.6l1,16.3c0,0,7.4-2.5,16.7-4.6L168.7,378z"/>
			<polygon class="st4" points="181.9,317.8 171.4,312.1 168.7,340.8 181.9,339.2 			"/>
			<path class="st4" d="M181.5,376.3c2.7,8.6,5.5,17.1,8.2,25.7l0,0c-6-1.3-11.9-2.6-17.9-3.9c-1-6.7-2.1-13.4-3.1-20.1L181.5,376.3
				z"/>
			<radialGradient id="SVGID_41_" cx="458.9025" cy="368.3751" r="29.5069" gradientUnits="userSpaceOnUse">
				<stop  offset="0.4675" style="stop-color:#043832"/>
				<stop  offset="1" style="stop-color:#000000"/>
			</radialGradient>
			<path class="st28" d="M479.5,348.7c0,0-10.7,5.1-14.1,0c0,0,15.8,2.5,11.3,8.3c-4.5,5.8-27.3-22.5-27.3-22.5s33,45.1-3.3,15.3
				l-7.1-2.5c0,0,11.3,11,7.1,17.5c-4.3,6.5-11.6,0-11.6,0s12.4,9.3,4.5,22.8c0,0,9.6,2.4,10.4-6.7c0,0,10.4,10.6,7.6,21.3
				c0,0,3.8-3.6,6.8-6.9c1.9-2.1,3.4-4.1,3.4-4.9c0-2.3-0.5,4.5-3.9,0c-3.4-4.5,2.8-22,10.7-25.6s3.4-4.8,7.9-3.7
				S479.5,348.7,479.5,348.7z"/>
			<radialGradient id="SVGID_42_" cx="391.7638" cy="377.1775" r="19.0321" gradientUnits="userSpaceOnUse">
				<stop  offset="0.4675" style="stop-color:#043832"/>
				<stop  offset="1" style="stop-color:#000000"/>
			</radialGradient>
			<path class="st29" d="M397.9,351c0,0-10.5,45.4-11.9,51.2c-1.4,5.8,2.5-11.2,0-21.3L397.9,351L397.9,351L397.9,351"/>
			<radialGradient id="SVGID_43_" cx="372.9704" cy="374.4643" r="20.3977" gradientUnits="userSpaceOnUse">
				<stop  offset="0.4675" style="stop-color:#043832"/>
				<stop  offset="1" style="stop-color:#000000"/>
			</radialGradient>
			<path class="st30" d="M370.8,348.7l15.1,32.2c0,0-13,21.7-23.7,19.1c-10.7-2.6,19.5-9.1,11.8-20.8
				C366.5,367.6,370.8,348.7,370.8,348.7L370.8,348.7"/>
			<radialGradient id="SVGID_44_" cx="316.5718" cy="201.0545" r="24.3545" gradientUnits="userSpaceOnUse">
				<stop  offset="0.4675" style="stop-color:#043832"/>
				<stop  offset="1" style="stop-color:#000000"/>
			</radialGradient>
			<path class="st31" d="M290.4,223.4c0,0,32.1,1.4,41.8-16.6c9.8-18,10.5-28.2,10.5-28.2s-22.5,16.7-18.5,17.2
				c4,0.5,18.5-5.6-7.7,11"/>
			<radialGradient id="SVGID_45_" cx="340.3584" cy="242.8103" r="12.0194" gradientUnits="userSpaceOnUse">
				<stop  offset="0.4675" style="stop-color:#043832"/>
				<stop  offset="1" style="stop-color:#000000"/>
			</radialGradient>
			<path class="st32" d="M328.2,231.6c0,0,23.4,13.4,20.2,23.1c0,0,9.1-17.2,0.3-21.3C339.9,229.3,328.2,231.6,328.2,231.6z"/>
			<radialGradient id="SVGID_46_" cx="163.5834" cy="481.9083" r="9.5357" gradientUnits="userSpaceOnUse">
				<stop  offset="0.4675" style="stop-color:#043832"/>
				<stop  offset="1" style="stop-color:#000000"/>
			</radialGradient>
			<path class="st33" d="M168.7,469.8c0,0,1.8,16.4,0,24.3c0,0,0.6-6.2-5.9-5.1c0,0-0.3-5-5.1-4.7c0,0,0.3,3.7,5.9-2.3
				S168.7,469.8,168.7,469.8z"/>
		</g>
	</g>
</g>
<g id="green2">
	<g>
		<radialGradient id="SVGID_47_" cx="178.6516" cy="448.7899" r="60.1458" gradientUnits="userSpaceOnUse">
			<stop  offset="0.5672" style="stop-color:#009245"/>
			<stop  offset="0.5877" style="stop-color:#007638"/>
			<stop  offset="0.6196" style="stop-color:#005227"/>
			<stop  offset="0.6531" style="stop-color:#003419"/>
			<stop  offset="0.6884" style="stop-color:#001D0E"/>
			<stop  offset="0.7262" style="stop-color:#000D06"/>
			<stop  offset="0.7682" style="stop-color:#000301"/>
			<stop  offset="0.8228" style="stop-color:#000000"/>
		</radialGradient>
		<path class="st34" d="M132.5,430.6c0,0,2.4,19.5-3.3,25.1c-5.6,5.6-14.8-0.5-18.4,10.2c-3.6,10.7,1.1,10.2-0.7,19.1
			s8.4-11.3,15.8-9s7.1,0,6.7,7.9s0.5-7.9,0.5-7.9s2.5-9,11.5-12.4c9-3.4,0.6-16.3,3.9-11.3c3.4,5.1,9.6,2.8,9.6,9.6
			c0,0,7.3-7.3,2.8-10.7c-4.5-3.4-4.5-3.4-4.5-3.4s1.8-5.6,6-3.4c4.2,2.3,0-7.9,0-7.9l5.9,1.1c0,0,23.1-1.1,37.2,27.6
			c0,0,12.4,1.7,0-14.6c-12.4-16.3-11.1-28.7-2.7-31.5c0,0-5-8.4,0-6.8c5,1.7,12,10.1,21.5,24.8c0,0-12.9-23.8-12.9-29.8
			c0-6,20.6,21.4,22.9,34.9s9,50.1,13,55.7s-6.8-60.3-6.8-60.3s-4.6-19.7-16.2-22.3c0,0,3.2-10.9-2.4-11.5
			c-5.6-0.6-19.1-4.6-19.1-4.6l-12.9,2.7c0,0,5.4,17.6-5.3,18.8l-7.9-5.3c0,0,6.8,15.1-0.8,15.1c-7.5,0-12.2-18.1-20.6-10.6
			s-0.3-3.8-9.4,0.8S132.5,430.6,132.5,430.6z"/>
		<radialGradient id="SVGID_48_" cx="264.8349" cy="437.2143" r="34.3663" gradientUnits="userSpaceOnUse">
			<stop  offset="0.5672" style="stop-color:#009245"/>
			<stop  offset="0.5877" style="stop-color:#007638"/>
			<stop  offset="0.6196" style="stop-color:#005227"/>
			<stop  offset="0.6531" style="stop-color:#003419"/>
			<stop  offset="0.6884" style="stop-color:#001D0E"/>
			<stop  offset="0.7262" style="stop-color:#000D06"/>
			<stop  offset="0.7682" style="stop-color:#000301"/>
			<stop  offset="0.8228" style="stop-color:#000000"/>
		</radialGradient>
		<path class="st35" d="M233.6,422.6c0,0,11.6-7.7,14.3-7.3c5.3,0.9-1.3-1.9,7.4-2.5c8.6-0.6,4.3-4.5,0-7.9s1.3-7.3,8.1-3.4
			c6.8,3.9,31.5,19,32.7,29.8c1.1,10.8-4.5-6.7-13-5.6c-8.4,1.1,11.8,9,7.3,29.3c0,0-1.4-19.1-12.2-20.8s-2.4-4.6-8-2.9
			c-5.6,1.7,13.8,24.3,8,36.7c-5.8,12.4-5.2,3.4-10.8,0c-5.6-3.4,1.5,0,6.2,0c4.7,0,0.6-20.8-6.2-27.6c0,0,3.4,15.2,1.7,21.4
			c-1.3,4.6-6.9,8.3-10.7,7c-1.3-0.4-2.4-1.4-3-3.1c0,0,15.1-1.1,9.6-14.6s6.3-6.2-2.7-7.9S256.7,426.7,233.6,422.6z"/>
		<radialGradient id="SVGID_49_" cx="357.5653" cy="334.5414" r="37.9277" gradientUnits="userSpaceOnUse">
			<stop  offset="0.5672" style="stop-color:#009245"/>
			<stop  offset="0.5877" style="stop-color:#007638"/>
			<stop  offset="0.6196" style="stop-color:#005227"/>
			<stop  offset="0.6531" style="stop-color:#003419"/>
			<stop  offset="0.6884" style="stop-color:#001D0E"/>
			<stop  offset="0.7262" style="stop-color:#000D06"/>
			<stop  offset="0.7682" style="stop-color:#000301"/>
			<stop  offset="0.8228" style="stop-color:#000000"/>
		</radialGradient>
		<path class="st36" d="M318.1,362.2c0,0,2.5-13-4.1-10.1s2.3-29.8,9.6-27.6c0,0,3.9-15.2,10.7-14.1c0,0,8.4-6.2,14.6-2.3
			c6.2,3.9,6.2,5.1,2.3,9c-3.9,3.9,3.9,1.7,9-3.9c0,0-6.2,6.2-5.6,10.7c0,0,7.3,0,10.7-6.8c0,0,2.8-4.3,5.6,4.3c0,0,13,1.9,10.1,8.6
			c0,0-3.9-6.2-6.8-1.7c-2.8,4.5,1.7,6.1,1.7,6.1s5.6,13,16.3,9.7s11.3,5.1,11.3,5.1s-23.6-2.5-32.7-0.6
			C361.7,350.7,318.1,362.2,318.1,362.2z"/>
		<radialGradient id="SVGID_50_" cx="264.0258" cy="304.1602" r="57.7972" gradientUnits="userSpaceOnUse">
			<stop  offset="0.5672" style="stop-color:#009245"/>
			<stop  offset="0.5877" style="stop-color:#007638"/>
			<stop  offset="0.6196" style="stop-color:#005227"/>
			<stop  offset="0.6531" style="stop-color:#003419"/>
			<stop  offset="0.6884" style="stop-color:#001D0E"/>
			<stop  offset="0.7262" style="stop-color:#000D06"/>
			<stop  offset="0.7682" style="stop-color:#000301"/>
			<stop  offset="0.8228" style="stop-color:#000000"/>
		</radialGradient>
		<path class="st37" d="M230.7,238.6l-5,27.3l11.1,36.1c0,0-8.1-22.1-3.1-23.7c4.9-1.6,8.3,5.1,8.3,15.3c0,10.1,9.9,40,12.2,47.3
			c2.4,7.3,34.2,36.6,42,35.5c0,0,11.1-2.8,3.8-11.5c0,0-20.8-0.3-25.9-10.4c-5.1-10.1-14.1-8.4-6.8-27.6s7.3-37.8,15.2-40
			c7.9-2.2-6.5-8.9-4.4-21.4c0,0,12.2-4.5,11.9-7.3c-0.3-2.8,3.6,9,2.8,14.1c-0.8,5.1,4-20.8,3.3-28.2c-0.7-7.3,4.3-9.6-3.3-11.8
			c-0.4-0.1-1.5-0.3-3.1,0c0,0-3.7,0.6-6.7,3.7c-6,6-4.4,24.7-4.8,24.8c-0.3,0,0.3-12.4-3.1-13.5c-4-1.3-13.8,13.3-17.7,28.2
			c-3.4,12.7-2.1,23.8-0.8,30.1c-2.5-5.2-5.6-13.3-6.8-23.4c-1.8-15.6,2.3-24-3.1-32.7C244,245.1,239.2,241.1,230.7,238.6z"/>
		<radialGradient id="SVGID_51_" cx="339.6286" cy="588.3663" r="57.1718" gradientUnits="userSpaceOnUse">
			<stop  offset="0.5672" style="stop-color:#009245"/>
			<stop  offset="0.5877" style="stop-color:#007638"/>
			<stop  offset="0.6196" style="stop-color:#005227"/>
			<stop  offset="0.6531" style="stop-color:#003419"/>
			<stop  offset="0.6884" style="stop-color:#001D0E"/>
			<stop  offset="0.7262" style="stop-color:#000D06"/>
			<stop  offset="0.7682" style="stop-color:#000301"/>
			<stop  offset="0.8228" style="stop-color:#000000"/>
		</radialGradient>
		<path class="st38" d="M328.3,511.4c1.4-0.3,10.3-2.4,17.7,3.1c8.7,6.5,10,19.4,5.6,26.2c-3.6,5.6-10.5,6.2-10.2,8.4
			c0.3,2.9,13.5,0.6,18.5,5.6c5,5.1,3.4,19.3-18.1,55.2c-0.3,0.9-0.8,2.2-1.3,3.8c-8.3,24.4-8.6,41.9-10.2,41.8
			c-1.5-0.1-2.9-14.5-2-14.7c0.7-0.1,4.3,7.7,2,14.7c-2.3,6.7-9.8,11.5-12.1,10.1c-0.8-0.4-1.2-1.7-1.2-1.8c0,0,1.2,1.8,1.2,1.8
			c3.9-0.9,6.3-2.4,7.6-3.4c13.1-9.6,13.4-36.3,13.5-71.8c0-4.4,0-10.9,4.2-16c6.1-7.4,15.9-6.2,16.6-10.1
			c0.8-4.3-10.5-7.4-18.7-15.2C335.2,543.1,328.7,532.3,328.3,511.4z"/>
		<radialGradient id="SVGID_52_" cx="416.0143" cy="485.3158" r="25.4263" gradientUnits="userSpaceOnUse">
			<stop  offset="0.5672" style="stop-color:#009245"/>
			<stop  offset="0.5877" style="stop-color:#007638"/>
			<stop  offset="0.6196" style="stop-color:#005227"/>
			<stop  offset="0.6531" style="stop-color:#003419"/>
			<stop  offset="0.6884" style="stop-color:#001D0E"/>
			<stop  offset="0.7262" style="stop-color:#000D06"/>
			<stop  offset="0.7682" style="stop-color:#000301"/>
			<stop  offset="0.8228" style="stop-color:#000000"/>
		</radialGradient>
		<path class="st39" d="M386,493.4c0,0,57.2,26.2,59.8,0c2.5-26.2-10.8-6.8-11.3-27.9c0,0,6.3,5.1-10.6,8.9
			c-16.9,3.8-17.7-3.8-16.9,3.8c0.8,7.6,22.6,0,0.8,7.6"/>
		<radialGradient id="SVGID_53_" cx="417.5699" cy="653.0784" r="36.3486" gradientUnits="userSpaceOnUse">
			<stop  offset="0.5672" style="stop-color:#009245"/>
			<stop  offset="0.5877" style="stop-color:#007638"/>
			<stop  offset="0.6196" style="stop-color:#005227"/>
			<stop  offset="0.6531" style="stop-color:#003419"/>
			<stop  offset="0.6884" style="stop-color:#001D0E"/>
			<stop  offset="0.7262" style="stop-color:#000D06"/>
			<stop  offset="0.7682" style="stop-color:#000301"/>
			<stop  offset="0.8228" style="stop-color:#000000"/>
		</radialGradient>
		<path class="st40" d="M450,613.4c0,0-64.2,54.9-65,79.4C384.9,692.8,455,640.4,450,613.4z"/>
		<radialGradient id="SVGID_54_" cx="241.8029" cy="153.1545" r="47.4311" gradientUnits="userSpaceOnUse">
			<stop  offset="0.5672" style="stop-color:#009245"/>
			<stop  offset="0.5877" style="stop-color:#007638"/>
			<stop  offset="0.6196" style="stop-color:#005227"/>
			<stop  offset="0.6531" style="stop-color:#003419"/>
			<stop  offset="0.6884" style="stop-color:#001D0E"/>
			<stop  offset="0.7262" style="stop-color:#000D06"/>
			<stop  offset="0.7682" style="stop-color:#000301"/>
			<stop  offset="0.8228" style="stop-color:#000000"/>
		</radialGradient>
		<path class="st41" d="M190.1,130.8v29.6c0,0,7.5,13.6,13.7,23c2.1,3.1,4,5.8,5.4,7.3c5.7,6.1,7,5.6,11.5,4.8s-0.2,1.8-5.8-5
			s-19.4-14.1-8.6-23.7l4.8-3.5c0,0-3.8-3.3,0-6.6c3.8-3.4,6-3.6,7.7-3.2s-0.8-4.9-7.7-7.9c0,0-0.8,2.7-8.1,6.1
			c-7.3,3.4-3.9-6.1-3.9-6.1s12.4-12.5,23.4-8c0,0,11-7.9,16.6-0.6c5.6,7.3,13.2,12.4,15.1,14.6c0,0-9.9-7.3-6.3-11.5
			c3.6-4.2,5.7,3.9,16.2,5.5s8.8-5.5,8.8-5.5s-22.8-10.3-18.7-13.2c4.1-2.9,10.7,3.9,10.7,3.9s-23.9-16.6-9.6-13
			c14.3,3.7,15.6,10.1,17.8,13c2.2,2.8,6.1,7.4,10,9.3s3.7-6.8,9.3-3.4c5.6,3.4-9.9-20.6-9.9-20.6c-5.5,0.4-11.1,0.8-16.6,1.1
			c-4.9-2.5-20.1-9.3-39.7-5.9C206,114.8,193.8,126.8,190.1,130.8z"/>
		<radialGradient id="SVGID_55_" cx="155.5862" cy="680.5641" r="44.5353" gradientUnits="userSpaceOnUse">
			<stop  offset="0.5672" style="stop-color:#009245"/>
			<stop  offset="0.5877" style="stop-color:#007638"/>
			<stop  offset="0.6196" style="stop-color:#005227"/>
			<stop  offset="0.6531" style="stop-color:#003419"/>
			<stop  offset="0.6884" style="stop-color:#001D0E"/>
			<stop  offset="0.7262" style="stop-color:#000D06"/>
			<stop  offset="0.7682" style="stop-color:#000301"/>
			<stop  offset="0.8228" style="stop-color:#000000"/>
		</radialGradient>
		<path class="st42" d="M165.3,662.9c0,0-28.7,26-27.3,25.4s-41.7-6.8-41.7,3.4s0,10.1,0,10.1l69-8.5l49.6-10.1
			c0,0-22.2-5.1-24.9-10.1c-2.7-5.1,10.3-4.5,10.3-4.5S177.1,652.2,165.3,662.9z"/>
	</g>
	<g>
		<radialGradient id="SVGID_56_" cx="315.645" cy="415.8741" r="17.3418" gradientUnits="userSpaceOnUse">
			<stop  offset="0.5672" style="stop-color:#009245"/>
			<stop  offset="0.5877" style="stop-color:#007638"/>
			<stop  offset="0.6196" style="stop-color:#005227"/>
			<stop  offset="0.6531" style="stop-color:#003419"/>
			<stop  offset="0.6884" style="stop-color:#001D0E"/>
			<stop  offset="0.7262" style="stop-color:#000D06"/>
			<stop  offset="0.7682" style="stop-color:#000301"/>
			<stop  offset="0.8228" style="stop-color:#000000"/>
		</radialGradient>
		<path class="st43" d="M291.7,419.1c0,0,12.8-11.3,48-7.6C339.6,411.5,304.1,426.1,291.7,419.1z"/>
		<radialGradient id="SVGID_57_" cx="324.2324" cy="443.0298" r="12.4842" gradientUnits="userSpaceOnUse">
			<stop  offset="0.5672" style="stop-color:#009245"/>
			<stop  offset="0.5877" style="stop-color:#007638"/>
			<stop  offset="0.6196" style="stop-color:#005227"/>
			<stop  offset="0.6531" style="stop-color:#003419"/>
			<stop  offset="0.6884" style="stop-color:#001D0E"/>
			<stop  offset="0.7262" style="stop-color:#000D06"/>
			<stop  offset="0.7682" style="stop-color:#000301"/>
			<stop  offset="0.8228" style="stop-color:#000000"/>
		</radialGradient>
		<path class="st44" d="M308.3,435.4c0,0,7.3,9.3,12.4,10.6l8.4,4.7l-2.8-4.7c0,0,17-5,13.3-6.7C335.9,437.7,310,441,308.3,435.4z"
			/>
		<radialGradient id="SVGID_58_" cx="176.4266" cy="453.4789" r="8.2074" gradientUnits="userSpaceOnUse">
			<stop  offset="0.5672" style="stop-color:#009245"/>
			<stop  offset="0.5877" style="stop-color:#007638"/>
			<stop  offset="0.6196" style="stop-color:#005227"/>
			<stop  offset="0.6531" style="stop-color:#003419"/>
			<stop  offset="0.6884" style="stop-color:#001D0E"/>
			<stop  offset="0.7262" style="stop-color:#000D06"/>
			<stop  offset="0.7682" style="stop-color:#000301"/>
			<stop  offset="0.8228" style="stop-color:#000000"/>
		</radialGradient>
		<path class="st45" d="M171.4,443c0,0,5.2,5.4,2.9,9.6c-2.3,4.2-3.4,5.6,0.6,10.3c3.9,4.6,5.9-7.9,6.6-4.5L171.4,443z"/>
		<radialGradient id="SVGID_59_" cx="168.6923" cy="523.8953" r="34.9294" gradientUnits="userSpaceOnUse">
			<stop  offset="0.5672" style="stop-color:#009245"/>
			<stop  offset="0.5877" style="stop-color:#007638"/>
			<stop  offset="0.6196" style="stop-color:#005227"/>
			<stop  offset="0.6531" style="stop-color:#003419"/>
			<stop  offset="0.6884" style="stop-color:#001D0E"/>
			<stop  offset="0.7262" style="stop-color:#000D06"/>
			<stop  offset="0.7682" style="stop-color:#000301"/>
			<stop  offset="0.8228" style="stop-color:#000000"/>
		</radialGradient>
		<path class="st46" d="M133.8,510.9l23.9-7.2c7.8-1.6,15.6-3.1,23.4-4.7c-0.1-5.6,1.1-9.5,3.2-10c0.9-0.2,1.7,0.1,2.5,0.7
			c4.4,3.1,6.6,10.2,6.6,10.2s5.3,3.1,9.1,0c0,0,2.3,7.6,0,11c-2.3,3.4-6.3,0.5-6.3,0.5c-1.7,7.9,3.4,8.7,3.4,8.7s4.7,4.4,2.9,9.2
			c-1.8,4.7-4.6,9.5-9.1,9.6c-4.5,0.2,2,12-3.5,9.2s-23,12.3-25.8,10.7c0,0,0.2-8.3,4.5-9c7.3-1.1,16.8-4.8,18-10.9
			c0,0,14.1-5,10.7-8.1c0,0-0.9-7.7-15.9-5.4c0,0,7.2-3.5,8.5-5.4c0,0,5.8-9.8,0.1-8.7c0,0-9.3,7.4-11.4,6.8c0,0-3.5-6.8,0-6.8
			c0,0,5.8,2.8,5.2,0c0,0,2.6-5-11.8-6.4L133.8,510.9z"/>
		<radialGradient id="SVGID_60_" cx="402.9882" cy="233.3907" r="51.2573" gradientUnits="userSpaceOnUse">
			<stop  offset="0.5672" style="stop-color:#009245"/>
			<stop  offset="0.5877" style="stop-color:#007638"/>
			<stop  offset="0.6196" style="stop-color:#005227"/>
			<stop  offset="0.6531" style="stop-color:#003419"/>
			<stop  offset="0.6884" style="stop-color:#001D0E"/>
			<stop  offset="0.7262" style="stop-color:#000D06"/>
			<stop  offset="0.7682" style="stop-color:#000301"/>
			<stop  offset="0.8228" style="stop-color:#000000"/>
		</radialGradient>
		<path class="st47" d="M373.7,198.9l-6.8-3.1c0,0-9.5-9.9-24.2,7.6c0,0,8.4-4.5,10.1,0c0,0-1.7,4.5-3.9,6.2c0,0,5.7,2.8,9.3,0
			l-5.4,13.8l13.5-5.9c0,0,6.6-15.8,11.5-7.3c0,0,17.1-2.3,16.6,3.4c0,0,10.8,0.6,12.5,11.8c0,0,20.8,9,22.5,24.2
			c0,0,15.4,19.4,20,20.8l-7-15.8c0,0,18.2,15.3,20.9,19l-9.6-24.4l-6.5-9.3l0.8,14.6c0,0-8.9-32-14.6-36.9s-8.5-12.1-16.6-12.7
			c-8.1-0.6-3.4-1.5-6.9-5.2c-3.5-3.8-19,0.2-23.5,0.5S373.7,198.9,373.7,198.9z"/>
	</g>
</g>
<g id="the_pedestal">
	<g>
		<path class="st48" d="M279.1,678.7c-92.8,10.8-185.5,21.7-278.3,32.5C1,723.1,1.2,735,1.4,746.8c93.1-9.2,186.2-18.4,279.3-27.6
			C280.2,705.7,279.6,692.2,279.1,678.7z"/>
		<path class="st48" d="M612.2,783.6c-111-21.8-222.1-43.6-333.1-65.4v-37.6c111.4,28.6,222.9,57.3,334.3,85.9
			C613,772.2,612.6,777.9,612.2,783.6z"/>
		<path class="st49" d="M291.7,794.1H1.4v-47.3c96.1-8.8,192.2-17.7,288.3-26.5C290.4,744.9,291,769.5,291.7,794.1z"/>
		<path class="st49" d="M613.4,794.1H289.8v-73.8c107.5,21.1,215,42.2,322.5,63.2C612.6,787.1,613,790.6,613.4,794.1z"/>
		<line class="st50" x1="109.5" y1="736.9" x2="109.5" y2="794.1"/>
		<line class="st50" x1="506" y1="762.7" x2="505.8" y2="794.1"/>
		<line class="st50" x1="394.4" y1="742.9" x2="394.4" y2="794.1"/>
	</g>
</g>
<g id="trees_and_branches">
	<g>
		<path class="st51" d="M1.4,676.9L2.2,666l4.3,5.5c13-4,8.4,5.5,8.4,5.5s2.8-0.3,5.1-5.5c2.3-5.1-0.6-6.8,2.3-5.1
			c1.3,0.8,1.8-28,1.9-58.4c0.1-33.5-0.2-69-0.2-69s-2.3,116.7,3.9,124s6.2-2.8,6.8-9.9c0.6-7-2.9-6.5-6.8-17.2
			c-1.7-4.7-2.2-12.2-2.2-19.4c0-9.4,0.8-18.4,1.1-20.6c0.6-3.9-2.3,21.4,3.9,27c6.2,5.6-3.4-31.5,8.4-3.9c0,0,0,7.9,5.1,13.5
			c4.4,4.9,6.3-35.6,2.2-53.5c-0.6-2.6-1.3-4.8-2.2-6.2c0,0,0.6-43.6,0-62.1c-0.6-18.4-3.4-30-3.4-36.3s7.8,89.4,7.8,89.4
			s4.6-12,4.6-22.9c0-3.6,1.3-53.2,2.2-83.6c0.4-13.7,0.6-23.5,0.6-23.5s2.8,42.4,5.1,14.9l-6.2,106.6c0,0,3.4,4.5,6.2-5.6
			s13.5-62.5,13.5-70.4c0,0-9,60.8-8.4,68.7c0,0-13,14.1-13,18s-2.8,23.2-0.6,33.3c2.3,10.1,2.8,6.7,5.1-5.7c0,0-5.6,19.1,0.6,13
			c6.2-6.2,7.9-11.7,9-18.3c0,0-11.8,28.4-6.2,28.1c0,0,6.8-1.3,10.7-17.1c0,0,10.1-13,5.1-16.4c0,0-0.6-10.1,8.4-6.8
			s-1.1,0.6,7.3,10.1c0,0,10.7-0.2,7.3-6.6c0,0-0.2-13.7,9.5-5.8c0,0,8,3.9,6.8-1.7c-1.1-5.6-7.9-6.2,1.1,5.6
			c0,0,12.4,21.4,11.8,8.4c-0.6-13,6.8-18-3.9-20.3c0,0,3.2,1.7,7.2-2.3c0,0,7.2-3.4,0-14.1s-9.5-13.8-18.5-10.9s-5.1-3.5-13,0
			c0,0-5.1-1.6,7.9-3.5c0,0,14.1-4.2,6.2-8.1c0,0,10.8,0.8,14.1,11.7c3.3,10.9,5.1,5.2,5.1,5.2s7.9,74.3,10.1,77.7
			s1.4,28.2,5.1,34.4c3.7,6.1,11.3,7.9,6.8,11.3c-4.5,3.4-12.4,26.5-36,19.1c0,0-17-4-23.9,5.1l1.4,9.5l-96.9,10L1.4,676.9z"/>
		<circle class="st51" cx="23.3" cy="462.9" r="2.7"/>
		<circle class="st51" cx="42.8" cy="433.4" r="2"/>
		<circle class="st51" cx="51.2" cy="418" r="3"/>
		<circle class="st51" cx="48" cy="379.5" r="3.2"/>
		<circle class="st51" cx="66" cy="439.3" r="2.1"/>
		<circle class="st51" cx="62.3" cy="460.1" r="1.7"/>
		<circle class="st51" cx="62.3" cy="469.8" r="1.7"/>
		<circle class="st51" cx="50.3" cy="467.7" r="2.1"/>
		<circle class="st51" cx="54.5" cy="476.5" r="2.1"/>
		<line class="st8" x1="38.6" y1="403.9" x2="44.8" y2="412.3"/>
		<path class="st8" d="M51.2,425.9l12.8,13.4c-3.1,2-5.6,3.5-7.3,4.6c-1.3,0.8-2.4,1.4-2.5,2.5c-0.1,1,0.9,2.5,2.5,2.5
			c1.3,0,2.5-1.1,2.5-2.5"/>
		<line class="st8" x1="44.8" y1="412.3" x2="51.2" y2="425.9"/>
		<line class="st8" x1="63.9" y1="469.8" x2="59.1" y2="485.3"/>
		<line class="st8" x1="68.1" y1="494" x2="57.9" y2="503.7"/>
		<line class="st8" x1="32.4" y1="478.7" x2="44.2" y2="510.8"/>
		<line class="st8" x1="34.1" y1="531.7" x2="24.2" y2="572.3"/>
		<line class="st8" x1="29.1" y1="579.8" x2="24.2" y2="588.4"/>
		<line class="st8" x1="84.8" y1="474.4" x2="70.6" y2="505.1"/>
		<line class="st8" x1="82.7" y1="509.4" x2="69" y2="512.5"/>
		<line class="st8" x1="66.2" y1="548.1" x2="75.8" y2="540.9"/>
		<path class="st8" d="M67.9,379.2c-3.5,7.8-8.1,21.2-7.9,38.2c0.1,10,1.9,18.5,3.7,24.8"/>
		<line class="st8" x1="83.7" y1="448.8" x2="70.6" y2="505.1"/>
		<line class="st8" x1="96.3" y1="519.3" x2="122.3" y2="529.7"/>
		<line class="st8" x1="112.9" y1="514.4" x2="134.4" y2="544.1"/>
		<line class="st8" x1="79.2" y1="558.7" x2="67.3" y2="588.4"/>
		<path class="st8" d="M69.1,566c-2.9,2.1-7.8,6.2-11.4,13c-5.3,10-4.4,19.6-3.9,23.1"/>
		<line class="st8" x1="7.6" y1="566.1" x2="25.4" y2="650.6"/>
		<path class="st8" d="M16.5,573.5c0.6,14.6,1.3,29.3,1.9,43.9c-1.4-0.6-6.8-3.3-9.7-9.7c-2.7-6-1.5-11.4-1.1-13"/>
		<line class="st8" x1="79.2" y1="353.2" x2="63.9" y2="469.8"/>
		<path class="st8" d="M53.5,321.5c5.5,8.6,13.2,22.8,17.2,41.8c4.4,20.5,2.7,37.8,0.9,48.1"/>
		<line class="st8" x1="97.7" y1="425.9" x2="74.6" y2="479.4"/>
		<line class="st8" x1="86.2" y1="407.3" x2="83.7" y2="448.8"/>
		<path class="st8" d="M96.3,552c2.3,0.4,4.9,11.6-1.1,18.8c-3.5,4.2-8.4,5.2-9.9,5.4C91.8,555.6,94.8,551.7,96.3,552z"/>
		<circle class="st8" cx="88.9" cy="418.2" r="2.8"/>
		<circle class="st8" cx="128.1" cy="520.1" r="4.4"/>
		<ellipse class="st8" cx="113.5" cy="552.9" rx="4" ry="0.9"/>
		<circle class="st8" cx="92.2" cy="573" r="0.5"/>
		<ellipse class="st8" cx="17.5" cy="659.7" rx="4.8" ry="6.6"/>
		<ellipse class="st8" cx="20.3" cy="652.8" rx="7.6" ry="10.1"/>
		<circle class="st51" cx="86.9" cy="491.8" r="2"/>
		<circle class="st51" cx="27.9" cy="576" r="3.8"/>
		<circle class="st51" cx="29.6" cy="605.7" r="6.4"/>
		<circle class="st51" cx="37.1" cy="559.9" r="1.2"/>
		<circle class="st51" cx="80.6" cy="571.9" r="4.7"/>
		<circle class="st51" cx="123.8" cy="572.3" r="6.3"/>
		<circle class="st51" cx="134.6" cy="551.8" r="2"/>
		<circle class="st51" cx="78" cy="357.7" r="4.5"/>
		<circle class="st51" cx="64.7" cy="339" r="3.4"/>
		<circle class="st51" cx="68.8" cy="349.7" r="2.8"/>
		<circle class="st51" cx="10.7" cy="569.2" r="3.1"/>
		<ellipse class="st51" cx="11.3" cy="635.4" rx="9.1" ry="7.2"/>
		<ellipse class="st51" cx="13.5" cy="667.2" rx="6.5" ry="4.3"/>
		<circle class="st51" cx="17.7" cy="649.1" r="6.4"/>
		<circle class="st51" cx="22.6" cy="637.7" r="2.3"/>
		<circle class="st51" cx="129" cy="525.5" r="5.4"/>
		<ellipse class="st51" cx="123.3" cy="515.8" rx="5.7" ry="4.3"/>
		<ellipse class="st51" cx="93.3" cy="420.7" rx="4.4" ry="5.2"/>
		<circle class="st51" cx="90.4" cy="411.5" r="4.2"/>
	</g>
</g>
</svg>
