<?xml version="1.0" encoding="utf-8"?>
<!-- Generator: Adobe Illustrator 23.0.3, SVG Export Plug-In . SVG Version: 6.00 Build 0)  -->
<svg version="1.1" xmlns="http://www.w3.org/2000/svg" xmlns:xlink="http://www.w3.org/1999/xlink" x="0px" y="0px"
	 viewBox="0 0 612 792" style="enable-background:new 0 0 612 792;" xml:space="preserve">
<style type="text/css">
	.st0{fill:#FFFFFF;}
	.st1{fill:none;}
	.st2{fill:#FFFFFF;stroke:#000000;stroke-miterlimit:10;}
	.st3{font-family:'MyriadPro-Regular';}
	.st4{font-size:10px;}
	.st5{fill:none;stroke:#000000;stroke-miterlimit:10;}
</style>
<g id="logo_01">
	<g id="charger_top">
		<g>
			<rect x="109.2" y="59.4" class="st0" width="12.6" height="52.9"/>
		</g>
		<g>
			<path d="M122.2,112.7h-13.4V59h13.4V112.7z M109.6,112h11.9V59.8h-11.9V112z"/>
		</g>
	</g>
	<g id="prong_top">
		<g>
			<rect x="81.3" y="68.5" width="27.9" height="6.9"/>
		</g>
		<g>
			<path d="M109.7,75.9H80.8V68h28.9V75.9z M81.8,74.9h26.9v-6H81.8V74.9z"/>
		</g>
	</g>
	<g id="charger_bottom">
		<g>
			<rect x="121.9" y="55.5" width="42.7" height="61.6"/>
		</g>
		<g>
			<path d="M164.9,117.5h-43.5V55.1h43.5V117.5z M122.2,116.7h41.9V55.9h-41.9V116.7z"/>
		</g>
	</g>
	<g id="brain">
		<g>
			<g>
				<path d="M61.5,54.6L61.5,54.6c-0.4-0.4-0.9-0.6-1.3-0.5l-0.1,0v-5.8l15.4-7.7h4.9L61.5,54.6z M60.4,53.9c0.4,0,0.8,0.2,1.2,0.4
					l18.1-13.4h-4.2l-15.2,7.6L60.4,53.9C60.3,53.9,60.3,53.9,60.4,53.9z"/>
				<path d="M61.5,54.9l-0.2-0.2c-0.3-0.3-0.7-0.4-1-0.4l-0.4,0v-6.2l15.7-7.8h5.7L61.5,54.9z M60.6,53.6c0.4,0,0.7,0.2,1,0.4
					l17.4-12.9h-3.3l-15,7.5V53.6z"/>
			</g>
		</g>
		<g>
			<g>
				<path d="M47.6,82.6l-2.3-2.9l8-23.5l5.5-0.7v0.1c0,0.5,0.3,1,0.7,1.3l0.1,0.1l0,0.1l-10.3,25l-0.1,0
					C48.6,82,48.1,82.1,47.6,82.6L47.6,82.6z M45.6,79.7l2,2.6c0.4-0.3,0.9-0.5,1.5-0.4l10.2-24.8c-0.5-0.3-0.7-0.8-0.8-1.3
					l-5.1,0.6L45.6,79.7z"/>
				<path d="M47.6,83l-2.5-3.2l8.1-23.8l5.9-0.7v0.4c0,0.5,0.2,0.9,0.6,1.1l0.3,0.2l-0.1,0.3L49.4,82.5l-0.3-0.1
					c-0.5-0.1-0.9,0-1.2,0.3L47.6,83z M45.9,79.6l1.8,2.3c0.4-0.2,0.8-0.4,1.3-0.3l10.1-24.4c-0.4-0.3-0.6-0.7-0.7-1.1l-4.7,0.6
					L45.9,79.6z"/>
			</g>
		</g>
		<g>
			<g>
				<path d="M50.4,98.9l-5-11.8l2.2-2.6l0.1,0.1c0.3,0.3,0.7,0.5,1.1,0.5c0.5,0,1-0.3,1.3-0.7l0.1-0.1l0.1,0.1l19.4,10.4l-0.1,0.1
					c-0.1,0.2-0.2,0.5-0.2,0.7c0,0.1,0,0.2,0,0.2l0,0.1l-0.1,0L50.4,98.9z M45.6,87.1l4.9,11.4l18.6-2.8c0,0,0-0.1,0-0.1
					c0-0.3,0.1-0.5,0.2-0.7L50.2,84.6c-0.3,0.5-0.9,0.7-1.4,0.7c-0.4,0-0.9-0.2-1.2-0.5L45.6,87.1z"/>
				<path d="M50.2,99.1L45,87.1l2.5-2.9l0.3,0.3c0.2,0.3,0.6,0.4,0.9,0.4c0.4,0,0.8-0.2,1.1-0.6l0.2-0.3l0.3,0.2L70,94.7L69.8,95
					c-0.1,0.2-0.2,0.4-0.2,0.6c0,0.1,0,0.1,0,0.2l0.1,0.4L50.2,99.1z M45.9,87.2l4.8,11.1l18.2-2.8c0-0.2,0-0.4,0.1-0.5L50.3,85
					c-0.7,0.7-1.9,0.9-2.7,0.3L45.9,87.2z"/>
			</g>
		</g>
		<g>
			<g>
				<path d="M68.6,83.7H50.3v-0.1c0-0.4-0.2-0.8-0.5-1.1l-0.1-0.1l0.1-0.1l17.3-14.9l0.1,0.1c0.3,0.4,0.7,0.6,1.2,0.6l0.1,0
					l1.5,13.9l-0.1,0c-0.8,0.1-1.4,0.7-1.4,1.5V83.7z M50.6,83.5h17.8c0.1-0.8,0.7-1.5,1.5-1.6l-1.5-13.4c-0.5,0-0.9-0.3-1.2-0.6
					l-17,14.6C50.4,82.7,50.5,83.1,50.6,83.5z"/>
				<path d="M68.8,84H50.1v-0.4c0-0.4-0.1-0.7-0.4-0.9l-0.3-0.3l0.3-0.3l17.5-15l0.2,0.3c0.2,0.3,0.6,0.5,1,0.5l0.3,0l1.6,14.3
					l-0.4,0c-0.7,0.1-1.1,0.6-1.1,1.3V84z M50.8,83.2h17.3c0.1-0.7,0.7-1.4,1.4-1.6l-1.4-13c-0.4-0.1-0.7-0.2-1-0.5L50.5,82.5
					C50.6,82.7,50.7,83,50.8,83.2z"/>
			</g>
		</g>
		<g>
			<g>
				<path d="M80,101.9l-7.8-5.3l0.1-0.1c0.2-0.3,0.3-0.6,0.3-0.9c0-0.8-0.7-1.5-1.5-1.5c0,0-0.1,0-0.1,0l-0.1,0l0-0.1l-0.6-8.8
					l0.1,0c0.2,0,0.5-0.1,0.7-0.2l0.1-0.1l9.6,16.4l-0.1,0.1c-0.2,0.1-0.4,0.3-0.5,0.5L80,101.9z M72.5,96.5l7.4,5
					c0.1-0.1,0.2-0.3,0.4-0.4l-9.4-16c-0.2,0.1-0.4,0.1-0.5,0.2l0.6,8.5c1,0,1.8,0.8,1.8,1.8C72.7,95.9,72.6,96.2,72.5,96.5z
					 M70.8,93.8l0,0.1L70.8,93.8z"/>
				<path d="M80,102.2l-8.2-5.6l0.2-0.3c0.1-0.2,0.2-0.5,0.2-0.7c0-0.7-0.6-1.3-1.3-1.3l-0.1-0.2l0,0.2l-0.3,0L70.5,94l-0.6-9.1
					l0.4,0c0.2,0,0.4-0.1,0.6-0.2l0.3-0.2l9.9,16.8l-0.3,0.2c-0.2,0.1-0.3,0.2-0.4,0.4L80,102.2z M72.8,96.4l7.1,4.8
					c0,0,0.1-0.1,0.1-0.1l-9.2-15.6c-0.1,0-0.1,0-0.2,0.1l0.6,8c1,0.1,1.8,1,1.8,2C73,95.9,72.9,96.2,72.8,96.4z"/>
			</g>
		</g>
		<g>
			<g>
				<path d="M99.7,123.3l-8.2-7.6l0.1-0.1c0.3-0.3,0.4-0.7,0.4-1c0-0.5-0.2-0.9-0.6-1.2l-0.1-0.1l8.4-10.6V123.3z M91.9,115.7
					l7.6,7.1v-19.3l-7.8,9.8c0.4,0.3,0.6,0.8,0.6,1.3C92.3,115,92.1,115.4,91.9,115.7z"/>
				<path d="M100,123.9l-8.8-8.2l0.3-0.3c0.2-0.2,0.3-0.5,0.3-0.9c0-0.4-0.2-0.8-0.5-1l-0.3-0.2l9-11.3V123.9z M92.2,115.7l7,6.5
					v-18.1l-7.2,9.1c0.3,0.4,0.5,0.8,0.5,1.3C92.5,115,92.4,115.3,92.2,115.7z"/>
			</g>
		</g>
		<g>
			<g>
				<path d="M91.9,91.2L91.9,91.2c-0.1-0.4-0.3-0.6-0.5-0.8l-0.1,0l0-0.1l6.3-13.8l0.1,0c0.1,0.1,0.3,0.1,0.4,0.1
					c0.3,0,0.6-0.2,0.8-0.5l0-0.1l5.1,3.5v8L91.9,91.2z M91.5,90.3c0.2,0.1,0.4,0.4,0.5,0.7l11.9-3.5v-7.8l-4.9-3.4
					c-0.2,0.3-0.6,0.5-0.9,0.5c-0.1,0-0.3,0-0.4-0.1L91.5,90.3z"/>
				<path d="M91.7,91.5l-0.1-0.3c-0.1-0.2-0.2-0.4-0.4-0.5L91,90.5l0.1-0.3l6.4-14.1l0.3,0.2c0.3,0.2,0.7,0,0.9-0.3l0.2-0.3l5.4,3.7
					v8.3L91.7,91.5z M91.8,90.2c0.1,0.1,0.3,0.3,0.3,0.4l11.5-3.4v-7.5l-4.6-3.2c-0.3,0.3-0.8,0.5-1.3,0.4L91.8,90.2z"/>
			</g>
		</g>
		<g>
			<g>
				<path d="M90,66.9l-8-5.1l0.1-0.1c0.2-0.2,0.2-0.5,0.2-0.8c0-0.2,0-0.3-0.1-0.5l0-0.1l7.8-2.7V66.9z M82.3,61.7l7.4,4.8v-8.5
					l-7.3,2.5c0,0.2,0.1,0.3,0.1,0.5C82.6,61.1,82.5,61.4,82.3,61.7z"/>
				<path d="M90.3,67.3l-8.6-5.5l0.2-0.3c0.1-0.2,0.2-0.4,0.2-0.7c0-0.1,0-0.3-0.1-0.4l-0.1-0.4l8.4-2.9V67.3z M82.7,61.6l6.9,4.4
					v-7.7l-6.7,2.3c0,0.1,0,0.2,0,0.3C82.8,61.1,82.8,61.4,82.7,61.6z"/>
			</g>
		</g>
		<g>
			<g>
				<path d="M82.8,60.5l0-0.1c-0.2-0.5-0.6-0.9-1.1-1l-0.1,0l4.2-18l4.8,3.9v12.6l-0.1,0L82.8,60.5z M81.8,59.1
					c0.5,0.2,0.9,0.5,1.1,1l7.3-2.5V45.4l-4.4-3.6L81.8,59.1z"/>
				<path d="M82.6,60.8l-0.1-0.4c-0.1-0.4-0.5-0.7-0.9-0.8l-0.4-0.1l4.4-18.6l5.2,4.2V58l-0.3,0.1L82.6,60.8z M82.1,59
					c0.4,0.2,0.7,0.5,0.9,0.9l7-2.4v-12l-4-3.2L82.1,59z"/>
			</g>
		</g>
		<g>
			<g>
				<path d="M69.9,66.1L69.8,66c-0.3-0.5-0.8-0.8-1.4-0.8c-0.4,0-0.7,0.1-1,0.4l-0.1,0.1L61.1,57l0.1-0.1c0.3-0.2,0.6-0.6,0.6-1
					l0-0.1l17.9,4.6l0,0.1c0,0.1,0,0.3,0,0.4c0,0.2,0,0.4,0.1,0.6l0.1,0.1L69.9,66.1z M68.5,64.9c0.6,0,1.2,0.3,1.5,0.9l9.6-4.3
					c-0.1-0.2-0.1-0.4-0.1-0.6c0-0.1,0-0.2,0-0.3l-17.5-4.4c-0.1,0.4-0.3,0.7-0.6,1l5.9,8.2C67.7,65,68.1,64.9,68.5,64.9z"/>
				<path d="M69.8,66.4l-0.2-0.3c-0.2-0.4-0.7-0.7-1.1-0.7c-0.3,0-0.6,0.1-0.9,0.3L67.3,66l-6.5-9.1l0.3-0.2
					c0.3-0.2,0.5-0.5,0.5-0.8l0.1-0.4l18.4,4.7l-0.1,0.4c0,0.1,0,0.2,0,0.3c0,0.2,0,0.4,0.1,0.5l0.2,0.3L69.8,66.4z M68.5,64.6
					c0.6,0,1.2,0.3,1.6,0.8l9.2-4.1c0-0.2-0.1-0.3-0.1-0.5c0,0,0-0.1,0-0.1l-17-4.3c-0.1,0.3-0.3,0.5-0.5,0.7l5.6,7.8
					C67.8,64.7,68.1,64.6,68.5,64.6z"/>
			</g>
		</g>
		<g>
			<g>
				<path d="M59.6,103.2l-0.1-0.1c-0.3-0.4-0.8-0.7-1.3-0.7c-0.5,0-1,0.3-1.3,0.7l-0.1,0.1l-6.8-4.5l19.3-2.9l0,0.1
					c0,0.2,0.1,0.4,0.2,0.6l0.1,0.1L59.6,103.2z M58.2,102.1c0.6,0,1.1,0.3,1.4,0.7l9.8-6.3c-0.1-0.1-0.1-0.3-0.2-0.5l-18.4,2.8l6,4
					C57.1,102.4,57.7,102.1,58.2,102.1z"/>
				<path d="M59.5,103.5l-0.2-0.3c-0.2-0.4-0.6-0.6-1.1-0.6c-0.4,0-0.8,0.2-1.1,0.6l-0.2,0.3l-7.5-5l20.2-3.1l0.1,0.4
					c0,0.2,0.1,0.4,0.2,0.5l0.2,0.3L59.5,103.5z M58.2,101.9c0.6,0,1.1,0.2,1.5,0.6l9.4-6.1c0,0,0-0.1,0-0.1l-17.6,2.7l5.3,3.5
					C57.1,102.1,57.7,101.9,58.2,101.9z"/>
			</g>
		</g>
		<g>
			<g>
				<path d="M69.5,119.5l-6.1-2.7l-7.5-9.8l1.3-1.9l0.1,0.1c0.3,0.2,0.6,0.3,0.9,0.3c0.8,0,1.5-0.7,1.5-1.5c0-0.3-0.1-0.6-0.2-0.8
					l-0.1-0.1l10.2-6.6l0.1,0.1c0.3,0.4,0.8,0.7,1.3,0.7h0.1v21.4h-0.1c-0.6,0-1.2,0.4-1.4,0.9L69.5,119.5z M63.6,116.6l5.8,2.6
					c0.3-0.5,0.8-0.9,1.4-0.9V97.4c-0.5,0-1-0.3-1.3-0.7l-9.8,6.3c0.1,0.3,0.2,0.6,0.2,0.9c0,1-0.8,1.8-1.8,1.8
					c-0.3,0-0.6-0.1-0.9-0.3l-1.1,1.6L63.6,116.6z"/>
				<path d="M69.6,119.9l-6.4-2.9l-7.6-9.9l1.6-2.3l0.3,0.2c0.2,0.2,0.5,0.2,0.7,0.2c0.7,0,1.3-0.6,1.3-1.3c0-0.2-0.1-0.5-0.2-0.7
					l-0.2-0.3L69.7,96l0.2,0.3c0.2,0.4,0.6,0.6,1.1,0.6h0.4v21.9h-0.4c-0.5,0-1,0.3-1.2,0.8L69.6,119.9z M63.7,116.4l5.5,2.5
					c0.3-0.4,0.8-0.7,1.3-0.8V97.6c-0.4-0.1-0.8-0.3-1.1-0.6l-9.4,6.1c0.1,0.2,0.2,0.5,0.2,0.8c0,1.1-0.9,2-2,2
					c-0.3,0-0.6-0.1-0.8-0.2l-0.9,1.2L63.7,116.4z"/>
			</g>
		</g>
		<g>
			<g>
				<path d="M86.3,128.4H75.7l-7.2-4.2l1.6-2.9l0.1,0.1c0.2,0.1,0.5,0.2,0.7,0.2c0.6,0,1.1-0.3,1.3-0.8l0.1-0.1l0.1,0.1L86.3,128.4z
					 M75.7,128.2h9.6L72.4,121c-0.3,0.5-0.9,0.8-1.5,0.8c-0.3,0-0.5-0.1-0.7-0.2l-1.4,2.5L75.7,128.2z"/>
				<path d="M87.3,128.7H75.6l-7.4-4.4L70,121l0.3,0.2c0.6,0.3,1.4,0.1,1.7-0.5l0.2-0.3l0.3,0.2L87.3,128.7z M75.8,128h8.6
					l-11.9-6.6c-0.5,0.6-1.4,0.9-2.2,0.6l-1.1,2.1L75.8,128z"/>
			</g>
		</g>
		<g>
			<g>
				<path d="M79.8,60.6l-0.1,0L61.9,56l0-0.1c0-0.1,0-0.2,0-0.3c0-0.4-0.2-0.8-0.5-1.1l-0.1-0.1L80,40.6l5.9-1.3v2.2l-4.2,17.8
					l-0.1,0c-0.8-0.2-1.6,0.3-1.8,1.1L79.8,60.6z M62.1,55.8l17.5,4.5c0.3-0.8,1.1-1.3,2-1.2l4.1-17.5l0-1.9l-5.6,1.2L61.7,54.5
					c0.3,0.3,0.4,0.7,0.4,1.2C62.1,55.7,62.1,55.8,62.1,55.8z"/>
				<path d="M80,60.9l-18.4-4.7l0.1-0.3c0-0.1,0-0.1,0-0.2c0-0.3-0.1-0.7-0.4-0.9L61,54.4l19-14l6.2-1.3v2.5L82,59.7l-0.4-0.1
					c-0.7-0.2-1.4,0.2-1.5,0.9L80,60.9z M62.4,55.6L79.5,60c0.3-0.8,1.1-1.2,1.9-1.2l4.1-17.3l0-1.5l-5.3,1.1L62.1,54.5
					C62.3,54.9,62.4,55.2,62.4,55.6z"/>
			</g>
		</g>
		<g>
			<g>
				<path d="M61.5,54.5c-0.3-0.3-0.7-0.5-1.2-0.5c-0.1,0-0.1,0-0.2,0c-0.8,0.1-1.5,0.8-1.5,1.6c0,0,0,0,0,0c0,0.6,0.3,1.1,0.8,1.4
					c0.2,0.1,0.5,0.2,0.8,0.2c0.3,0,0.7-0.1,0.9-0.3c0.4-0.2,0.6-0.6,0.7-1.1c0-0.1,0-0.2,0-0.3C62,55.2,61.8,54.8,61.5,54.5z"/>
				<path d="M60.4,57.5c-0.3,0-0.7-0.1-1-0.3c-0.6-0.3-0.9-1-0.9-1.6c0-1,0.7-1.8,1.7-1.9c0.6-0.1,1.1,0.1,1.5,0.5l0,0
					c0.4,0.4,0.6,0.8,0.6,1.4c0,0.1,0,0.2,0,0.3c-0.1,0.5-0.4,1-0.8,1.3C61.1,57.4,60.8,57.5,60.4,57.5z M60.4,54.2
					c-0.1,0-0.1,0-0.2,0c-0.7,0.1-1.2,0.7-1.2,1.4c0,0.5,0.3,1,0.7,1.2c0.5,0.3,1.1,0.3,1.5,0c0.3-0.2,0.5-0.6,0.6-0.9
					c0-0.1,0-0.2,0-0.2c0-0.4-0.1-0.7-0.4-1l0,0C61.1,54.4,60.7,54.2,60.4,54.2z"/>
			</g>
			<g>
				<path d="M60.4,57.4c-0.3,0-0.6-0.1-0.9-0.3c-0.5-0.3-0.9-0.9-0.9-1.5c0-0.9,0.7-1.7,1.6-1.8c0.5-0.1,1.1,0.1,1.4,0.5v0
					c0.3,0.3,0.5,0.8,0.5,1.3c0,0.1,0,0.2,0,0.3c-0.1,0.5-0.4,0.9-0.7,1.2C61.1,57.3,60.7,57.4,60.4,57.4z M60.4,54.1
					c-0.1,0-0.1,0-0.2,0c-0.8,0.1-1.4,0.7-1.4,1.5c0,0.5,0.3,1,0.7,1.3c0.5,0.3,1.2,0.3,1.6,0c0.3-0.2,0.6-0.6,0.6-1
					c0-0.1,0-0.2,0-0.3c0-0.4-0.2-0.8-0.5-1.1v0C61.2,54.3,60.8,54.1,60.4,54.1z"/>
				<path d="M60.4,57.7c-0.4,0-0.7-0.1-1-0.3c-0.6-0.4-1-1-1-1.7c0-1,0.8-1.9,1.8-2c0.6-0.1,1.2,0.1,1.6,0.6
					c0.4,0.4,0.6,0.9,0.6,1.4c0,0.1,0,0.2,0,0.3c-0.1,0.5-0.4,1-0.9,1.3C61.2,57.5,60.8,57.7,60.4,57.7z M60.4,54.4c0,0-0.1,0-0.1,0
					c-0.6,0.1-1.1,0.6-1.1,1.3c0,0.5,0.2,0.9,0.6,1.1c0.4,0.3,1,0.2,1.4,0c0.3-0.2,0.5-0.5,0.5-0.8c0-0.1,0-0.1,0-0.2
					c0-0.3-0.1-0.7-0.4-0.9C61,54.5,60.7,54.4,60.4,54.4z"/>
			</g>
		</g>
		<g>
			<g>
				<path d="M82.9,60.3c-0.2-0.5-0.6-0.9-1.2-1.1c-0.1,0-0.2,0-0.4,0c-0.8,0-1.4,0.5-1.6,1.2c0,0.1-0.1,0.3-0.1,0.4
					c0,0.2,0.1,0.5,0.1,0.7c0.2,0.4,0.4,0.6,0.8,0.8c0.2,0.1,0.5,0.2,0.7,0.2c0.6,0,1.1-0.3,1.4-0.8c0.2-0.3,0.3-0.6,0.3-0.9
					C83,60.6,82.9,60.5,82.9,60.3z"/>
				<path d="M81.3,62.7c-0.3,0-0.6-0.1-0.8-0.2c-0.4-0.2-0.7-0.5-0.9-0.9c-0.1-0.2-0.2-0.5-0.2-0.8c0-0.2,0-0.3,0.1-0.5
					c0.3-1,1.3-1.6,2.3-1.4c0.6,0.1,1.2,0.6,1.4,1.2l0,0c0.1,0.2,0.1,0.4,0.1,0.6c0,0.4-0.1,0.7-0.3,1
					C82.5,62.4,81.9,62.7,81.3,62.7z M81.3,59.4c-0.6,0-1.2,0.4-1.4,1.1c0,0.1,0,0.2,0,0.3c0,0.2,0,0.4,0.1,0.6
					c0.1,0.3,0.4,0.5,0.7,0.7c0.6,0.3,1.4,0.1,1.8-0.5c0.1-0.2,0.2-0.5,0.2-0.8c0-0.2,0-0.3-0.1-0.5l0,0c-0.2-0.5-0.5-0.8-1-0.9
					C81.5,59.4,81.4,59.4,81.3,59.4z"/>
			</g>
			<g>
				<path d="M81.3,62.6c-0.3,0-0.5-0.1-0.8-0.2c-0.4-0.2-0.7-0.5-0.8-0.9c-0.1-0.2-0.2-0.5-0.2-0.7c0-0.1,0-0.3,0.1-0.4
					c0.2-0.9,1.2-1.5,2.1-1.3c0.6,0.1,1.1,0.6,1.3,1.2c0.1,0.2,0.1,0.4,0.1,0.6c0,0.3-0.1,0.7-0.3,1C82.5,62.3,81.9,62.6,81.3,62.6z
					 M81.3,59.3c-0.7,0-1.3,0.5-1.5,1.2c0,0.1,0,0.3,0,0.4c0,0.2,0,0.4,0.1,0.6c0.1,0.3,0.4,0.6,0.7,0.7c0.2,0.1,0.4,0.2,0.7,0.2
					c0.5,0,1-0.3,1.3-0.7c0.2-0.2,0.2-0.5,0.2-0.8c0-0.2,0-0.3-0.1-0.5v0c-0.2-0.5-0.6-0.9-1.1-1C81.5,59.3,81.4,59.3,81.3,59.3z"/>
				<path d="M81.3,62.9c-0.3,0-0.6-0.1-0.9-0.2c-0.4-0.2-0.8-0.6-1-1c-0.1-0.3-0.2-0.5-0.2-0.8c0-0.2,0-0.3,0.1-0.5
					c0.3-1.1,1.3-1.7,2.4-1.5c0.7,0.2,1.2,0.7,1.5,1.3c0.1,0.2,0.1,0.4,0.1,0.7c0,0.4-0.1,0.8-0.3,1.1C82.6,62.5,82,62.9,81.3,62.9z
					 M81.3,59.6c-0.6,0-1.1,0.4-1.2,1c0,0.1,0,0.2,0,0.3c0,0.2,0,0.4,0.1,0.5c0.1,0.3,0.3,0.5,0.6,0.6c0.6,0.3,1.3,0.1,1.6-0.5
					c0.1-0.2,0.2-0.4,0.2-0.7c0-0.1,0-0.3-0.1-0.4c-0.1-0.4-0.5-0.7-0.9-0.8C81.5,59.6,81.4,59.6,81.3,59.6z"/>
			</g>
		</g>
		<g>
			<g>
				<path d="M71.7,83.2c-0.1-0.5-0.4-0.8-0.9-1C70.6,82,70.4,82,70.1,82c-0.1,0-0.1,0-0.2,0c-0.8,0.1-1.5,0.8-1.5,1.6
					c0,0.9,0.7,1.7,1.7,1.7c0,0,0.1,0,0.1,0c0.3,0,0.5-0.1,0.7-0.2c0.5-0.3,0.8-0.8,0.8-1.4C71.8,83.5,71.8,83.3,71.7,83.2z"/>
				<path d="M70.1,85.5c-1.1,0-1.9-0.9-1.9-1.9c0-1,0.7-1.8,1.7-1.9c0.4,0,0.7,0,1,0.2c0.5,0.2,0.9,0.7,1,1.2l0,0
					c0,0.2,0.1,0.3,0.1,0.5c0,0.7-0.4,1.3-0.9,1.6c-0.3,0.2-0.5,0.2-0.8,0.3C70.2,85.5,70.2,85.5,70.1,85.5z M70.1,82.2
					c-0.1,0-0.1,0-0.2,0c-0.7,0.1-1.3,0.7-1.3,1.4c0,0.8,0.6,1.4,1.4,1.4l0.1,0c0.2,0,0.4-0.1,0.6-0.2c0.4-0.3,0.7-0.7,0.7-1.2
					c0-0.1,0-0.2-0.1-0.4c-0.1-0.4-0.4-0.7-0.7-0.9C70.5,82.3,70.3,82.2,70.1,82.2z"/>
			</g>
			<g>
				<path d="M70.1,85.4c-1,0-1.8-0.8-1.8-1.8c0-0.9,0.7-1.7,1.6-1.8c0.3,0,0.7,0,1,0.2c0.5,0.2,0.8,0.6,0.9,1.1v0
					c0,0.2,0.1,0.3,0.1,0.5c0,0.6-0.3,1.2-0.9,1.5c-0.2,0.1-0.5,0.2-0.8,0.2C70.2,85.4,70.2,85.4,70.1,85.4z M70.1,82.1
					c-0.1,0-0.1,0-0.2,0c-0.8,0.1-1.4,0.7-1.4,1.5c0,0.8,0.7,1.5,1.5,1.5c0,0,0.1,0,0.1,0c0.3,0,0.5-0.1,0.7-0.2
					c0.5-0.3,0.8-0.8,0.8-1.3c0-0.1,0-0.3-0.1-0.4l0,0c-0.1-0.4-0.4-0.8-0.8-1C70.6,82.1,70.4,82.1,70.1,82.1z"/>
				<path d="M70.1,85.6c-1.1,0-2-0.9-2-2c0-1,0.8-1.9,1.8-2c0.4,0,0.8,0,1.1,0.2c0.5,0.3,0.9,0.7,1.1,1.3c0,0.2,0.1,0.4,0.1,0.5
					c0,0.7-0.4,1.4-1,1.7c-0.3,0.2-0.6,0.3-0.9,0.3C70.2,85.6,70.2,85.6,70.1,85.6z M70.1,82.3c0,0-0.1,0-0.1,0
					c-0.7,0.1-1.1,0.6-1.1,1.3c0,0.7,0.6,1.3,1.3,1.3l0.1,0c0.2,0,0.4-0.1,0.6-0.2c0.4-0.2,0.6-0.7,0.6-1.1c0-0.1,0-0.2,0-0.3
					c-0.1-0.4-0.3-0.6-0.7-0.8C70.5,82.4,70.3,82.3,70.1,82.3z"/>
			</g>
		</g>
		<g>
			<g>
				<path d="M69.9,65.9c-0.3-0.5-0.8-0.9-1.5-0.9c-0.4,0-0.8,0.2-1.1,0.4c-0.3,0.3-0.6,0.7-0.6,1.2c0,0.4,0.1,0.7,0.3,1
					c0.3,0.4,0.8,0.7,1.3,0.7c0,0,0,0,0,0c0.9,0,1.7-0.7,1.7-1.7C70.1,66.4,70.1,66.1,69.9,65.9z"/>
				<path d="M68.5,68.6c-0.6,0-1.2-0.3-1.5-0.8c-0.2-0.3-0.4-0.7-0.4-1.1c0-0.5,0.2-1.1,0.6-1.4c0.4-0.3,0.8-0.5,1.3-0.5
					c0.7,0,1.4,0.4,1.7,1l0,0c0.1,0.3,0.2,0.6,0.2,0.9C70.4,67.7,69.5,68.6,68.5,68.6z M68.5,65.3c-0.3,0-0.7,0.1-0.9,0.4
					c-0.3,0.3-0.5,0.7-0.5,1.1c0,0.3,0.1,0.6,0.3,0.8c0.3,0.4,0.7,0.6,1.1,0.6c0,0,0,0,0,0c0.8,0,1.4-0.6,1.4-1.4
					c0-0.2-0.1-0.4-0.2-0.6C69.5,65.6,69,65.3,68.5,65.3z"/>
			</g>
			<g>
				<path d="M68.5,68.4c-0.6,0-1.1-0.3-1.4-0.7c-0.2-0.3-0.3-0.7-0.3-1c0-0.5,0.2-1,0.6-1.3c0.3-0.3,0.7-0.4,1.2-0.4
					c0.7,0,1.3,0.4,1.6,1c0.1,0.3,0.2,0.5,0.2,0.8C70.2,67.6,69.4,68.4,68.5,68.4z M68.5,65.1c-0.4,0-0.7,0.1-1,0.4
					c-0.3,0.3-0.5,0.7-0.5,1.1c0,0.3,0.1,0.6,0.3,0.9c0.3,0.4,0.7,0.6,1.2,0.6c0,0,0,0,0,0c0.9,0,1.6-0.7,1.6-1.5
					c0-0.2-0.1-0.5-0.2-0.7l0,0C69.6,65.5,69,65.1,68.5,65.1z"/>
				<path d="M68.5,68.7L68.5,68.7c-0.7,0-1.3-0.3-1.6-0.8c-0.3-0.3-0.4-0.8-0.4-1.2c0-0.6,0.2-1.1,0.7-1.5c0.4-0.3,0.9-0.5,1.3-0.5
					c0.8,0,1.5,0.4,1.8,1.1c0.1,0.3,0.2,0.6,0.2,0.9C70.5,67.8,69.6,68.7,68.5,68.7z M68.5,65.4c-0.3,0-0.6,0.1-0.9,0.3
					c-0.3,0.2-0.4,0.6-0.4,1c0,0.3,0.1,0.5,0.2,0.8c0.2,0.3,0.6,0.5,1,0.5c0.7,0,1.3-0.6,1.3-1.3c0-0.2,0-0.4-0.1-0.6
					C69.4,65.7,68.9,65.4,68.5,65.4z"/>
			</g>
		</g>
		<g>
			<g>
				<path d="M49.9,82.4c-0.2-0.2-0.4-0.3-0.7-0.4c-0.1,0-0.3-0.1-0.4-0.1c-0.5,0-0.9,0.2-1.2,0.5c-0.3,0.3-0.5,0.7-0.5,1.2
					c0,0.4,0.2,0.8,0.4,1.1c0.3,0.3,0.7,0.5,1.2,0.5c0.6,0,1.1-0.3,1.4-0.8c0.2-0.3,0.3-0.6,0.3-0.9C50.4,83.1,50.3,82.7,49.9,82.4z
					"/>
				<path d="M48.8,85.5c-0.5,0-1-0.2-1.4-0.6c-0.3-0.4-0.5-0.8-0.5-1.3c0-0.5,0.2-1,0.6-1.4c0.5-0.5,1.1-0.7,1.8-0.5
					c0.3,0.1,0.6,0.2,0.8,0.5l0,0c0.4,0.4,0.6,0.9,0.6,1.4c0,0.4-0.1,0.7-0.3,1C50.1,85.2,49.5,85.5,48.8,85.5z M48.8,82.2
					c-0.4,0-0.7,0.1-1,0.4c-0.3,0.3-0.4,0.6-0.4,1c0,0.4,0.1,0.7,0.4,0.9c0.3,0.3,0.6,0.5,1,0.5c0.5,0,0.9-0.2,1.2-0.7
					c0.1-0.2,0.2-0.5,0.2-0.7c0-0.4-0.2-0.7-0.4-1l0,0c-0.2-0.2-0.4-0.3-0.6-0.3C49,82.2,48.9,82.2,48.8,82.2z"/>
			</g>
			<g>
				<path d="M48.8,85.4c-0.5,0-1-0.2-1.3-0.6c-0.3-0.3-0.5-0.8-0.5-1.2c0-0.5,0.2-0.9,0.5-1.3c0.4-0.4,1.1-0.6,1.7-0.5
					c0.3,0.1,0.6,0.2,0.8,0.4l0,0c0.4,0.3,0.5,0.8,0.5,1.3c0,0.3-0.1,0.7-0.3,0.9C50,85.1,49.4,85.4,48.8,85.4z M48.8,82.1
					c-0.4,0-0.8,0.2-1.1,0.4c-0.3,0.3-0.5,0.7-0.5,1.1c0,0.4,0.1,0.8,0.4,1c0.3,0.3,0.7,0.5,1.1,0.5c0.5,0,1-0.3,1.3-0.7
					c0.2-0.2,0.2-0.5,0.2-0.8c0-0.4-0.2-0.8-0.5-1.1l0,0c-0.2-0.2-0.4-0.3-0.7-0.4C49.1,82.1,48.9,82.1,48.8,82.1z"/>
				<path d="M48.8,85.6c-0.6,0-1.1-0.2-1.5-0.7c-0.3-0.4-0.5-0.9-0.5-1.4c0-0.5,0.2-1.1,0.6-1.4c0.5-0.5,1.2-0.7,1.9-0.5
					c0.3,0.1,0.6,0.3,0.9,0.5c0.4,0.4,0.6,0.9,0.6,1.5c0,0.4-0.1,0.8-0.3,1.1C50.1,85.3,49.5,85.6,48.8,85.6z M48.8,82.3
					c-0.3,0-0.7,0.1-0.9,0.4c-0.2,0.2-0.4,0.6-0.4,0.9c0,0.3,0.1,0.6,0.3,0.9c0.2,0.3,0.6,0.4,0.9,0.4c0.4,0,0.8-0.2,1.1-0.6
					c0.1-0.2,0.2-0.4,0.2-0.7c0-0.4-0.1-0.7-0.4-0.9c-0.2-0.2-0.4-0.3-0.6-0.3C49,82.3,48.9,82.3,48.8,82.3z"/>
			</g>
		</g>
		<g>
			<g>
				<path d="M84.2,117c0,0-0.1,0-0.1,0c-0.6,0-1.1,0.4-1.3,0.9c-0.1,0.2-0.2,0.5-0.2,0.8c0,0.1,0,0.2,0,0.2c0,0.2,0.1,0.5,0.2,0.7
					c0.3,0.5,0.8,0.8,1.4,0.8c0.6,0,1.1-0.3,1.4-0.7c0.2-0.3,0.3-0.6,0.3-0.9C85.9,117.7,85.2,117,84.2,117z"/>
				<path d="M84.2,120.5c-0.6,0-1.2-0.3-1.6-0.9c-0.1-0.2-0.2-0.5-0.3-0.8c0-0.1,0-0.2,0-0.3c0-0.3,0.1-0.6,0.2-0.9
					c0.3-0.6,0.9-1,1.5-1c0.1,0,0.1,0,0.1,0c1.1,0,1.9,0.9,1.9,1.9c0,0.4-0.1,0.8-0.3,1.1C85.5,120.2,84.9,120.5,84.2,120.5z
					 M84.2,117.2L84.2,117.2c-0.6,0-1,0.3-1.2,0.7c-0.1,0.2-0.2,0.4-0.2,0.7c0,0.1,0,0.1,0,0.2c0,0.2,0.1,0.4,0.2,0.6
					c0.3,0.4,0.7,0.6,1.2,0.6c0.5,0,0.9-0.2,1.2-0.6c0.2-0.2,0.2-0.5,0.2-0.8C85.7,117.8,85,117.2,84.2,117.2z"/>
			</g>
			<g>
				<path d="M84.2,120.4c-0.6,0-1.2-0.3-1.5-0.8c-0.1-0.2-0.2-0.4-0.3-0.7c0-0.1,0-0.2,0-0.3c0-0.3,0.1-0.6,0.2-0.8
					c0.3-0.5,0.8-0.9,1.4-0.9c0.1,0,0.1,0,0.1,0c1,0,1.8,0.8,1.8,1.8c0,0.4-0.1,0.7-0.3,1C85.4,120.1,84.8,120.4,84.2,120.4z
					 M84.2,117.1C84.2,117.1,84.2,117.1,84.2,117.1c-0.6,0-1.1,0.3-1.4,0.8c-0.1,0.2-0.2,0.5-0.2,0.7c0,0.1,0,0.2,0,0.2
					c0,0.2,0.1,0.4,0.2,0.6c0.3,0.4,0.8,0.7,1.3,0.7c0.5,0,1-0.3,1.3-0.7c0.2-0.3,0.3-0.6,0.3-0.9C85.8,117.8,85.1,117.1,84.2,117.1
					z"/>
				<path d="M84.2,120.7c-0.7,0-1.3-0.3-1.7-0.9c-0.2-0.2-0.3-0.5-0.3-0.8c0-0.1,0-0.2,0-0.3c0-0.3,0.1-0.7,0.2-1
					c0.3-0.6,0.9-1,1.6-1.1c0.1,0,0.1,0,0.1,0c1.1,0,2,0.9,2,2c0,0.4-0.1,0.8-0.4,1.1C85.5,120.3,84.9,120.7,84.2,120.7z
					 M84.2,117.3L84.2,117.3c-0.5,0-0.9,0.3-1.1,0.7c-0.1,0.2-0.2,0.4-0.2,0.6c0,0.1,0,0.1,0,0.2c0,0.2,0.1,0.4,0.2,0.5
					c0.2,0.4,0.6,0.6,1.1,0.6c0.4,0,0.8-0.2,1.1-0.6c0.1-0.2,0.2-0.5,0.2-0.7C85.5,117.9,85,117.3,84.2,117.3z"/>
			</g>
		</g>
		<g>
			<g>
				<path d="M72.6,119.9c0-0.6-0.3-1-0.8-1.3c-0.2-0.1-0.5-0.2-0.8-0.2c-0.7,0-1.3,0.4-1.5,1c-0.1,0.2-0.1,0.4-0.1,0.7
					c0,0.6,0.3,1.2,0.9,1.5c0.2,0.1,0.5,0.2,0.8,0.2c0.6,0,1.2-0.3,1.4-0.9c0.1-0.2,0.2-0.5,0.2-0.8C72.6,120,72.6,120,72.6,119.9"
					/>
				<path d="M70.9,121.9c-0.3,0-0.6-0.1-0.9-0.2c-0.6-0.3-1-1-1-1.7c0-0.3,0.1-0.5,0.2-0.8c0.3-0.7,1-1.1,1.7-1.1
					c0.3,0,0.7,0.1,1,0.3c0.5,0.3,0.9,0.9,0.9,1.5l-0.5,0c0-0.5-0.3-0.9-0.7-1.1c-0.2-0.1-0.5-0.2-0.7-0.2c-0.6,0-1.1,0.3-1.3,0.8
					c-0.1,0.2-0.1,0.4-0.1,0.6c0,0.5,0.3,1,0.7,1.2c0.7,0.4,1.5,0.1,1.9-0.5c0.1-0.2,0.2-0.4,0.2-0.7l0.5-0.1l0,0.1
					c0,0.3-0.1,0.6-0.2,0.9C72.3,121.6,71.6,121.9,70.9,121.9z"/>
			</g>
			<g>
				<path d="M70.9,121.8c-0.3,0-0.6-0.1-0.9-0.2c-0.6-0.3-0.9-0.9-0.9-1.6c0-0.2,0.1-0.5,0.2-0.7c0.3-0.6,0.9-1.1,1.6-1.1
					c0.3,0,0.6,0.1,0.9,0.3c0.5,0.3,0.8,0.8,0.9,1.4l-0.2,0c0-0.5-0.3-1-0.7-1.2c-0.2-0.1-0.5-0.2-0.8-0.2c-0.6,0-1.2,0.4-1.4,0.9
					c-0.1,0.2-0.1,0.4-0.1,0.6c0,0.6,0.3,1.1,0.8,1.3c0.2,0.1,0.5,0.2,0.7,0.2c0.6,0,1.1-0.3,1.3-0.8c0.1-0.2,0.2-0.5,0.2-0.7
					c0,0,0,0,0,0l0,0l0.2,0c0,0.1,0,0.1,0,0.1c0,0.3-0.1,0.6-0.2,0.9C72.2,121.5,71.6,121.8,70.9,121.8z"/>
				<path d="M70.9,122.1c-0.3,0-0.7-0.1-1-0.3c-0.6-0.4-1.1-1-1.1-1.8c0-0.3,0.1-0.6,0.2-0.8c0.3-0.7,1.1-1.2,1.9-1.2
					c0.4,0,0.7,0.1,1,0.3c0.5,0.3,0.9,0.8,1,1.4l0,0l0,0.2c0,0,0,0,0,0l0,0.2l0,0c0,0.3-0.1,0.6-0.3,0.9
					C72.4,121.7,71.7,122.1,70.9,122.1z M70.9,118.8c-0.5,0-1,0.3-1.2,0.8c-0.1,0.2-0.1,0.3-0.1,0.5c0,0.5,0.3,0.9,0.7,1.1
					c0.6,0.3,1.4,0.1,1.7-0.5c0.1-0.2,0.2-0.4,0.2-0.6l0-0.1c0-0.4-0.3-0.8-0.6-1C71.4,118.8,71.2,118.8,70.9,118.8z"/>
			</g>
		</g>
		<g>
			<g>
				<path d="M82.3,101.4c-0.3-0.2-0.6-0.4-1-0.4c-0.3,0-0.6,0.1-0.8,0.2c-0.2,0.1-0.4,0.3-0.5,0.5c-0.2,0.3-0.3,0.6-0.3,0.9
					c0,0.6,0.3,1.1,0.8,1.4c0.2,0.1,0.5,0.2,0.8,0.2c0.1,0,0.2,0,0.3,0c0.4-0.1,0.7-0.2,0.9-0.5c0.3-0.3,0.4-0.7,0.4-1.1
					C83,102.1,82.7,101.7,82.3,101.4z"/>
				<path d="M81.3,104.6c-0.3,0-0.7-0.1-1-0.3c-0.6-0.3-0.9-1-0.9-1.6c0-0.4,0.1-0.8,0.3-1.1c0.2-0.2,0.4-0.4,0.6-0.6
					c0.7-0.4,1.5-0.3,2.1,0.1l0,0c0.5,0.4,0.7,0.9,0.7,1.5c0,0.5-0.2,0.9-0.5,1.3c-0.3,0.3-0.7,0.5-1.1,0.6
					C81.5,104.5,81.4,104.6,81.3,104.6z M81.3,101.2c-0.2,0-0.5,0.1-0.7,0.2c-0.2,0.1-0.3,0.3-0.5,0.4c-0.2,0.2-0.2,0.5-0.2,0.8
					c0,0.5,0.3,1,0.7,1.2c0.3,0.2,0.6,0.2,1,0.2c0.3-0.1,0.6-0.2,0.8-0.4c0.2-0.3,0.4-0.6,0.4-1c0-0.4-0.2-0.8-0.5-1.1l0,0
					C81.9,101.4,81.6,101.2,81.3,101.2z"/>
			</g>
			<g>
				<path d="M81.3,104.4c-0.3,0-0.6-0.1-0.9-0.3c-0.5-0.3-0.9-0.9-0.9-1.5c0-0.4,0.1-0.7,0.3-1c0.1-0.2,0.3-0.4,0.6-0.5
					c0.6-0.4,1.4-0.3,2,0.1l0,0c0.4,0.3,0.7,0.8,0.7,1.4c0,0.5-0.2,0.9-0.5,1.2c-0.3,0.3-0.6,0.5-1,0.5
					C81.5,104.4,81.4,104.4,81.3,104.4z M81.3,101.1c-0.3,0-0.5,0.1-0.8,0.2c-0.2,0.1-0.4,0.3-0.5,0.5c-0.2,0.3-0.3,0.6-0.3,0.9
					c0,0.5,0.3,1,0.8,1.3c0.2,0.1,0.5,0.2,0.8,0.2c0.1,0,0.2,0,0.3,0c0.3-0.1,0.6-0.2,0.9-0.5c0.3-0.3,0.4-0.7,0.4-1
					c0-0.5-0.2-0.9-0.6-1.2l0,0C82,101.2,81.6,101.1,81.3,101.1z"/>
				<path d="M81.3,104.7c-0.4,0-0.7-0.1-1-0.3c-0.6-0.4-1-1-1-1.7c0-0.4,0.1-0.8,0.4-1.1c0.2-0.2,0.4-0.5,0.7-0.6
					c0.7-0.4,1.6-0.4,2.3,0.2c0.5,0.4,0.8,1,0.8,1.6c0,0.5-0.2,1-0.5,1.4c-0.3,0.3-0.7,0.5-1.1,0.6
					C81.5,104.7,81.4,104.7,81.3,104.7z M81.3,101.4c-0.2,0-0.5,0.1-0.6,0.2c-0.2,0.1-0.3,0.2-0.4,0.4c-0.1,0.2-0.2,0.5-0.2,0.7
					c0,0.5,0.2,0.9,0.6,1.1c0.3,0.2,0.5,0.2,0.9,0.2c0.3,0,0.5-0.2,0.7-0.4c0.2-0.2,0.3-0.5,0.3-0.9c0-0.4-0.2-0.8-0.5-1
					C81.9,101.5,81.6,101.4,81.3,101.4z"/>
			</g>
		</g>
		<g>
			<g>
				<path d="M85.7,128.9l0-0.5l0.1,0l-0.1,0l0-9.2l4.9-0.3L85.7,128.9z M86,119.4l0,8.4l4.2-8.7L86,119.4z"/>
				<path d="M85.5,129.9l0-11l5.6-0.3L85.5,129.9z M86.2,119.6l0,7.1l3.6-7.3L86.2,119.6z"/>
			</g>
		</g>
		<g>
			<g>
				<path d="M85.8,119.4l0-0.2l4.5-0.2v-7.7l-7.8-7.2c-0.2,0.2-0.5,0.4-0.8,0.4l2.2,12.6l-0.2,0l-2.3-12.9l0.1,0
					c0.3-0.1,0.6-0.2,0.9-0.5l0.1-0.1l8,7.5v8L85.8,119.4z"/>
				<path d="M85.6,119.6l0-0.7l4.5-0.2v-7.4l-7.5-7c-0.2,0.1-0.3,0.2-0.5,0.3l2.2,12.7l-0.7,0.1L81.1,104l0.4-0.1
					c0.3,0,0.5-0.2,0.7-0.4l0.3-0.3l8.3,7.7v8.4L85.6,119.6z"/>
			</g>
		</g>
		<g>
			<g>
				<path d="M82.3,101.5L82.3,101.5c-0.6-0.5-1.3-0.5-1.8-0.2l-0.1,0.1L70.8,85l0.1-0.1c0.5-0.3,0.8-0.8,0.8-1.3
					c0-0.1,0-0.3-0.1-0.4l0-0.1l0.1,0l18.8-5.2v13.3L82.3,101.5z M81.3,100.9c0.4,0,0.7,0.1,1,0.3l8-10.1V78.2l-18.4,5.1
					c0,0.1,0,0.2,0,0.4c0,0.6-0.3,1.1-0.8,1.5l9.4,16C80.8,100.9,81,100.9,81.3,100.9z"/>
				<path d="M82.4,101.9l-0.3-0.2c-0.4-0.3-1-0.4-1.4-0.1l-0.3,0.2l-9.9-16.8l0.3-0.2c0.4-0.2,0.6-0.7,0.6-1.1c0-0.1,0-0.2,0-0.3
					l-0.1-0.4l0.4-0.1l19.2-5.3v13.8L82.4,101.9z M81.3,100.6c0.3,0,0.7,0.1,0.9,0.2L90,91V78.5l-17.9,4.9c0,0.1,0,0.1,0,0.2
					c0,0.6-0.3,1.1-0.7,1.5l9.2,15.6C80.8,100.7,81.1,100.6,81.3,100.6z"/>
			</g>
		</g>
		<g>
			<g>
				<path d="M70.9,94c0,0-0.1,0-0.1,0c-0.6,0-1.1,0.4-1.3,0.9c-0.1,0.2-0.2,0.5-0.2,0.8c0,0.1,0,0.2,0,0.2c0,0.2,0.1,0.5,0.2,0.7
					c0.3,0.5,0.8,0.8,1.4,0.8c0.6,0,1.1-0.3,1.4-0.7c0.2-0.3,0.3-0.6,0.3-0.9C72.6,94.7,71.9,94,70.9,94z"/>
				<path d="M70.9,97.5c-0.6,0-1.2-0.3-1.6-0.9c-0.1-0.2-0.2-0.5-0.3-0.8c0-0.1,0-0.2,0-0.3c0-0.3,0.1-0.6,0.2-0.9
					c0.3-0.6,0.9-1,1.5-1c0.1,0,0.1,0,0.1,0c1.1,0,1.9,0.9,1.9,1.9c0,0.4-0.1,0.8-0.3,1.1C72.2,97.2,71.6,97.5,70.9,97.5z
					 M70.9,94.2L70.9,94.2c-0.6,0-1,0.3-1.2,0.7c-0.1,0.2-0.2,0.4-0.2,0.7c0,0.1,0,0.1,0,0.2c0,0.2,0.1,0.4,0.2,0.6
					c0.3,0.4,0.7,0.6,1.2,0.6c0.5,0,0.9-0.2,1.2-0.6c0.2-0.2,0.2-0.5,0.2-0.8C72.4,94.8,71.7,94.2,70.9,94.2z"/>
			</g>
			<g>
				<path d="M70.9,97.4c-0.6,0-1.2-0.3-1.5-0.8c-0.1-0.2-0.2-0.4-0.3-0.7c0-0.1,0-0.2,0-0.3c0-0.3,0.1-0.6,0.2-0.8
					c0.3-0.5,0.8-0.9,1.4-0.9c0.1,0,0.1,0,0.1,0c1,0,1.8,0.8,1.8,1.8c0,0.4-0.1,0.7-0.3,1C72.1,97.1,71.5,97.4,70.9,97.4z
					 M70.9,94.1C70.9,94.1,70.9,94.1,70.9,94.1c-0.6,0-1.1,0.3-1.4,0.8c-0.1,0.2-0.2,0.5-0.2,0.7c0,0.1,0,0.2,0,0.2
					c0,0.2,0.1,0.4,0.2,0.6c0.3,0.4,0.8,0.7,1.3,0.7c0.5,0,1-0.3,1.3-0.7c0.2-0.3,0.3-0.6,0.3-0.9C72.5,94.8,71.8,94.1,70.9,94.1z"
					/>
				<path d="M70.9,97.6c-0.7,0-1.3-0.3-1.7-0.9c-0.2-0.2-0.3-0.5-0.3-0.8c0-0.1,0-0.2,0-0.3c0-0.3,0.1-0.7,0.2-1
					c0.3-0.6,0.9-1,1.6-1.1c0.1,0,0.1,0,0.1,0c1.1,0,2,0.9,2,2c0,0.4-0.1,0.8-0.4,1.1C72.2,97.3,71.6,97.6,70.9,97.6z M70.9,94.1
					l0,0.2c-0.5,0-0.9,0.3-1.1,0.7c-0.1,0.2-0.2,0.4-0.2,0.6c0,0.1,0,0.1,0,0.2c0,0.2,0.1,0.4,0.2,0.5c0.2,0.4,0.6,0.6,1.1,0.6
					c0.4,0,0.8-0.2,1.1-0.6c0.1-0.2,0.2-0.5,0.2-0.7c0-0.7-0.6-1.3-1.3-1.3L70.9,94.1C70.9,94.1,70.9,94.1,70.9,94.1z"/>
			</g>
		</g>
		<g>
			<g>
				<path d="M59.6,103c-0.3-0.5-0.8-0.8-1.4-0.8c-0.6,0-1.1,0.3-1.4,0.7c-0.2,0.3-0.3,0.6-0.3,0.9c0,0.6,0.3,1.1,0.7,1.4
					c0.3,0.2,0.6,0.3,0.9,0.3c0.9,0,1.7-0.7,1.7-1.7C59.9,103.6,59.8,103.3,59.6,103z"/>
				<path d="M58.2,105.8c-0.4,0-0.8-0.1-1.1-0.3c-0.5-0.4-0.8-0.9-0.8-1.6c0-0.4,0.1-0.7,0.3-1.1c0.4-0.5,0.9-0.8,1.6-0.8
					c0.6,0,1.2,0.3,1.6,0.9l0,0c0.2,0.3,0.3,0.7,0.3,1C60.1,104.9,59.3,105.8,58.2,105.8z M58.2,102.5c-0.5,0-0.9,0.2-1.2,0.6
					c-0.2,0.2-0.2,0.5-0.2,0.8c0,0.5,0.2,0.9,0.6,1.2c0.2,0.2,0.5,0.3,0.8,0.3c0.8,0,1.4-0.6,1.4-1.4c0-0.3-0.1-0.5-0.2-0.8l0,0
					C59.1,102.7,58.7,102.5,58.2,102.5z"/>
			</g>
			<g>
				<path d="M58.2,105.7c-0.4,0-0.7-0.1-1-0.3c-0.5-0.3-0.8-0.9-0.8-1.5c0-0.4,0.1-0.7,0.3-1c0.3-0.5,0.9-0.8,1.5-0.8
					c0.6,0,1.2,0.3,1.5,0.8c0.2,0.3,0.3,0.6,0.3,1C60,104.9,59.2,105.7,58.2,105.7z M58.2,102.4c-0.5,0-1,0.3-1.3,0.7
					c-0.2,0.3-0.3,0.5-0.3,0.9c0,0.5,0.2,1,0.7,1.3c0.3,0.2,0.6,0.3,0.9,0.3c0.8,0,1.5-0.7,1.5-1.5c0-0.3-0.1-0.6-0.2-0.8l0,0
					C59.2,102.6,58.7,102.4,58.2,102.4z"/>
				<path d="M58.2,105.9c-0.4,0-0.8-0.1-1.2-0.4c-0.5-0.4-0.9-1-0.9-1.7c0-0.4,0.1-0.8,0.3-1.1c0.4-0.6,1-0.9,1.7-0.9
					c0.7,0,1.3,0.3,1.7,0.9c0.2,0.3,0.3,0.7,0.3,1.1C60.2,105,59.3,105.9,58.2,105.9z M58.2,102.6c-0.4,0-0.8,0.2-1.1,0.6
					c-0.1,0.2-0.2,0.5-0.2,0.7c0,0.4,0.2,0.8,0.5,1.1c0.2,0.2,0.5,0.2,0.7,0.2c0.7,0,1.3-0.6,1.3-1.3c0-0.2-0.1-0.5-0.2-0.7
					C59.1,102.8,58.6,102.6,58.2,102.6z"/>
			</g>
		</g>
	</g>
	<g id="prong_bottom">
		<g>
			<rect x="82.3" y="95.2" width="26.9" height="6.9"/>
		</g>
		<g>
			<path d="M109.7,102.7H81.8v-7.9h27.8V102.7z M82.8,101.7h25.9v-6H82.8V101.7z"/>
		</g>
	</g>
	<g id="cord">
		<g>
			<polygon points="164.5,83.8 164.5,86.9 190.9,86.9 190.9,130.2 194,130.2 194,86.9 194,83.8 			"/>
		</g>
		<g>
			<path d="M194.4,130.5h-3.9V87.3h-26.3v-3.9h30.2V130.5z M191.3,129.8h2.3V84.2h-28.6v2.3h26.3V129.8z"/>
		</g>
	</g>
</g>
<g id="logo_02">
	<g id="infinity">
		<g>
			<g>
				<g>
					<path class="st1" d="M70.2,217c-6.9,0-12.2,5.7-12.2,12.2c0,7.1,5,12.2,11.8,12.2c7.9,0,14.3-6.8,19.6-12.2"/>
				</g>
			</g>
		</g>
		<g>
			<g>
				<g>
					<path class="st1" d="M131.9,229.2c0-7.1-5-12.2-11.8-12.2c-7.9,0-14.3,6.8-19.6,12.2c5.4,5,11.1,12.2,19.2,12.2
						C126.6,241.4,131.9,235.7,131.9,229.2z"/>
				</g>
			</g>
		</g>
		<g>
			<g>
				<g>
					<path class="st0" d="M74.6,208.9c-1-0.2-2.5-0.4-4.2-0.3c-9.4,0.5-21.1,9-21.1,20.6c0,11.9,8.3,20.6,20,20.6
						c11.2,0,18.6-7.8,25.7-14.9l5.6-5.7c5.3-5.4,11.7-12.2,19.6-12.2c6.8,0,11.8,5.1,11.8,12.2c0,6.5-5.3,12.2-12.2,12.2
						c-8.1,0-13.7-7.2-19.2-12.2l-5.6,5.7c6.7,6.7,14.3,14.9,24.6,14.9c12.2,0,21.1-9.6,21.1-20.6c0-11.9-8.2-20.6-20-20.6
						c-11.2,0-18.6,7.8-25.7,14.9l-5.6,5.7c-5.3,5.4-11.7,12.2-19.6,12.2c-6.8,0-11.8-5.1-11.8-12.2c0-6.5,5.3-12.2,12.2-12.2
						C71.7,214.3,73.2,211.6,74.6,208.9z"/>
				</g>
			</g>
			<g>
				<g>
					<path d="M119.5,250.2c-10,0-17.4-7.5-24-14l-0.6-0.6l-0.4,0.4c-7,7-14.2,14.3-25.3,14.3c-11.9,0-20.5-8.9-20.5-21.1
						c0-5.4,2.6-10.7,7.2-14.8c4.1-3.7,9.5-6,14.4-6.2c1.4-0.1,2.9,0,4.4,0.3l0.7,0.1l-4.8,8.9h-0.3c-6.5,0-11.7,5.3-11.7,11.7
						c0,6.8,4.8,11.7,11.3,11.7c7.5,0,13.7-6.4,18.8-11.6l6.7-6.9c7-7,14.2-14.3,25.3-14.3c12.1,0,20.5,8.7,20.5,21.1
						C141.2,241,131.7,250.2,119.5,250.2z M95.7,234.9l0.6,0.6c6.4,6.4,13.7,13.7,23.3,13.7c11.6,0,20.6-8.8,20.6-20.1
						c0-11.8-8-20.1-19.5-20.1c-10.7,0-17.7,7.1-24.6,14l-0.7,0.7l-6,6.2c-5.2,5.3-11.6,11.9-19.5,11.9c-7.1,0-12.3-5.3-12.3-12.7
						c0-6.9,5.5-12.6,12.4-12.7l3.9-7.1c-1.1-0.2-2.3-0.3-3.4-0.2c-12.8,0.6-20.6,12.1-20.6,20.1c0,11.6,8.2,20.1,19.5,20.1
						c10.7,0,17.7-7.1,24.6-14l0.7-0.7l6-6.2c5.2-5.3,11.6-11.9,19.5-11.9c7.1,0,12.3,5.3,12.3,12.7c0,7-5.7,12.7-12.7,12.7
						c-6.9,0-12.1-5.1-16.7-9.7c-0.8-0.8-1.6-1.6-2.4-2.3L95.7,234.9z M101.2,229.2c0.8,0.8,1.6,1.5,2.4,2.3c4.7,4.6,9.5,9.4,16,9.4
						c6.5,0,11.7-5.3,11.7-11.7c0-6.8-4.8-11.7-11.3-11.7c-7.5,0-13.7,6.4-18.8,11.6L101.2,229.2z"/>
				</g>
			</g>
		</g>
		<g>
			<g>
				<g>
					<path class="st0" d="M74.6,208.9c-1-0.2-2.5-0.4-4.2-0.3c-9.4,0.5-21.1,9-21.1,20.6c0,11.9,8.3,20.6,20,20.6
						c11.2,0,18.6-7.8,25.7-14.9l5.6-5.7c5.3-5.4,11.7-12.2,19.6-12.2c6.8,0,11.8,5.1,11.8,12.2c0,6.5-5.3,12.2-12.2,12.2
						c-8.1,0-13.7-7.2-19.2-12.2l-5.6,5.7c6.7,6.7,14.3,14.9,24.6,14.9c12.2,0,21.1-9.6,21.1-20.6c0-11.9-8.2-20.6-20-20.6
						c-11.2,0-18.6,7.8-25.7,14.9l-5.6,5.7c-5.3,5.4-11.7,12.2-19.6,12.2c-6.8,0-11.8-5.1-11.8-12.2c0-6.5,5.3-12.2,12.2-12.2
						C71.7,214.3,73.2,211.6,74.6,208.9z"/>
				</g>
			</g>
			<g>
				<g>
					<path d="M119.5,250.2c-10,0-17.4-7.5-24-14l-0.6-0.6l-0.4,0.4c-7,7-14.2,14.3-25.3,14.3c-11.9,0-20.5-8.9-20.5-21.1
						c0-5.4,2.6-10.7,7.2-14.8c4.1-3.7,9.5-6,14.4-6.2c1.4-0.1,2.9,0,4.4,0.3l0.7,0.1l-4.8,8.9h-0.3c-6.5,0-11.7,5.3-11.7,11.7
						c0,6.8,4.8,11.7,11.3,11.7c7.5,0,13.7-6.4,18.8-11.6l6.7-6.9c7-7,14.2-14.3,25.3-14.3c12.1,0,20.5,8.7,20.5,21.1
						C141.2,241,131.7,250.2,119.5,250.2z M95.7,234.9l0.6,0.6c6.4,6.4,13.7,13.7,23.3,13.7c11.6,0,20.6-8.8,20.6-20.1
						c0-11.8-8-20.1-19.5-20.1c-10.7,0-17.7,7.1-24.6,14l-0.7,0.7l-6,6.2c-5.2,5.3-11.6,11.9-19.5,11.9c-7.1,0-12.3-5.3-12.3-12.7
						c0-6.9,5.5-12.6,12.4-12.7l3.9-7.1c-1.1-0.2-2.3-0.3-3.4-0.2c-12.8,0.6-20.6,12.1-20.6,20.1c0,11.6,8.2,20.1,19.5,20.1
						c10.7,0,17.7-7.1,24.6-14l0.7-0.7l6-6.2c5.2-5.3,11.6-11.9,19.5-11.9c7.1,0,12.3,5.3,12.3,12.7c0,7-5.7,12.7-12.7,12.7
						c-6.9,0-12.1-5.1-16.7-9.7c-0.8-0.8-1.6-1.6-2.4-2.3L95.7,234.9z M101.2,229.2c0.8,0.8,1.6,1.5,2.4,2.3c4.7,4.6,9.5,9.4,16,9.4
						c6.5,0,11.7-5.3,11.7-11.7c0-6.8-4.8-11.7-11.3-11.7c-7.5,0-13.7,6.4-18.8,11.6L101.2,229.2z"/>
				</g>
			</g>
		</g>
		<g>
			<g>
				<g>
					<path d="M74.6,208.9c-1-0.2-2.5-0.4-4.2-0.3c-9.4,0.5-21.1,9-21.1,20.6c0,11.9,8.3,20.6,20,20.6c11.2,0,18.6-7.8,25.7-14.9
						l5.6-5.7c5.3-5.4,11.7-12.2,19.6-12.2c6.8,0,11.8,5.1,11.8,12.2c0,6.5-5.3,12.2-12.2,12.2c-8.1,0-13.7-7.2-19.2-12.2l-5.6,5.7
						c6.7,6.7,14.3,14.9,24.6,14.9c12.2,0,21.1-9.6,21.1-20.6c0-11.9-8.2-20.6-20-20.6c-11.2,0-18.6,7.8-25.7,14.9l-5.6,5.7
						c-5.3,5.4-11.7,12.2-19.6,12.2c-6.8,0-11.8-5.1-11.8-12.2c0-6.5,5.3-12.2,12.2-12.2C71.7,214.3,73.2,211.6,74.6,208.9z"/>
				</g>
			</g>
			<g>
				<g>
					<path d="M119.5,250.2c-10,0-17.4-7.5-24-14l-0.6-0.6l-0.4,0.4c-7,7-14.2,14.3-25.3,14.3c-11.9,0-20.5-8.9-20.5-21.1
						c0-5.4,2.6-10.7,7.2-14.8c4.1-3.7,9.5-6,14.4-6.2c1.4-0.1,2.9,0,4.4,0.3l0.7,0.1l-4.8,8.9h-0.3c-6.5,0-11.7,5.3-11.7,11.7
						c0,6.8,4.8,11.7,11.3,11.7c7.5,0,13.7-6.4,18.8-11.6l6.7-6.9c7-7,14.2-14.3,25.3-14.3c12.1,0,20.5,8.7,20.5,21.1
						C141.2,241,131.7,250.2,119.5,250.2z M95.7,234.9l0.6,0.6c6.4,6.4,13.7,13.7,23.3,13.7c11.6,0,20.6-8.8,20.6-20.1
						c0-11.8-8-20.1-19.5-20.1c-10.7,0-17.7,7.1-24.6,14l-0.7,0.7l-6,6.2c-5.2,5.3-11.6,11.9-19.5,11.9c-7.1,0-12.3-5.3-12.3-12.7
						c0-6.9,5.5-12.6,12.4-12.7l3.9-7.1c-1.1-0.2-2.3-0.3-3.4-0.2c-12.8,0.6-20.6,12.1-20.6,20.1c0,11.6,8.2,20.1,19.5,20.1
						c10.7,0,17.7-7.1,24.6-14l0.7-0.7l6-6.2c5.2-5.3,11.6-11.9,19.5-11.9c7.1,0,12.3,5.3,12.3,12.7c0,7-5.7,12.7-12.7,12.7
						c-6.9,0-12.1-5.1-16.7-9.7c-0.8-0.8-1.6-1.6-2.4-2.3L95.7,234.9z M101.2,229.2c0.8,0.8,1.6,1.5,2.4,2.3c4.7,4.6,9.5,9.4,16,9.4
						c6.5,0,11.7-5.3,11.7-11.7c0-6.8-4.8-11.7-11.3-11.7c-7.5,0-13.7,6.4-18.8,11.6L101.2,229.2z"/>
				</g>
			</g>
		</g>
		<g>
			<g>
				<g>
					<path class="st2" d="M83.9,219.4"/>
				</g>
			</g>
		</g>
	</g>
	<g id="coding_back-slash_1_">
		<g>
			<g>
				<g>
					<polyline class="st0" points="78.4,210.9 73.6,212.2 74.9,217 					"/>
					<polygon points="74.4,217.1 73,211.8 78.3,210.4 78.5,211.4 74.2,212.5 75.4,216.8 					"/>
				</g>
			</g>
			<g>
				<g>
					<polygon points="74.4,217.1 73.1,211.9 78.3,210.5 78.5,211.3 74.1,212.5 75.3,216.8 					"/>
					<polygon points="74.1,217.7 72.5,211.5 78.6,209.9 79.1,211.7 74.7,212.8 75.9,217.2 					"/>
				</g>
			</g>
		</g>
		<g>
			<g>
				<g>
					<polyline class="st0" points="91.8,220 92.8,224.8 87.9,225.8 					"/>
					<polygon points="88,226.3 87.8,225.3 92.2,224.4 91.3,220.1 92.3,219.9 93.4,225.2 					"/>
				</g>
			</g>
			<g>
				<g>
					<polygon points="88,226.3 87.8,225.4 92.3,224.5 91.3,220.1 92.2,219.9 93.3,225.2 					"/>
					<polygon points="87.6,226.9 87.2,225 91.7,224.1 90.8,219.7 92.6,219.3 93.9,225.6 					"/>
				</g>
			</g>
		</g>
		<g>
			<g>
				<g>
					<rect x="71" y="217.6" transform="matrix(0.6428 -0.766 0.766 0.6428 -137.4203 141.6735)" width="24.4" height="1.1"/>
					<path d="M75.9,228.6l-1.6-1.4l16.3-19.5l1.6,1.4L75.9,228.6z M75.6,227.1L75.6,227.1l15.1-17.8l-0.1-0.1L75.6,227.1z"/>
				</g>
			</g>
			<g>
				<g>
					<path d="M75.8,228.5l-1.5-1.3l16.2-19.4l1.5,1.3L75.8,228.5z M75.5,227.1l0.2,0.2l15.1-18l-0.2-0.2L75.5,227.1z"/>
					<rect x="70.1" y="216.7" transform="matrix(0.6429 -0.7659 0.7659 0.6429 -137.4057 141.6317)" width="26.3" height="3"/>
				</g>
			</g>
		</g>
	</g>
</g>
<g id="logo_03">
	<g>
		<g>
			<circle cx="90.3" cy="360" r="52.4"/>
		</g>
		<g>
			<path d="M90.3,412.5c-29,0-52.5-23.6-52.5-52.5s23.6-52.5,52.5-52.5s52.5,23.6,52.5,52.5S119.2,412.5,90.3,412.5z M90.3,307.8
				c-28.8,0-52.2,23.4-52.2,52.2c0,28.8,23.4,52.2,52.2,52.2s52.2-23.4,52.2-52.2C142.5,331.2,119.1,307.8,90.3,307.8z"/>
		</g>
	</g>
	<g>
		<g>
			<path class="st0" d="M79.2,398.4L61,355.5l0.3-0.3c-2.3-0.2-4.4-0.9-6-2.3c-3.3-2.7-3.6-10.2-3.5-18l0-0.5l4.4-5.5l-0.1,4.4
				c-0.1,7.1,2.2,11.5,4.4,13.3c1.7,1.4,4.3,1.9,7,1.4l7.8-9l0-0.1c-0.4-0.3-0.7-0.8-0.8-1.4c-0.1-0.8,0.3-1.6,1.1-2.2
				c1.1-0.8,2.4-0.9,3.7-0.9c2.5,0,5.2,0.4,7.7,0.9c0-0.4-0.1-0.8-0.3-1.2c-0.4-0.8-1-1.5-2-2.3l-0.6-0.5l0-0.7
				c0-0.5,0.3-1.9,2.5-2.7c3.5-1.3,10.5-0.7,10.5,2.7v0.7l-0.6,0.5c-1.1,0.8-1.8,1.6-2.1,2.4c-0.2,0.4-0.2,0.8-0.2,1.1l8.8-1.2
				c0.8-0.1,2.2-0.3,3.3,0.5c0.8,0.6,1.2,1.6,1.1,2.6c-0.1,0.4-0.2,0.8-0.5,1.2l0,0.6l7.7,8.8c2.7,0.5,5.2,0,7-1.4
				c2.2-1.8,4.5-6.3,4.4-13.3l-0.1-4.4l4.4,5.5l0,0.5c0.1,7.7-0.2,15.2-3.5,18c-1.6,1.4-3.7,2.1-6,2.3l0.3,0.3l-18.1,42.9v-44.3
				l-10.3,8.8v6.7H96l-5.7,9.9l-5.7-9.9h3.8v-6.7l-9.3-8.2V398.4z M64.5,356.1l11.6,27.5V348l14.3,12.7l15.3-13v36l11.6-27.5
				L113,351l4.4,1c2.8,0.6,5.5,0.1,7.3-1.4c1.2-1,1.8-3.7,2.1-6.6c-0.9,2-2.1,3.7-3.5,4.9c-2.6,2.1-6.2,2.8-10,1.9l-0.5-0.1
				l-9.1-10.5l0.1-3c-0.1,0-0.3,0-0.5,0.1l-9.7,1.3c-0.1,0-0.3,0-0.4,0.1l-1,0.1l-0.5-0.9c-0.7-1.5-0.8-3.1-0.2-4.6
				c0.3-0.9,0.9-1.7,1.7-2.5c-0.6-0.2-1.5-0.3-2.7-0.3c-1,0-2,0.1-2.7,0.3c0.6,0.7,1.1,1.4,1.5,2.1c0.8,1.6,0.8,3.2,0.2,4.8
				l-0.4,1.1l-1.1-0.1c-0.5-0.1-1.1-0.2-1.5-0.3c-2.2-0.5-5-0.9-7.3-0.9c-0.3,0-0.6,0-0.9,0l-0.1,2.7l-9.1,10.5l-0.5,0.1
				c-3.8,0.9-7.5,0.2-10-1.9c-1.4-1.2-2.6-2.9-3.5-4.9c0.3,2.9,0.9,5.6,2.1,6.6c1.8,1.5,4.5,2,7.3,1.4l4.4-1L64.5,356.1z
				 M89.8,372.6l0.5,0.9l0.5-0.9H89.8z"/>
			<path class="st0" d="M79.4,399.6l-18.7-44.2l0,0c-2.2-0.2-4.1-1-5.7-2.3c-3.4-2.8-3.7-10.4-3.6-18.2l0-0.6l4.9-6.2l-0.1,5.2
				c-0.1,7,2.1,11.3,4.3,13.1c1.7,1.4,4.1,1.9,6.7,1.4l7.6-8.8c-0.4-0.4-0.7-0.9-0.8-1.4c-0.1-0.9,0.3-1.8,1.2-2.4
				c1.2-0.9,2.6-0.9,3.8-0.9c2.4,0,5,0.4,7.4,0.9c0-0.3-0.1-0.5-0.3-0.8c-0.4-0.7-1-1.5-1.9-2.2l-0.7-0.5l0-0.9
				c0-0.6,0.3-2.1,2.6-2.9c2.7-1,7.3-0.9,9.6,0.7c0.8,0.6,1.3,1.3,1.3,2.2v0.9l-0.7,0.5c-1,0.8-1.7,1.6-2,2.3
				c-0.1,0.3-0.2,0.5-0.2,0.8l8.6-1.1c0.8-0.1,2.3-0.3,3.5,0.6c0.9,0.6,1.3,1.7,1.2,2.8c-0.1,0.4-0.2,0.9-0.5,1.2l0,0.4l7.5,8.7
				c2.6,0.5,5,0,6.7-1.4c2.2-1.8,4.4-6.2,4.3-13.1l-0.1-5.2l4.9,6.2l0,0.6c0.1,7.8-0.2,15.4-3.6,18.2c-1.5,1.3-3.5,2.1-5.7,2.3l0,0
				l-18.7,44.2v-44.9l-9.8,8.4v6.3h3.8L90.3,380l-6.1-10.6h4V363l-8.8-7.8V399.6z M61.3,355.6l17.6,41.6v-43.1l9.8,8.7v7.1H85
				l5.3,9.1l5.3-9.1h-3.4v-7l10.8-9.2v43.6l17.6-41.6l-0.5-0.6l0.5,0c2.3-0.2,4.3-0.9,5.9-2.2c3.2-2.7,3.5-10.1,3.4-17.8l0-0.4
				l-3.9-4.9l0.1,3.7c0.1,7.1-2.2,11.7-4.5,13.5c-1.8,1.5-4.4,2-7.2,1.5l-0.1,0l-0.1-0.1l-7.7-8.9l0-0.8l0.1-0.1
				c0.2-0.3,0.4-0.6,0.4-1c0.1-0.9-0.2-1.8-1-2.3c-1.1-0.8-2.4-0.6-3.1-0.5l-9.1,1.2l0-0.3c0-0.4,0-0.8,0.2-1.3
				c0.3-0.8,1.1-1.7,2.2-2.5l0.5-0.4v-0.6c0-0.7-0.4-1.3-1.1-1.8c-2.1-1.5-6.6-1.5-9.1-0.6c-2.1,0.7-2.3,1.9-2.3,2.4l0,0.6l0.5,0.4
				c1,0.8,1.7,1.6,2.1,2.4c0.2,0.4,0.3,0.9,0.4,1.3l0,0.3l-0.3-0.1c-2.4-0.5-5.2-0.9-7.6-0.9c-1.2,0-2.5,0-3.5,0.8
				c-0.7,0.5-1.1,1.2-1,2c0.1,0.5,0.3,0.9,0.7,1.2l0.1,0.1l0,0.3l-7.9,9.1l-0.1,0c-2.8,0.5-5.4,0-7.2-1.5c-2.2-1.9-4.6-6.4-4.5-13.5
				l0.1-3.7l-3.9,4.9l0,0.4c-0.1,7.7,0.2,15.1,3.4,17.8c1.6,1.3,3.6,2.1,5.9,2.2l0.5,0L61.3,355.6z M76.4,384.8L64.2,356l4-4.6
				l-3.7,0.8c-2.9,0.6-5.7,0.1-7.5-1.4c-1.1-0.9-1.9-3.2-2.2-6.7l-0.2-1.6l0.6,1.5c0.9,2,2.1,3.7,3.5,4.8c2.5,2.1,6.1,2.8,9.8,1.9
				l0.4-0.1l9-10.4l0.1-2.8l0.2,0c0.3,0,0.5,0,0.9,0c2.3,0,5,0.4,7.3,0.9c0.5,0.1,0.9,0.2,1.5,0.3l1,0.1l0.3-0.9
				c0.6-1.5,0.5-3.1-0.2-4.6c-0.3-0.7-0.8-1.4-1.4-2l-0.3-0.3l0.4-0.1c0.8-0.2,1.8-0.4,2.8-0.4c1.3,0,2.2,0.2,2.7,0.3l0.4,0.1
				l-0.3,0.3c-0.7,0.8-1.3,1.6-1.6,2.4c-0.6,1.4-0.5,2.9,0.2,4.4l0.4,0.8l0.9-0.1c0.1,0,0.3,0,0.4-0.1l9.7-1.3c0.2,0,0.4,0,0.5-0.1
				l0.3,0l-0.1,3.2l9,10.3l0.4,0.1c3.7,0.9,7.3,0.2,9.8-1.9c1.4-1.2,2.6-2.8,3.5-4.8l0.6-1.5l-0.2,1.6c-0.4,3.5-1.1,5.8-2.2,6.7
				c-1.9,1.5-4.6,2.1-7.5,1.4l-3.7-0.8l4,4.6l-12.2,28.8v-36.7l-15,12.8l-14.1-12.5V384.8z M64.8,356.1l11.1,26.3v-35l14.6,12.9
				l15.5-13.2v35.3l11.1-26.2l-13.6-15.7l0.1-2.8c-0.1,0-0.1,0-0.2,0l-9.7,1.3c-0.1,0-0.3,0-0.4,0.1l-1.2,0.1l-0.5-1.1
				c-0.8-1.6-0.8-3.2-0.2-4.8c0.3-0.8,0.8-1.5,1.4-2.2c-0.5-0.1-1.3-0.2-2.2-0.2c-0.8,0-1.6,0.1-2.2,0.2c0.5,0.6,0.9,1.2,1.2,1.8
				c0.8,1.6,0.9,3.4,0.2,5l-0.5,1.3l-1.3-0.2c-0.5-0.1-1-0.2-1.5-0.3c-2.2-0.5-4.9-0.8-7.2-0.9c-0.2,0-0.5,0-0.6,0l0,2.5l-8.9,10.2
				h0L64.8,356.1z M55.5,345.5c0.4,2.6,1,4.2,1.9,4.9c1.7,1.4,4.3,1.9,7.1,1.3l0.9-0.2c-2.6,0-5.1-0.8-6.9-2.4
				C57.3,348.2,56.3,347,55.5,345.5z M116.6,351.5l0.9,0.2c2.8,0.6,5.4,0.1,7.1-1.3c0.9-0.7,1.5-2.4,1.9-4.9c-0.8,1.5-1.8,2.7-3,3.7
				C121.6,350.7,119.2,351.5,116.6,351.5z M90.3,374l-1-1.6h1.9L90.3,374z M90.2,372.8l0.1,0.1l0.1-0.1H90.2z"/>
		</g>
	</g>
</g>
<g id="logo_04">
	<g id="hoof_front_1_">
		<polygon points="127.1,538.8 123.4,534.3 118.2,538.6 121.4,542.4 119.9,543.3 120.4,554.7 127.9,550.1 127.4,539.7 127.7,539.5 
			127.4,539.2 127.4,538.7 		"/>
		<path d="M120.2,555.1l-0.5-11.9l1.4-0.9l-3.1-3.8l5.5-4.6l3.7,4.5l0.4-0.3l0,0.8l0.4,0.4l-0.3,0.3l0.5,10.4L120.2,555.1z
			 M120.1,543.5l0.5,10.9l7.1-4.4l-0.5-10.4l0.2-0.1l-0.2-0.2l0-0.2l-0.1,0.1l-3.7-4.5l-4.8,4l3.2,3.9L120.1,543.5z"/>
	</g>
	<g id="hoof_front">
		<polygon points="130,521.4 124.4,519.8 122.6,526.3 127.4,527.6 126.7,529.2 133.8,538.2 137.2,530.1 130.8,521.9 130.8,521.6 
			130.4,521.5 130.1,521.1 		"/>
		<path d="M133.8,538.7l-7.3-9.4l0.6-1.5l-4.8-1.3l1.9-6.9l5.7,1.5l0.2-0.4l0.5,0.6l0.6,0.1l-0.1,0.4l6.4,8.2L133.8,538.7z
			 M127,529.2l6.7,8.6l3.2-7.7l-6.4-8.2l0.1-0.2l-0.3-0.1l-0.1-0.1l0,0.1l-5.6-1.5l-1.6,6.1l4.8,1.3L127,529.2z"/>
	</g>
	<g id="hooves_back">
		<polygon points="73.4,550.8 66.8,549.8 66,554.7 64.3,554.2 59.9,558.6 60.2,557.6 53.7,555.8 52.4,560.6 50.8,559.9 41.8,566.9 
			49.9,570.3 58.1,564 58.4,564.1 58.5,563.7 58.9,563.4 58.6,563.3 58.7,563 64.7,564.7 72.1,557.4 72.4,557.4 72.5,557 
			72.8,556.7 72.5,556.6 		"/>
		<path d="M49.9,570.6l-8.6-3.6l9.4-7.3l1.5,0.6l1.3-4.8l6.9,1.9l-0.1,0.4l3.9-3.8l1.6,0.5l0.7-4.9l7.1,1.1l-0.9,5.8l0.5,0.1
			l-0.6,0.5l-0.1,0.6l-0.4-0.1l-7.4,7.3l-0.1,0l-5.3-1.5l-0.6,0.4l-0.2,0.6l-0.4-0.1L49.9,570.6z M42.2,566.8l7.7,3.2l8.2-6.3
			l0.2,0.1l0.1-0.3l0.1-0.1l-0.1,0l0.2-0.7l6,1.7l7.4-7.3l0.2,0l0-0.3l0.1-0.1l-0.1,0l0.9-5.8l-6.2-0.9l-0.7,4.9l-1.8-0.5l-4.9,4.8
			l0.4-1.5l-6.1-1.7l-1.3,4.8l-1.7-0.7L42.2,566.8z"/>
	</g>
	<g id="ear_left">
		<polygon points="124.6,479.7 121.4,477.5 121.4,473.7 124.7,475.9 		"/>
		<path d="M124.7,479.9l-3.5-2.3v-4l3.6,2.3L124.7,479.9z M121.5,477.4l3.1,2.1l0.1-3.5l-3.2-2V477.4z"/>
	</g>
	<g id="ear">
		<polygon points="130.5,478.8 127.2,476.6 127.2,472.9 130.6,475 		"/>
		<path d="M130.6,479l-3.5-2.3v-4l3.6,2.3L130.6,479z M127.3,476.5l3.1,2.1l0.1-3.5l-3.2-2V476.5z"/>
	</g>
	<g id="horse-body">
		<g>
			<path d="M118.1,490.5c0.7-1.3,0.5-3-0.5-4.3l-1.1,1.2C117.4,488.3,118,489.4,118.1,490.5z"/>
			<path d="M118.1,491.1l-0.1-0.5c-0.2-1.1-0.7-2.2-1.5-3l-0.1-0.1l1.3-1.5l0.1,0.2c1,1.3,1.2,3.1,0.5,4.5L118.1,491.1z
				 M116.8,487.4c0.7,0.7,1.1,1.6,1.4,2.5c0.4-1.1,0.2-2.4-0.6-3.4L116.8,487.4z"/>
		</g>
		<g>
			<path d="M114.4,495.7c0.8-1.5,0.4-3.5-0.9-4.8l-1.1,1.2c0.1,0.1,0.1,0.1,0.2,0.2C113.6,493.3,114.2,494.5,114.4,495.7z"/>
			<path d="M114.3,496.3l-0.1-0.5c-0.2-1.2-0.8-2.4-1.8-3.3c0,0-0.1-0.1-0.1-0.1l-0.2-0.2l1.3-1.5l0.1,0.1c1.4,1.3,1.8,3.4,1,5
				L114.3,496.3z M112.6,492.1C112.6,492.2,112.6,492.2,112.6,492.1c0.9,0.8,1.6,1.9,1.9,3c0.4-1.3,0.1-2.9-1-3.9L112.6,492.1z"/>
		</g>
		<g>
			<path d="M115.5,488.6l-1.1,1.2c1,0.9,1.6,2.1,1.8,3.3C117,491.7,116.7,489.9,115.5,488.6z"/>
			<path d="M116.2,493.7l-0.1-0.5c-0.2-1.2-0.8-2.4-1.7-3.2l-0.1-0.1l1.3-1.5l0.1,0.1c1.2,1.3,1.5,3.2,0.7,4.7L116.2,493.7z
				 M114.7,489.8c0.8,0.8,1.3,1.7,1.6,2.8c0.4-1.2,0.1-2.6-0.8-3.7L114.7,489.8z"/>
		</g>
		<g>
			<path d="M115.2,524.3l7.5,9.1l-5.2,4.3l-8.3-10.1l0.7-0.5l-34.5,10.5l-1.8,12.1l-6.6-1l0.8-5.1c-1.2,0.6-2.5,0.9-3.8,0.9l-3.3,12
				l-6.5-1.8l3.4-12.1c-3.9-2.7-6.6-7.9-6.6-13.9c0-4.2,1.3-8,3.4-10.8l-19.9-0.1l9.4-12.5l9.8,9.8l-0.1-0.3l39.1-11.9
				c5.5,0.7,11.9,1.1,18.8,1.1c3.9,0,7.6-0.1,11-0.4l-2.3,2.6l-8.2,9.1l0.4,1.2l11.1,3l-1.7,6.5L115.2,524.3z"/>
			<path d="M60.6,556.7l-6.8-1.9l3.4-12.2c-4-2.8-6.6-8.1-6.6-13.9c0-3.9,1.2-7.7,3.3-10.6L33.9,518l9.8-12.9l9.6,9.6l0.1,0
				l39.1-11.9l0,0c5.6,0.7,12.1,1.1,18.7,1.1c3.8,0,7.5-0.1,11-0.4l0.4,0L112,515.4l0.3,1l11.1,3l-1.8,6.8l-6-1.6l7.3,8.8l-5.4,4.5
				l-8.5-10.3l0.1-0.1l-33.6,10.2l-1.8,12.1l-7-1l0.7-5c-1.1,0.5-2.3,0.7-3.5,0.8L60.6,556.7z M54.2,554.6l6.1,1.7l3.3-12l0.1,0
				c1.3-0.1,2.6-0.4,3.8-0.9l0.3-0.1l-0.8,5.3l6.3,0.9l1.8-12l0.1,0l35.3-10.7l-1.2,1l8.1,9.8l4.9-4.1l-7.8-9.4l6.7,1.8l1.7-6.2
				l-11-3l-0.4-1.4l0.1-0.1l10.2-11.3c-3.4,0.2-7,0.3-10.6,0.3c-6.6,0-13.1-0.4-18.7-1.1l-38.9,11.8l0.3,0.8l-10.1-10.2l-9.1,12.1
				l19.9,0.1l-0.2,0.3c-2.2,2.9-3.4,6.7-3.4,10.7c0,5.7,2.5,11,6.5,13.7l0.1,0.1L54.2,554.6z"/>
		</g>
		<g>
			<path d="M111.3,504.3c-6.6,0-13.1-0.4-18.8-1.1c-10.9-1.4-17.4-4-17.4-6.8v-0.2h5.2v0.2c0,2,6.8,4,16.8,5.1
				c4.4,0.5,9.4,0.7,14.2,0.7c4.4,0,8.7-0.2,12.8-0.6c1.4-0.1,2.7-0.3,3.8-0.4c8.7-1.1,14.4-3,14.4-4.8v-0.2h4.1l0.7,1.4l-0.1,0.1
				c-1.6,2.3-7.8,4.3-16.8,5.5c-2.5,0.3-5.1,0.6-7.8,0.8C118.8,504.1,115,504.3,111.3,504.3z M75.4,496.5c0.3,2.5,6.8,4.9,17.1,6.3
				c5.6,0.7,12.1,1.1,18.7,1.1c3.8,0,7.5-0.1,11-0.4c2.7-0.2,5.3-0.4,7.8-0.8c8.9-1.2,14.9-3.1,16.6-5.3l-0.5-1h-3.6
				c-0.3,2-5.7,3.8-14.7,5c-1.2,0.1-2.4,0.3-3.8,0.4c-4.2,0.4-8.5,0.6-12.9,0.6c-4.9,0-9.8-0.2-14.2-0.7c-8.1-0.8-16.7-2.7-17.1-5.3
				H75.4z"/>
		</g>
		<g>
			<path d="M146.3,496.3h-3.8c0,2-5.9,3.9-14.5,5l-2.1-1.6l-1.8,2c-4,0.4-8.3,0.6-12.8,0.6c-5,0-9.9-0.3-14.2-0.7l9.5-2.9l4.8-5.4
				c0.1,0.1,0.1,0.1,0.2,0.2c1.7,1.5,1.9,4,0.5,5.6l1.1,1c0.8-0.9,1.2-2,1.3-3.1l0.6,0.5c0.8-0.9,1.2-2,1.3-3.1l0.6,0.5
				c0.8-0.9,1.2-2,1.3-3.1l0.6,0.5c1.8-2,1.8-5.1-0.1-7.2l0.6-0.7l0.1,0.1l5.3-7l14,3.3L146.3,496.3z"/>
			<path d="M111.3,502.4c-4.9,0-9.8-0.2-14.2-0.7l-0.8-0.1l10.2-3.1l4.9-5.5l0.1,0.1c0.1,0.1,0.1,0.1,0.2,0.2
				c0.8,0.8,1.4,1.8,1.5,2.9c0.1,1-0.2,2-0.9,2.8l0.9,0.8c0.7-0.8,1.1-1.8,1.2-2.9l0-0.3l0.7,0.6c0.7-0.8,1.1-1.8,1.2-2.9l0-0.3
				l0.7,0.6c0.7-0.8,1.1-1.8,1.2-2.9l0-0.3l0.7,0.6c1.6-1.9,1.6-4.9-0.2-6.9l-0.1-0.1l0.9-1l0.1,0.1l5.3-7l0.1,0l14,3.3l0,0.1
				l7.7,15.8h-3.9c-0.3,2-5.7,3.8-14.7,5l-0.1,0l-2-1.5l-1.7,1.9l-0.1,0C119.9,502.3,115.6,502.4,111.3,502.4z M97.9,501.5
				c4.2,0.4,8.8,0.6,13.3,0.6c4.3,0,8.6-0.2,12.8-0.6l1.8-2l2.1,1.6c8.7-1.1,14.3-3,14.3-4.8v-0.2h3.7l-7.4-15.2l-13.8-3.2l-5.3,7.1
				l-0.2-0.1l-0.4,0.5c1.8,2.2,1.8,5.3,0,7.4l-0.1,0.1l-0.4-0.4c-0.1,1.1-0.6,2.1-1.3,2.9l-0.1,0.1l-0.4-0.4
				c-0.2,1.1-0.6,2.1-1.3,2.9l-0.1,0.1l-0.4-0.4c-0.2,1.1-0.6,2.1-1.3,2.9l-0.1,0.1l-1.4-1.3l0.1-0.1c0.7-0.7,1-1.7,0.9-2.7
				c-0.1-1-0.6-2-1.3-2.7c0,0,0,0-0.1-0.1l-4.8,5.3l0,0L97.9,501.5z"/>
		</g>
		<g>
			<path d="M149.6,503.2l-6.9,9.2l-12.5-9.4c8.8-1.2,15.1-3.1,16.7-5.4L149.6,503.2z"/>
			<path d="M142.7,512.6l-13-9.8l0.4-0.1c9-1.2,15-3.2,16.6-5.4l0.2-0.2l2.9,6l-0.1,0.1L142.7,512.6z M130.5,503l12.1,9.1l6.8-9
				l-2.6-5.3C145,500,139.1,501.9,130.5,503z"/>
		</g>
	</g>
	<g id="harness_buckle">
		
			<rect x="139" y="505.5" transform="matrix(-0.5974 0.8019 -0.8019 -0.5974 637.2435 692.2741)" class="st0" width="11.8" height="1.1"/>
		<path d="M141.8,511.3l-1.1-0.8l7.2-9.6l1.1,0.8L141.8,511.3z M141,510.5l0.7,0.6l6.9-9.3l-0.7-0.6L141,510.5z"/>
	</g>
	<g id="eye">
		<polygon class="st0" points="138.8,491.6 135.5,489.4 135.5,485.7 138.9,487.8 		"/>
		<path d="M138.9,491.8l-3.5-2.3v-4l3.6,2.3L138.9,491.8z M135.6,489.3l3.1,2.1l0.1-3.5l-3.2-2V489.3z"/>
	</g>
	<g id="saddle_top">
		
			<rect x="75.2" y="506.6" transform="matrix(0.9604 -0.2788 0.2788 0.9604 -138.2633 44.0117)" class="st0" width="20.8" height="3.1"/>
		<path d="M76,512.7l-0.9-3.2l0.1,0l20.1-5.8l0.9,3.2l-0.1,0L76,512.7z M75.3,509.7l0.8,2.7l19.8-5.7l-0.8-2.7L75.3,509.7z"/>
	</g>
	<g id="saddle_bottom">
		
			<rect x="76.5" y="511" transform="matrix(0.9604 -0.2788 0.2788 0.9604 -139.4364 44.5409)" class="st0" width="20.8" height="3.1"/>
		<path d="M77.2,517.1l-0.9-3.2l0.1,0l20.1-5.8l0.9,3.2l-0.1,0L77.2,517.1z M76.6,514l0.8,2.7l19.8-5.7l-0.8-2.7L76.6,514z"/>
	</g>
</g>
<g id="logo_05">
	<g>
		<g>
			<path d="M102,653.8c-0.6,0-1.1,0.1-1.7,0.2v-11H83.2c0-4.1-3.3-7.3-7.3-7.3s-7.3,3.3-7.3,7.3H51.4v11.6c-1-0.5-2.1-0.8-3.3-0.8
				c-4.1,0-7.3,3.3-7.3,7.3s3.3,7.3,7.3,7.3c1.2,0,2.3-0.3,3.3-0.8v11.6h17.1c0,0.1,0,0.2,0,0.2c0,4.1,3.3,7.3,7.3,7.3
				s7.3-3.3,7.3-7.3c0-0.1,0-0.2,0-0.2h17.1v-11c0.5,0.1,1.1,0.2,1.7,0.2c4.1,0,7.3-3.3,7.3-7.3S106,653.8,102,653.8z"/>
			<path d="M75.9,686.9c-4.1,0-7.4-3.3-7.4-7.4c0-0.1,0-0.1,0-0.2H51.4v-11.5c-1,0.5-2.1,0.7-3.2,0.7c-4.1,0-7.4-3.3-7.4-7.4
				c0-4.1,3.3-7.4,7.4-7.4c1.1,0,2.2,0.2,3.2,0.7v-11.5h17.1c0-4.1,3.3-7.3,7.4-7.3s7.4,3.3,7.4,7.3h17.1v11
				c0.5-0.1,1.1-0.2,1.6-0.2c4.1,0,7.4,3.3,7.4,7.4c0,4.1-3.3,7.4-7.4,7.4c-0.5,0-1.1-0.1-1.6-0.2v11H83.3c0,0.1,0,0.1,0,0.2
				C83.3,683.6,80,686.9,75.9,686.9z M51.5,679.2h17.1l0,0.1c0,0.1,0,0.1,0,0.2c0,4,3.3,7.3,7.3,7.3s7.3-3.3,7.3-7.3
				c0-0.1,0-0.1,0-0.2l0-0.1h17.1v-11l0.1,0c0.5,0.1,1.1,0.2,1.6,0.2c4,0,7.3-3.3,7.3-7.3s-3.3-7.3-7.3-7.3c-0.5,0-1.1,0.1-1.6,0.2
				l-0.1,0v-11H83.1V643c0-4-3.3-7.3-7.3-7.3s-7.3,3.3-7.3,7.3v0.1H51.5v11.6l-0.1-0.1c-1-0.5-2.1-0.8-3.2-0.8c-4,0-7.3,3.3-7.3,7.3
				s3.3,7.3,7.3,7.3c1.1,0,2.2-0.3,3.2-0.8l0.1-0.1V679.2z"/>
		</g>
		<g>
			<path d="M103.3,640l0.1,9c6.1,0.3,11,5.4,11,11.6c0,6.2-4.8,11.2-10.9,11.6l0,8.6l35.2-20.6L103.3,640z"/>
			<path d="M103.2,681.3l-0.1-9.4l0.3,0c5.9-0.4,10.6-5.4,10.6-11.3c0-6-4.7-11-10.7-11.3l-0.3,0l-0.1-9.8l36.3,20.7L103.2,681.3z
				 M103.8,672.5l0,7.8l34.4-20.1l-34.6-19.7l0,8.2c6.2,0.5,11,5.7,11,11.9C114.6,666.8,109.9,671.9,103.8,672.5z"/>
		</g>
		<g>
			<polygon class="st0" points="57.7,661.4 69.2,653.2 68.2,651.9 56,660.6 56,660.6 56,660.7 55.8,660.8 55.8,660.9 55.3,662.1 
				69,668.9 69.7,667.4 			"/>
			<path d="M69,669.1l-0.1-0.1l-13.8-6.9l0.6-1.2l-0.1-0.1l0.3-0.2l0.1-0.2l0.1,0l12.2-8.8l1.1,1.6l-0.1,0.1L58,661.4l11.9,6
				L69,669.1z M55.5,662l13.4,6.7l0.6-1.2l-12.1-6.1l11.6-8.3l-0.8-1.1L56,660.8l0,0L55.5,662z"/>
		</g>
		<g>
			<polygon class="st0" points="96.4,661.4 84.9,653.2 85.9,651.9 98.1,660.6 98.1,660.6 98.2,660.7 98.3,660.8 98.3,660.9 
				98.8,662.1 85.1,668.9 84.4,667.4 			"/>
			<path d="M85.1,669.1l-0.9-1.7l0.1-0.1l11.8-5.9l-11.4-8.2l1.1-1.6l0.1,0.1l12.1,8.7l0.1,0l0.1,0.2l0.3,0.2l-0.1,0.1l0.6,1.2
				l-0.1,0.1L85.1,669.1z M84.6,667.5l0.6,1.2l13.4-6.7l-0.6-1.1l0,0l-0.1-0.1l-12.1-8.7l-0.8,1.1l11.6,8.3L84.6,667.5z"/>
		</g>
		<g>
			<circle class="st0" cx="67.8" cy="661.3" r="1.7"/>
			<path d="M67.8,663.1c-1,0-1.9-0.8-1.9-1.9s0.8-1.9,1.9-1.9s1.9,0.8,1.9,1.9S68.8,663.1,67.8,663.1z M67.8,659.7
				c-0.9,0-1.6,0.7-1.6,1.6c0,0.9,0.7,1.6,1.6,1.6s1.6-0.7,1.6-1.6C69.4,660.4,68.7,659.7,67.8,659.7z"/>
		</g>
		<g>
			<circle class="st0" cx="77.4" cy="661.3" r="1.7"/>
			<path d="M77.4,663.1c-1,0-1.9-0.8-1.9-1.9s0.8-1.9,1.9-1.9c1,0,1.9,0.8,1.9,1.9S78.4,663.1,77.4,663.1z M77.4,659.7
				c-0.9,0-1.6,0.7-1.6,1.6c0,0.9,0.7,1.6,1.6,1.6c0.9,0,1.6-0.7,1.6-1.6C78.9,660.4,78.2,659.7,77.4,659.7z"/>
		</g>
		<g>
			<circle class="st0" cx="86.5" cy="661.3" r="1.7"/>
			<path d="M86.5,663.1c-1,0-1.9-0.8-1.9-1.9s0.8-1.9,1.9-1.9c1,0,1.9,0.8,1.9,1.9S87.5,663.1,86.5,663.1z M86.5,659.7
				c-0.9,0-1.6,0.7-1.6,1.6c0,0.9,0.7,1.6,1.6,1.6c0.9,0,1.6-0.7,1.6-1.6C88.1,660.4,87.4,659.7,86.5,659.7z"/>
		</g>
	</g>
</g>
<g id="text_descriptions_x2F_LOGO_name">
	<rect x="387.9" y="48.3" class="st1" width="215.6" height="100.8"/>
	<text id="logo1_description" transform="matrix(1 0 0 1 387.9436 55.4459)"><tspan x="0" y="0" class="st3 st4">The logo represents the union of the human brain </tspan><tspan x="0" y="12" class="st3 st4">with a power cable. It brings forward the image of </tspan><tspan x="0" y="24" class="st3 st4">how humans and the powerful creation by </tspan><tspan x="0" y="36" class="st3 st4">humans(namely the power cord symbolising </tspan><tspan x="0" y="48" class="st3 st4">everything thats driven by human invention in the </tspan><tspan x="0" y="60" class="st3 st4">modern day) co-exists. Codinson, that is about </tspan><tspan x="0" y="72" class="st3 st4">coding breathes into this concept of creating some </tspan><tspan x="0" y="84" class="st3 st4">digital wonder using human power of creation.</tspan></text>
	<g id="CODINSON-01">
		<path d="M217.8,84.9l2.5,0.8c-0.4,1.4-1,2.5-1.9,3.1s-2,1-3.4,1c-1.7,0-3.1-0.6-4.2-1.8s-1.7-2.8-1.7-4.8c0-2.1,0.6-3.8,1.7-5
			s2.6-1.8,4.4-1.8c1.6,0,2.9,0.5,3.8,1.4c0.6,0.6,1,1.3,1.3,2.4l-2.6,0.6c-0.2-0.7-0.5-1.2-1-1.6s-1.1-0.6-1.8-0.6
			c-1,0-1.7,0.3-2.3,1s-0.9,1.8-0.9,3.3c0,1.6,0.3,2.8,0.9,3.5s1.3,1,2.3,1c0.7,0,1.3-0.2,1.8-0.7S217.5,85.9,217.8,84.9z"/>
		<path d="M222,83.3c0-1.3,0.2-2.4,0.6-3.3c0.3-0.7,0.7-1.2,1.2-1.8s1.1-0.9,1.7-1.2c0.8-0.3,1.7-0.5,2.8-0.5c1.9,0,3.4,0.6,4.6,1.8
			s1.7,2.8,1.7,4.9c0,2.1-0.6,3.7-1.7,4.9s-2.6,1.8-4.5,1.8c-1.9,0-3.4-0.6-4.6-1.8S222,85.4,222,83.3z M224.7,83.2
			c0,1.5,0.3,2.6,1,3.3s1.5,1.1,2.6,1.1s1.9-0.4,2.6-1.1s1-1.9,1-3.4c0-1.5-0.3-2.6-1-3.3s-1.5-1.1-2.6-1.1s-1.9,0.4-2.6,1.1
			S224.7,81.7,224.7,83.2z"/>
		<path d="M236.5,76.8h4.8c1.1,0,1.9,0.1,2.5,0.2c0.8,0.2,1.4,0.6,1.9,1.2s0.9,1.3,1.2,2.1s0.4,1.8,0.4,3c0,1.1-0.1,2-0.4,2.7
			c-0.3,0.9-0.8,1.7-1.4,2.3c-0.5,0.4-1.1,0.8-1.8,1c-0.6,0.2-1.3,0.3-2.3,0.3h-4.9V76.8z M239.1,79v8.5h1.9c0.7,0,1.3,0,1.6-0.1
			c0.4-0.1,0.8-0.3,1.1-0.5s0.5-0.7,0.7-1.2s0.3-1.4,0.3-2.4s-0.1-1.8-0.3-2.3s-0.4-0.9-0.7-1.2s-0.7-0.5-1.2-0.6
			c-0.4-0.1-1.1-0.1-2.1-0.1H239.1z"/>
		<path d="M249.4,89.7V76.8h2.6v12.9H249.4z"/>
		<path d="M254.5,89.7V76.8h2.5l5.3,8.6v-8.6h2.4v12.9h-2.6l-5.2-8.4v8.4H254.5z"/>
		<path d="M266.9,85.5l2.5-0.2c0.2,0.8,0.5,1.5,0.9,1.9s1.1,0.6,1.9,0.6c0.8,0,1.5-0.2,1.9-0.5s0.6-0.8,0.6-1.2
			c0-0.3-0.1-0.6-0.3-0.8s-0.5-0.4-0.9-0.6c-0.3-0.1-1-0.3-2.1-0.6c-1.4-0.3-2.4-0.8-2.9-1.3c-0.8-0.7-1.2-1.6-1.2-2.6
			c0-0.7,0.2-1.3,0.6-1.8s0.9-1,1.6-1.3s1.5-0.4,2.5-0.4c1.6,0,2.8,0.4,3.7,1.1s1.2,1.7,1.3,2.8l-2.6,0.1c-0.1-0.7-0.4-1.1-0.7-1.4
			s-0.9-0.4-1.6-0.4c-0.8,0-1.3,0.2-1.8,0.5c-0.3,0.2-0.4,0.5-0.4,0.8c0,0.3,0.1,0.6,0.4,0.8c0.3,0.3,1.1,0.6,2.4,0.9
			s2.2,0.6,2.8,0.9s1.1,0.8,1.4,1.3s0.5,1.2,0.5,2.1c0,0.7-0.2,1.4-0.6,2.1s-1,1.1-1.7,1.4s-1.7,0.5-2.8,0.5c-1.6,0-2.9-0.4-3.8-1.1
			S267,86.9,266.9,85.5z"/>
		<path d="M279,83.3c0-1.3,0.2-2.4,0.6-3.3c0.3-0.7,0.7-1.2,1.2-1.8s1.1-0.9,1.7-1.2c0.8-0.3,1.7-0.5,2.8-0.5c1.9,0,3.4,0.6,4.6,1.8
			s1.7,2.8,1.7,4.9c0,2.1-0.6,3.7-1.7,4.9s-2.6,1.8-4.5,1.8c-1.9,0-3.4-0.6-4.6-1.8S279,85.4,279,83.3z M281.7,83.2
			c0,1.5,0.3,2.6,1,3.3s1.5,1.1,2.6,1.1s1.9-0.4,2.6-1.1s1-1.9,1-3.4c0-1.5-0.3-2.6-1-3.3s-1.5-1.1-2.6-1.1s-1.9,0.4-2.6,1.1
			S281.7,81.7,281.7,83.2z"/>
		<path d="M293.6,89.7V76.8h2.5l5.3,8.6v-8.6h2.4v12.9h-2.6l-5.2-8.4v8.4H293.6z"/>
	</g>
	<g id="CODINSON-02">
		<path d="M217.8,223.3l2.5,0.8c-0.4,1.4-1,2.5-1.9,3.1s-2,1-3.4,1c-1.7,0-3.1-0.6-4.2-1.8s-1.7-2.8-1.7-4.8c0-2.1,0.6-3.8,1.7-5
			s2.6-1.8,4.4-1.8c1.6,0,2.9,0.5,3.8,1.4c0.6,0.6,1,1.3,1.3,2.4l-2.6,0.6c-0.2-0.7-0.5-1.2-1-1.6s-1.1-0.6-1.8-0.6
			c-1,0-1.7,0.3-2.3,1s-0.9,1.8-0.9,3.3c0,1.6,0.3,2.8,0.9,3.5s1.3,1,2.3,1c0.7,0,1.3-0.2,1.8-0.7S217.5,224.2,217.8,223.3z"/>
		<path d="M222,221.6c0-1.3,0.2-2.4,0.6-3.3c0.3-0.7,0.7-1.2,1.2-1.8s1.1-0.9,1.7-1.2c0.8-0.3,1.7-0.5,2.8-0.5
			c1.9,0,3.4,0.6,4.6,1.8s1.7,2.8,1.7,4.9c0,2.1-0.6,3.7-1.7,4.9s-2.6,1.8-4.5,1.8c-1.9,0-3.4-0.6-4.6-1.8S222,223.7,222,221.6z
			 M224.7,221.5c0,1.5,0.3,2.6,1,3.3s1.5,1.1,2.6,1.1s1.9-0.4,2.6-1.1s1-1.9,1-3.4c0-1.5-0.3-2.6-1-3.3s-1.5-1.1-2.6-1.1
			s-1.9,0.4-2.6,1.1S224.7,220.1,224.7,221.5z"/>
		<path d="M236.5,215.1h4.8c1.1,0,1.9,0.1,2.5,0.2c0.8,0.2,1.4,0.6,1.9,1.2s0.9,1.3,1.2,2.1s0.4,1.8,0.4,3c0,1.1-0.1,2-0.4,2.7
			c-0.3,0.9-0.8,1.7-1.4,2.3c-0.5,0.4-1.1,0.8-1.8,1c-0.6,0.2-1.3,0.3-2.3,0.3h-4.9V215.1z M239.1,217.3v8.5h1.9
			c0.7,0,1.3,0,1.6-0.1c0.4-0.1,0.8-0.3,1.1-0.5s0.5-0.7,0.7-1.2s0.3-1.4,0.3-2.4s-0.1-1.8-0.3-2.3s-0.4-0.9-0.7-1.2
			s-0.7-0.5-1.2-0.6c-0.4-0.1-1.1-0.1-2.1-0.1H239.1z"/>
		<path d="M249.4,228v-12.9h2.6V228H249.4z"/>
		<path d="M254.5,228v-12.9h2.5l5.3,8.6v-8.6h2.4V228h-2.6l-5.2-8.4v8.4H254.5z"/>
		<path d="M266.9,223.8l2.5-0.2c0.2,0.8,0.5,1.5,0.9,1.9s1.1,0.6,1.9,0.6c0.8,0,1.5-0.2,1.9-0.5s0.6-0.8,0.6-1.2
			c0-0.3-0.1-0.6-0.3-0.8s-0.5-0.4-0.9-0.6c-0.3-0.1-1-0.3-2.1-0.6c-1.4-0.3-2.4-0.8-2.9-1.3c-0.8-0.7-1.2-1.6-1.2-2.6
			c0-0.7,0.2-1.3,0.6-1.8s0.9-1,1.6-1.3s1.5-0.4,2.5-0.4c1.6,0,2.8,0.4,3.7,1.1s1.2,1.7,1.3,2.8l-2.6,0.1c-0.1-0.7-0.4-1.1-0.7-1.4
			s-0.9-0.4-1.6-0.4c-0.8,0-1.3,0.2-1.8,0.5c-0.3,0.2-0.4,0.5-0.4,0.8c0,0.3,0.1,0.6,0.4,0.8c0.3,0.3,1.1,0.6,2.4,0.9
			s2.2,0.6,2.8,0.9s1.1,0.8,1.4,1.3s0.5,1.2,0.5,2.1c0,0.7-0.2,1.4-0.6,2.1s-1,1.1-1.7,1.4s-1.7,0.5-2.8,0.5c-1.6,0-2.9-0.4-3.8-1.1
			S267,225.2,266.9,223.8z"/>
		<path d="M279,221.6c0-1.3,0.2-2.4,0.6-3.3c0.3-0.7,0.7-1.2,1.2-1.8s1.1-0.9,1.7-1.2c0.8-0.3,1.7-0.5,2.8-0.5
			c1.9,0,3.4,0.6,4.6,1.8s1.7,2.8,1.7,4.9c0,2.1-0.6,3.7-1.7,4.9s-2.6,1.8-4.5,1.8c-1.9,0-3.4-0.6-4.6-1.8S279,223.7,279,221.6z
			 M281.7,221.5c0,1.5,0.3,2.6,1,3.3s1.5,1.1,2.6,1.1s1.9-0.4,2.6-1.1s1-1.9,1-3.4c0-1.5-0.3-2.6-1-3.3s-1.5-1.1-2.6-1.1
			s-1.9,0.4-2.6,1.1S281.7,220.1,281.7,221.5z"/>
		<path d="M293.6,228v-12.9h2.5l5.3,8.6v-8.6h2.4V228h-2.6l-5.2-8.4v8.4H293.6z"/>
	</g>
	<g id="CODINSON-03">
		<path d="M217.8,352.3l2.5,0.8c-0.4,1.4-1,2.5-1.9,3.1s-2,1-3.4,1c-1.7,0-3.1-0.6-4.2-1.8s-1.7-2.8-1.7-4.8c0-2.1,0.6-3.8,1.7-5
			s2.6-1.8,4.4-1.8c1.6,0,2.9,0.5,3.8,1.4c0.6,0.6,1,1.3,1.3,2.4l-2.6,0.6c-0.2-0.7-0.5-1.2-1-1.6s-1.1-0.6-1.8-0.6
			c-1,0-1.7,0.3-2.3,1s-0.9,1.8-0.9,3.3c0,1.6,0.3,2.8,0.9,3.5s1.3,1,2.3,1c0.7,0,1.3-0.2,1.8-0.7S217.5,353.3,217.8,352.3z"/>
		<path d="M222,350.7c0-1.3,0.2-2.4,0.6-3.3c0.3-0.7,0.7-1.2,1.2-1.8s1.1-0.9,1.7-1.2c0.8-0.3,1.7-0.5,2.8-0.5
			c1.9,0,3.4,0.6,4.6,1.8s1.7,2.8,1.7,4.9c0,2.1-0.6,3.7-1.7,4.9s-2.6,1.8-4.5,1.8c-1.9,0-3.4-0.6-4.6-1.8S222,352.8,222,350.7z
			 M224.7,350.6c0,1.5,0.3,2.6,1,3.3s1.5,1.1,2.6,1.1s1.9-0.4,2.6-1.1s1-1.9,1-3.4c0-1.5-0.3-2.6-1-3.3s-1.5-1.1-2.6-1.1
			s-1.9,0.4-2.6,1.1S224.7,349.1,224.7,350.6z"/>
		<path d="M236.5,344.2h4.8c1.1,0,1.9,0.1,2.5,0.2c0.8,0.2,1.4,0.6,1.9,1.2s0.9,1.3,1.2,2.1s0.4,1.8,0.4,3c0,1.1-0.1,2-0.4,2.7
			c-0.3,0.9-0.8,1.7-1.4,2.3c-0.5,0.4-1.1,0.8-1.8,1c-0.6,0.2-1.3,0.3-2.3,0.3h-4.9V344.2z M239.1,346.4v8.5h1.9
			c0.7,0,1.3,0,1.6-0.1c0.4-0.1,0.8-0.3,1.1-0.5s0.5-0.7,0.7-1.2s0.3-1.4,0.3-2.4s-0.1-1.8-0.3-2.3s-0.4-0.9-0.7-1.2
			s-0.7-0.5-1.2-0.6c-0.4-0.1-1.1-0.1-2.1-0.1H239.1z"/>
		<path d="M249.4,357.1v-12.9h2.6v12.9H249.4z"/>
		<path d="M254.5,357.1v-12.9h2.5l5.3,8.6v-8.6h2.4v12.9h-2.6l-5.2-8.4v8.4H254.5z"/>
		<path d="M266.9,352.9l2.5-0.2c0.2,0.8,0.5,1.5,0.9,1.9s1.1,0.6,1.9,0.6c0.8,0,1.5-0.2,1.9-0.5s0.6-0.8,0.6-1.2
			c0-0.3-0.1-0.6-0.3-0.8s-0.5-0.4-0.9-0.6c-0.3-0.1-1-0.3-2.1-0.6c-1.4-0.3-2.4-0.8-2.9-1.3c-0.8-0.7-1.2-1.6-1.2-2.6
			c0-0.7,0.2-1.3,0.6-1.8s0.9-1,1.6-1.3s1.5-0.4,2.5-0.4c1.6,0,2.8,0.4,3.7,1.1s1.2,1.7,1.3,2.8l-2.6,0.1c-0.1-0.7-0.4-1.1-0.7-1.4
			s-0.9-0.4-1.6-0.4c-0.8,0-1.3,0.2-1.8,0.5c-0.3,0.2-0.4,0.5-0.4,0.8c0,0.3,0.1,0.6,0.4,0.8c0.3,0.3,1.1,0.6,2.4,0.9
			s2.2,0.6,2.8,0.9s1.1,0.8,1.4,1.3s0.5,1.2,0.5,2.1c0,0.7-0.2,1.4-0.6,2.1s-1,1.1-1.7,1.4s-1.7,0.5-2.8,0.5c-1.6,0-2.9-0.4-3.8-1.1
			S267,354.3,266.9,352.9z"/>
		<path d="M279,350.7c0-1.3,0.2-2.4,0.6-3.3c0.3-0.7,0.7-1.2,1.2-1.8s1.1-0.9,1.7-1.2c0.8-0.3,1.7-0.5,2.8-0.5
			c1.9,0,3.4,0.6,4.6,1.8s1.7,2.8,1.7,4.9c0,2.1-0.6,3.7-1.7,4.9s-2.6,1.8-4.5,1.8c-1.9,0-3.4-0.6-4.6-1.8S279,352.8,279,350.7z
			 M281.7,350.6c0,1.5,0.3,2.6,1,3.3s1.5,1.1,2.6,1.1s1.9-0.4,2.6-1.1s1-1.9,1-3.4c0-1.5-0.3-2.6-1-3.3s-1.5-1.1-2.6-1.1
			s-1.9,0.4-2.6,1.1S281.7,349.1,281.7,350.6z"/>
		<path d="M293.6,357.1v-12.9h2.5l5.3,8.6v-8.6h2.4v12.9h-2.6l-5.2-8.4v8.4H293.6z"/>
	</g>
	<g id="CODINSON-04">
		<path d="M217.8,514.8l2.5,0.8c-0.4,1.4-1,2.5-1.9,3.1s-2,1-3.4,1c-1.7,0-3.1-0.6-4.2-1.8s-1.7-2.8-1.7-4.8c0-2.1,0.6-3.8,1.7-5
			s2.6-1.8,4.4-1.8c1.6,0,2.9,0.5,3.8,1.4c0.6,0.6,1,1.3,1.3,2.4l-2.6,0.6c-0.2-0.7-0.5-1.2-1-1.6s-1.1-0.6-1.8-0.6
			c-1,0-1.7,0.3-2.3,1s-0.9,1.8-0.9,3.3c0,1.6,0.3,2.8,0.9,3.5s1.3,1,2.3,1c0.7,0,1.3-0.2,1.8-0.7S217.5,515.8,217.8,514.8z"/>
		<path d="M222,513.2c0-1.3,0.2-2.4,0.6-3.3c0.3-0.7,0.7-1.2,1.2-1.8s1.1-0.9,1.7-1.2c0.8-0.3,1.7-0.5,2.8-0.5
			c1.9,0,3.4,0.6,4.6,1.8s1.7,2.8,1.7,4.9c0,2.1-0.6,3.7-1.7,4.9s-2.6,1.8-4.5,1.8c-1.9,0-3.4-0.6-4.6-1.8S222,515.3,222,513.2z
			 M224.7,513.1c0,1.5,0.3,2.6,1,3.3s1.5,1.1,2.6,1.1s1.9-0.4,2.6-1.1s1-1.9,1-3.4c0-1.5-0.3-2.6-1-3.3s-1.5-1.1-2.6-1.1
			s-1.9,0.4-2.6,1.1S224.7,511.6,224.7,513.1z"/>
		<path d="M236.5,506.7h4.8c1.1,0,1.9,0.1,2.5,0.2c0.8,0.2,1.4,0.6,1.9,1.2s0.9,1.3,1.2,2.1s0.4,1.8,0.4,3c0,1.1-0.1,2-0.4,2.7
			c-0.3,0.9-0.8,1.7-1.4,2.3c-0.5,0.4-1.1,0.8-1.8,1c-0.6,0.2-1.3,0.3-2.3,0.3h-4.9V506.7z M239.1,508.9v8.5h1.9
			c0.7,0,1.3,0,1.6-0.1c0.4-0.1,0.8-0.3,1.1-0.5s0.5-0.7,0.7-1.2s0.3-1.4,0.3-2.4s-0.1-1.8-0.3-2.3s-0.4-0.9-0.7-1.2
			s-0.7-0.5-1.2-0.6c-0.4-0.1-1.1-0.1-2.1-0.1H239.1z"/>
		<path d="M249.4,519.6v-12.9h2.6v12.9H249.4z"/>
		<path d="M254.5,519.6v-12.9h2.5l5.3,8.6v-8.6h2.4v12.9h-2.6l-5.2-8.4v8.4H254.5z"/>
		<path d="M266.9,515.4l2.5-0.2c0.2,0.8,0.5,1.5,0.9,1.9s1.1,0.6,1.9,0.6c0.8,0,1.5-0.2,1.9-0.5s0.6-0.8,0.6-1.2
			c0-0.3-0.1-0.6-0.3-0.8s-0.5-0.4-0.9-0.6c-0.3-0.1-1-0.3-2.1-0.6c-1.4-0.3-2.4-0.8-2.9-1.3c-0.8-0.7-1.2-1.6-1.2-2.6
			c0-0.7,0.2-1.3,0.6-1.8s0.9-1,1.6-1.3s1.5-0.4,2.5-0.4c1.6,0,2.8,0.4,3.7,1.1s1.2,1.7,1.3,2.8l-2.6,0.1c-0.1-0.7-0.4-1.1-0.7-1.4
			s-0.9-0.4-1.6-0.4c-0.8,0-1.3,0.2-1.8,0.5c-0.3,0.2-0.4,0.5-0.4,0.8c0,0.3,0.1,0.6,0.4,0.8c0.3,0.3,1.1,0.6,2.4,0.9
			s2.2,0.6,2.8,0.9s1.1,0.8,1.4,1.3s0.5,1.2,0.5,2.1c0,0.7-0.2,1.4-0.6,2.1s-1,1.1-1.7,1.4s-1.7,0.5-2.8,0.5c-1.6,0-2.9-0.4-3.8-1.1
			S267,516.8,266.9,515.4z"/>
		<path d="M279,513.2c0-1.3,0.2-2.4,0.6-3.3c0.3-0.7,0.7-1.2,1.2-1.8s1.1-0.9,1.7-1.2c0.8-0.3,1.7-0.5,2.8-0.5
			c1.9,0,3.4,0.6,4.6,1.8s1.7,2.8,1.7,4.9c0,2.1-0.6,3.7-1.7,4.9s-2.6,1.8-4.5,1.8c-1.9,0-3.4-0.6-4.6-1.8S279,515.3,279,513.2z
			 M281.7,513.1c0,1.5,0.3,2.6,1,3.3s1.5,1.1,2.6,1.1s1.9-0.4,2.6-1.1s1-1.9,1-3.4c0-1.5-0.3-2.6-1-3.3s-1.5-1.1-2.6-1.1
			s-1.9,0.4-2.6,1.1S281.7,511.6,281.7,513.1z"/>
		<path d="M293.6,519.6v-12.9h2.5l5.3,8.6v-8.6h2.4v12.9h-2.6l-5.2-8.4v8.4H293.6z"/>
	</g>
	<g id="CODINSON-05">
		<path d="M217.8,658.4l2.5,0.8c-0.4,1.4-1,2.5-1.9,3.1s-2,1-3.4,1c-1.7,0-3.1-0.6-4.2-1.8s-1.7-2.8-1.7-4.8c0-2.1,0.6-3.8,1.7-5
			s2.6-1.8,4.4-1.8c1.6,0,2.9,0.5,3.8,1.4c0.6,0.6,1,1.3,1.3,2.4l-2.6,0.6c-0.2-0.7-0.5-1.2-1-1.6s-1.1-0.6-1.8-0.6
			c-1,0-1.7,0.3-2.3,1s-0.9,1.8-0.9,3.3c0,1.6,0.3,2.8,0.9,3.5s1.3,1,2.3,1c0.7,0,1.3-0.2,1.8-0.7S217.5,659.3,217.8,658.4z"/>
		<path d="M222,656.8c0-1.3,0.2-2.4,0.6-3.3c0.3-0.7,0.7-1.2,1.2-1.8s1.1-0.9,1.7-1.2c0.8-0.3,1.7-0.5,2.8-0.5
			c1.9,0,3.4,0.6,4.6,1.8s1.7,2.8,1.7,4.9c0,2.1-0.6,3.7-1.7,4.9s-2.6,1.8-4.5,1.8c-1.9,0-3.4-0.6-4.6-1.8S222,658.8,222,656.8z
			 M224.7,656.7c0,1.5,0.3,2.6,1,3.3s1.5,1.1,2.6,1.1s1.9-0.4,2.6-1.1s1-1.9,1-3.4c0-1.5-0.3-2.6-1-3.3s-1.5-1.1-2.6-1.1
			s-1.9,0.4-2.6,1.1S224.7,655.2,224.7,656.7z"/>
		<path d="M236.5,650.2h4.8c1.1,0,1.9,0.1,2.5,0.2c0.8,0.2,1.4,0.6,1.9,1.2s0.9,1.3,1.2,2.1s0.4,1.8,0.4,3c0,1.1-0.1,2-0.4,2.7
			c-0.3,0.9-0.8,1.7-1.4,2.3c-0.5,0.4-1.1,0.8-1.8,1c-0.6,0.2-1.3,0.3-2.3,0.3h-4.9V650.2z M239.1,652.4v8.5h1.9
			c0.7,0,1.3,0,1.6-0.1c0.4-0.1,0.8-0.3,1.1-0.5s0.5-0.7,0.7-1.2s0.3-1.4,0.3-2.4s-0.1-1.8-0.3-2.3s-0.4-0.9-0.7-1.2
			s-0.7-0.5-1.2-0.6c-0.4-0.1-1.1-0.1-2.1-0.1H239.1z"/>
		<path d="M249.4,663.1v-12.9h2.6v12.9H249.4z"/>
		<path d="M254.5,663.1v-12.9h2.5l5.3,8.6v-8.6h2.4v12.9h-2.6l-5.2-8.4v8.4H254.5z"/>
		<path d="M266.9,658.9l2.5-0.2c0.2,0.8,0.5,1.5,0.9,1.9s1.1,0.6,1.9,0.6c0.8,0,1.5-0.2,1.9-0.5s0.6-0.8,0.6-1.2
			c0-0.3-0.1-0.6-0.3-0.8s-0.5-0.4-0.9-0.6c-0.3-0.1-1-0.3-2.1-0.6c-1.4-0.3-2.4-0.8-2.9-1.3c-0.8-0.7-1.2-1.6-1.2-2.6
			c0-0.7,0.2-1.3,0.6-1.8s0.9-1,1.6-1.3s1.5-0.4,2.5-0.4c1.6,0,2.8,0.4,3.7,1.1s1.2,1.7,1.3,2.8l-2.6,0.1c-0.1-0.7-0.4-1.1-0.7-1.4
			s-0.9-0.4-1.6-0.4c-0.8,0-1.3,0.2-1.8,0.5c-0.3,0.2-0.4,0.5-0.4,0.8c0,0.3,0.1,0.6,0.4,0.8c0.3,0.3,1.1,0.6,2.4,0.9
			s2.2,0.6,2.8,0.9s1.1,0.8,1.4,1.3s0.5,1.2,0.5,2.1c0,0.7-0.2,1.4-0.6,2.1s-1,1.1-1.7,1.4s-1.7,0.5-2.8,0.5c-1.6,0-2.9-0.4-3.8-1.1
			S267,660.4,266.9,658.9z"/>
		<path d="M279,656.8c0-1.3,0.2-2.4,0.6-3.3c0.3-0.7,0.7-1.2,1.2-1.8s1.1-0.9,1.7-1.2c0.8-0.3,1.7-0.5,2.8-0.5
			c1.9,0,3.4,0.6,4.6,1.8s1.7,2.8,1.7,4.9c0,2.1-0.6,3.7-1.7,4.9s-2.6,1.8-4.5,1.8c-1.9,0-3.4-0.6-4.6-1.8S279,658.8,279,656.8z
			 M281.7,656.7c0,1.5,0.3,2.6,1,3.3s1.5,1.1,2.6,1.1s1.9-0.4,2.6-1.1s1-1.9,1-3.4c0-1.5-0.3-2.6-1-3.3s-1.5-1.1-2.6-1.1
			s-1.9,0.4-2.6,1.1S281.7,655.2,281.7,656.7z"/>
		<path d="M293.6,663.1v-12.9h2.5l5.3,8.6v-8.6h2.4v12.9h-2.6l-5.2-8.4v8.4H293.6z"/>
	</g>
	<rect x="387.3" y="188" class="st1" width="183.3" height="90.4"/>
	<text id="logo2_description" transform="matrix(1 0 0 1 387.2822 195.085)"><tspan x="0" y="0" class="st3 st4">The logo has the infinity loop as the basic </tspan><tspan x="0" y="12" class="st3 st4">symbol that connects at the end with the </tspan><tspan x="0" y="24" class="st3 st4">basic symbol of a code &lt;/&gt;. It deals with the </tspan><tspan x="0" y="36" class="st3 st4">concept that the possibilities of coding are </tspan><tspan x="0" y="48" class="st3 st4">infinite. With Codinson, people can start </tspan><tspan x="0" y="60" class="st3 st4">exploring through the infinite possibility at </tspan><tspan x="0" y="72" class="st3 st4">the grassroot level.</tspan></text>
	<rect x="387.3" y="314.8" class="st1" width="183.3" height="123.2"/>
	<text id="logo3_description" transform="matrix(1 0 0 1 387.2822 321.9241)"><tspan x="0" y="0" class="st3 st4">The name Codinson, dwells in the pun of </tspan><tspan x="0" y="12" class="st3 st4">Odin with Coding. It plays with the word </tspan><tspan x="0" y="24" class="st3 st4">Odin-son and Coding. Odin was the Norse </tspan><tspan x="0" y="36" class="st3 st4">God associated with Knowlege and wisdom </tspan><tspan x="0" y="48" class="st3 st4">among other things. Codinson iterates the </tspan><tspan x="0" y="60" class="st3 st4">knowledge of coding. This logo is in the </tspan><tspan x="0" y="72" class="st3 st4">shape of the war helmet of Odin. Also, it is  </tspan><tspan x="0" y="84" class="st3 st4">made with elements of Coding. Made with </tspan><tspan x="0" y="96" class="st3 st4"> / ,  \ , the {  and also the ( and ). These </tspan><tspan x="0" y="108" class="st3 st4">are inseparable parts of Coding</tspan></text>
	<rect x="387.3" y="474.5" class="st1" width="178.7" height="110.6"/>
	<text id="logo4_description" transform="matrix(1 0 0 1 387.2822 481.5689)"><tspan x="0" y="0" class="st3 st4">The horse logo for Codinson deals with the </tspan><tspan x="0" y="12" class="st3 st4">geometric shapes that constitute the form </tspan><tspan x="0" y="24" class="st3 st4">of the horse. This logo is a symbol of being </tspan><tspan x="0" y="36" class="st3 st4">ready to go ahead, a symbol of power and </tspan><tspan x="0" y="48" class="st3 st4">energy. It says get ready to go on for a </tspan><tspan x="0" y="60" class="st3 st4">coding adventure trip. It symbolioses the </tspan><tspan x="0" y="72" class="st3 st4">strength and power that coding gives to </tspan><tspan x="0" y="84" class="st3 st4">create something new and extraordinary.</tspan></text>
	<rect x="387.3" y="611.6" class="st1" width="178.7" height="127.2"/>
	<text id="logo5_description" transform="matrix(1 0 0 1 387.2822 618.6859)"><tspan x="0" y="0" class="st3 st4">This logo shows a zigsaw-puzzle block that </tspan><tspan x="0" y="12" class="st3 st4">fits into a forward arrow-head. It also has a </tspan><tspan x="0" y="24" class="st3 st4">&lt;...&gt; sign inside the block  representing all </tspan><tspan x="0" y="36" class="st3 st4">that we can code (within the &lt;&gt;). So, this </tspan><tspan x="0" y="48" class="st3 st4">logo basically tells that coding might look </tspan><tspan x="0" y="60" class="st3 st4">like a puzzle that leads to your future(the </tspan><tspan x="0" y="72" class="st3 st4">arrowhead) prospects. Codinson helps to </tspan><tspan x="0" y="84" class="st3 st4">solve the puzzle, teach coding so that you </tspan><tspan x="0" y="96" class="st3 st4">can seamlessly transition into a world of </tspan><tspan x="0" y="108" class="st3 st4">future coding experience.</tspan></text>
	<g id="first_direction_lines">
		<line class="st5" x1="311.8" y1="84.2" x2="381" y2="84.2"/>
		<line class="st5" x1="381" y1="41.8" x2="381" y2="140.8"/>
	</g>
	<g id="second_direction_lines">
		<line class="st5" x1="311.8" y1="222.1" x2="381" y2="222.1"/>
		<line class="st5" x1="381" y1="183.7" x2="381" y2="282.7"/>
	</g>
	<g id="fourth_direction_lines">
		<line class="st5" x1="311.8" y1="513.8" x2="381" y2="513.8"/>
		<line class="st5" x1="381" y1="473.5" x2="381" y2="572.4"/>
	</g>
	<g id="fifth_direction_lines">
		<line class="st5" x1="311.8" y1="657" x2="381" y2="657"/>
		<line class="st5" x1="381" y1="613.6" x2="381" y2="729.6"/>
	</g>
	<g id="third_direction_lines">
		<line class="st5" x1="311.8" y1="351.9" x2="381" y2="351.9"/>
		<line class="st5" x1="381" y1="313.5" x2="381" y2="438"/>
	</g>
	<text transform="matrix(1 0 0 1 41.3429 12.5161)"><tspan x="0" y="0" class="st3 st4">Context: CODINSON is an application to learn code, that my group is working on for the group project in our Design1 class.  </tspan><tspan x="0" y="12" class="st3 st4">All the  logos here are single-handedly designed by me.</tspan></text>
</g>
</svg>
