<?xml version="1.0" encoding="utf-8"?>
<!-- Generator: Adobe Illustrator 23.0.3, SVG Export Plug-In . SVG Version: 6.00 Build 0)  -->
<svg version="1.1" id="Layer_1" xmlns="http://www.w3.org/2000/svg" xmlns:xlink="http://www.w3.org/1999/xlink" x="0px" y="0px"
	 viewBox="0 0 576 576" style="enable-background:new 0 0 576 576;" xml:space="preserve">
<style type="text/css">
	.st0{fill:none;stroke:#000000;stroke-miterlimit:10;}
	.st1{fill:none;}
	.st2{font-family:'ZillaSlab-Regular';}
	.st3{font-size:12px;}
	.st4{font-family:'ZillaSlab-Bold';}
	.st5{font-size:59px;}
</style>
<line class="st0" x1="-713.2" y1="116.4" x2="-712.4" y2="116.4"/>
<rect x="45.6" y="494.9" class="st1" width="497.5" height="49.8"/>
<text transform="matrix(1 0 0 1 49.6285 503.1137)"><tspan x="0" y="0" class="st2 st3">Beginning in 1988 when the VIFF gave out its first “Most Popular Film” prize to Some Girls, the </tspan><tspan x="-1.6" y="14.4" class="st2 st3">Festival has offered a number of awards – both adjudicated and voted on by you, the audience – </tspan><tspan x="196.9" y="28.8" class="st2 st3">to deserving films. </tspan></text>
<rect x="117.8" y="540.7" class="st1" width="353.2" height="14.8"/>
<text transform="matrix(1 0 0 1 117.758 548.9294)" class="st2 st3">For further information about the festival and the films, please visit:</text>
<rect x="225.2" y="555.5" class="st1" width="166.7" height="11.3"/>
<text transform="matrix(1 0 0 1 257.0859 563.7113)" class="st2 st3">www.viff.org/home.</text>
<text transform="matrix(1 0 0 1 233.409 48.675)" class="st4 st5">29th</text>
<rect x="153.3" y="57.9" class="st1" width="293.9" height="14.4"/>
<text transform="matrix(1 0 0 1 178.383 66.1571)" class="st2 st3">Vancouver International Film Festival presents</text>
<rect x="215.9" y="78.7" class="st1" width="168.7" height="46.5"/>
<text transform="matrix(1 0 0 1 288.3368 86.9884)"><tspan x="0" y="0" class="st2 st3">2012</tspan><tspan x="-31.8" y="14.4" class="st2 st3">Festival Winners</tspan><tspan x="-52.3" y="28.8" class="st2 st3">Audience Choice Awards</tspan></text>
<rect x="231" y="122.5" class="st1" width="138.6" height="13.5"/>
<text transform="matrix(1 0 0 1 230.9604 130.7314)" class="st2 st3">Playing July 1 - July 8, </text>
<rect x="294.4" y="155.4" class="st1" width="195.1" height="60"/>
<text transform="matrix(1 0 0 1 294.3697 163.6741)"><tspan x="0" y="0" class="st2 st3">Thomas Vintergerg</tspan><tspan x="0" y="14.4" class="st2 st3">Rogers People’s Choice Award</tspan><tspan x="0" y="34.8" class="st2 st3">THE HUNT</tspan><tspan x="0" y="49.2" class="st2 st3">Denmark/Sweden 2012 (110 min)</tspan></text>
<rect x="32.8" y="197.2" class="st1" width="241" height="65"/>
<text transform="matrix(1 0 0 1 163.2453 205.4854)"><tspan x="0" y="0" class="st2 st3">Barnaby Southcombe</tspan><tspan x="-122.1" y="14.4" class="st2 st3">VIFF Most International First Feature Award</tspan><tspan x="68.3" y="34.8" class="st2 st3">I, ANNA</tspan><tspan x="-69.1" y="49.2" class="st2 st3">UK/Germany/France 2012 (93 min)</tspan></text>
<rect y="323.5" class="st1" width="274" height="87.7"/>
<text transform="matrix(1 0 0 1 180.2342 331.7645)"><tspan x="0" y="0" class="st2 st3">Nimisha Mukherji</tspan><tspan x="-166.1" y="14.4" class="st2 st3">VIFF Most Popular Canadian Documentary Award</tspan><tspan x="-3.6" y="34.8" class="st2 st3">BLOOD RELATIVE</tspan><tspan x="-15.9" y="49.2" class="st2 st3">Canada 2012 (75 min)</tspan></text>
<rect x="294.4" y="367.3" class="st1" width="241" height="65"/>
<text transform="matrix(1 0 0 1 294.3701 375.5796)"><tspan x="0" y="0" class="st2 st3">Rob Stewart</tspan><tspan x="0" y="14.4" class="st2 st3">VIFF Environmental Film Audience Award</tspan><tspan x="0" y="34.8" class="st2 st3">REVOLUTION</tspan><tspan x="0" y="49.2" class="st2 st3">Canada 2012 (90 min)</tspan></text>
<rect x="294.4" y="261.3" class="st1" width="241" height="65"/>
<text transform="matrix(1 0 0 1 294.3701 269.6009)"><tspan x="0" y="0" class="st2 st3">Jesse James Miller</tspan><tspan x="0" y="14.4" class="st2 st3">VIFF Most Popular Canadian Film Award</tspan><tspan x="0" y="34.8" class="st2 st3">BECOMING REDWOOD</tspan><tspan x="0" y="49.2" class="st2 st3">Canada 2012 (98 min)</tspan></text>
</svg>
